<?xml version="1.0" encoding="UTF-8"?>
<!-- Created by Vectric (http://www.vectric.com/) -->
<svg width="402.38750000mm" height="402.38750000mm" viewBox="0 0 402.38750000 402.38750000" id="svg2" version="1.1" xmlns="http://www.w3.org/2000/svg" xmlns:xlink="http://www.w3.org/1999/xlink" xmlns:inkscape="http://www.inkscape.org/namespaces/inkscape">
    <g inkscape:groupmode="layer" id="85667243-1302-4a85-b3ac-c7bf39b332ec" inkscape:label="Toolpath Previews"/>
    <g inkscape:groupmode="layer" id="6f7030e6-9336-4699-af43-4487174dedb7" inkscape:label="Layer 1">
        <path style="fill:none;stroke-width:0.280000;stroke-linecap:round;stroke-linejoin:round;stroke-opacity:1;stroke:#000000;" d="M 400.800000,393.700000 C 399.923248,393.700000 399.212500,394.410748 399.212500,395.287500 C 399.212500,396.164252 399.923248,396.875000 400.800000,396.875000 C 401.676752,396.875000 402.387500,396.164252 402.387500,395.287500 C 402.387500,394.410748 401.676752,393.700000 400.800000,393.700000 "/>
        <path style="fill:none;stroke-width:0.280000;stroke-linecap:round;stroke-linejoin:round;stroke-opacity:1;stroke:#000000;" d="M 7.100000,393.700000 C 6.223248,393.700000 5.512500,394.410748 5.512500,395.287500 C 5.512500,396.164252 6.223248,396.875000 7.100000,396.875000 C 7.976752,396.875000 8.687500,396.164252 8.687500,395.287500 C 8.687500,394.410748 7.976752,393.700000 7.100000,393.700000 "/>
        <path style="fill:none;stroke-width:0.280000;stroke-linecap:round;stroke-linejoin:round;stroke-opacity:1;stroke:#000000;" d="M 7.100000,0.000000 C 6.223248,0.000000 5.512500,0.710748 5.512500,1.587500 C 5.512500,2.464252 6.223248,3.175000 7.100000,3.175000 C 7.976752,3.175000 8.687500,2.464252 8.687500,1.587500 C 8.687500,0.710748 7.976752,0.000000 7.100000,0.000000 "/>
        <path style="fill:none;stroke-width:0.280000;stroke-linecap:round;stroke-linejoin:round;stroke-opacity:1;stroke:#000000;" d="M 400.800000,0.000000 C 399.923248,0.000000 399.212500,0.710748 399.212500,1.587500 C 399.212500,2.464252 399.923248,3.175000 400.800000,3.175000 C 401.676752,3.175000 402.387500,2.464252 402.387500,1.587500 C 402.387500,0.710748 401.676752,0.000000 400.800000,0.000000 "/>
        <path style="fill:none;stroke-width:0.280000;stroke-linecap:round;stroke-linejoin:round;stroke-opacity:1;stroke:#000000;" d="M 200.750000,1.637500 A 200.000000,200.000000 0 0,0 0.750000,201.637500 A 200.000000,200.000000 0 0,0 200.750000,401.637500 A 200.000000,200.000000 0 0,0 400.750000,201.637500 A 200.000000,200.000000 0 0,0 200.750000,1.637500 "/>
        <path style="fill:none;stroke-width:0.280000;stroke-linecap:round;stroke-linejoin:round;stroke-opacity:1;stroke:#000000;" d="M 200.750000,0.887500 A 200.750000,200.750000 0 0,0 0.000000,201.637500 A 200.750000,200.750000 0 0,0 200.750000,402.387500 A 200.750000,200.750000 0 0,0 401.500000,201.637500 A 200.750000,200.750000 0 0,0 200.750000,0.887500 "/>
        <path style="fill:none;stroke-width:0.280000;stroke-linecap:round;stroke-linejoin:round;stroke-opacity:1;stroke:#000000;" d="M 88.250000,241.637500 L 138.250000,241.637500 L 138.250000,161.637500 L 88.250000,161.637500 L 88.250000,241.637500 "/>
        <path style="fill:none;stroke-width:0.280000;stroke-linecap:round;stroke-linejoin:round;stroke-opacity:1;stroke:#000000;" d="M 170.750000,241.637500 L 220.750000,241.637500 L 220.750000,161.637500 L 170.750000,161.637500 L 170.750000,241.637500 "/>
        <path style="fill:none;stroke-width:0.280000;stroke-linecap:round;stroke-linejoin:round;stroke-opacity:1;stroke:#000000;" d="M 253.250000,241.637500 L 303.250000,241.637500 L 303.250000,161.637500 L 253.250000,161.637500 L 253.250000,241.637500 "/>
        <path style="fill:none;stroke-width:0.280000;stroke-linecap:round;stroke-linejoin:round;stroke-opacity:1;stroke:#000000;" d="M 170.750000,161.637500 L 170.750000,161.637500 L 170.750000,161.637500 L 170.750000,241.637500 L 170.750000,266.637500 L 201.750000,266.637500 L 245.750000,222.637500 L 245.750000,180.637500 L 201.750000,136.637500 L 170.750000,136.637500 L 170.750000,161.637500 "/>
        <path style="fill:none;stroke-width:0.280000;stroke-linecap:round;stroke-linejoin:round;stroke-opacity:1;stroke:#000000;" d="M 253.250000,161.637500 L 253.250000,161.637500 L 253.250000,161.637500 L 253.250000,241.637500 L 253.250000,266.637500 L 284.250000,266.637500 L 328.250000,222.637500 L 328.250000,180.637500 L 284.250000,136.637500 L 253.250000,136.637500 L 253.250000,161.637500 "/>
        <path style="fill:none;stroke-width:0.280000;stroke-linecap:round;stroke-linejoin:round;stroke-opacity:1;stroke:#000000;" d="M 105.850000,196.087500 A 5.550000,5.550000 0 0,0 100.300000,201.637500 A 5.550000,5.550000 0 0,0 105.850000,207.187500 A 5.550000,5.550000 0 0,0 111.400000,201.637500 A 5.550000,5.550000 0 0,0 105.850000,196.087500 "/>
        <path style="fill:none;stroke-width:0.280000;stroke-linecap:round;stroke-linejoin:round;stroke-opacity:1;stroke:#000000;" d="M 188.350000,196.087500 A 5.550000,5.550000 0 0,0 182.800000,201.637500 A 5.550000,5.550000 0 0,0 188.350000,207.187500 A 5.550000,5.550000 0 0,0 193.900000,201.637500 A 5.550000,5.550000 0 0,0 188.350000,196.087500 "/>
        <path style="fill:none;stroke-width:0.280000;stroke-linecap:round;stroke-linejoin:round;stroke-opacity:1;stroke:#000000;" d="M 270.850000,196.087500 A 5.550000,5.550000 0 0,0 265.300000,201.637500 A 5.550000,5.550000 0 0,0 270.850000,207.187500 A 5.550000,5.550000 0 0,0 276.400000,201.637500 A 5.550000,5.550000 0 0,0 270.850000,196.087500 "/>
        <path style="fill:none;stroke-width:0.280000;stroke-linecap:round;stroke-linejoin:round;stroke-opacity:1;stroke:#000000;" d="M 108.073000,229.037500 A 2.600000,2.600000 0 0,0 105.473000,231.637500 A 2.600000,2.600000 0 0,0 108.073000,234.237500 A 2.600000,2.600000 0 0,0 110.673000,231.637500 A 2.600000,2.600000 0 0,0 108.073000,229.037500 "/>
        <path style="fill:none;stroke-width:0.280000;stroke-linecap:round;stroke-linejoin:round;stroke-opacity:1;stroke:#000000;" d="M 108.073000,226.987500 A 4.650000,4.650000 0 0,0 103.423000,231.637500 A 4.650000,4.650000 0 0,0 108.073000,236.287500 A 4.650000,4.650000 0 0,0 112.723000,231.637500 A 4.650000,4.650000 0 0,0 108.073000,226.987500 "/>
        <path style="fill:none;stroke-width:0.280000;stroke-linecap:round;stroke-linejoin:round;stroke-opacity:1;stroke:#000000;" d="M 190.573000,226.987500 A 4.650000,4.650000 0 0,0 185.923000,231.637500 A 4.650000,4.650000 0 0,0 190.573000,236.287500 A 4.650000,4.650000 0 0,0 195.223000,231.637500 A 4.650000,4.650000 0 0,0 190.573000,226.987500 "/>
        <path style="fill:none;stroke-width:0.280000;stroke-linecap:round;stroke-linejoin:round;stroke-opacity:1;stroke:#000000;" d="M 273.173000,226.987500 A 4.650000,4.650000 0 0,0 268.523000,231.637500 A 4.650000,4.650000 0 0,0 273.173000,236.287500 A 4.650000,4.650000 0 0,0 277.823000,231.637500 A 4.650000,4.650000 0 0,0 273.173000,226.987500 "/>
        <path style="fill:none;stroke-width:0.280000;stroke-linecap:round;stroke-linejoin:round;stroke-opacity:1;stroke:#000000;" d="M 273.173000,229.037500 A 2.600000,2.600000 0 0,0 270.573000,231.637500 A 2.600000,2.600000 0 0,0 273.173000,234.237500 A 2.600000,2.600000 0 0,0 275.773000,231.637500 A 2.600000,2.600000 0 0,0 273.173000,229.037500 "/>
        <path style="fill:none;stroke-width:0.280000;stroke-linecap:round;stroke-linejoin:round;stroke-opacity:1;stroke:#000000;" d="M 190.573000,229.037500 A 2.600000,2.600000 0 0,0 187.973000,231.637500 A 2.600000,2.600000 0 0,0 190.573000,234.237500 A 2.600000,2.600000 0 0,0 193.173000,231.637500 A 2.600000,2.600000 0 0,0 190.573000,229.037500 "/>
        <path style="fill:none;stroke-width:0.280000;stroke-linecap:round;stroke-linejoin:round;stroke-opacity:1;stroke:#000000;" d="M 190.573000,169.037500 A 2.600000,2.600000 0 0,0 187.973000,171.637500 A 2.600000,2.600000 0 0,0 190.573000,174.237500 A 2.600000,2.600000 0 0,0 193.173000,171.637500 A 2.600000,2.600000 0 0,0 190.573000,169.037500 "/>
        <path style="fill:none;stroke-width:0.280000;stroke-linecap:round;stroke-linejoin:round;stroke-opacity:1;stroke:#000000;" d="M 190.573000,166.987500 A 4.650000,4.650000 0 0,0 185.923000,171.637500 A 4.650000,4.650000 0 0,0 190.573000,176.287500 A 4.650000,4.650000 0 0,0 195.223000,171.637500 A 4.650000,4.650000 0 0,0 190.573000,166.987500 "/>
        <path style="fill:none;stroke-width:0.280000;stroke-linecap:round;stroke-linejoin:round;stroke-opacity:1;stroke:#000000;" d="M 108.073000,169.037500 A 2.600000,2.600000 0 0,0 105.473000,171.637500 A 2.600000,2.600000 0 0,0 108.073000,174.237500 A 2.600000,2.600000 0 0,0 110.673000,171.637500 A 2.600000,2.600000 0 0,0 108.073000,169.037500 "/>
        <path style="fill:none;stroke-width:0.280000;stroke-linecap:round;stroke-linejoin:round;stroke-opacity:1;stroke:#000000;" d="M 108.073000,166.987500 A 4.650000,4.650000 0 0,0 103.423000,171.637500 A 4.650000,4.650000 0 0,0 108.073000,176.287500 A 4.650000,4.650000 0 0,0 112.723000,171.637500 A 4.650000,4.650000 0 0,0 108.073000,166.987500 "/>
        <path style="fill:none;stroke-width:0.280000;stroke-linecap:round;stroke-linejoin:round;stroke-opacity:1;stroke:#000000;" d="M 273.073000,166.987500 A 4.650000,4.650000 0 0,0 268.423000,171.637500 A 4.650000,4.650000 0 0,0 273.073000,176.287500 A 4.650000,4.650000 0 0,0 277.723000,171.637500 A 4.650000,4.650000 0 0,0 273.073000,166.987500 "/>
        <path style="fill:none;stroke-width:0.280000;stroke-linecap:round;stroke-linejoin:round;stroke-opacity:1;stroke:#000000;" d="M 273.073000,169.037500 A 2.600000,2.600000 0 0,0 270.473000,171.637500 A 2.600000,2.600000 0 0,0 273.073000,174.237500 A 2.600000,2.600000 0 0,0 275.673000,171.637500 A 2.600000,2.600000 0 0,0 273.073000,169.037500 "/>
        <path style="fill:none;stroke-width:0.280000;stroke-linecap:round;stroke-linejoin:round;stroke-opacity:1;stroke:#000000;" d="M 128.250000,209.037500 A 2.600000,2.600000 0 0,0 125.650000,211.637500 A 2.600000,2.600000 0 0,0 128.250000,214.237500 A 2.600000,2.600000 0 0,0 130.850000,211.637500 A 2.600000,2.600000 0 0,0 128.250000,209.037500 "/>
        <path style="fill:none;stroke-width:0.280000;stroke-linecap:round;stroke-linejoin:round;stroke-opacity:1;stroke:#000000;" d="M 128.250000,188.860500 A 2.600000,2.600000 0 0,0 125.650000,191.460500 A 2.600000,2.600000 0 0,0 128.250000,194.060500 A 2.600000,2.600000 0 0,0 130.850000,191.460500 A 2.600000,2.600000 0 0,0 128.250000,188.860500 "/>
        <path style="fill:none;stroke-width:0.280000;stroke-linecap:round;stroke-linejoin:round;stroke-opacity:1;stroke:#000000;" d="M 128.250000,186.810500 A 4.650000,4.650000 0 0,0 123.600000,191.460500 A 4.650000,4.650000 0 0,0 128.250000,196.110500 A 4.650000,4.650000 0 0,0 132.900000,191.460500 A 4.650000,4.650000 0 0,0 128.250000,186.810500 "/>
        <path style="fill:none;stroke-width:0.280000;stroke-linecap:round;stroke-linejoin:round;stroke-opacity:1;stroke:#000000;" d="M 128.250000,206.987500 A 4.650000,4.650000 0 0,0 123.600000,211.637500 A 4.650000,4.650000 0 0,0 128.250000,216.287500 A 4.650000,4.650000 0 0,0 132.900000,211.637500 A 4.650000,4.650000 0 0,0 128.250000,206.987500 "/>
        <path style="fill:none;stroke-width:0.280000;stroke-linecap:round;stroke-linejoin:round;stroke-opacity:1;stroke:#000000;" d="M 210.750000,206.987500 A 4.650000,4.650000 0 0,0 206.100000,211.637500 A 4.650000,4.650000 0 0,0 210.750000,216.287500 A 4.650000,4.650000 0 0,0 215.400000,211.637500 A 4.650000,4.650000 0 0,0 210.750000,206.987500 "/>
        <path style="fill:none;stroke-width:0.280000;stroke-linecap:round;stroke-linejoin:round;stroke-opacity:1;stroke:#000000;" d="M 210.750000,209.037500 A 2.600000,2.600000 0 0,0 208.150000,211.637500 A 2.600000,2.600000 0 0,0 210.750000,214.237500 A 2.600000,2.600000 0 0,0 213.350000,211.637500 A 2.600000,2.600000 0 0,0 210.750000,209.037500 "/>
        <path style="fill:none;stroke-width:0.280000;stroke-linecap:round;stroke-linejoin:round;stroke-opacity:1;stroke:#000000;" d="M 210.750000,186.810500 A 4.650000,4.650000 0 0,0 206.100000,191.460500 A 4.650000,4.650000 0 0,0 210.750000,196.110500 A 4.650000,4.650000 0 0,0 215.400000,191.460500 A 4.650000,4.650000 0 0,0 210.750000,186.810500 "/>
        <path style="fill:none;stroke-width:0.280000;stroke-linecap:round;stroke-linejoin:round;stroke-opacity:1;stroke:#000000;" d="M 210.750000,188.860500 A 2.600000,2.600000 0 0,0 208.150000,191.460500 A 2.600000,2.600000 0 0,0 210.750000,194.060500 A 2.600000,2.600000 0 0,0 213.350000,191.460500 A 2.600000,2.600000 0 0,0 210.750000,188.860500 "/>
        <path style="fill:none;stroke-width:0.280000;stroke-linecap:round;stroke-linejoin:round;stroke-opacity:1;stroke:#000000;" d="M 293.250000,188.860500 A 2.600000,2.600000 0 0,0 290.650000,191.460500 A 2.600000,2.600000 0 0,0 293.250000,194.060500 A 2.600000,2.600000 0 0,0 295.850000,191.460500 A 2.600000,2.600000 0 0,0 293.250000,188.860500 "/>
        <path style="fill:none;stroke-width:0.280000;stroke-linecap:round;stroke-linejoin:round;stroke-opacity:1;stroke:#000000;" d="M 293.250000,186.810500 A 4.650000,4.650000 0 0,0 288.600000,191.460500 A 4.650000,4.650000 0 0,0 293.250000,196.110500 A 4.650000,4.650000 0 0,0 297.900000,191.460500 A 4.650000,4.650000 0 0,0 293.250000,186.810500 "/>
        <path style="fill:none;stroke-width:0.280000;stroke-linecap:round;stroke-linejoin:round;stroke-opacity:1;stroke:#000000;" d="M 293.250000,206.987500 A 4.650000,4.650000 0 0,0 288.600000,211.637500 A 4.650000,4.650000 0 0,0 293.250000,216.287500 A 4.650000,4.650000 0 0,0 297.900000,211.637500 A 4.650000,4.650000 0 0,0 293.250000,206.987500 "/>
        <path style="fill:none;stroke-width:0.280000;stroke-linecap:round;stroke-linejoin:round;stroke-opacity:1;stroke:#000000;" d="M 293.250000,209.037500 A 2.600000,2.600000 0 0,0 290.650000,211.637500 A 2.600000,2.600000 0 0,0 293.250000,214.237500 A 2.600000,2.600000 0 0,0 295.850000,211.637500 A 2.600000,2.600000 0 0,0 293.250000,209.037500 "/>
        <path style="fill:none;stroke-width:0.280000;stroke-linecap:round;stroke-linejoin:round;stroke-opacity:1;stroke:#000000;" d="M 270.850000,193.587500 A 8.050000,8.050000 0 0,0 262.800000,201.637500 A 8.050000,8.050000 0 0,0 270.850000,209.687500 A 8.050000,8.050000 0 0,0 278.900000,201.637500 A 8.050000,8.050000 0 0,0 270.850000,193.587500 "/>
        <path style="fill:none;stroke-width:0.280000;stroke-linecap:round;stroke-linejoin:round;stroke-opacity:1;stroke:#000000;" d="M 188.350000,193.587500 A 8.050000,8.050000 0 0,0 180.300000,201.637500 A 8.050000,8.050000 0 0,0 188.350000,209.687500 A 8.050000,8.050000 0 0,0 196.400000,201.637500 A 8.050000,8.050000 0 0,0 188.350000,193.587500 "/>
        <path style="fill:none;stroke-width:0.280000;stroke-linecap:round;stroke-linejoin:round;stroke-opacity:1;stroke:#000000;" d="M 105.850000,193.587500 A 8.050000,8.050000 0 0,0 97.800000,201.637500 A 8.050000,8.050000 0 0,0 105.850000,209.687500 A 8.050000,8.050000 0 0,0 113.900000,201.637500 A 8.050000,8.050000 0 0,0 105.850000,193.587500 "/>
        <path style="fill:none;stroke-width:0.280000;stroke-linecap:round;stroke-linejoin:round;stroke-opacity:1;stroke:#000000;" d="M 105.850000,146.537500 A 2.600000,2.600000 0 0,0 103.250000,149.137500 A 2.600000,2.600000 0 0,0 105.850000,151.737500 A 2.600000,2.600000 0 0,0 108.450000,149.137500 A 2.600000,2.600000 0 0,0 105.850000,146.537500 "/>
        <path style="fill:none;stroke-width:0.280000;stroke-linecap:round;stroke-linejoin:round;stroke-opacity:1;stroke:#000000;" d="M 105.850000,251.537500 A 2.600000,2.600000 0 0,0 103.250000,254.137500 A 2.600000,2.600000 0 0,0 105.850000,256.737500 A 2.600000,2.600000 0 0,0 108.450000,254.137500 A 2.600000,2.600000 0 0,0 105.850000,251.537500 "/>
        <path style="fill:none;stroke-width:0.280000;stroke-linecap:round;stroke-linejoin:round;stroke-opacity:1;stroke:#000000;" d="M 150.750000,199.037500 A 2.600000,2.600000 0 0,0 148.150000,201.637500 A 2.600000,2.600000 0 0,0 150.750000,204.237500 A 2.600000,2.600000 0 0,0 153.350000,201.637500 A 2.600000,2.600000 0 0,0 150.750000,199.037500 "/>
        <path style="fill:none;stroke-width:0.280000;stroke-linecap:round;stroke-linejoin:round;stroke-opacity:1;stroke:#000000;" d="M 188.350000,146.537500 A 2.600000,2.600000 0 0,0 185.750000,149.137500 A 2.600000,2.600000 0 0,0 188.350000,151.737500 A 2.600000,2.600000 0 0,0 190.950000,149.137500 A 2.600000,2.600000 0 0,0 188.350000,146.537500 "/>
        <path style="fill:none;stroke-width:0.280000;stroke-linecap:round;stroke-linejoin:round;stroke-opacity:1;stroke:#000000;" d="M 188.350000,251.537500 A 2.600000,2.600000 0 0,0 185.750000,254.137500 A 2.600000,2.600000 0 0,0 188.350000,256.737500 A 2.600000,2.600000 0 0,0 190.950000,254.137500 A 2.600000,2.600000 0 0,0 188.350000,251.537500 "/>
        <path style="fill:none;stroke-width:0.280000;stroke-linecap:round;stroke-linejoin:round;stroke-opacity:1;stroke:#000000;" d="M 233.250000,199.037500 A 2.600000,2.600000 0 0,0 230.650000,201.637500 A 2.600000,2.600000 0 0,0 233.250000,204.237500 A 2.600000,2.600000 0 0,0 235.850000,201.637500 A 2.600000,2.600000 0 0,0 233.250000,199.037500 "/>
        <path style="fill:none;stroke-width:0.280000;stroke-linecap:round;stroke-linejoin:round;stroke-opacity:1;stroke:#000000;" d="M 270.850000,146.537500 A 2.600000,2.600000 0 0,0 268.250000,149.137500 A 2.600000,2.600000 0 0,0 270.850000,151.737500 A 2.600000,2.600000 0 0,0 273.450000,149.137500 A 2.600000,2.600000 0 0,0 270.850000,146.537500 "/>
        <path style="fill:none;stroke-width:0.280000;stroke-linecap:round;stroke-linejoin:round;stroke-opacity:1;stroke:#000000;" d="M 315.750000,199.037500 A 2.600000,2.600000 0 0,0 313.150000,201.637500 A 2.600000,2.600000 0 0,0 315.750000,204.237500 A 2.600000,2.600000 0 0,0 318.350000,201.637500 A 2.600000,2.600000 0 0,0 315.750000,199.037500 "/>
        <path style="fill:none;stroke-width:0.280000;stroke-linecap:round;stroke-linejoin:round;stroke-opacity:1;stroke:#000000;" d="M 270.850000,251.537500 A 2.600000,2.600000 0 0,0 268.250000,254.137500 A 2.600000,2.600000 0 0,0 270.850000,256.737500 A 2.600000,2.600000 0 0,0 273.450000,254.137500 A 2.600000,2.600000 0 0,0 270.850000,251.537500 "/>
        <path style="fill:none;stroke-width:0.280000;stroke-linecap:round;stroke-linejoin:round;stroke-opacity:1;stroke:#000000;" d="M 91.425000,161.637500 A 3.175000,3.175000 0 0,0 88.250000,164.812500 L 88.250000,238.462500 A 3.175000,3.175000 0 0,0 91.425000,241.637500 L 135.075000,241.637500 A 3.175000,3.175000 0 0,0 138.250000,238.462500 L 138.250000,164.812500 A 3.175000,3.175000 0 0,0 135.075000,161.637500 L 91.425000,161.637500 "/>
        <path style="fill:none;stroke-width:0.280000;stroke-linecap:round;stroke-linejoin:round;stroke-opacity:1;stroke:#000000;" d="M 88.250000,241.637500 L 88.250000,266.637500 L 119.250000,266.637500 L 163.250000,222.637500 L 163.250000,180.637500 L 119.250000,136.637500 L 88.250000,136.637500 L 88.250000,161.637500 L 138.250000,161.637500 L 138.250000,241.637500 L 88.250000,241.637500 "/>
        <path style="fill:none;stroke-width:0.280000;stroke-linecap:round;stroke-linejoin:round;stroke-opacity:1;stroke:#000000;" d="M 88.250000,241.637500 L 88.250000,266.637500 L 119.250000,266.637500 L 163.250000,222.637500 L 163.250000,180.637500 L 119.250000,136.637500 L 88.250000,136.637500 L 88.250000,161.637500 L 88.250000,161.637500 L 88.250000,161.637500 L 88.250000,241.637500 "/>
        <path style="fill:none;stroke-width:0.280000;stroke-linecap:round;stroke-linejoin:round;stroke-opacity:1;stroke:#000000;" d="M 170.750000,161.637500 L 220.750000,161.637500 L 220.750000,241.637500 L 170.750000,241.637500 L 170.750000,266.637500 L 201.750000,266.637500 L 245.750000,222.637500 L 245.750000,180.637500 L 201.750000,136.637500 L 170.750000,136.637500 L 170.750000,161.637500 "/>
        <path style="fill:none;stroke-width:0.280000;stroke-linecap:round;stroke-linejoin:round;stroke-opacity:1;stroke:#000000;" d="M 220.750000,164.812500 A 3.175000,3.175000 0 0,0 217.575000,161.637500 L 173.925000,161.637500 A 3.175000,3.175000 0 0,0 170.750000,164.812500 L 170.750000,238.462500 A 3.175000,3.175000 0 0,0 173.925000,241.637500 L 217.575000,241.637500 A 3.175000,3.175000 0 0,0 220.750000,238.462500 L 220.750000,164.812500 "/>
        <path style="fill:none;stroke-width:0.280000;stroke-linecap:round;stroke-linejoin:round;stroke-opacity:1;stroke:#000000;" d="M 253.250000,161.637500 L 303.250000,161.637500 L 303.250000,241.637500 L 253.250000,241.637500 L 253.250000,266.637500 L 284.250000,266.637500 L 328.250000,222.637500 L 328.250000,180.637500 L 284.250000,136.637500 L 253.250000,136.637500 L 253.250000,161.637500 "/>
        <path style="fill:none;stroke-width:0.280000;stroke-linecap:round;stroke-linejoin:round;stroke-opacity:1;stroke:#000000;" d="M 303.250000,164.812500 A 3.175000,3.175000 0 0,0 300.075000,161.637500 L 256.425000,161.637500 A 3.175000,3.175000 0 0,0 253.250000,164.812500 L 253.250000,238.462500 A 3.175000,3.175000 0 0,0 256.425000,241.637500 L 300.075000,241.637500 A 3.175000,3.175000 0 0,0 303.250000,238.462500 L 303.250000,164.812500 "/>
        <path style="fill:none;stroke-width:0.280000;stroke-linecap:round;stroke-linejoin:round;stroke-opacity:1;stroke:#000000;" d="M 88.250000,263.462500 A 3.175000,3.175000 0 0,0 91.425000,266.637500 L 117.934872,266.637500 A 3.175000,3.175000 0 0,0 120.179936,265.707564 L 162.320064,223.567436 A 3.175000,3.175000 0 0,0 163.250000,221.322372 L 163.250000,181.952628 A 3.175000,3.175000 0 0,0 162.320064,179.707564 L 120.179936,137.567436 A 3.175000,3.175000 0 0,0 117.934872,136.637500 L 91.425000,136.637500 A 3.175000,3.175000 0 0,0 88.250000,139.812500 L 88.250000,161.637500 L 88.250000,241.637500 L 88.250000,263.462500 "/>
        <path style="fill:none;stroke-width:0.280000;stroke-linecap:round;stroke-linejoin:round;stroke-opacity:1;stroke:#000000;" d="M 173.925000,136.637500 A 3.175000,3.175000 0 0,0 170.750000,139.812500 L 170.750000,161.637500 L 170.750000,241.637500 L 170.750000,263.462500 A 3.175000,3.175000 0 0,0 173.925000,266.637500 L 200.434872,266.637500 A 3.175000,3.175000 0 0,0 202.679936,265.707564 L 244.820064,223.567436 A 3.175000,3.175000 0 0,0 245.750000,221.322372 L 245.750000,181.952628 A 3.175000,3.175000 0 0,0 244.820064,179.707564 L 202.679936,137.567436 A 3.175000,3.175000 0 0,0 200.434872,136.637500 L 173.925000,136.637500 "/>
        <path style="fill:none;stroke-width:0.280000;stroke-linecap:round;stroke-linejoin:round;stroke-opacity:1;stroke:#000000;" d="M 253.250000,241.637500 L 253.250000,263.462500 A 3.175000,3.175000 0 0,0 256.425000,266.637500 L 282.934872,266.637500 A 3.175000,3.175000 0 0,0 285.179936,265.707564 L 327.320064,223.567436 A 3.175000,3.175000 0 0,0 328.250000,221.322372 L 328.250000,181.952628 A 3.175000,3.175000 0 0,0 327.320064,179.707564 L 285.179936,137.567436 A 3.175000,3.175000 0 0,0 282.934872,136.637500 L 256.425000,136.637500 A 3.175000,3.175000 0 0,0 253.250000,139.812500 L 253.250000,161.637500 L 253.250000,241.637500 "/>
        <path style="fill:none;stroke-width:0.280000;stroke-linecap:round;stroke-linejoin:round;stroke-opacity:1;stroke:#000000;" d="M 200.750000,51.637500 A 150.000000,150.000000 0 0,0 50.750000,201.637500 A 150.000000,150.000000 0 0,0 200.750000,351.637500 A 150.000000,150.000000 0 0,0 350.750000,201.637500 A 150.000000,150.000000 0 0,0 200.750000,51.637500 "/>
        <path style="fill:none;stroke-width:0.280000;stroke-linecap:round;stroke-linejoin:round;stroke-opacity:1;stroke:#000000;" d="M 202.655842,350.881332 C 201.915002,350.890792 201.174099,350.894736 200.433194,350.893164 "/>
        <path style="fill:none;stroke-width:0.280000;stroke-linecap:round;stroke-linejoin:round;stroke-opacity:1;stroke:#000000;" d="M 208.322404,336.563318 L 208.344960,336.965212 L 208.348810,337.134583 L 208.337775,337.642689 L 208.278022,338.487621 L 208.135911,339.664933 L 207.878170,341.167665 L 207.472058,342.986365 L 206.885531,345.109133 L 206.087405,347.521663 L 205.571878,348.853075 "/>
        <path style="fill:none;stroke-width:0.280000;stroke-linecap:round;stroke-linejoin:round;stroke-opacity:1;stroke:#000000;" d="M 194.687050,336.639567 L 194.668991,337.041689 L 194.667035,337.211092 L 194.683751,337.719044 L 194.752951,338.563254 L 194.908220,339.738904 L 195.182751,341.238658 L 195.609177,343.052703 L 196.219408,345.168778 L 197.044465,347.572231 L 197.574850,348.897795 "/>
        <path style="fill:none;stroke-width:0.280000;stroke-linecap:round;stroke-linejoin:round;stroke-opacity:1;stroke:#000000;" d="M 194.687050,336.639567 L 194.668991,337.041689 L 194.667035,337.211092 L 194.683751,337.719044 L 194.752951,338.563254 L 194.908220,339.738904 L 195.182751,341.238658 L 195.609177,343.052703 L 196.219408,345.168778 L 197.044465,347.572231 L 197.574850,348.897795 A 3.175000,3.175000 0 0,0 200.540396,350.893274 L 202.628835,350.881595 A 3.175000,3.175000 0 0,0 205.571878,348.853075 L 206.087405,347.521663 L 206.885531,345.109133 L 207.472058,342.986365 L 207.878170,341.167665 L 208.135911,339.664933 L 208.278022,338.487621 L 208.337775,337.642689 L 208.348810,337.134583 L 208.344960,336.965212 L 208.322404,336.563318 "/>
        <path style="fill:none;stroke-width:0.280000;stroke-linecap:round;stroke-linejoin:round;stroke-opacity:1;stroke:#000000;" d="M 179.208032,347.348240 L 179.953008,346.130275 L 181.169082,343.899026 L 182.125218,341.915100 L 182.849544,340.198142 L 183.371466,338.765581 L 183.721510,337.632564 L 183.931172,336.811880 L 184.032756,336.313909 L 184.059209,336.146573 L 184.108778,335.747109 A 3.175000,3.175000 0 0,1 187.526530,332.974326 L 191.782164,333.333361 A 3.175000,3.175000 0 0,1 194.687050,336.639567 L 194.668991,337.041689 L 194.667035,337.211092 L 194.683751,337.719044 L 194.752951,338.563254 L 194.908220,339.738904 L 195.182751,341.238658 L 195.609177,343.052703 L 196.219408,345.168778 L 197.044465,347.572231 L 197.574850,348.897795 "/>
        <path style="fill:none;stroke-width:0.280000;stroke-linecap:round;stroke-linejoin:round;stroke-opacity:1;stroke:#000000;" d="M 179.208032,347.348240 L 179.953008,346.130275 L 181.169082,343.899026 L 182.125218,341.915100 L 182.849544,340.198142 L 183.371466,338.765581 L 183.721510,337.632564 L 183.931172,336.811880 L 184.032756,336.313909 L 184.059209,336.146573 L 184.108778,335.747109 "/>
        <path style="fill:none;stroke-width:0.280000;stroke-linecap:round;stroke-linejoin:round;stroke-opacity:1;stroke:#000000;" d="M 170.678934,333.387447 L 170.589364,333.779882 L 170.557191,333.946213 L 170.482941,334.448987 L 170.400289,335.291987 L 170.343142,336.476467 L 170.345469,338.001140 L 170.441133,339.862173 L 170.663717,342.053203 L 171.046362,344.565351 L 171.331535,345.964317 "/>
        <path style="fill:none;stroke-width:0.280000;stroke-linecap:round;stroke-linejoin:round;stroke-opacity:1;stroke:#000000;" d="M 170.678934,333.387447 L 170.589364,333.779882 L 170.557191,333.946213 L 170.482941,334.448987 L 170.400289,335.291987 L 170.343142,336.476467 L 170.345469,338.001140 L 170.441133,339.862173 L 170.663717,342.053203 L 171.046362,344.565351 L 171.331535,345.964317 A 3.175000,3.175000 0 0,0 173.893117,348.457246 L 175.950079,348.818660 A 3.175000,3.175000 0 0,0 179.208032,347.348240 L 179.953008,346.130275 L 181.169082,343.899026 L 182.125218,341.915100 L 182.849544,340.198142 L 183.371466,338.765581 L 183.721510,337.632564 L 183.931172,336.811880 L 184.032756,336.313909 L 184.059209,336.146573 L 184.108778,335.747109 "/>
        <path style="fill:none;stroke-width:0.280000;stroke-linecap:round;stroke-linejoin:round;stroke-opacity:1;stroke:#000000;" d="M 147.637327,325.900775 L 147.479124,326.270910 L 147.417769,326.428824 L 147.254938,326.910259 L 147.023091,327.724954 L 146.755365,328.880195 L 146.485414,330.380781 L 146.247240,332.228989 L 146.075024,334.424552 L 146.002958,336.964653 L 146.033754,338.392056 "/>
        <path style="fill:none;stroke-width:0.280000;stroke-linecap:round;stroke-linejoin:round;stroke-opacity:1;stroke:#000000;" d="M 147.637327,325.900775 L 147.479124,326.270910 L 147.417769,326.428824 L 147.254938,326.910259 L 147.023091,327.724954 L 146.755365,328.880195 L 146.485414,330.380781 L 146.247240,332.228989 L 146.075024,334.424552 L 146.002958,336.964653 L 146.033754,338.392056 A 3.175000,3.175000 0 0,0 148.109040,341.302310 L 150.068413,342.025201 A 3.175000,3.175000 0 0,0 153.536563,341.160141 L 154.487043,340.094770 L 156.081979,338.116517 L 157.376993,336.335198 L 158.396254,334.775165 L 159.165582,333.458819 L 159.712309,332.406513 L 160.065140,331.636454 L 160.254007,331.164624 L 160.309915,331.004701 L 160.430013,330.620508 "/>
        <path style="fill:none;stroke-width:0.280000;stroke-linecap:round;stroke-linejoin:round;stroke-opacity:1;stroke:#000000;" d="M 153.536563,341.160141 L 154.487043,340.094770 L 156.081979,338.116517 L 157.376993,336.335198 L 158.396254,334.775165 L 159.165582,333.458819 L 159.712309,332.406513 L 160.065140,331.636454 L 160.254007,331.164624 L 160.309915,331.004701 L 160.430013,330.620508 A 3.175000,3.175000 0 0,1 164.287941,328.502547 L 168.411077,329.615686 A 3.175000,3.175000 0 0,1 170.678934,333.387447 L 170.589364,333.779882 L 170.557191,333.946213 L 170.482941,334.448987 L 170.400289,335.291987 L 170.343142,336.476467 L 170.345469,338.001140 L 170.441133,339.862173 L 170.663717,342.053203 L 171.046362,344.565351 L 171.331535,345.964317 "/>
        <path style="fill:none;stroke-width:0.280000;stroke-linecap:round;stroke-linejoin:round;stroke-opacity:1;stroke:#000000;" d="M 153.536563,341.160141 L 154.487043,340.094770 L 156.081979,338.116517 L 157.376993,336.335198 L 158.396254,334.775165 L 159.165582,333.458819 L 159.712309,332.406513 L 160.065140,331.636454 L 160.254007,331.164624 L 160.309915,331.004701 L 160.430013,330.620508 "/>
        <path style="fill:none;stroke-width:0.280000;stroke-linecap:round;stroke-linejoin:round;stroke-opacity:1;stroke:#000000;" d="M 129.382573,330.487671 L 130.508007,329.609135 L 132.430543,327.947459 L 134.022812,326.426001 L 135.304248,325.073035 L 136.296255,323.915212 L 137.022093,322.977438 L 137.506753,322.282755 L 137.776834,321.852231 L 137.860398,321.704861 L 138.047167,321.348286 A 3.175000,3.175000 0 0,1 142.221272,319.953221 L 146.079390,321.784686 A 3.175000,3.175000 0 0,1 147.637327,325.900775 L 147.479124,326.270910 L 147.417769,326.428824 L 147.254938,326.910259 L 147.023091,327.724954 L 146.755365,328.880195 L 146.485414,330.380781 L 146.247240,332.228989 L 146.075024,334.424552 L 146.002958,336.964653 L 146.033754,338.392056 "/>
        <path style="fill:none;stroke-width:0.280000;stroke-linecap:round;stroke-linejoin:round;stroke-opacity:1;stroke:#000000;" d="M 129.382573,330.487671 L 130.508007,329.609135 L 132.430543,327.947459 L 134.022812,326.426001 L 135.304248,325.073035 L 136.296255,323.915212 L 137.022093,322.977438 L 137.506753,322.282755 L 137.776834,321.852231 L 137.860398,321.704861 L 138.047167,321.348286 "/>
        <path style="fill:none;stroke-width:0.280000;stroke-linecap:round;stroke-linejoin:round;stroke-opacity:1;stroke:#000000;" d="M 126.302805,314.420179 L 126.081054,314.756118 L 125.992488,314.900538 L 125.746311,315.345162 L 125.372720,316.105366 L 124.903021,317.194238 L 124.369468,318.622508 L 123.805111,320.398486 L 123.243630,322.528015 L 122.719170,325.014428 L 122.494598,326.424391 "/>
        <path style="fill:none;stroke-width:0.280000;stroke-linecap:round;stroke-linejoin:round;stroke-opacity:1;stroke:#000000;" d="M 126.302805,314.420179 L 126.081054,314.756118 L 125.992488,314.900538 L 125.746311,315.345162 L 125.372720,316.105366 L 124.903021,317.194238 L 124.369468,318.622508 L 123.805111,320.398486 L 123.243630,322.528015 L 122.719170,325.014428 L 122.494598,326.424391 A 3.175000,3.175000 0 0,0 124.016887,329.658433 L 125.815695,330.719566 A 3.175000,3.175000 0 0,0 129.382573,330.487671 L 130.508007,329.609135 L 132.430543,327.947459 L 134.022812,326.426001 L 135.304248,325.073035 L 136.296255,323.915212 L 137.022093,322.977438 L 137.506753,322.282755 L 137.776834,321.852231 L 137.860398,321.704861 L 138.047167,321.348286 "/>
        <path style="fill:none;stroke-width:0.280000;stroke-linecap:round;stroke-linejoin:round;stroke-opacity:1;stroke:#000000;" d="M 107.522391,315.673849 L 108.786607,315.010386 L 110.974950,313.718696 L 112.813298,312.505999 L 114.315723,311.403585 L 115.498525,310.441498 L 116.380144,309.648398 L 116.981056,309.051419 L 117.323669,308.676038 L 117.432205,308.545957 L 117.679641,308.228461 A 3.175000,3.175000 0 0,1 122.035765,307.601131 L 125.504860,310.092057 A 3.175000,3.175000 0 0,1 126.302805,314.420179 L 126.081054,314.756118 L 125.992488,314.900538 L 125.746311,315.345162 L 125.372720,316.105366 L 124.903021,317.194238 L 124.369468,318.622508 L 123.805111,320.398486 L 123.243630,322.528015 L 122.719170,325.014428 L 122.494598,326.424391 "/>
        <path style="fill:none;stroke-width:0.280000;stroke-linecap:round;stroke-linejoin:round;stroke-opacity:1;stroke:#000000;" d="M 107.522391,315.673849 L 108.786607,315.010386 L 110.974950,313.718696 L 112.813298,312.505999 L 114.315723,311.403585 L 115.498525,310.441498 L 116.380144,309.648398 L 116.981056,309.051419 L 117.323669,308.676038 L 117.432205,308.545957 L 117.679641,308.228461 "/>
        <path style="fill:none;stroke-width:0.280000;stroke-linecap:round;stroke-linejoin:round;stroke-opacity:1;stroke:#000000;" d="M 107.361077,299.314655 L 107.082906,299.605600 L 106.969976,299.731885 L 106.648364,300.125408 L 106.145037,300.806688 L 105.488460,301.794193 L 104.708455,303.104240 L 103.836054,304.750908 L 102.903354,306.745958 L 101.943356,309.098767 L 101.470635,310.445972 "/>
        <path style="fill:none;stroke-width:0.280000;stroke-linecap:round;stroke-linejoin:round;stroke-opacity:1;stroke:#000000;" d="M 107.361077,299.314655 L 107.082906,299.605600 L 106.969976,299.731885 L 106.648364,300.125408 L 106.145037,300.806688 L 105.488460,301.794193 L 104.708455,303.104240 L 103.836054,304.750908 L 102.903354,306.745958 L 101.943356,309.098767 L 101.470635,310.445972 A 3.175000,3.175000 0 0,0 102.391000,313.899858 L 103.971427,315.265128 A 3.175000,3.175000 0 0,0 107.522391,315.673849 L 108.786607,315.010386 L 110.974950,313.718696 L 112.813298,312.505999 L 114.315723,311.403585 L 115.498525,310.441498 L 116.380144,309.648398 L 116.981056,309.051419 L 117.323669,308.676038 L 117.432205,308.545957 L 117.679641,308.228461 "/>
        <path style="fill:none;stroke-width:0.280000;stroke-linecap:round;stroke-linejoin:round;stroke-opacity:1;stroke:#000000;" d="M 223.920217,347.098206 L 223.161667,345.888649 L 221.920716,343.671140 L 220.942452,341.698032 L 220.198968,339.989281 L 219.661057,338.562647 L 219.298364,337.433615 L 219.079536,336.615328 L 218.972390,336.118524 L 218.944067,335.951494 L 218.890034,335.552610 "/>
        <path style="fill:none;stroke-width:0.280000;stroke-linecap:round;stroke-linejoin:round;stroke-opacity:1;stroke:#000000;" d="M 223.920217,347.098206 L 223.161667,345.888649 L 221.920716,343.671140 L 220.942452,341.698032 L 220.198968,339.989281 L 219.661057,338.562647 L 219.298364,337.433615 L 219.079536,336.615328 L 218.972390,336.118524 L 218.944067,335.951494 L 218.890034,335.552610 A 3.175000,3.175000 0 0,0 215.441485,332.818223 L 211.190132,333.224831 A 3.175000,3.175000 0 0,0 208.322404,336.563318 L 208.344960,336.965212 L 208.348810,337.134583 L 208.337775,337.642689 L 208.278022,338.487621 L 208.135911,339.664933 L 207.878170,341.167665 L 207.472058,342.986365 L 206.885531,345.109133 L 206.087405,347.521663 L 205.571878,348.853075 "/>
        <path style="fill:none;stroke-width:0.280000;stroke-linecap:round;stroke-linejoin:round;stroke-opacity:1;stroke:#000000;" d="M 91.420946,281.069707 L 91.095295,281.306307 L 90.961631,281.410398 L 90.574921,281.740170 L 89.958036,282.320630 L 89.135685,283.175029 L 88.134296,284.324748 L 86.981891,285.789180 L 85.707950,287.585629 L 84.343269,289.729213 L 83.637592,290.970360 A 3.175000,3.175000 0 0,0 83.926451,294.533078 L 85.237702,296.158603 A 3.175000,3.175000 0 0,0 88.658620,297.194806 L 90.020986,296.767739 L 92.404802,295.887551 L 94.430142,295.022593 L 96.105266,294.206163 L 97.440847,293.470735 L 98.449912,292.847799 L 99.147762,292.367710 L 99.551896,292.059538 L 99.681914,291.950927 L 99.982065,291.682715 "/>
        <path style="fill:none;stroke-width:0.280000;stroke-linecap:round;stroke-linejoin:round;stroke-opacity:1;stroke:#000000;" d="M 91.420946,281.069707 L 91.095295,281.306307 L 90.961631,281.410398 L 90.574921,281.740170 L 89.958036,282.320630 L 89.135685,283.175029 L 88.134296,284.324748 L 86.981891,285.789180 L 85.707950,287.585629 L 84.343269,289.729213 L 83.637592,290.970360 "/>
        <path style="fill:none;stroke-width:0.280000;stroke-linecap:round;stroke-linejoin:round;stroke-opacity:1;stroke:#000000;" d="M 73.397559,275.644472 L 74.814287,275.467528 L 77.316957,275.027132 L 79.464194,274.537712 L 81.258177,274.033507 L 82.703611,273.548375 L 83.807688,273.115626 L 84.580047,272.767858 L 85.032712,272.536800 L 85.180035,272.453150 L 85.523253,272.242842 A 3.175000,3.175000 0 0,1 89.822036,273.186146 L 92.194676,276.737190 A 3.175000,3.175000 0 0,1 91.420946,281.069707 L 91.095295,281.306307 L 90.961631,281.410398 L 90.574921,281.740170 L 89.958036,282.320630 L 89.135685,283.175029 L 88.134296,284.324748 L 86.981891,285.789180 L 85.707950,287.585629 L 84.343269,289.729213 L 83.637592,290.970360 "/>
        <path style="fill:none;stroke-width:0.280000;stroke-linecap:round;stroke-linejoin:round;stroke-opacity:1;stroke:#000000;" d="M 73.397559,275.644472 L 74.814287,275.467528 L 77.316957,275.027132 L 79.464194,274.537712 L 81.258177,274.033507 L 82.703611,273.548375 L 83.807688,273.115626 L 84.580047,272.767858 L 85.032712,272.536800 L 85.180035,272.453150 L 85.523253,272.242842 "/>
        <path style="fill:none;stroke-width:0.280000;stroke-linecap:round;stroke-linejoin:round;stroke-opacity:1;stroke:#000000;" d="M 88.658620,297.194806 L 90.020986,296.767739 L 92.404802,295.887551 L 94.430142,295.022593 L 96.105266,294.206163 L 97.440847,293.470735 L 98.449912,292.847799 L 99.147762,292.367710 L 99.551896,292.059538 L 99.681914,291.950927 L 99.982065,291.682715 A 3.175000,3.175000 0 0,1 104.380198,291.843283 L 107.348772,294.913609 A 3.175000,3.175000 0 0,1 107.361077,299.314655 L 107.082906,299.605600 L 106.969976,299.731885 L 106.648364,300.125408 L 106.145037,300.806688 L 105.488460,301.794193 L 104.708455,303.104240 L 103.836054,304.750908 L 102.903354,306.745958 L 101.943356,309.098767 L 101.470635,310.445972 "/>
        <path style="fill:none;stroke-width:0.280000;stroke-linecap:round;stroke-linejoin:round;stroke-opacity:1;stroke:#000000;" d="M 88.658620,297.194806 L 90.020986,296.767739 L 92.404802,295.887551 L 94.430142,295.022593 L 96.105266,294.206163 L 97.440847,293.470735 L 98.449912,292.847799 L 99.147762,292.367710 L 99.551896,292.059538 L 99.681914,291.950927 L 99.982065,291.682715 "/>
        <path style="fill:none;stroke-width:0.280000;stroke-linecap:round;stroke-linejoin:round;stroke-opacity:1;stroke:#000000;" d="M 78.994741,260.271743 L 78.632076,260.446393 L 78.481974,260.524945 L 78.042596,260.780368 L 77.331979,261.241350 L 76.370285,261.935182 L 75.179699,262.887619 L 73.784329,264.122747 L 72.210092,265.662855 L 70.484591,267.528319 L 69.568638,268.623516 A 3.175000,3.175000 0 0,0 69.216708,272.180557 L 70.216638,274.014093 A 3.175000,3.175000 0 0,0 73.397559,275.644472 L 74.814287,275.467528 L 77.316957,275.027132 L 79.464194,274.537712 L 81.258177,274.033507 L 82.703611,273.548375 L 83.807688,273.115626 L 84.580047,272.767858 L 85.032712,272.536800 L 85.180035,272.453150 L 85.523253,272.242842 "/>
        <path style="fill:none;stroke-width:0.280000;stroke-linecap:round;stroke-linejoin:round;stroke-opacity:1;stroke:#000000;" d="M 70.481850,237.589225 L 70.093828,237.696312 L 69.932112,237.746800 L 69.454187,237.919664 L 68.672679,238.246353 L 67.602551,238.757317 L 66.261034,239.481862 L 64.667548,240.447988 L 62.843613,241.682255 L 60.812749,243.209639 L 59.715962,244.123687 A 3.175000,3.175000 0 0,0 58.734553,247.560725 L 59.391023,249.543340 A 3.175000,3.175000 0 0,0 62.229710,251.715493 L 63.655265,251.794359 L 66.196352,251.807910 L 68.396471,251.709759 L 70.251653,251.533985 L 71.760482,251.314741 L 72.924087,251.086087 L 73.746130,250.881818 L 74.232778,250.735299 L 74.392669,250.679299 L 74.767924,250.533655 "/>
        <path style="fill:none;stroke-width:0.280000;stroke-linecap:round;stroke-linejoin:round;stroke-opacity:1;stroke:#000000;" d="M 62.229710,251.715493 L 63.655265,251.794359 L 66.196352,251.807910 L 68.396471,251.709759 L 70.251653,251.533985 L 71.760482,251.314741 L 72.924087,251.086087 L 73.746130,250.881818 L 74.232778,250.735299 L 74.392669,250.679299 L 74.767924,250.533655 A 3.175000,3.175000 0 0,1 78.829190,252.229377 L 80.529637,256.147006 A 3.175000,3.175000 0 0,1 78.994741,260.271743 L 78.632076,260.446393 L 78.481974,260.524945 L 78.042596,260.780368 L 77.331979,261.241350 L 76.370285,261.935182 L 75.179699,262.887619 L 73.784329,264.122747 L 72.210092,265.662855 L 70.484591,267.528319 L 69.568638,268.623516 "/>
        <path style="fill:none;stroke-width:0.280000;stroke-linecap:round;stroke-linejoin:round;stroke-opacity:1;stroke:#000000;" d="M 126.302805,88.854821 L 126.081054,88.518882 L 125.983064,88.380683 L 125.670974,87.979567 L 125.118775,87.337261 L 124.302131,86.477405 L 123.198497,85.425443 L 121.787242,84.208497 L 120.049758,82.855241 L 117.969558,81.395763 L 116.761320,80.635113 A 3.175000,3.175000 0 0,0 113.189231,80.763840 L 111.506513,82.000842 A 3.175000,3.175000 0 0,0 110.317875,85.371827 L 110.683389,86.751981 L 111.455741,89.172886 L 112.228962,91.234993 L 112.969416,92.945059 L 113.644183,94.312290 L 114.221220,95.348286 L 114.669516,96.066973 L 114.959247,96.484526 L 115.061915,96.619286 L 115.316391,96.931168 "/>
        <path style="fill:none;stroke-width:0.280000;stroke-linecap:round;stroke-linejoin:round;stroke-opacity:1;stroke:#000000;" d="M 66.155884,213.751190 L 65.754977,213.787272 L 65.586845,213.808073 L 65.085734,213.892822 L 64.258453,214.074717 L 63.114286,214.386392 L 61.664955,214.859755 L 59.924569,215.525827 L 57.909558,216.414583 L 55.638607,217.554797 L 54.396235,218.258317 A 3.175000,3.175000 0 0,0 52.816891,221.464883 L 53.108802,223.532853 A 3.175000,3.175000 0 0,0 55.514017,226.176966 L 56.902581,226.509108 L 59.400412,226.976169 L 61.582700,227.272442 L 63.439454,227.430748 L 64.963183,227.484440 L 66.148916,227.467230 L 66.994222,227.413025 L 67.499211,227.355755 L 67.666532,227.329204 L 68.061762,227.252905 "/>
        <path style="fill:none;stroke-width:0.280000;stroke-linecap:round;stroke-linejoin:round;stroke-opacity:1;stroke:#000000;" d="M 55.514017,226.176966 L 56.902581,226.509108 L 59.400412,226.976169 L 61.582700,227.272442 L 63.439454,227.430748 L 64.963183,227.484440 L 66.148916,227.467230 L 66.994222,227.413025 L 67.499211,227.355755 L 67.666532,227.329204 L 68.061762,227.252905 A 3.175000,3.175000 0 0,1 71.754979,229.646544 L 72.728580,233.804841 A 3.175000,3.175000 0 0,1 70.481850,237.589225 L 70.093828,237.696312 L 69.932112,237.746800 L 69.454187,237.919664 L 68.672679,238.246353 L 67.602551,238.757317 L 66.261034,239.481862 L 64.667548,240.447988 L 62.843613,241.682255 L 60.812749,243.209639 L 59.715962,244.123687 "/>
        <path style="fill:none;stroke-width:0.280000;stroke-linecap:round;stroke-linejoin:round;stroke-opacity:1;stroke:#000000;" d="M 303.824442,96.417086 L 302.505842,96.964555 L 300.210523,98.054883 L 298.270870,99.097910 L 296.675674,100.061210 L 295.411393,100.913398 L 294.462230,101.624277 L 293.810224,102.164988 L 293.435341,102.508146 L 293.315582,102.627975 L 293.040682,102.922012 A 3.175000,3.175000 0 0,1 288.645861,103.156337 L 285.414016,100.364472 A 3.175000,3.175000 0 0,1 285.007254,95.982246 L 285.258225,95.667537 L 285.359380,95.531637 L 285.644423,95.110870 L 286.084654,94.387215 L 286.650068,93.344830 L 287.309502,91.970138 L 288.030784,90.251897 L 288.780895,88.181272 L 289.526124,85.751881 L 289.876180,84.367725 "/>
        <path style="fill:none;stroke-width:0.280000;stroke-linecap:round;stroke-linejoin:round;stroke-opacity:1;stroke:#000000;" d="M 320.955824,116.512674 L 319.560660,116.815899 L 317.107541,117.478860 L 315.012821,118.158787 L 313.271256,118.821773 L 311.875128,119.434520 L 310.814287,119.964496 L 310.076211,120.380097 L 309.646080,120.650802 L 309.506849,120.747322 L 309.183864,120.987548 A 3.175000,3.175000 0 0,1 304.817829,120.433382 L 302.136428,117.109315 A 3.175000,3.175000 0 0,1 302.518679,112.724883 L 302.821811,112.460044 L 302.945606,112.344390 L 303.301199,111.981281 L 303.863568,111.347862 L 304.606021,110.423187 L 305.500318,109.188333 L 306.516813,107.626496 L 307.624594,105.723084 L 308.791631,103.465799 L 309.383212,102.166392 "/>
        <path style="fill:none;stroke-width:0.280000;stroke-linecap:round;stroke-linejoin:round;stroke-opacity:1;stroke:#000000;" d="M 283.380163,79.703369 L 282.180508,80.477485 L 280.116761,81.960136 L 278.394519,83.332739 L 276.996962,84.565392 L 275.905162,85.629631 L 275.098186,86.498566 L 274.553205,87.147008 L 274.245620,87.551589 L 274.149182,87.690876 L 273.931202,88.029273 A 3.175000,3.175000 0 0,1 269.648848,89.044558 L 265.970433,86.874627 A 3.175000,3.175000 0 0,1 264.787731,82.635455 L 264.978476,82.280992 L 265.053739,82.129214 L 265.259070,81.664312 L 265.563013,80.873680 L 265.933215,79.747088 L 266.336591,78.276741 L 266.739479,76.457324 L 267.107810,74.286037 L 267.407279,71.762622 L 267.504558,70.338204 "/>
        <path style="fill:none;stroke-width:0.280000;stroke-linecap:round;stroke-linejoin:round;stroke-opacity:1;stroke:#000000;" d="M 334.223691,139.344243 L 332.796805,139.393480 L 330.264733,139.607766 L 328.082270,139.902739 L 326.250312,140.244102 L 324.767211,140.597714 L 323.628786,140.929752 L 322.828363,141.206886 L 322.356808,141.396438 L 322.202581,141.466545 L 321.841892,141.645240 A 3.175000,3.175000 0 0,1 317.644972,140.320394 L 315.600197,136.570963 A 3.175000,3.175000 0 0,1 316.759175,132.325244 L 317.104724,132.118788 L 317.247181,132.027097 L 317.661895,131.733317 L 318.328328,131.210492 L 319.223957,130.433247 L 320.324374,129.377921 L 321.603410,128.022685 L 323.033255,126.347663 L 324.584592,124.335037 L 325.398684,123.162143 "/>
        <path style="fill:none;stroke-width:0.280000;stroke-linecap:round;stroke-linejoin:round;stroke-opacity:1;stroke:#000000;" d="M 302.518679,112.724883 L 302.821811,112.460044 L 302.945606,112.344390 L 303.301199,111.981281 L 303.863568,111.347862 L 304.606021,110.423187 L 305.500318,109.188333 L 306.516813,107.626496 L 307.624594,105.723084 L 308.791631,103.465799 L 309.383212,102.166392 A 3.175000,3.175000 0 0,0 308.776156,98.643911 L 307.324473,97.142468 A 3.175000,3.175000 0 0,0 303.824442,96.417086 L 302.505842,96.964555 L 300.210523,98.054883 L 298.270870,99.097910 L 296.675674,100.061210 L 295.411393,100.913398 L 294.462230,101.624277 L 293.810224,102.164988 L 293.435341,102.508146 L 293.315582,102.627975 L 293.040682,102.922012 "/>
        <path style="fill:none;stroke-width:0.280000;stroke-linecap:round;stroke-linejoin:round;stroke-opacity:1;stroke:#000000;" d="M 260.280082,66.908716 L 259.237930,67.884598 L 257.472086,69.711918 L 256.022609,71.369981 L 254.867610,72.832368 L 253.983383,74.074453 L 253.344529,75.073515 L 252.924091,75.808846 L 252.693689,76.261847 L 252.623672,76.416115 L 252.469618,76.787996 A 3.175000,3.175000 0 0,1 248.437369,78.551608 L 244.430612,77.073356 A 3.175000,3.175000 0 0,1 242.509983,73.113489 L 242.634370,72.730663 L 242.681323,72.567885 L 242.800343,72.073792 L 242.958228,71.241594 L 243.121321,70.067005 L 243.255674,68.548261 L 243.327217,66.686145 L 243.301931,64.483983 L 243.146014,61.947648 L 242.987391,60.528752 "/>
        <path style="fill:none;stroke-width:0.280000;stroke-linecap:round;stroke-linejoin:round;stroke-opacity:1;stroke:#000000;" d="M 285.007254,95.982246 L 285.258225,95.667537 L 285.359380,95.531637 L 285.644423,95.110870 L 286.084654,94.387215 L 286.650068,93.344830 L 287.309502,91.970138 L 288.030784,90.251897 L 288.780895,88.181272 L 289.526124,85.751881 L 289.876180,84.367725 A 3.175000,3.175000 0 0,0 288.649916,81.010245 L 286.953469,79.792139 A 3.175000,3.175000 0 0,0 283.380163,79.703369 L 282.180508,80.477485 L 280.116761,81.960136 L 278.394519,83.332739 L 276.996962,84.565392 L 275.905162,85.629631 L 275.098186,86.498566 L 274.553205,87.147008 L 274.245620,87.551589 L 274.149182,87.690876 L 273.931202,88.029273 "/>
        <path style="fill:none;stroke-width:0.280000;stroke-linecap:round;stroke-linejoin:round;stroke-opacity:1;stroke:#000000;" d="M 316.759175,132.325244 L 317.104724,132.118788 L 317.247181,132.027097 L 317.661895,131.733317 L 318.328328,131.210492 L 319.223957,130.433247 L 320.324374,129.377921 L 321.603410,128.022685 L 323.033255,126.347663 L 324.584592,124.335037 L 325.398684,123.162143 A 3.175000,3.175000 0 0,0 325.430347,119.587875 L 324.270085,117.851353 A 3.175000,3.175000 0 0,0 320.955824,116.512674 L 319.560660,116.815899 L 317.107541,117.478860 L 315.012821,118.158787 L 313.271256,118.821773 L 311.875128,119.434520 L 310.814287,119.964496 L 310.076211,120.380097 L 309.646080,120.650802 L 309.506849,120.747322 L 309.183864,120.987548 "/>
        <path style="fill:none;stroke-width:0.280000;stroke-linecap:round;stroke-linejoin:round;stroke-opacity:1;stroke:#000000;" d="M 264.787731,82.635455 L 264.978476,82.280992 L 265.053739,82.129214 L 265.259070,81.664312 L 265.563013,80.873680 L 265.933215,79.747088 L 266.336591,78.276741 L 266.739479,76.457324 L 267.107810,74.286037 L 267.407279,71.762622 L 267.504558,70.338204 A 3.175000,3.175000 0 0,0 265.698500,67.253639 L 263.811814,66.358021 A 3.175000,3.175000 0 0,0 260.280082,66.908716 L 259.237930,67.884598 L 257.472086,69.711918 L 256.022609,71.369981 L 254.867610,72.832368 L 253.983383,74.074453 L 253.344529,75.073515 L 252.924091,75.808846 L 252.693689,76.261847 L 252.623672,76.416115 L 252.469618,76.787996 "/>
        <path style="fill:none;stroke-width:0.280000;stroke-linecap:round;stroke-linejoin:round;stroke-opacity:1;stroke:#000000;" d="M 343.201605,164.177969 L 341.788858,163.971635 L 339.259215,163.730358 L 337.059155,163.630896 L 335.195685,163.639665 L 333.673278,163.722776 L 332.493861,163.846205 L 331.656816,163.975964 L 331.158994,164.078270 L 330.994727,164.119713 L 330.607927,164.231133 A 3.175000,3.175000 0 0,1 326.715013,162.178188 L 325.372586,158.123904 A 3.175000,3.175000 0 0,1 327.271041,154.153359 L 327.647901,154.011921 L 327.804441,153.947140 L 328.264946,153.732131 L 329.014024,153.336704 L 330.034042,152.731871 L 331.305211,151.889991 L 332.805679,150.784915 L 334.511633,149.392120 L 336.397407,147.688840 L 337.407844,146.680156 "/>
        <path style="fill:none;stroke-width:0.280000;stroke-linecap:round;stroke-linejoin:round;stroke-opacity:1;stroke:#000000;" d="M 327.271041,154.153359 L 327.647901,154.011921 L 327.804441,153.947140 L 328.264946,153.732131 L 329.014024,153.336704 L 330.034042,152.731871 L 331.305211,151.889991 L 332.805679,150.784915 L 334.511633,149.392120 L 336.397407,147.688840 L 337.407844,146.680156 A 3.175000,3.175000 0 0,0 338.077209,143.168982 L 337.245661,141.253194 A 3.175000,3.175000 0 0,0 334.223691,139.344243 L 332.796805,139.393480 L 330.264733,139.607766 L 328.082270,139.902739 L 326.250312,140.244102 L 324.767211,140.597714 L 323.628786,140.929752 L 322.828363,141.206886 L 322.356808,141.396438 L 322.202581,141.466545 L 321.841892,141.645240 "/>
        <path style="fill:none;stroke-width:0.280000;stroke-linecap:round;stroke-linejoin:round;stroke-opacity:1;stroke:#000000;" d="M 235.266656,58.444356 L 234.415502,59.590639 L 233.004316,61.703897 L 231.874192,63.594129 L 230.998874,65.239247 L 230.350639,66.619256 L 229.900441,67.716335 L 229.618058,68.514921 L 229.472246,69.001781 L 229.430899,69.166072 L 229.345722,69.559484 A 3.175000,3.175000 0 0,1 225.693178,72.014741 L 221.486860,71.275678 A 3.175000,3.175000 0 0,1 218.890034,67.722390 L 218.944067,67.323506 L 218.961200,67.154960 L 218.990083,66.647555 L 218.996837,65.800540 L 218.947577,64.615705 L 218.808589,63.097379 L 218.546489,61.252413 L 218.128398,59.090156 L 217.522106,56.622420 L 217.112678,55.254650 "/>
        <path style="fill:none;stroke-width:0.280000;stroke-linecap:round;stroke-linejoin:round;stroke-opacity:1;stroke:#000000;" d="M 242.509983,73.113489 L 242.634370,72.730663 L 242.681323,72.567885 L 242.800343,72.073792 L 242.958228,71.241594 L 243.121321,70.067005 L 243.255674,68.548261 L 243.327217,66.686145 L 243.301931,64.483983 L 243.146014,61.947648 L 242.987391,60.528752 A 3.175000,3.175000 0 0,0 240.659586,57.816240 L 238.643301,57.271896 A 3.175000,3.175000 0 0,0 235.266656,58.444356 L 234.415502,59.590639 L 233.004316,61.703897 L 231.874192,63.594129 L 230.998874,65.239247 L 230.350639,66.619256 L 229.900441,67.716335 L 229.618058,68.514921 L 229.472246,69.001781 L 229.430899,69.166072 L 229.345722,69.559484 "/>
        <path style="fill:none;stroke-width:0.280000;stroke-linecap:round;stroke-linejoin:round;stroke-opacity:1;stroke:#000000;" d="M 333.716417,177.507653 L 334.112475,177.435779 L 334.278066,177.399990 L 334.769562,177.270663 L 335.577209,177.015344 L 336.688831,176.602361 L 338.089895,176.000987 L 339.763569,175.181589 L 341.690801,174.115787 L 343.850402,172.776597 L 345.024709,171.964544 A 3.175000,3.175000 0 0,0 346.310261,168.629315 L 345.834154,166.595836 A 3.175000,3.175000 0 0,0 343.201605,164.177969 L 341.788858,163.971635 L 339.259215,163.730358 L 337.059155,163.630896 L 335.195685,163.639665 L 333.673278,163.722776 L 332.493861,163.846205 L 331.656816,163.975964 L 331.158994,164.078270 L 330.994727,164.119713 L 330.607927,164.231133 "/>
        <path style="fill:none;stroke-width:0.280000;stroke-linecap:round;stroke-linejoin:round;stroke-opacity:1;stroke:#000000;" d="M 347.601006,190.215676 L 346.247805,189.760401 L 343.801897,189.071316 L 341.654952,188.580618 L 339.819863,188.256510 L 338.307081,188.066449 L 337.124579,187.977301 L 336.277817,187.955515 L 335.769727,187.967288 L 335.600700,187.978733 L 335.200222,188.019297 A 3.175000,3.175000 0 0,1 331.736436,185.304237 L 331.139502,181.075407 A 3.175000,3.175000 0 0,1 333.716417,177.507653 L 334.112475,177.435779 L 334.278066,177.399990 L 334.769562,177.270663 L 335.577209,177.015344 L 336.688831,176.602361 L 338.089895,176.000987 L 339.763569,175.181589 L 341.690801,174.115787 L 343.850402,172.776597 L 345.024709,171.964544 "/>
        <path style="fill:none;stroke-width:0.280000;stroke-linecap:round;stroke-linejoin:round;stroke-opacity:1;stroke:#000000;" d="M 218.890034,67.722390 L 218.944067,67.323506 L 218.961200,67.154960 L 218.990083,66.647555 L 218.996837,65.800540 L 218.947577,64.615705 L 218.808589,63.097379 L 218.546489,61.252413 L 218.128398,59.090156 L 217.522106,56.622420 L 217.112678,55.254650 A 3.175000,3.175000 0 0,0 214.337945,53.001375 L 212.256866,52.825801 A 3.175000,3.175000 0 0,0 209.143836,54.582342 L 208.511037,55.862183 L 207.499866,58.193457 L 206.725417,60.255103 L 206.157913,62.030078 L 205.766506,63.503657 L 205.519434,64.663491 L 205.384182,65.499665 L 205.327645,66.004737 L 205.316298,66.173770 L 205.302737,66.576069 "/>
        <path style="fill:none;stroke-width:0.280000;stroke-linecap:round;stroke-linejoin:round;stroke-opacity:1;stroke:#000000;" d="M 209.143836,54.582342 L 208.511037,55.862183 L 207.499866,58.193457 L 206.725417,60.255103 L 206.157913,62.030078 L 205.766506,63.503657 L 205.519434,64.663491 L 205.384182,65.499665 L 205.327645,66.004737 L 205.316298,66.173770 L 205.302737,66.576069 A 3.175000,3.175000 0 0,1 202.147294,69.644055 L 197.876608,69.667937 A 3.175000,3.175000 0 0,1 194.687050,66.635433 L 194.668991,66.233311 L 194.655754,66.064415 L 194.593572,65.560006 L 194.448977,64.725397 L 194.188949,63.568399 L 193.781086,62.099290 L 193.193767,60.330773 L 192.396309,58.277917 L 191.359129,55.958097 L 190.712056,54.685413 "/>
        <path style="fill:none;stroke-width:0.280000;stroke-linecap:round;stroke-linejoin:round;stroke-opacity:1;stroke:#000000;" d="M 335.888143,201.637500 L 336.290670,201.637500 L 336.459990,201.631854 L 336.966680,201.592365 L 337.806936,201.485360 L 338.974435,201.277502 L 340.460363,200.935961 L 342.253449,200.428578 L 344.340016,199.724024 L 346.704033,198.791967 L 348.004466,198.202644 A 3.175000,3.175000 0 0,0 349.864887,195.150558 L 349.759522,193.064746 A 3.175000,3.175000 0 0,0 347.601006,190.215676 L 346.247805,189.760401 L 343.801897,189.071316 L 341.654952,188.580618 L 339.819863,188.256510 L 338.307081,188.066449 L 337.124579,187.977301 L 336.277817,187.955515 L 335.769727,187.967288 L 335.600700,187.978733 L 335.200222,188.019297 "/>
        <path style="fill:none;stroke-width:0.280000;stroke-linecap:round;stroke-linejoin:round;stroke-opacity:1;stroke:#000000;" d="M 194.687050,66.635433 L 194.668991,66.233311 L 194.655754,66.064415 L 194.593572,65.560006 L 194.448977,64.725397 L 194.188949,63.568399 L 193.781086,62.099290 L 193.193767,60.330773 L 192.396309,58.277917 L 191.359129,55.958097 L 190.712056,54.685413 A 3.175000,3.175000 0 0,0 187.579576,52.963798 L 185.500591,53.162635 A 3.175000,3.175000 0 0,0 182.751231,55.446801 L 182.357126,56.819065 L 181.778471,59.293427 L 181.384588,61.460225 L 181.143138,63.308007 L 181.021139,64.827792 L 180.985134,66.013104 L 181.001360,66.859991 L 181.035916,67.367041 L 181.054933,67.535384 L 181.113423,67.933639 "/>
        <path style="fill:none;stroke-width:0.280000;stroke-linecap:round;stroke-linejoin:round;stroke-opacity:1;stroke:#000000;" d="M 347.280496,216.620489 L 346.030334,215.930907 L 343.746772,214.816162 L 341.721948,213.949998 L 339.974221,213.303431 L 338.519687,212.846307 L 337.372106,212.547448 L 336.542842,212.374816 L 336.040815,212.295677 L 335.872461,212.276757 L 335.471175,212.245161 A 3.175000,3.175000 0 0,1 332.547847,208.955250 L 332.715593,204.687793 A 3.175000,3.175000 0 0,1 335.888143,201.637500 L 336.290670,201.637500 L 336.459990,201.631854 L 336.966680,201.592365 L 337.806936,201.485360 L 338.974435,201.277502 L 340.460363,200.935961 L 342.253449,200.428578 L 344.340016,199.724024 L 346.704033,198.791967 L 348.004466,198.202644 "/>
        <path style="fill:none;stroke-width:0.280000;stroke-linecap:round;stroke-linejoin:round;stroke-opacity:1;stroke:#000000;" d="M 182.751231,55.446801 L 182.357126,56.819065 L 181.778471,59.293427 L 181.384588,61.460225 L 181.143138,63.308007 L 181.021139,64.827792 L 180.985134,66.013104 L 181.001360,66.859991 L 181.035916,67.367041 L 181.054933,67.535384 L 181.113423,67.933639 A 3.175000,3.175000 0 0,1 178.556499,71.515748 L 174.358709,72.301806 A 3.175000,3.175000 0 0,1 170.678934,69.887553 L 170.589364,69.495118 L 170.546182,69.331300 L 170.394934,68.846100 L 170.103637,68.050722 L 169.641197,66.958747 L 168.977570,65.586074 L 168.083908,63.950848 L 166.932714,62.073374 L 165.497982,59.976030 L 164.634062,58.839338 "/>
        <path style="fill:none;stroke-width:0.280000;stroke-linecap:round;stroke-linejoin:round;stroke-opacity:1;stroke:#000000;" d="M 333.716417,225.767347 L 334.112475,225.839221 L 334.280082,225.863899 L 334.785681,225.915518 L 335.631540,225.960265 L 336.817392,225.964213 L 338.340425,225.893484 L 340.195292,225.714422 L 342.374130,225.393762 L 344.866581,224.898794 L 346.251344,224.551144 A 3.175000,3.175000 0 0,0 348.626837,221.880297 L 348.895602,219.809191 A 3.175000,3.175000 0 0,0 347.280496,216.620489 L 346.030334,215.930907 L 343.746772,214.816162 L 341.721948,213.949998 L 339.974221,213.303431 L 338.519687,212.846307 L 337.372106,212.547448 L 336.542842,212.374816 L 336.040815,212.295677 L 335.872461,212.276757 L 335.471175,212.245161 "/>
        <path style="fill:none;stroke-width:0.280000;stroke-linecap:round;stroke-linejoin:round;stroke-opacity:1;stroke:#000000;" d="M 170.678934,69.887553 L 170.589364,69.495118 L 170.546182,69.331300 L 170.394934,68.846100 L 170.103637,68.050722 L 169.641197,66.958747 L 168.977570,65.586074 L 168.083908,63.950848 L 166.932714,62.073374 L 165.497982,59.976030 L 164.634062,58.839338 A 3.175000,3.175000 0 0,0 161.244515,57.704715 L 159.234445,58.271575 A 3.175000,3.175000 0 0,0 156.937122,61.009950 L 156.794377,62.430532 L 156.666835,64.968452 L 156.666179,67.170759 L 156.758544,69.031959 L 156.909873,70.549105 L 157.086092,71.721797 L 157.253275,72.552176 L 157.377813,73.044908 L 157.426583,73.207150 L 157.555245,73.588561 "/>
        <path style="fill:none;stroke-width:0.280000;stroke-linecap:round;stroke-linejoin:round;stroke-opacity:1;stroke:#000000;" d="M 342.250374,242.543736 L 341.143433,241.642011 L 339.095614,240.137436 L 337.257989,238.923644 L 335.653798,237.975400 L 334.304262,237.265904 L 333.228486,236.766939 L 332.443373,236.449012 L 331.963545,236.281503 L 331.801274,236.232827 L 331.412080,236.130086 A 3.175000,3.175000 0 0,1 329.123166,232.371065 L 330.050200,228.202140 A 3.175000,3.175000 0 0,1 333.716417,225.767347 L 334.112475,225.839221 L 334.280082,225.863899 L 334.785681,225.915518 L 335.631540,225.960265 L 336.817392,225.964213 L 338.340425,225.893484 L 340.195292,225.714422 L 342.374130,225.393762 L 344.866581,224.898794 L 346.251344,224.551144 "/>
        <path style="fill:none;stroke-width:0.280000;stroke-linecap:round;stroke-linejoin:round;stroke-opacity:1;stroke:#000000;" d="M 156.937122,61.009950 L 156.794377,62.430532 L 156.666835,64.968452 L 156.666179,67.170759 L 156.758544,69.031959 L 156.909873,70.549105 L 157.086092,71.721797 L 157.253275,72.552176 L 157.377813,73.044908 L 157.426583,73.207150 L 157.555245,73.588561 A 3.175000,3.175000 0 0,1 155.679022,77.569660 L 151.689048,79.092631 A 3.175000,3.175000 0 0,1 147.637327,77.374225 L 147.479124,77.004090 L 147.407385,76.850615 L 147.171932,76.400219 L 146.743296,75.669636 L 146.093309,74.677781 L 145.195246,73.445663 L 144.023965,71.996285 L 142.556035,70.354536 L 140.769865,68.547079 L 139.716864,67.582913 "/>
        <path style="fill:none;stroke-width:0.280000;stroke-linecap:round;stroke-linejoin:round;stroke-opacity:1;stroke:#000000;" d="M 327.271041,249.121641 L 327.647901,249.263079 L 327.808408,249.317288 L 328.296665,249.458355 L 329.120941,249.653417 L 330.287030,249.869044 L 331.798217,250.071399 L 333.655249,250.226414 L 335.856327,250.299954 L 338.397104,250.257985 L 339.821688,250.163180 A 3.175000,3.175000 0 0,0 342.635905,247.959416 L 343.270161,245.969583 A 3.175000,3.175000 0 0,0 342.250374,242.543736 L 341.143433,241.642011 L 339.095614,240.137436 L 337.257989,238.923644 L 335.653798,237.975400 L 334.304262,237.265904 L 333.228486,236.766939 L 332.443373,236.449012 L 331.963545,236.281503 L 331.801274,236.232827 L 331.412080,236.130086 "/>
        <path style="fill:none;stroke-width:0.280000;stroke-linecap:round;stroke-linejoin:round;stroke-opacity:1;stroke:#000000;" d="M 147.637327,77.374225 L 147.479124,77.004090 L 147.407385,76.850615 L 147.171932,76.400219 L 146.743296,75.669636 L 146.093309,74.677781 L 145.195246,73.445663 L 144.023965,71.996285 L 142.556035,70.354536 L 140.769865,68.547079 L 139.716864,67.582913 A 3.175000,3.175000 0 0,0 136.179194,67.071751 L 134.302642,67.988413 A 3.175000,3.175000 0 0,0 132.531194,71.092984 L 132.644398,72.516224 L 132.972069,75.036133 L 133.364661,77.203165 L 133.787871,79.017962 L 134.207665,80.483706 L 134.590445,81.606087 L 134.903210,82.393271 L 135.113728,82.855847 L 135.190684,83.006774 L 135.385381,83.359082 "/>
        <path style="fill:none;stroke-width:0.280000;stroke-linecap:round;stroke-linejoin:round;stroke-opacity:1;stroke:#000000;" d="M 323.153397,258.906391 L 323.517992,259.076975 L 323.668964,259.153843 L 324.111171,259.404336 L 324.826899,259.857342 L 325.796293,260.540375 L 326.997456,261.479438 L 328.406552,262.698883 L 329.997915,264.221289 L 331.744171,266.067338 L 332.672315,267.152224 A 3.175000,3.175000 0 0,1 333.064004,270.705106 L 332.084642,272.549710 A 3.175000,3.175000 0 0,1 328.922154,274.215562 L 327.503536,274.054473 L 324.996097,273.642094 L 322.843521,273.176719 L 321.044011,272.692609 L 319.593242,272.223673 L 318.484394,271.803299 L 317.708194,271.464190 L 317.252973,271.238209 L 317.104724,271.156212 L 316.759175,270.949756 "/>
        <path style="fill:none;stroke-width:0.280000;stroke-linecap:round;stroke-linejoin:round;stroke-opacity:1;stroke:#000000;" d="M 332.672315,267.152224 L 331.744171,266.067338 L 329.997915,264.221289 L 328.406552,262.698883 L 326.997456,261.479438 L 325.796293,260.540375 L 324.826899,259.857342 L 324.111171,259.404336 L 323.668964,259.153843 L 323.517992,259.076974 L 323.153397,258.906391 A 3.175000,3.175000 0 0,1 321.572467,254.799078 L 323.228993,250.862678 A 3.175000,3.175000 0 0,1 327.271041,249.121641 L 327.647901,249.263079 L 327.808408,249.317288 L 328.296665,249.458355 L 329.120941,249.653417 L 330.287030,249.869044 L 331.798217,250.071399 L 333.655249,250.226414 L 335.856327,250.299954 L 338.397104,250.257985 L 339.821688,250.163180 "/>
        <path style="fill:none;stroke-width:0.280000;stroke-linecap:round;stroke-linejoin:round;stroke-opacity:1;stroke:#000000;" d="M 132.531194,71.092984 L 132.644398,72.516224 L 132.972069,75.036133 L 133.364661,77.203165 L 133.787871,79.017962 L 134.207665,80.483706 L 134.590445,81.606087 L 134.903210,82.393271 L 135.113728,82.855847 L 135.190684,83.006774 L 135.385381,83.359082 A 3.175000,3.175000 0 0,1 134.250163,87.611215 L 130.596246,89.822149 A 3.175000,3.175000 0 0,1 126.302805,88.854821 L 126.081054,88.518882 L 125.983064,88.380683 L 125.670974,87.979567 L 125.118775,87.337261 L 124.302131,86.477405 L 123.198497,85.425443 L 121.787242,84.208497 L 120.049758,82.855241 L 117.969558,81.395763 L 116.761320,80.635113 "/>
        <path style="fill:none;stroke-width:0.280000;stroke-linecap:round;stroke-linejoin:round;stroke-opacity:1;stroke:#000000;" d="M 328.922154,274.215562 L 327.503536,274.054473 L 324.996097,273.642094 L 322.843521,273.176719 L 321.044011,272.692609 L 319.593242,272.223673 L 318.484394,271.803299 L 317.708194,271.464190 L 317.252973,271.238209 L 317.104724,271.156212 L 316.759175,270.949756 A 3.175000,3.175000 0 0,0 312.471211,271.941077 L 310.138434,275.518434 A 3.175000,3.175000 0 0,0 310.960569,279.842027 L 311.288846,280.074970 L 311.423666,280.177560 L 311.814039,280.502987 L 312.437378,281.076511 L 313.269233,281.921660 L 314.283417,283.060107 L 315.452127,284.511559 L 316.746080,286.293648 L 318.134649,288.421836 L 318.854163,289.655014 "/>
        <path style="fill:none;stroke-width:0.280000;stroke-linecap:round;stroke-linejoin:round;stroke-opacity:1;stroke:#000000;" d="M 310.960569,279.842027 L 311.288846,280.074970 L 311.423666,280.177560 L 311.814039,280.502987 L 312.437378,281.076511 L 313.269233,281.921660 L 314.283417,283.060107 L 315.452127,284.511559 L 316.746080,286.293648 L 318.134649,288.421836 L 318.854163,289.655014 A 3.175000,3.175000 0 0,1 318.605166,293.220739 L 317.312177,294.860828 A 3.175000,3.175000 0 0,1 313.903061,295.935224 L 312.536004,295.523421 L 310.142494,294.669948 L 308.107607,293.827694 L 306.423457,293.030049 L 305.079735,292.309604 L 304.063767,291.697993 L 303.360591,291.225739 L 302.953036,290.922106 L 302.821811,290.814956 L 302.518679,290.550117 "/>
        <path style="fill:none;stroke-width:0.280000;stroke-linecap:round;stroke-linejoin:round;stroke-opacity:1;stroke:#000000;" d="M 110.317875,85.371827 L 110.683389,86.751981 L 111.455741,89.172886 L 112.228962,91.234993 L 112.969416,92.945059 L 113.644183,94.312290 L 114.221220,95.348286 L 114.669516,96.066973 L 114.959247,96.484526 L 115.061915,96.619286 L 115.316391,96.931168 A 3.175000,3.175000 0 0,1 114.958663,101.317669 L 111.758244,104.145504 A 3.175000,3.175000 0 0,1 107.361077,103.960345 L 107.082906,103.669400 L 106.961814,103.550918 L 106.583117,103.211975 L 105.925105,102.678589 L 104.968051,101.978369 L 103.694318,101.140374 L 102.088448,100.194975 L 100.137252,99.173706 L 97.829882,98.109116 L 96.505242,97.576429 "/>
        <path style="fill:none;stroke-width:0.280000;stroke-linecap:round;stroke-linejoin:round;stroke-opacity:1;stroke:#000000;" d="M 313.903061,295.935224 L 312.536004,295.523421 L 310.142494,294.669948 L 308.107607,293.827694 L 306.423457,293.030049 L 305.079735,292.309604 L 304.063767,291.697993 L 303.360591,291.225739 L 302.953036,290.922106 L 302.821811,290.814956 L 302.518679,290.550117 A 3.175000,3.175000 0 0,0 298.122616,290.759863 L 295.188566,293.863197 A 3.175000,3.175000 0 0,0 295.225482,298.264105 L 295.506890,298.551921 L 295.621225,298.676935 L 295.947218,299.066836 L 296.458133,299.742444 L 297.125712,300.722545 L 297.920320,302.023787 L 298.811082,303.660595 L 299.766037,305.645089 L 300.752288,307.987015 L 301.240047,309.328849 "/>
        <path style="fill:none;stroke-width:0.280000;stroke-linecap:round;stroke-linejoin:round;stroke-opacity:1;stroke:#000000;" d="M 295.225482,298.264105 L 295.506890,298.551921 L 295.621225,298.676935 L 295.947218,299.066836 L 296.458133,299.742444 L 297.125712,300.722545 L 297.920320,302.023787 L 298.811082,303.660595 L 299.766037,305.645089 L 300.752288,307.987015 L 301.240047,309.328849 A 3.175000,3.175000 0 0,1 300.358367,312.792811 L 298.793307,314.175671 A 3.175000,3.175000 0 0,1 295.247136,314.624080 L 293.975579,313.974797 L 291.772927,312.707662 L 289.921131,311.515601 L 288.406472,310.430058 L 287.212983,309.481260 L 286.322550,308.698069 L 285.714999,308.107847 L 285.368209,307.736322 L 285.258225,307.607463 L 285.007254,307.292754 "/>
        <path style="fill:none;stroke-width:0.280000;stroke-linecap:round;stroke-linejoin:round;stroke-opacity:1;stroke:#000000;" d="M 97.993306,113.868602 L 97.687232,113.607170 L 97.562151,113.492908 L 97.202520,113.133799 L 96.633101,112.506708 L 95.880353,111.590395 L 94.972301,110.365619 L 93.938403,108.815248 L 92.809404,106.924344 L 91.617195,104.680253 L 91.011119,103.387543 A 3.175000,3.175000 0 0,1 91.578742,99.858493 L 93.013543,98.340909 A 3.175000,3.175000 0 0,1 96.505242,97.576429 L 97.829882,98.109116 L 100.137252,99.173706 L 102.088448,100.194975 L 103.694318,101.140374 L 104.968051,101.978369 L 105.925105,102.678589 L 106.583117,103.211975 L 106.961814,103.550918 L 107.082906,103.669400 L 107.361077,103.960345 "/>
        <path style="fill:none;stroke-width:0.280000;stroke-linecap:round;stroke-linejoin:round;stroke-opacity:1;stroke:#000000;" d="M 295.247136,314.624080 L 293.975579,313.974797 L 291.772927,312.707662 L 289.921131,311.515601 L 288.406472,310.430058 L 287.212983,309.481260 L 286.322550,308.698069 L 285.714999,308.107847 L 285.368209,307.736322 L 285.258225,307.607463 L 285.007254,307.292754 A 3.175000,3.175000 0 0,0 280.644386,306.714182 L 277.203366,309.243749 A 3.175000,3.175000 0 0,0 276.453876,313.580525 L 276.679370,313.913962 L 276.769545,314.057383 L 277.020680,314.499226 L 277.402749,315.255205 L 277.884597,316.338755 L 278.434090,317.760968 L 279.018274,319.530524 L 279.603536,321.653640 L 280.155771,324.134032 L 280.396097,325.541395 "/>
        <path style="fill:none;stroke-width:0.280000;stroke-linecap:round;stroke-linejoin:round;stroke-opacity:1;stroke:#000000;" d="M 91.420946,122.205293 L 91.095295,121.968693 L 90.954993,121.873737 L 90.521861,121.607860 L 89.779184,121.200539 L 88.712481,120.682460 L 87.309588,120.085366 L 85.560718,119.441898 L 83.458524,118.785441 L 80.998144,118.149957 L 79.599677,117.862353 A 3.175000,3.175000 0 0,0 76.300594,119.238015 L 75.159826,120.987404 A 3.175000,3.175000 0 0,0 75.231460,124.561094 L 76.058619,125.724811 L 77.632367,127.719961 L 79.080856,129.378887 L 80.374969,130.719733 L 81.487120,131.762687 L 82.391385,132.529867 L 83.063624,133.045206 L 83.481597,133.334330 L 83.625070,133.424422 L 83.972907,133.627000 "/>
        <path style="fill:none;stroke-width:0.280000;stroke-linecap:round;stroke-linejoin:round;stroke-opacity:1;stroke:#000000;" d="M 276.453876,313.580525 L 276.679370,313.913962 L 276.769545,314.057383 L 277.020680,314.499226 L 277.402749,315.255205 L 277.884597,316.338755 L 278.434090,317.760968 L 279.018274,319.530524 L 279.603536,321.653640 L 280.155771,324.134032 L 280.396097,325.541395 C 280.591265,326.684304 280.147434,327.829931 279.262177,328.544132 L 276.740069,330.070224 C 275.696650,330.523037 274.475874,330.384641 273.553996,329.681455 L 272.418806,328.815560 L 270.477807,327.175490 L 268.868622,325.671935 L 267.572135,324.333384 L 266.567241,323.186728 L 265.830961,322.257131 L 265.338562,321.567911 L 265.063683,321.140435 L 264.978476,320.994008 L 264.787731,320.639545 "/>
        <path style="fill:none;stroke-width:0.280000;stroke-linecap:round;stroke-linejoin:round;stroke-opacity:1;stroke:#000000;" d="M 79.599677,117.862353 L 80.998144,118.149957 L 83.458524,118.785441 L 85.560718,119.441898 L 87.309588,120.085366 L 88.712481,120.682460 L 89.779184,121.200539 L 90.521861,121.607860 L 90.954993,121.873737 L 91.095295,121.968693 L 91.420946,122.205293 A 3.175000,3.175000 0 0,0 95.780510,121.602332 L 98.424568,118.248485 A 3.175000,3.175000 0 0,0 97.993306,113.868602 L 97.687232,113.607170 L 97.562151,113.492908 L 97.202520,113.133799 L 96.633101,112.506708 L 95.880353,111.590395 L 94.972301,110.365619 L 93.938403,108.815248 L 92.809404,106.924344 L 91.617195,104.680253 L 91.011119,103.387543 "/>
        <path style="fill:none;stroke-width:0.280000;stroke-linecap:round;stroke-linejoin:round;stroke-opacity:1;stroke:#000000;" d="M 75.231460,124.561094 L 76.058619,125.724811 L 77.632367,127.719961 L 79.080856,129.378887 L 80.374969,130.719733 L 81.487120,131.762687 L 82.391385,132.529867 L 83.063624,133.045206 L 83.481597,133.334330 L 83.625070,133.424422 L 83.972907,133.627000 A 3.175000,3.175000 0 0,1 85.179296,137.859492 L 83.176582,141.631556 A 3.175000,3.175000 0 0,1 78.994741,143.003257 L 78.632076,142.828607 L 78.477075,142.760229 L 78.003429,142.575963 L 77.199957,142.307798 L 76.057890,141.988512 L 74.570926,141.651510 L 72.735266,141.330656 L 70.549640,141.060109 L 68.015329,140.874155 L 66.587982,140.840880 "/>
        <path style="fill:none;stroke-width:0.280000;stroke-linecap:round;stroke-linejoin:round;stroke-opacity:1;stroke:#000000;" d="M 225.123767,290.148748 L 224.807257,290.038311 L 223.948117,289.785930 L 223.124503,289.588097 L 222.339602,289.440601 L 221.596270,289.339057 L 220.897016,289.278924 L 220.244004,289.255532 L 219.639035,289.264105 L 219.083553,289.299782 L 218.578633,289.357648 L 218.124985,289.432750 L 217.722951,289.520128 L 217.372506,289.614837 L 217.073260,289.711970 L 216.824465,289.806682 L 216.625018,289.894217 L 216.473470,289.969928 L 216.368030,290.029300 L 216.306583,290.067972 L 216.286693,290.081760 L 211.624072,293.549681 A 3.175000,3.175000 0 0,1 207.877419,293.581109 L 206.105595,292.308881 A 3.175000,3.175000 0 0,1 204.937816,288.748727 L 206.733481,283.222238 L 206.740189,283.198984 L 206.757192,283.128399 L 206.779747,283.009513 L 206.803046,282.841715 L 206.822239,282.624752 L 206.832460,282.358735 L 206.828847,282.044140 L 206.806573,281.681807 L 206.760864,281.272934 L 206.687025,280.819079 L 206.580466,280.322151 L 206.436721,279.784405 L 206.251475,279.208432 L 206.020585,278.597153 L 205.740102,277.953802 L 205.406290,277.281921 L 205.015651,276.585340 L 204.564941,275.868166 L 204.051188,275.134765 L 203.845378,274.870158 "/>
        <path style="fill:none;stroke-width:0.280000;stroke-linecap:round;stroke-linejoin:round;stroke-opacity:1;stroke:#000000;" d="M 273.553996,329.681455 L 272.418806,328.815560 L 270.477807,327.175490 L 268.868622,325.671935 L 267.572135,324.333384 L 266.567241,323.186728 L 265.830961,322.257131 L 265.338562,321.567911 L 265.063683,321.140435 L 264.978476,320.994008 L 264.787731,320.639545 A 3.175000,3.175000 0 0,0 260.598284,319.291249 L 256.760891,321.165748 A 3.175000,3.175000 0 0,0 255.249084,325.299003 L 255.411417,325.667346 L 255.474535,325.824563 L 255.642739,326.304148 L 255.883684,327.116198 L 256.164312,328.268373 L 256.451028,329.765846 L 256.709858,331.611274 L 256.906618,333.804774 L 257.007087,336.343910 L 256.992257,337.771568 "/>
        <path style="fill:none;stroke-width:0.280000;stroke-linecap:round;stroke-linejoin:round;stroke-opacity:1;stroke:#000000;" d="M 216.286693,290.081760 L 211.624072,293.549681 "/>
        <path style="fill:none;stroke-width:0.280000;stroke-linecap:round;stroke-linejoin:round;stroke-opacity:1;stroke:#000000;" d="M 197.355455,274.906450 L 197.152617,275.173342 L 196.647099,275.912443 L 196.204438,276.634613 L 195.821614,277.335519 L 195.495337,278.011092 L 195.222066,278.657539 L 194.998027,279.271362 L 194.819235,279.849371 L 194.681513,280.388691 L 194.580517,280.886779 L 194.511759,281.341432 L 194.470625,281.750790 L 194.452405,282.113350 L 194.452311,282.427966 L 194.465506,282.693851 L 194.487125,282.910586 L 194.512299,283.078114 L 194.536182,283.196739 L 194.553973,283.267130 L 194.560940,283.290307 L 196.418301,288.796369 A 3.175000,3.175000 0 0,1 195.290410,292.369360 L 193.532926,293.661324 A 3.175000,3.175000 0 0,1 189.786155,293.671801 L 185.085042,290.256242 L 185.064999,290.242677 L 185.003123,290.204694 L 184.897026,290.146506 L 184.744640,290.072494 L 184.544227,289.987195 L 184.294388,289.895271 L 183.994075,289.801492 L 183.642592,289.710708 L 183.239606,289.627831 L 182.785147,289.557807 L 182.279612,289.505592 L 181.723765,289.476129 L 181.118738,289.474323 L 180.466028,289.505017 L 179.767491,289.572966 L 179.025341,289.682817 L 178.242139,289.839082 L 177.420789,290.046114 L 176.564525,290.308088 L 176.249270,290.422057 "/>
        <path style="fill:none;stroke-width:0.280000;stroke-linecap:round;stroke-linejoin:round;stroke-opacity:1;stroke:#000000;" d="M 206.733481,283.222238 L 204.937816,288.748727 "/>
        <path style="fill:none;stroke-width:0.280000;stroke-linecap:round;stroke-linejoin:round;stroke-opacity:1;stroke:#000000;" d="M 78.994741,143.003257 L 78.632076,142.828607 L 78.477075,142.760229 L 78.003429,142.575963 L 77.199957,142.307798 L 76.057890,141.988512 L 74.570926,141.651510 L 72.735266,141.330656 L 70.549640,141.060109 L 68.015329,140.874155 L 66.587982,140.840880 A 3.175000,3.175000 0 0,0 63.587551,142.783508 L 62.777481,144.708476 A 3.175000,3.175000 0 0,0 63.486071,148.211945 L 64.507727,149.209265 L 66.412432,150.891349 L 68.133856,152.264977 L 69.646589,153.353203 L 70.927094,154.180814 L 71.953812,154.774202 L 72.707266,155.161226 L 73.170147,155.371072 L 73.327401,155.434098 L 73.705819,155.571312 "/>
        <path style="fill:none;stroke-width:0.280000;stroke-linecap:round;stroke-linejoin:round;stroke-opacity:1;stroke:#000000;" d="M 255.249084,325.299003 L 255.411417,325.667346 L 255.474535,325.824563 L 255.642739,326.304148 L 255.883684,327.116198 L 256.164312,328.268373 L 256.451028,329.765846 L 256.709858,331.611274 L 256.906618,333.804774 L 257.007087,336.343910 L 256.992257,337.771568 A 3.175000,3.175000 0 0,1 254.949648,340.704851 L 252.998482,341.449609 A 3.175000,3.175000 0 0,1 249.520874,340.623391 L 248.558540,339.568716 L 246.941579,337.608424 L 245.626724,335.841700 L 244.590079,334.293164 L 243.806078,332.985504 L 243.247616,331.939378 L 242.886195,331.173313 L 242.692063,330.703625 L 242.634370,330.544337 L 242.509983,330.161511 "/>
        <path style="fill:none;stroke-width:0.280000;stroke-linecap:round;stroke-linejoin:round;stroke-opacity:1;stroke:#000000;" d="M 220.496348,301.586072 L 220.708623,301.537280 L 220.964778,301.464797 L 221.262859,301.364146 L 221.600576,301.230995 L 221.975312,301.061175 L 222.384137,300.850701 L 222.823815,300.595798 L 223.290822,300.292915 L 223.781360,299.938751 L 224.291373,299.530266 L 224.816561,299.064704 L 225.352405,298.539607 L 225.894178,297.952832 L 226.436974,297.302562 L 226.975722,296.587321 L 227.163779,296.309816 A 3.175000,3.175000 0 0,0 227.549516,293.530670 L 227.091863,292.148508 A 3.175000,3.175000 0 0,0 225.123767,290.148748 L 224.807257,290.038311 L 223.948117,289.785930 L 223.124503,289.588097 L 222.339602,289.440601 L 221.596270,289.339057 L 220.897016,289.278924 L 220.244004,289.255532 L 219.639035,289.264105 L 219.083553,289.299782 L 218.578633,289.357648 L 218.124985,289.432750 L 217.722951,289.520128 L 217.372506,289.614837 L 217.073260,289.711970 L 216.824465,289.806682 L 216.625018,289.894217 "/>
        <path style="fill:none;stroke-width:0.280000;stroke-linecap:round;stroke-linejoin:round;stroke-opacity:1;stroke:#000000;" d="M 194.487125,282.910586 L 194.465506,282.693851 L 194.452311,282.427966 L 194.452405,282.113350 L 194.470625,281.750790 L 194.511759,281.341432 L 194.580517,280.886779 L 194.681513,280.388691 L 194.819235,279.849371 L 194.998027,279.271362 L 195.222066,278.657539 L 195.495337,278.011092 L 195.821614,277.335519 L 196.204438,276.634613 L 196.647099,275.912443 L 197.152617,275.173342 L 197.355455,274.906450 A 3.175000,3.175000 0 0,1 199.865516,273.652639 L 201.321452,273.644498 A 3.175000,3.175000 0 0,1 203.845378,274.870158 L 204.051188,275.134765 L 204.564941,275.868166 L 205.015651,276.585340 L 205.406290,277.281921 L 205.740102,277.953802 L 206.020585,278.597153 L 206.251475,279.208432 L 206.436721,279.784405 L 206.580466,280.322151 L 206.687025,280.819079 L 206.760864,281.272934 L 206.806573,281.681807 L 206.828847,282.044140 L 206.832460,282.358735 L 206.822239,282.624752 L 206.803046,282.841715 "/>
        <path style="fill:none;stroke-width:0.280000;stroke-linecap:round;stroke-linejoin:round;stroke-opacity:1;stroke:#000000;" d="M 194.560940,283.290307 L 196.418301,288.796369 "/>
        <path style="fill:none;stroke-width:0.280000;stroke-linecap:round;stroke-linejoin:round;stroke-opacity:1;stroke:#000000;" d="M 214.302057,301.637500 L 220.112953,301.637500 "/>
        <path style="fill:none;stroke-width:0.280000;stroke-linecap:round;stroke-linejoin:round;stroke-opacity:1;stroke:#000000;" d="M 63.486071,148.211945 L 64.507727,149.209265 L 66.412432,150.891349 L 68.133856,152.264977 L 69.646589,153.353203 L 70.927094,154.180814 L 71.953812,154.774202 L 72.707266,155.161226 L 73.170147,155.371072 L 73.327401,155.434098 L 73.705819,155.571312 A 3.175000,3.175000 0 0,1 75.648562,159.520377 L 74.351560,163.589421 A 3.175000,3.175000 0 0,1 70.481850,165.685775 L 70.093828,165.578688 L 69.929108,165.539085 L 69.430172,165.442353 L 68.591729,165.321963 L 67.411005,165.211732 L 65.887764,165.145653 L 64.024312,165.157725 L 61.825502,165.281785 L 59.298716,165.551338 L 57.888365,165.773460 "/>
        <path style="fill:none;stroke-width:0.280000;stroke-linecap:round;stroke-linejoin:round;stroke-opacity:1;stroke:#000000;" d="M 216.541264,312.842853 L 211.802246,309.480084 "/>
        <path style="fill:none;stroke-width:0.280000;stroke-linecap:round;stroke-linejoin:round;stroke-opacity:1;stroke:#000000;" d="M 216.824176,313.106666 L 216.969060,313.269301 L 217.136018,313.476651 L 217.320869,313.731235 L 217.519236,314.035262 L 217.726573,314.390618 L 217.938184,314.798855 L 218.149246,315.261180 L 218.354831,315.778450 L 218.549930,316.351161 L 218.729475,316.979441 L 218.888366,317.663053 L 219.021494,318.401383 L 219.123765,319.193446 L 219.190125,320.037884 L 219.215585,320.932965 L 219.208361,321.268110 A 3.175000,3.175000 0 0,1 217.914651,323.757841 L 216.741559,324.620206 A 3.175000,3.175000 0 0,1 213.979235,325.112152 L 213.657199,325.019053 L 212.810483,324.727695 L 212.024306,324.412410 L 211.298832,324.078476 L 210.633851,323.731122 L 210.028783,323.375505 L 209.482688,323.016683 L 208.994273,322.659596 L 208.561902,322.309041 L 208.183606,321.969652 L 207.857100,321.645877 L 207.579791,321.341959 L 207.348797,321.061918 L 207.160961,320.809529 L 207.012868,320.588309 L 206.900868,320.401501 "/>
        <path style="fill:none;stroke-width:0.280000;stroke-linecap:round;stroke-linejoin:round;stroke-opacity:1;stroke:#000000;" d="M 185.085042,290.256242 L 189.786155,293.671801 "/>
        <path style="fill:none;stroke-width:0.280000;stroke-linecap:round;stroke-linejoin:round;stroke-opacity:1;stroke:#000000;" d="M 249.520874,340.623391 L 248.558540,339.568716 L 246.941579,337.608424 L 245.626724,335.841700 L 244.590079,334.293164 L 243.806078,332.985504 L 243.247616,331.939378 L 242.886195,331.173313 L 242.692063,330.703625 L 242.634370,330.544337 L 242.509983,330.161511 A 3.175000,3.175000 0 0,0 238.628610,328.086829 L 234.518180,329.246010 A 3.175000,3.175000 0 0,0 232.292648,333.042899 L 232.386602,333.434308 L 232.420632,333.600269 L 232.500501,334.102180 L 232.592576,334.944203 L 232.662966,336.127970 L 232.677690,337.652574 L 232.602846,339.514561 L 232.404780,341.707943 L 232.050254,344.224214 L 231.780744,345.626281 "/>
        <path style="fill:none;stroke-width:0.280000;stroke-linecap:round;stroke-linejoin:round;stroke-opacity:1;stroke:#000000;" d="M 70.481850,165.685775 L 70.093828,165.578688 L 69.929108,165.539085 L 69.430172,165.442353 L 68.591729,165.321963 L 67.411005,165.211732 L 65.887764,165.145653 L 64.024312,165.157725 L 61.825502,165.281785 L 59.298716,165.551338 L 57.888365,165.773460 A 3.175000,3.175000 0 0,0 55.283022,168.220617 L 54.829686,170.259293 A 3.175000,3.175000 0 0,0 56.152458,173.579936 L 57.335773,174.378805 L 59.510217,175.693759 L 61.449247,176.737941 L 63.131981,177.538569 L 64.539683,178.124237 L 65.655855,178.524762 L 66.466306,178.771032 L 66.959218,178.894855 L 67.125198,178.928789 L 67.522036,178.996229 "/>
        <path style="fill:none;stroke-width:0.280000;stroke-linecap:round;stroke-linejoin:round;stroke-opacity:1;stroke:#000000;" d="M 219.208361,321.268110 L 219.215585,320.932965 L 219.190125,320.037884 L 219.123765,319.193446 L 219.021494,318.401383 L 218.888366,317.663053 L 218.729475,316.979441 L 218.549930,316.351161 L 218.354831,315.778450 L 218.149246,315.261180 L 217.938184,314.798855 L 217.726573,314.390618 L 217.519236,314.035262 L 217.320869,313.731235 L 217.136018,313.476651 L 216.969060,313.269301 L 216.824176,313.106666 L 216.705340,312.985930 L 216.616291,312.903998 L 216.560524,312.857509 L 216.541264,312.842853 L 211.802246,309.480084 A 3.175000,3.175000 0 0,1 210.614577,305.926516 L 211.277014,303.848272 A 3.175000,3.175000 0 0,1 214.302057,301.637500 L 220.112953,301.637500 L 220.137141,301.636693 L 220.209526,301.631052 L 220.329562,301.615766 L 220.496348,301.586072 L 220.708623,301.537280 L 220.964778,301.464797 L 221.262859,301.364146 L 221.600576,301.230995 L 221.975312,301.061175 L 222.384137,300.850701 L 222.823815,300.595798 L 223.290822,300.292915 L 223.781360,299.938751 L 224.291373,299.530266 L 224.816561,299.064704 L 225.352405,298.539607 L 225.894178,297.952832 L 226.436974,297.302562 L 226.975722,296.587321 L 227.163779,296.309816 "/>
        <path style="fill:none;stroke-width:0.280000;stroke-linecap:round;stroke-linejoin:round;stroke-opacity:1;stroke:#000000;" d="M 232.292648,333.042899 L 232.386602,333.434308 L 232.420632,333.600269 L 232.500501,334.102180 L 232.592576,334.944203 L 232.662966,336.127970 L 232.677690,337.652574 L 232.602846,339.514561 L 232.404780,341.707943 L 232.050254,344.224214 L 231.780744,345.626281 A 3.175000,3.175000 0 0,1 229.247203,348.147702 L 227.194412,348.532098 A 3.175000,3.175000 0 0,1 223.920217,347.098206 L 223.161667,345.888649 L 221.920716,343.671140 L 220.942452,341.698032 L 220.198968,339.989281 L 219.661057,338.562647 L 219.298364,337.433615 L 219.079536,336.615328 L 218.972390,336.118524 L 218.944067,335.951494 L 218.890034,335.552610 "/>
        <path style="fill:none;stroke-width:0.280000;stroke-linecap:round;stroke-linejoin:round;stroke-opacity:1;stroke:#000000;" d="M 213.979235,325.112152 L 213.657199,325.019053 L 212.810483,324.727695 L 212.024306,324.412410 L 211.298832,324.078476 L 210.633851,323.731122 L 210.028783,323.375505 L 209.482688,323.016683 L 208.994273,322.659596 L 208.561902,322.309041 L 208.183606,321.969652 L 207.857100,321.645877 L 207.579791,321.341959 L 207.348797,321.061918 L 207.160961,320.809529 L 207.012868,320.588309 L 206.900868,320.401501 L 206.821088,320.252054 L 206.769456,320.142616 L 206.741723,320.075518 L 206.733481,320.052762 L 204.937816,314.526273 A 3.175000,3.175000 0 0,0 201.900457,312.332451 L 199.719225,312.344649 A 3.175000,3.175000 0 0,0 196.706591,314.572302 L 194.972845,320.118529 L 194.964858,320.141375 L 194.937877,320.208779 L 194.887473,320.318788 L 194.809369,320.469117 L 194.699465,320.657166 L 194.553856,320.880028 L 194.368854,321.134502 L 194.141006,321.417110 L 193.867113,321.724110 L 193.544249,322.051517 L 193.169773,322.395115 L 192.741349,322.750483 L 192.256958,323.113010 L 191.714910,323.477917 L 191.113857,323.840279 L 190.452802,324.195048 L 189.731109,324.537075 L 188.948507,324.861132 L 188.105102,325.161942 L 187.784128,325.258637 "/>
        <path style="fill:none;stroke-width:0.280000;stroke-linecap:round;stroke-linejoin:round;stroke-opacity:1;stroke:#000000;" d="M 206.733481,320.052762 L 204.937816,314.526273 "/>
        <path style="fill:none;stroke-width:0.280000;stroke-linecap:round;stroke-linejoin:round;stroke-opacity:1;stroke:#000000;" d="M 181.388258,301.854051 L 187.198790,301.789063 "/>
        <path style="fill:none;stroke-width:0.280000;stroke-linecap:round;stroke-linejoin:round;stroke-opacity:1;stroke:#000000;" d="M 181.004312,301.806914 L 180.791504,301.760499 L 180.534554,301.690885 L 180.235366,301.593575 L 179.896182,301.464209 L 179.519569,301.298590 L 179.108417,301.092701 L 178.665916,300.842731 L 178.195550,300.545091 L 177.701082,300.196435 L 177.186533,299.793679 L 176.656170,299.334020 L 176.114488,298.814949 L 175.566186,298.234270 L 175.016151,297.590111 L 174.469438,296.880940 L 174.278289,296.605555 A 3.175000,3.175000 0 0,1 173.861495,293.830897 L 174.303661,292.443703 A 3.175000,3.175000 0 0,1 176.249270,290.422057 L 176.564525,290.308088 L 177.420789,290.046114 L 178.242139,289.839082 L 179.025341,289.682817 L 179.767491,289.572966 L 180.466028,289.505017 L 181.118738,289.474323 L 181.723765,289.476129 L 182.279612,289.505592 L 182.785147,289.557807 L 183.239606,289.627831 L 183.642592,289.710708 L 183.994075,289.801492 L 184.294388,289.895271 L 184.544227,289.987195 L 184.744640,290.072494 "/>
        <path style="fill:none;stroke-width:0.280000;stroke-linecap:round;stroke-linejoin:round;stroke-opacity:1;stroke:#000000;" d="M 189.786155,309.603199 L 185.085042,313.018758 "/>
        <path style="fill:none;stroke-width:0.280000;stroke-linecap:round;stroke-linejoin:round;stroke-opacity:1;stroke:#000000;" d="M 174.278289,296.605555 L 174.469438,296.880940 L 175.016151,297.590111 L 175.566186,298.234270 L 176.114488,298.814949 L 176.656170,299.334020 L 177.186533,299.793679 L 177.701082,300.196435 L 178.195550,300.545091 L 178.665916,300.842731 L 179.108417,301.092701 L 179.519569,301.298590 L 179.896182,301.464209 L 180.235366,301.593575 L 180.534554,301.690885 L 180.791504,301.760499 L 181.004312,301.806914 L 181.171419,301.834741 L 181.291619,301.848684 L 181.364062,301.853515 L 181.388258,301.854051 L 187.198790,301.789063 A 3.175000,3.175000 0 0,1 190.248369,303.965865 L 190.934008,306.036571 A 3.175000,3.175000 0 0,1 189.786155,309.603199 L 185.085042,313.018758 L 185.065947,313.033628 L 185.010703,313.080739 L 184.922577,313.163661 L 184.805098,313.285718 L 184.662042,313.449964 L 184.497413,313.659169 L 184.315421,313.915804 L 184.120467,314.222030 L 183.917117,314.579683 L 183.710085,314.990260 L 183.504206,315.454918 L 183.304419,315.974455 L 183.115738,316.549311 L 182.943231,317.179560 L 182.791995,317.864906 L 182.667132,318.604679 L 182.573726,319.397836 L 182.516814,320.242963 L 182.501366,321.138273 L 182.512338,321.473317 "/>
        <path style="fill:none;stroke-width:0.280000;stroke-linecap:round;stroke-linejoin:round;stroke-opacity:1;stroke:#000000;" d="M 194.972845,320.118529 L 196.706591,314.572302 "/>
        <path style="fill:none;stroke-width:0.280000;stroke-linecap:round;stroke-linejoin:round;stroke-opacity:1;stroke:#000000;" d="M 56.152458,173.579936 L 57.335773,174.378805 L 59.510217,175.693759 L 61.449247,176.737941 L 63.131981,177.538569 L 64.539683,178.124237 L 65.655855,178.524762 L 66.466306,178.771032 L 66.959218,178.894855 L 67.125198,178.928789 L 67.522036,178.996229 A 3.175000,3.175000 0 0,1 70.138691,182.534941 L 69.589088,186.770182 A 3.175000,3.175000 0 0,1 66.155884,189.523810 L 65.754977,189.487728 L 65.585833,189.478174 L 65.077643,189.472084 L 64.231177,189.503339 L 63.049746,189.605706 L 61.539184,189.812674 L 59.707835,190.157284 L 57.566513,190.671963 L 55.128463,191.388359 L 53.780439,191.858739 "/>
        <path style="fill:none;stroke-width:0.280000;stroke-linecap:round;stroke-linejoin:round;stroke-opacity:1;stroke:#000000;" d="M 184.805098,313.285718 L 184.662042,313.449964 L 184.497413,313.659169 L 184.315421,313.915804 L 184.120467,314.222030 L 183.917117,314.579683 L 183.710085,314.990260 L 183.504206,315.454918 L 183.304419,315.974455 L 183.115738,316.549311 L 182.943231,317.179560 L 182.791995,317.864906 L 182.667132,318.604679 L 182.573726,319.397836 L 182.516814,320.242963 L 182.501366,321.138273 L 182.512338,321.473317 A 3.175000,3.175000 0 0,0 183.833811,323.948423 L 185.016474,324.797615 A 3.175000,3.175000 0 0,0 187.784128,325.258637 L 188.105102,325.161942 L 188.948507,324.861132 L 189.731109,324.537075 L 190.452802,324.195048 L 191.113857,323.840279 L 191.714910,323.477917 L 192.256958,323.113010 L 192.741349,322.750483 L 193.169773,322.395115 L 193.544249,322.051517 L 193.867113,321.724110 L 194.141006,321.417110 L 194.368854,321.134502 L 194.553856,320.880028 L 194.699465,320.657166 L 194.809369,320.469117 "/>
        <path style="fill:none;stroke-width:0.280000;stroke-linecap:round;stroke-linejoin:round;stroke-opacity:1;stroke:#000000;" d="M 66.155884,189.523810 L 65.754977,189.487728 L 65.585833,189.478174 L 65.077643,189.472084 L 64.231177,189.503339 L 63.049746,189.605706 L 61.539184,189.812674 L 59.707835,190.157284 L 57.566513,190.671963 L 55.128463,191.388359 L 53.780439,191.858739 A 3.175000,3.175000 0 0,0 51.653921,194.731772 L 51.571890,196.818632 A 3.175000,3.175000 0 0,0 53.466328,199.849721 L 54.773271,200.424463 L 57.147564,201.330023 L 59.241880,202.011197 L 61.040529,202.498495 L 62.530183,202.823396 L 63.699934,203.018184 L 64.541335,203.115785 L 65.048435,203.149605 L 65.217807,203.153357 L 65.620309,203.148855 "/>
        <path style="fill:none;stroke-width:0.280000;stroke-linecap:round;stroke-linejoin:round;stroke-opacity:1;stroke:#000000;" d="M 53.466328,199.849721 L 54.773271,200.424463 L 57.147564,201.330023 L 59.241880,202.011197 L 61.040529,202.498495 L 62.530183,202.823396 L 63.699934,203.018184 L 64.541335,203.115785 L 65.048435,203.149605 L 65.217807,203.153357 L 65.620309,203.148855 A 3.175000,3.175000 0 0,1 68.826774,206.163477 L 69.042236,210.428791 A 3.175000,3.175000 0 0,1 66.155884,213.751190 L 65.754977,213.787272 L 65.586845,213.808073 L 65.085734,213.892822 L 64.258453,214.074717 L 63.114286,214.386392 L 61.664955,214.859755 L 59.924569,215.525827 L 57.909558,216.414583 L 55.638607,217.554797 L 54.396235,218.258317 "/>
    </g>
    <g inkscape:groupmode="layer" id="c93f7ae1-d378-4f2d-b35e-541c15709064" inkscape:label="Gear">
        <path style="fill:none;stroke-width:0.280000;stroke-linecap:round;stroke-linejoin:round;stroke-opacity:1;stroke:#000000;" d="M 203.250000,201.637500 A 2.500000,2.500000 0 0,1 200.750000,204.137500 A 2.500000,2.500000 0 0,1 198.250000,201.637500 A 2.500000,2.500000 0 0,1 200.750000,199.137500 A 2.500000,2.500000 0 0,1 203.250000,201.637500 "/>
        <path style="fill:none;stroke-width:0.280000;stroke-linecap:round;stroke-linejoin:round;stroke-opacity:1;stroke:#000000;" d="M 203.250000,301.637500 A 2.500000,2.500000 0 0,1 200.750000,304.137500 A 2.500000,2.500000 0 0,1 198.250000,301.637500 A 2.500000,2.500000 0 0,1 200.750000,299.137500 A 2.500000,2.500000 0 0,1 203.250000,301.637500 "/>
    </g>
</svg>
