<?xml version="1.0" encoding="UTF-8"?>
<!-- Created by Vectric (http://www.vectric.com/) -->
<svg width="420.00000000mm" height="420.00000000mm" viewBox="0 0 420.00000000 420.00000000" id="svg2" version="1.1" xmlns="http://www.w3.org/2000/svg" xmlns:xlink="http://www.w3.org/1999/xlink" xmlns:inkscape="http://www.inkscape.org/namespaces/inkscape">
    <g inkscape:groupmode="layer" id="85667243-1302-4a85-b3ac-c7bf39b332ec" inkscape:label="Toolpath Previews"/>
    <g inkscape:groupmode="layer" id="6f7030e6-9336-4699-af43-4487174dedb7" inkscape:label="Layer 1">
        <path style="fill:none;stroke-width:0.280000;stroke-linecap:round;stroke-linejoin:round;stroke-opacity:1;stroke:#000000;" d="M 410.050000,402.062500 C 409.173248,402.062500 408.462500,402.773248 408.462500,403.650000 C 408.462500,404.526752 409.173248,405.237500 410.050000,405.237500 C 410.926752,405.237500 411.637500,404.526752 411.637500,403.650000 C 411.637500,402.773248 410.926752,402.062500 410.050000,402.062500 "/>
        <path style="fill:none;stroke-width:0.280000;stroke-linecap:round;stroke-linejoin:round;stroke-opacity:1;stroke:#000000;" d="M 16.350000,402.062500 C 15.473248,402.062500 14.762500,402.773248 14.762500,403.650000 C 14.762500,404.526752 15.473248,405.237500 16.350000,405.237500 C 17.226752,405.237500 17.937500,404.526752 17.937500,403.650000 C 17.937500,402.773248 17.226752,402.062500 16.350000,402.062500 "/>
        <path style="fill:none;stroke-width:0.280000;stroke-linecap:round;stroke-linejoin:round;stroke-opacity:1;stroke:#000000;" d="M 16.350000,8.362500 C 15.473248,8.362500 14.762500,9.073248 14.762500,9.950000 C 14.762500,10.826752 15.473248,11.537500 16.350000,11.537500 C 17.226752,11.537500 17.937500,10.826752 17.937500,9.950000 C 17.937500,9.073248 17.226752,8.362500 16.350000,8.362500 "/>
        <path style="fill:none;stroke-width:0.280000;stroke-linecap:round;stroke-linejoin:round;stroke-opacity:1;stroke:#000000;" d="M 410.050000,8.362500 C 409.173248,8.362500 408.462500,9.073248 408.462500,9.950000 C 408.462500,10.826752 409.173248,11.537500 410.050000,11.537500 C 410.926752,11.537500 411.637500,10.826752 411.637500,9.950000 C 411.637500,9.073248 410.926752,8.362500 410.050000,8.362500 "/>
        <path style="fill:none;stroke-width:0.280000;stroke-linecap:round;stroke-linejoin:round;stroke-opacity:1;stroke:#000000;" d="M 10.000000,210.000000 C 10.000000,320.456950 99.543050,410.000000 210.000000,410.000000 C 320.456950,410.000000 410.000000,320.456950 410.000000,210.000000 C 410.000000,99.543050 320.456950,10.000000 210.000000,10.000000 C 99.543050,10.000000 10.000000,99.543050 10.000000,210.000000 "/>
        <path style="fill:none;stroke-width:0.280000;stroke-linecap:round;stroke-linejoin:round;stroke-opacity:1;stroke:#000000;" d="M 131.600000,154.900000 A 2.600000,2.600000 0 0,0 129.000000,157.500000 A 2.600000,2.600000 0 0,0 131.600000,160.100000 A 2.600000,2.600000 0 0,0 134.200000,157.500000 A 2.600000,2.600000 0 0,0 131.600000,154.900000 "/>
        <path style="fill:none;stroke-width:0.280000;stroke-linecap:round;stroke-linejoin:round;stroke-opacity:1;stroke:#000000;" d="M 131.600000,259.900000 A 2.600000,2.600000 0 0,0 129.000000,262.500000 A 2.600000,2.600000 0 0,0 131.600000,265.100000 A 2.600000,2.600000 0 0,0 134.200000,262.500000 A 2.600000,2.600000 0 0,0 131.600000,259.900000 "/>
        <path style="fill:none;stroke-width:0.280000;stroke-linecap:round;stroke-linejoin:round;stroke-opacity:1;stroke:#000000;" d="M 176.500000,207.400000 A 2.600000,2.600000 0 0,0 173.900000,210.000000 A 2.600000,2.600000 0 0,0 176.500000,212.600000 A 2.600000,2.600000 0 0,0 179.100000,210.000000 A 2.600000,2.600000 0 0,0 176.500000,207.400000 "/>
        <path style="fill:none;stroke-width:0.280000;stroke-linecap:round;stroke-linejoin:round;stroke-opacity:1;stroke:#000000;" d="M 157.500000,129.000000 A 2.600000,2.600000 0 0,0 154.900000,131.600000 A 2.600000,2.600000 0 0,0 157.500000,134.200000 A 2.600000,2.600000 0 0,0 160.100000,131.600000 A 2.600000,2.600000 0 0,0 157.500000,129.000000 "/>
        <path style="fill:none;stroke-width:0.280000;stroke-linecap:round;stroke-linejoin:round;stroke-opacity:1;stroke:#000000;" d="M 210.000000,173.900000 A 2.600000,2.600000 0 0,0 207.400000,176.500000 A 2.600000,2.600000 0 0,0 210.000000,179.100000 A 2.600000,2.600000 0 0,0 212.600000,176.500000 A 2.600000,2.600000 0 0,0 210.000000,173.900000 "/>
        <path style="fill:none;stroke-width:0.280000;stroke-linecap:round;stroke-linejoin:round;stroke-opacity:1;stroke:#000000;" d="M 262.500000,129.000000 A 2.600000,2.600000 0 0,0 259.900000,131.600000 A 2.600000,2.600000 0 0,0 262.500000,134.200000 A 2.600000,2.600000 0 0,0 265.100000,131.600000 A 2.600000,2.600000 0 0,0 262.500000,129.000000 "/>
        <path style="fill:none;stroke-width:0.280000;stroke-linecap:round;stroke-linejoin:round;stroke-opacity:1;stroke:#000000;" d="M 243.500000,207.400000 A 2.600000,2.600000 0 0,0 240.900000,210.000000 A 2.600000,2.600000 0 0,0 243.500000,212.600000 A 2.600000,2.600000 0 0,0 246.100000,210.000000 A 2.600000,2.600000 0 0,0 243.500000,207.400000 "/>
        <path style="fill:none;stroke-width:0.280000;stroke-linecap:round;stroke-linejoin:round;stroke-opacity:1;stroke:#000000;" d="M 288.400000,154.900000 A 2.600000,2.600000 0 0,0 285.800000,157.500000 A 2.600000,2.600000 0 0,0 288.400000,160.100000 A 2.600000,2.600000 0 0,0 291.000000,157.500000 A 2.600000,2.600000 0 0,0 288.400000,154.900000 "/>
        <path style="fill:none;stroke-width:0.280000;stroke-linecap:round;stroke-linejoin:round;stroke-opacity:1;stroke:#000000;" d="M 288.400000,259.900000 A 2.600000,2.600000 0 0,0 285.800000,262.500000 A 2.600000,2.600000 0 0,0 288.400000,265.100000 A 2.600000,2.600000 0 0,0 291.000000,262.500000 A 2.600000,2.600000 0 0,0 288.400000,259.900000 "/>
        <path style="fill:none;stroke-width:0.280000;stroke-linecap:round;stroke-linejoin:round;stroke-opacity:1;stroke:#000000;" d="M 40.963000,162.107000 A 2.600000,2.600000 0 0,0 38.363000,164.707000 A 2.600000,2.600000 0 0,0 40.963000,167.307000 A 2.600000,2.600000 0 0,0 43.563000,164.707000 A 2.600000,2.600000 0 0,0 40.963000,162.107000 "/>
        <path style="fill:none;stroke-width:0.280000;stroke-linecap:round;stroke-linejoin:round;stroke-opacity:1;stroke:#000000;" d="M 40.963000,252.693000 A 2.600000,2.600000 0 0,0 38.363000,255.293000 A 2.600000,2.600000 0 0,0 40.963000,257.893000 A 2.600000,2.600000 0 0,0 43.563000,255.293000 A 2.600000,2.600000 0 0,0 40.963000,252.693000 "/>
        <path style="fill:none;stroke-width:0.280000;stroke-linecap:round;stroke-linejoin:round;stroke-opacity:1;stroke:#000000;" d="M 164.707000,38.363000 A 2.600000,2.600000 0 0,0 162.107000,40.963000 A 2.600000,2.600000 0 0,0 164.707000,43.563000 A 2.600000,2.600000 0 0,0 167.307000,40.963000 A 2.600000,2.600000 0 0,0 164.707000,38.363000 "/>
        <path style="fill:none;stroke-width:0.280000;stroke-linecap:round;stroke-linejoin:round;stroke-opacity:1;stroke:#000000;" d="M 255.293000,38.363000 A 2.600000,2.600000 0 0,0 252.693000,40.963000 A 2.600000,2.600000 0 0,0 255.293000,43.563000 A 2.600000,2.600000 0 0,0 257.893000,40.963000 A 2.600000,2.600000 0 0,0 255.293000,38.363000 "/>
        <path style="fill:none;stroke-width:0.280000;stroke-linecap:round;stroke-linejoin:round;stroke-opacity:1;stroke:#000000;" d="M 379.037000,162.107000 A 2.600000,2.600000 0 0,0 376.437000,164.707000 A 2.600000,2.600000 0 0,0 379.037000,167.307000 A 2.600000,2.600000 0 0,0 381.637000,164.707000 A 2.600000,2.600000 0 0,0 379.037000,162.107000 "/>
        <path style="fill:none;stroke-width:0.280000;stroke-linecap:round;stroke-linejoin:round;stroke-opacity:1;stroke:#000000;" d="M 379.037000,252.693000 A 2.600000,2.600000 0 0,0 376.437000,255.293000 A 2.600000,2.600000 0 0,0 379.037000,257.893000 A 2.600000,2.600000 0 0,0 381.637000,255.293000 A 2.600000,2.600000 0 0,0 379.037000,252.693000 "/>
        <path style="fill:none;stroke-width:0.280000;stroke-linecap:round;stroke-linejoin:round;stroke-opacity:1;stroke:#000000;" d="M 164.707000,376.437000 A 2.600000,2.600000 0 0,0 162.107000,379.037000 A 2.600000,2.600000 0 0,0 164.707000,381.637000 A 2.600000,2.600000 0 0,0 167.307000,379.037000 A 2.600000,2.600000 0 0,0 164.707000,376.437000 "/>
        <path style="fill:none;stroke-width:0.280000;stroke-linecap:round;stroke-linejoin:round;stroke-opacity:1;stroke:#000000;" d="M 255.293000,376.437000 A 2.600000,2.600000 0 0,0 252.693000,379.037000 A 2.600000,2.600000 0 0,0 255.293000,381.637000 A 2.600000,2.600000 0 0,0 257.893000,379.037000 A 2.600000,2.600000 0 0,0 255.293000,376.437000 "/>
        <path style="fill:none;stroke-width:0.280000;stroke-linecap:round;stroke-linejoin:round;stroke-opacity:1;stroke:#000000;" d="M 35.204422,112.807003 A 200.000000,200.000000 0 0,0 35.204422,307.192997 A 3.175000,3.175000 0 0,0 39.566810,308.399685 L 77.374752,286.571123 A 3.175000,3.175000 0 0,0 78.569190,282.291332 A 150.000153,150.000153 0 0,1 78.569190,137.708668 A 3.175000,3.175000 0 0,0 77.374752,133.428877 L 39.566810,111.600315 A 3.175000,3.175000 0 0,0 35.204422,112.807003 "/>
        <path style="fill:none;stroke-width:0.280000;stroke-linecap:round;stroke-linejoin:round;stroke-opacity:1;stroke:#000000;" d="M 111.600315,39.566810 L 133.428877,77.374752 A 3.175000,3.175000 0 0,0 137.708668,78.569190 A 150.000153,150.000153 0 0,1 282.291332,78.569190 A 3.175000,3.175000 0 0,0 286.571123,77.374752 L 308.399685,39.566810 A 3.175000,3.175000 0 0,0 307.192997,35.204422 A 200.000000,200.000000 0 0,0 112.807003,35.204422 A 3.175000,3.175000 0 0,0 111.600315,39.566810 "/>
        <path style="fill:none;stroke-width:0.280000;stroke-linecap:round;stroke-linejoin:round;stroke-opacity:1;stroke:#000000;" d="M 341.431767,137.708633 A 150.000153,150.000153 0 0,1 341.430838,282.291324 A 3.175000,3.175000 0 0,0 342.625266,286.571133 L 380.433190,308.399685 A 3.175000,3.175000 0 0,0 384.795578,307.192997 A 200.000000,200.000000 0 0,0 384.795594,112.807031 A 3.175000,3.175000 0 0,0 380.433178,111.600359 L 342.626187,133.428876 A 3.175000,3.175000 0 0,0 341.431767,137.708633 "/>
        <path style="fill:none;stroke-width:0.280000;stroke-linecap:round;stroke-linejoin:round;stroke-opacity:1;stroke:#000000;" d="M 112.807003,384.795578 A 200.000000,200.000000 0 0,0 307.192997,384.795578 A 3.175000,3.175000 0 0,0 308.399685,380.433190 L 286.571123,342.625248 A 3.175000,3.175000 0 0,0 282.291332,341.430810 A 150.000153,150.000153 0 0,1 137.708668,341.430810 A 3.175000,3.175000 0 0,0 133.428877,342.625248 L 111.600315,380.433190 A 3.175000,3.175000 0 0,0 112.807003,384.795578 "/>
        <path style="fill:none;stroke-width:0.280000;stroke-linecap:round;stroke-linejoin:round;stroke-opacity:1;stroke:#000000;" d="M 173.175000,114.000000 A 3.175000,3.175000 0 0,0 170.000000,117.175000 L 170.000000,160.825000 A 3.175000,3.175000 0 0,0 173.175000,164.000000 L 246.825000,164.000000 A 3.175000,3.175000 0 0,0 250.000000,160.825000 L 250.000000,117.175000 A 3.175000,3.175000 0 0,0 246.825000,114.000000 L 173.175000,114.000000 "/>
        <path style="fill:none;stroke-width:0.280000;stroke-linecap:round;stroke-linejoin:round;stroke-opacity:1;stroke:#000000;" d="M 306.000000,173.175000 A 3.175000,3.175000 0 0,0 302.825000,170.000000 L 259.175000,170.000000 A 3.175000,3.175000 0 0,0 256.000000,173.175000 L 256.000000,246.825000 A 3.175000,3.175000 0 0,0 259.175000,250.000000 L 302.825000,250.000000 A 3.175000,3.175000 0 0,0 306.000000,246.825000 L 306.000000,173.175000 "/>
        <path style="fill:none;stroke-width:0.280000;stroke-linecap:round;stroke-linejoin:round;stroke-opacity:1;stroke:#000000;" d="M 250.000000,114.000000 L 170.000000,114.000000 L 148.175000,114.000000 A 3.175000,3.175000 0 0,0 145.000000,117.175000 L 145.000000,143.684872 A 3.175000,3.175000 0 0,0 145.929936,145.929936 L 188.070064,188.070064 A 3.175000,3.175000 0 0,0 190.315128,189.000000 L 229.684872,189.000000 A 3.175000,3.175000 0 0,0 231.929936,188.070064 L 274.070064,145.929936 A 3.175000,3.175000 0 0,0 275.000000,143.684872 L 275.000000,117.175000 A 3.175000,3.175000 0 0,0 271.825000,114.000000 L 250.000000,114.000000 "/>
        <path style="fill:none;stroke-width:0.280000;stroke-linecap:round;stroke-linejoin:round;stroke-opacity:1;stroke:#000000;" d="M 231.929936,231.929936 L 274.070064,274.070064 A 3.175000,3.175000 0 0,0 276.315128,275.000000 L 302.825000,275.000000 A 3.175000,3.175000 0 0,0 306.000000,271.825000 L 306.000000,250.000000 L 306.000000,170.000000 L 306.000000,148.175000 A 3.175000,3.175000 0 0,0 302.825000,145.000000 L 276.315128,145.000000 A 3.175000,3.175000 0 0,0 274.070064,145.929936 L 231.929936,188.070064 A 3.175000,3.175000 0 0,0 231.000000,190.315128 L 231.000000,229.684872 A 3.175000,3.175000 0 0,0 231.929936,231.929936 "/>
        <path style="fill:none;stroke-width:0.280000;stroke-linecap:round;stroke-linejoin:round;stroke-opacity:1;stroke:#000000;" d="M 117.175000,170.000000 A 3.175000,3.175000 0 0,0 114.000000,173.175000 L 114.000000,246.825000 A 3.175000,3.175000 0 0,0 117.175000,250.000000 L 160.825000,250.000000 A 3.175000,3.175000 0 0,0 164.000000,246.825000 L 164.000000,173.175000 A 3.175000,3.175000 0 0,0 160.825000,170.000000 L 117.175000,170.000000 "/>
        <path style="fill:none;stroke-width:0.280000;stroke-linecap:round;stroke-linejoin:round;stroke-opacity:1;stroke:#000000;" d="M 130.429917,275.000000 L 130.429917,275.000000 L 143.684853,275.000000 A 3.175000,3.175000 0 0,0 145.929917,274.070064 L 188.070045,231.929936 A 3.175000,3.175000 0 0,0 188.999981,229.684872 L 188.999981,190.315128 A 3.175000,3.175000 0 0,0 188.070045,188.070064 L 145.929917,145.929936 A 3.175000,3.175000 0 0,0 143.684853,145.000000 L 117.174981,145.000000 A 3.175000,3.175000 0 0,0 113.999981,148.175000 L 113.999981,170.000000 L 113.999981,250.000000 L 113.999981,271.825000 A 3.175000,3.175000 0 0,0 117.174981,275.000000 L 123.802449,275.000000 L 130.429917,275.000000 "/>
        <path style="fill:none;stroke-width:0.280000;stroke-linecap:round;stroke-linejoin:round;stroke-opacity:1;stroke:#000000;" d="M 153.999981,216.502525 L 153.999981,203.497475 L 148.999981,198.497475 L 148.999981,221.502525 L 153.999981,216.502525 "/>
        <path style="fill:none;stroke-width:0.280000;stroke-linecap:round;stroke-linejoin:round;stroke-opacity:1;stroke:#000000;" d="M 141.000000,227.000000 L 141.000000,193.000000 L 137.000000,193.000000 L 137.000000,227.000000 L 141.000000,227.000000 "/>
        <path style="fill:none;stroke-width:0.280000;stroke-linecap:round;stroke-linejoin:round;stroke-opacity:1;stroke:#000000;" d="M 198.497475,149.000000 L 203.497475,154.000000 L 216.502525,154.000000 L 221.502525,149.000000 L 198.497475,149.000000 "/>
        <path style="fill:none;stroke-width:0.280000;stroke-linecap:round;stroke-linejoin:round;stroke-opacity:1;stroke:#000000;" d="M 193.000000,141.000000 L 227.000000,141.000000 L 227.000000,137.000000 L 193.000000,137.000000 L 193.000000,141.000000 "/>
        <path style="fill:none;stroke-width:0.280000;stroke-linecap:round;stroke-linejoin:round;stroke-opacity:1;stroke:#000000;" d="M 271.000000,221.502525 L 271.000000,198.497475 L 266.000000,203.497475 L 266.000000,216.502525 L 271.000000,221.502525 "/>
        <path style="fill:none;stroke-width:0.280000;stroke-linecap:round;stroke-linejoin:round;stroke-opacity:1;stroke:#000000;" d="M 283.000000,227.000000 L 283.000000,193.000000 L 279.000000,193.000000 L 279.000000,227.000000 L 283.000000,227.000000 "/>
        <path style="fill:none;stroke-width:0.280000;stroke-linecap:round;stroke-linejoin:round;stroke-opacity:1;stroke:#000000;" d="M 210.000000,0.000000 C 94.020203,-0.000000 -0.000000,94.020203 0.000000,210.000000 C -0.000000,301.373731 59.084428,382.260410 146.129372,410.051350 L 209.232661,414.791941 C 230.007995,416.549371 254.543370,411.453036 273.962246,410.022077 C 360.960665,382.202076 420.000000,301.338258 420.000000,210.000000 C 420.000000,94.020203 325.979797,-0.000000 210.000000,0.000000 "/>
        <path style="fill:none;stroke-width:0.280000;stroke-linecap:round;stroke-linejoin:round;stroke-opacity:1;stroke:#000000;" d="M 49.501587,276.683000 A 1.500000,1.500000 0 0,0 50.141653,274.820310 A 172.500153,172.500153 0 0,1 50.141653,145.179690 A 1.500000,1.500000 0 0,0 49.501587,143.317000 L 47.753337,142.307641 A 1.500000,1.500000 0 0,0 45.614157,143.040825 A 177.500031,177.500031 0 0,0 45.614157,276.959175 A 1.500000,1.500000 0 0,0 47.753337,277.692359 L 49.501587,276.683000 "/>
        <path style="fill:none;stroke-width:0.280000;stroke-linecap:round;stroke-linejoin:round;stroke-opacity:1;stroke:#000000;" d="M 274.820522,369.858715 A 172.500580,172.500580 0 0,1 145.179478,369.858715 A 1.500000,1.500000 0 0,0 143.316787,370.498781 L 142.307601,372.246732 A 1.500000,1.500000 0 0,0 143.040785,374.385912 A 177.500122,177.500122 0 0,0 276.959215,374.385912 A 1.500000,1.500000 0 0,0 277.692399,372.246732 L 276.683213,370.498781 A 1.500000,1.500000 0 0,0 274.820522,369.858715 "/>
        <path style="fill:none;stroke-width:0.280000;stroke-linecap:round;stroke-linejoin:round;stroke-opacity:1;stroke:#000000;" d="M 143.316787,49.501219 A 1.500000,1.500000 0 0,0 145.179478,50.141285 A 172.500580,172.500580 0 0,1 274.820522,50.141285 A 1.500000,1.500000 0 0,0 276.683213,49.501219 L 277.692399,47.753268 A 1.500000,1.500000 0 0,0 276.959215,45.614088 A 177.500122,177.500122 0 0,0 143.040785,45.614088 A 1.500000,1.500000 0 0,0 142.307601,47.753268 L 143.316787,49.501219 "/>
        <path style="fill:none;stroke-width:0.280000;stroke-linecap:round;stroke-linejoin:round;stroke-opacity:1;stroke:#000000;" d="M 369.858839,274.820583 A 1.500000,1.500000 0 0,0 370.498902,276.683282 L 372.246732,277.692399 A 1.500000,1.500000 0 0,0 374.385912,276.959215 A 177.500107,177.500107 0 0,0 374.386010,143.041027 A 1.500000,1.500000 0 0,0 372.246817,142.307848 L 370.499564,143.316655 A 1.500000,1.500000 0 0,0 369.859508,145.179332 A 172.500565,172.500565 0 0,1 369.858839,274.820583 "/>
        <path style="fill:none;stroke-width:0.280000;stroke-linecap:round;stroke-linejoin:round;stroke-opacity:1;stroke:#000000;" d="M 210.000000,0.000000 A 210.000000,210.000000 0 0,0 0.000000,210.000000 A 210.000000,210.000000 0 0,0 210.000000,420.000000 A 210.000000,210.000000 0 0,0 420.000000,210.000000 A 210.000000,210.000000 0 0,0 210.000000,0.000000 "/>
    </g>
</svg>
