<?xml version="1.0" encoding="UTF-8"?>
<!-- Created by Vectric (http://www.vectric.com/) -->
<svg width="258.90711337mm" height="197.64442732mm" viewBox="0 0 258.90711337 197.64442732" id="svg2" version="1.1" xmlns="http://www.w3.org/2000/svg" xmlns:xlink="http://www.w3.org/1999/xlink" xmlns:inkscape="http://www.inkscape.org/namespaces/inkscape">
    <g inkscape:groupmode="layer" id="85667243-1302-4a85-b3ac-c7bf39b332ec" inkscape:label="Toolpath Previews"/>
    <g inkscape:groupmode="layer" id="cd55947d-e567-4dcc-bb6f-598b3c5ffa8f" inkscape:label="Layer 1">
        <path style="fill:none;stroke-width:0.280000;stroke-linecap:round;stroke-linejoin:round;stroke-opacity:1;stroke:#000000;" d="M 30.912079,50.929214 A 2.600000,2.600000 0 0,0 28.312079,53.529214 A 2.600000,2.600000 0 0,0 30.912079,56.129214 A 2.600000,2.600000 0 0,0 33.512079,53.529214 A 2.600000,2.600000 0 0,0 30.912079,50.929214 "/>
        <path style="fill:none;stroke-width:0.280000;stroke-linecap:round;stroke-linejoin:round;stroke-opacity:1;stroke:#000000;" d="M 30.912079,48.879214 A 4.650000,4.650000 0 0,0 26.262079,53.529214 A 4.650000,4.650000 0 0,0 30.912079,58.179214 A 4.650000,4.650000 0 0,0 35.562079,53.529214 A 4.650000,4.650000 0 0,0 30.912079,48.879214 "/>
        <path style="fill:none;stroke-width:0.280000;stroke-linecap:round;stroke-linejoin:round;stroke-opacity:1;stroke:#000000;" d="M 30.912079,139.465214 A 4.650000,4.650000 0 0,0 26.262079,144.115214 A 4.650000,4.650000 0 0,0 30.912079,148.765214 A 4.650000,4.650000 0 0,0 35.562079,144.115214 A 4.650000,4.650000 0 0,0 30.912079,139.465214 "/>
        <path style="fill:none;stroke-width:0.280000;stroke-linecap:round;stroke-linejoin:round;stroke-opacity:1;stroke:#000000;" d="M 30.912079,141.515214 A 2.600000,2.600000 0 0,0 28.312079,144.115214 A 2.600000,2.600000 0 0,0 30.912079,146.715214 A 2.600000,2.600000 0 0,0 33.512079,144.115214 A 2.600000,2.600000 0 0,0 30.912079,141.515214 "/>
        <path style="fill:none;stroke-width:0.280000;stroke-linecap:round;stroke-linejoin:round;stroke-opacity:1;stroke:#000000;" d="M 93.912079,141.515214 A 2.600000,2.600000 0 0,0 91.312079,144.115214 A 2.600000,2.600000 0 0,0 93.912079,146.715214 A 2.600000,2.600000 0 0,0 96.512079,144.115214 A 2.600000,2.600000 0 0,0 93.912079,141.515214 "/>
        <path style="fill:none;stroke-width:0.280000;stroke-linecap:round;stroke-linejoin:round;stroke-opacity:1;stroke:#000000;" d="M 93.912079,139.465214 A 4.650000,4.650000 0 0,0 89.262079,144.115214 A 4.650000,4.650000 0 0,0 93.912079,148.765214 A 4.650000,4.650000 0 0,0 98.562079,144.115214 A 4.650000,4.650000 0 0,0 93.912079,139.465214 "/>
        <path style="fill:none;stroke-width:0.280000;stroke-linecap:round;stroke-linejoin:round;stroke-opacity:1;stroke:#000000;" d="M 155.912079,139.465214 A 4.650000,4.650000 0 0,0 151.262079,144.115214 A 4.650000,4.650000 0 0,0 155.912079,148.765214 A 4.650000,4.650000 0 0,0 160.562079,144.115214 A 4.650000,4.650000 0 0,0 155.912079,139.465214 "/>
        <path style="fill:none;stroke-width:0.280000;stroke-linecap:round;stroke-linejoin:round;stroke-opacity:1;stroke:#000000;" d="M 155.912079,141.515214 A 2.600000,2.600000 0 0,0 153.312079,144.115214 A 2.600000,2.600000 0 0,0 155.912079,146.715214 A 2.600000,2.600000 0 0,0 158.512079,144.115214 A 2.600000,2.600000 0 0,0 155.912079,141.515214 "/>
        <path style="fill:none;stroke-width:0.280000;stroke-linecap:round;stroke-linejoin:round;stroke-opacity:1;stroke:#000000;" d="M 155.912079,50.929214 A 2.600000,2.600000 0 0,0 153.312079,53.529214 A 2.600000,2.600000 0 0,0 155.912079,56.129214 A 2.600000,2.600000 0 0,0 158.512079,53.529214 A 2.600000,2.600000 0 0,0 155.912079,50.929214 "/>
        <path style="fill:none;stroke-width:0.280000;stroke-linecap:round;stroke-linejoin:round;stroke-opacity:1;stroke:#000000;" d="M 155.912079,48.879214 A 4.650000,4.650000 0 0,0 151.262079,53.529214 A 4.650000,4.650000 0 0,0 155.912079,58.179214 A 4.650000,4.650000 0 0,0 160.562079,53.529214 A 4.650000,4.650000 0 0,0 155.912079,48.879214 "/>
        <path style="fill:none;stroke-width:0.280000;stroke-linecap:round;stroke-linejoin:round;stroke-opacity:1;stroke:#000000;" d="M 93.912079,48.879214 A 4.650000,4.650000 0 0,0 89.262079,53.529214 A 4.650000,4.650000 0 0,0 93.912079,58.179214 A 4.650000,4.650000 0 0,0 98.562079,53.529214 A 4.650000,4.650000 0 0,0 93.912079,48.879214 "/>
        <path style="fill:none;stroke-width:0.280000;stroke-linecap:round;stroke-linejoin:round;stroke-opacity:1;stroke:#000000;" d="M 93.912079,50.929214 A 2.600000,2.600000 0 0,0 91.312079,53.529214 A 2.600000,2.600000 0 0,0 93.912079,56.129214 A 2.600000,2.600000 0 0,0 96.512079,53.529214 A 2.600000,2.600000 0 0,0 93.912079,50.929214 "/>
        <path style="fill:none;stroke-width:0.280000;stroke-linecap:round;stroke-linejoin:round;stroke-opacity:1;stroke:#000000;" d="M 220.912079,50.929214 A 2.600000,2.600000 0 0,0 218.312079,53.529214 A 2.600000,2.600000 0 0,0 220.912079,56.129214 A 2.600000,2.600000 0 0,0 223.512079,53.529214 A 2.600000,2.600000 0 0,0 220.912079,50.929214 "/>
        <path style="fill:none;stroke-width:0.280000;stroke-linecap:round;stroke-linejoin:round;stroke-opacity:1;stroke:#000000;" d="M 220.912079,48.879214 A 4.650000,4.650000 0 0,0 216.262079,53.529214 A 4.650000,4.650000 0 0,0 220.912079,58.179214 A 4.650000,4.650000 0 0,0 225.562079,53.529214 A 4.650000,4.650000 0 0,0 220.912079,48.879214 "/>
        <path style="fill:none;stroke-width:0.280000;stroke-linecap:round;stroke-linejoin:round;stroke-opacity:1;stroke:#000000;" d="M 220.912079,139.465214 A 4.650000,4.650000 0 0,0 216.262079,144.115214 A 4.650000,4.650000 0 0,0 220.912079,148.765214 A 4.650000,4.650000 0 0,0 225.562079,144.115214 A 4.650000,4.650000 0 0,0 220.912079,139.465214 "/>
        <path style="fill:none;stroke-width:0.280000;stroke-linecap:round;stroke-linejoin:round;stroke-opacity:1;stroke:#000000;" d="M 220.912079,141.515214 A 2.600000,2.600000 0 0,0 218.312079,144.115214 A 2.600000,2.600000 0 0,0 220.912079,146.715214 A 2.600000,2.600000 0 0,0 223.512079,144.115214 A 2.600000,2.600000 0 0,0 220.912079,141.515214 "/>
        <path style="fill:none;stroke-width:0.280000;stroke-linecap:round;stroke-linejoin:round;stroke-opacity:1;stroke:#000000;" d="M 25.153501,1.629217 A 200.000000,200.000000 0 0,0 25.153501,196.015211 A 3.175000,3.175000 0 0,0 29.515889,197.221898 L 67.323831,175.393337 A 3.175000,3.175000 0 0,0 68.518269,171.113545 A 150.000153,150.000153 0 0,1 68.518269,26.530882 A 3.175000,3.175000 0 0,0 67.323831,22.251091 L 29.515889,0.422529 A 3.175000,3.175000 0 0,0 25.153501,1.629217 "/>
        <path style="fill:none;stroke-width:0.280000;stroke-linecap:round;stroke-linejoin:round;stroke-opacity:1;stroke:#000000;" d="M 88.153501,1.629217 A 200.000000,200.000000 0 0,0 88.153501,196.015211 A 3.175000,3.175000 0 0,0 92.515889,197.221898 L 130.323831,175.393337 A 3.175000,3.175000 0 0,0 131.518269,171.113545 A 150.000153,150.000153 0 0,1 131.518269,26.530882 A 3.175000,3.175000 0 0,0 130.323831,22.251091 L 92.515889,0.422529 A 3.175000,3.175000 0 0,0 88.153501,1.629217 "/>
        <path style="fill:none;stroke-width:0.280000;stroke-linecap:round;stroke-linejoin:round;stroke-opacity:1;stroke:#000000;" d="M 150.153501,1.629217 A 200.000000,200.000000 0 0,0 150.153501,196.015211 A 3.175000,3.175000 0 0,0 154.515889,197.221898 L 192.323831,175.393337 A 3.175000,3.175000 0 0,0 193.518269,171.113545 A 150.000153,150.000153 0 0,1 193.518269,26.530882 A 3.175000,3.175000 0 0,0 192.323831,22.251091 L 154.515889,0.422529 A 3.175000,3.175000 0 0,0 150.153501,1.629217 "/>
        <path style="fill:none;stroke-width:0.280000;stroke-linecap:round;stroke-linejoin:round;stroke-opacity:1;stroke:#000000;" d="M 215.153501,1.629217 A 200.000000,200.000000 0 0,0 215.153501,196.015211 A 3.175000,3.175000 0 0,0 219.515889,197.221898 L 257.323831,175.393337 A 3.175000,3.175000 0 0,0 258.518269,171.113545 A 150.000153,150.000153 0 0,1 258.518269,26.530882 A 3.175000,3.175000 0 0,0 257.323831,22.251091 L 219.515889,0.422529 A 3.175000,3.175000 0 0,0 215.153501,1.629217 "/>
    </g>
</svg>
