G04 DipTrace 3.2.0.1*
G04 Bottom.gbr*
%MOIN*%
G04 #@! TF.FileFunction,Copper,L2,Bot*
G04 #@! TF.Part,Single*
G04 #@! TA.AperFunction,Conductor*
%ADD13C,0.026*%
%ADD14C,0.012992*%
G04 #@! TA.AperFunction,CopperBalancing*
%ADD15C,0.025*%
G04 #@! TA.AperFunction,ComponentPad*
%ADD17C,0.059055*%
%ADD18R,0.059055X0.059055*%
%ADD19C,0.059055*%
%ADD20C,0.062992*%
%ADD21R,0.062992X0.062992*%
%ADD22R,0.079X0.052*%
G04 #@! TA.AperFunction,ViaPad*
%ADD23C,0.04*%
%FSLAX26Y26*%
G04*
G70*
G90*
G75*
G01*
G04 Bottom*
%LPD*%
X1165000Y791125D2*
D14*
X1131000D1*
X1105000Y817125D1*
Y898125D1*
X1150000Y943125D1*
X1195000D1*
X1219000Y919125D1*
X1717000D1*
X1840000Y1042125D1*
Y1276125D1*
X1738000Y1378125D1*
Y1657125D1*
X1612785Y1782340D1*
X1129785D1*
X1021000Y1891125D1*
Y1945125D1*
X982000Y1984125D1*
X895000D1*
X866000Y2013125D1*
Y2038125D1*
X1165000Y891125D2*
X1746000D1*
X1882000Y1027125D1*
Y1258125D1*
X1975000Y1351125D1*
Y1474125D1*
X1882000Y1567125D1*
Y2116125D1*
X1849000Y2149125D1*
X1077000D1*
X966000Y2038125D1*
X566000D2*
X515016Y1987141D1*
Y1373141D1*
X466000Y1324125D1*
X775000Y608125D2*
D13*
X1661000D1*
X1987000Y934125D1*
Y1228125D1*
X2143000Y1384125D1*
Y2487125D1*
X2153000Y2497125D1*
X1566000Y1924125D2*
D14*
Y1915125D1*
X1693000D1*
X1756000Y1852125D1*
X1801000D1*
X1834000Y1819125D1*
Y1645125D1*
X1786500Y1597625D1*
X1784000Y1600125D1*
Y2100125D2*
X1551000D1*
X1516000Y2065125D1*
Y2005125D1*
X1459000Y1948125D1*
Y1924125D1*
X1466000D1*
X1784000Y2000125D2*
Y1987125D1*
X1558000D1*
X1513000Y1942125D1*
Y1894125D1*
X1498000Y1879125D1*
X1213000D1*
X1171000Y1921125D1*
Y1929125D1*
X1166000Y1924125D1*
X1784000Y1700125D2*
X1758000D1*
X1630000Y1828125D1*
X1162000D1*
X1066000Y1924125D1*
X602000Y737125D2*
Y905125D1*
X667000Y970125D1*
X1003000D1*
X1216000Y1183125D1*
Y1354125D1*
X1240000Y1378125D1*
X1363000D1*
X1384000Y1357125D1*
Y1324125D1*
X1366000D1*
X680000Y588125D2*
Y614125D1*
X730000Y664125D1*
X862000D1*
X886000Y640125D1*
X1651000D1*
X1942000Y931125D1*
Y1234125D1*
X2026000Y1318125D1*
Y1492125D1*
X1942000Y1576125D1*
Y2221125D1*
X1795000Y2368125D1*
X961000D1*
X721000Y2128125D1*
Y1882125D1*
X739000Y1864125D1*
X886000D1*
X966000Y1944125D1*
Y1924125D1*
X1266000Y1324125D2*
Y1188125D1*
X943000Y865125D1*
X778000D1*
X730000Y817125D1*
X680000D1*
Y808125D1*
X2521000Y616125D2*
X2524000D1*
X2467000Y559125D1*
Y487125D1*
X2446000Y466125D1*
X631000D1*
X571000Y526125D1*
X532000D1*
X478000Y580125D1*
Y895125D1*
X866000Y1283125D1*
Y1324125D1*
D23*
X724000Y2446125D3*
Y2311125D3*
X898000Y2455125D3*
X895000Y2368125D3*
X943000Y1201125D3*
X1081000Y1099125D3*
X751000Y1234125D3*
X694000Y1201125D3*
X1867000Y643125D3*
X1897000Y724125D3*
X2062000Y1792125D3*
X2050000Y1636125D3*
X2053000Y1984125D3*
X1036000Y802125D3*
X2275000Y1111125D3*
X2248000Y1039125D3*
X1213000Y2302125D3*
X1339000Y2296125D3*
X1537000Y1615125D3*
X1390000Y1681125D3*
X1465000Y1513125D3*
X1279000Y1555125D3*
X964000Y1666125D3*
X715000Y1687125D3*
X955000Y1531125D3*
X730000Y1525125D3*
X524443Y2641139D2*
D15*
X607538D1*
X1624436D2*
X2544961D1*
X520101Y2616270D2*
X611916D1*
X1620095D2*
X2552031D1*
X499431Y2591402D2*
X632585D1*
X699414D2*
X732595D1*
X799423D2*
X832568D1*
X899432D2*
X932577D1*
X999406D2*
X1032587D1*
X1099415D2*
X1132596D1*
X1199424D2*
X1232569D1*
X1299433D2*
X1332578D1*
X1399407D2*
X1432588D1*
X1499416D2*
X1532597D1*
X1599425D2*
X2368591D1*
X2391425D2*
X2552066D1*
X436024Y2566533D2*
X2306475D1*
X2453541D2*
X2552102D1*
X436275Y2541664D2*
X2092498D1*
X2213511D2*
X2283832D1*
X2476184D2*
X2552138D1*
X436491Y2516795D2*
X2092498D1*
X2213511D2*
X2271345D1*
X2488635D2*
X2552174D1*
X436706Y2491927D2*
X2092498D1*
X2213511D2*
X2265603D1*
X2494413D2*
X2552210D1*
X436921Y2467058D2*
X2092498D1*
X2213511D2*
X2265531D1*
X2494484D2*
X2552246D1*
X437136Y2442189D2*
X2092498D1*
X2213511D2*
X2271093D1*
X2488887D2*
X2552282D1*
X437352Y2417320D2*
X2101002D1*
X2184983D2*
X2283330D1*
X2476650D2*
X2552318D1*
X437603Y2392452D2*
X936202D1*
X1819790D2*
X2101002D1*
X2184983D2*
X2305578D1*
X2454438D2*
X2552318D1*
X437818Y2367583D2*
X911298D1*
X1844694D2*
X2101002D1*
X2184983D2*
X2361880D1*
X2398135D2*
X2552354D1*
X438034Y2342714D2*
X886430D1*
X1869561D2*
X2101002D1*
X2184983D2*
X2245113D1*
X2322886D2*
X2552389D1*
X438249Y2317845D2*
X861562D1*
X959897D2*
X1728345D1*
X1894429D2*
X2101002D1*
X2184983D2*
X2228355D1*
X2339644D2*
X2552425D1*
X438464Y2292976D2*
X836695D1*
X935030D2*
X1725941D1*
X1919297D2*
X2101002D1*
X2184983D2*
X2225915D1*
X2342084D2*
X2552461D1*
X438679Y2268108D2*
X811827D1*
X910162D2*
X1735522D1*
X1944165D2*
X2101002D1*
X2184983D2*
X2235532D1*
X2332467D2*
X2552497D1*
X438931Y2243239D2*
X786959D1*
X885294D2*
X1745713D1*
X1968996D2*
X2101002D1*
X2184983D2*
X2552533D1*
X439146Y2218370D2*
X762092D1*
X860426D2*
X1728524D1*
X1977501D2*
X2101002D1*
X2184983D2*
X2552569D1*
X439361Y2193501D2*
X737224D1*
X835523D2*
X1725869D1*
X1977501D2*
X2101002D1*
X2184983D2*
X2552605D1*
X439577Y2168633D2*
X712356D1*
X810655D2*
X1047335D1*
X1977501D2*
X2101002D1*
X2184983D2*
X2552641D1*
X439792Y2143764D2*
X689462D1*
X785787D2*
X1022467D1*
X1977501D2*
X2101002D1*
X2184983D2*
X2246369D1*
X2321630D2*
X2552677D1*
X440007Y2118895D2*
X685515D1*
X760919D2*
X997599D1*
X1977501D2*
X2101002D1*
X2184983D2*
X2228714D1*
X2339285D2*
X2552712D1*
X440258Y2094026D2*
X559741D1*
X572273D2*
X685515D1*
X756506D2*
X859732D1*
X872241D2*
X959742D1*
X1977501D2*
X2101002D1*
X2184983D2*
X2225807D1*
X2342192D2*
X2552748D1*
X615158Y2069158D2*
X685515D1*
X756506D2*
X816851D1*
X1977501D2*
X2101002D1*
X2184983D2*
X2234814D1*
X2333185D2*
X2552784D1*
X624201Y2044289D2*
X685515D1*
X756506D2*
X807808D1*
X1977501D2*
X2101002D1*
X2184983D2*
X2247015D1*
X2320984D2*
X2552820D1*
X621330Y2019420D2*
X685515D1*
X756506D2*
X810679D1*
X1977501D2*
X2101002D1*
X2184983D2*
X2228894D1*
X2339106D2*
X2552856D1*
X603711Y1994551D2*
X685515D1*
X756506D2*
X828298D1*
X1977501D2*
X2101002D1*
X2184983D2*
X2225736D1*
X2342264D2*
X2552892D1*
X550495Y1969683D2*
X630899D1*
X801110D2*
X830882D1*
X1977501D2*
X2101002D1*
X2184983D2*
X2234456D1*
X2333544D2*
X2552892D1*
X550495Y1944814D2*
X611450D1*
X1977501D2*
X2101002D1*
X2184983D2*
X2247697D1*
X2320303D2*
X2552928D1*
X550495Y1919945D2*
X607646D1*
X1977501D2*
X2101002D1*
X2184983D2*
X2229109D1*
X2338891D2*
X2552964D1*
X550495Y1895076D2*
X615576D1*
X1977501D2*
X2101002D1*
X2184983D2*
X2225700D1*
X2342300D2*
X2552999D1*
X550495Y1870207D2*
X648267D1*
X1977501D2*
X2101002D1*
X2184983D2*
X2234133D1*
X2333867D2*
X2553035D1*
X550495Y1845339D2*
X708624D1*
X916370D2*
X1017623D1*
X1977501D2*
X2101002D1*
X2184983D2*
X2248415D1*
X2319585D2*
X2553071D1*
X550495Y1820470D2*
X1042491D1*
X1977501D2*
X2101002D1*
X2184983D2*
X2229288D1*
X2338711D2*
X2553107D1*
X550495Y1795601D2*
X1067358D1*
X1977501D2*
X2101002D1*
X2184983D2*
X2225664D1*
X2342336D2*
X2553143D1*
X550495Y1770732D2*
X1092226D1*
X1977501D2*
X2101002D1*
X2184983D2*
X2233810D1*
X2334190D2*
X2553179D1*
X550495Y1745864D2*
X1600095D1*
X1977501D2*
X2101002D1*
X2184983D2*
X2249132D1*
X2318867D2*
X2553215D1*
X550495Y1720995D2*
X1624963D1*
X1977501D2*
X2101002D1*
X2184983D2*
X2229504D1*
X2338496D2*
X2553251D1*
X550495Y1696126D2*
X1649830D1*
X1977501D2*
X2101002D1*
X2184983D2*
X2225628D1*
X2342371D2*
X2553287D1*
X550495Y1671257D2*
X1674698D1*
X1977501D2*
X2101002D1*
X2184983D2*
X2233487D1*
X2334513D2*
X2553322D1*
X550495Y1646389D2*
X1699566D1*
X1977501D2*
X2101002D1*
X2184983D2*
X2265639D1*
X2302361D2*
X2553358D1*
X550495Y1621520D2*
X1702508D1*
X1977501D2*
X2101002D1*
X2184983D2*
X2553394D1*
X550495Y1596651D2*
X1702508D1*
X1977501D2*
X2101002D1*
X2184983D2*
X2553430D1*
X550495Y1571782D2*
X1702508D1*
X1995515D2*
X2101002D1*
X2184983D2*
X2553430D1*
X550495Y1546913D2*
X1702508D1*
X2020383D2*
X2101002D1*
X2184983D2*
X2553466D1*
X550495Y1522045D2*
X1702508D1*
X2045250D2*
X2101002D1*
X2184983D2*
X2553502D1*
X550495Y1497176D2*
X1702508D1*
X2061111D2*
X2101002D1*
X2184983D2*
X2553538D1*
X550495Y1472307D2*
X1702508D1*
X2061506D2*
X2101002D1*
X2184983D2*
X2553574D1*
X550495Y1447438D2*
X1702508D1*
X2061506D2*
X2101002D1*
X2184983D2*
X2553610D1*
X550495Y1422570D2*
X1702508D1*
X2061506D2*
X2101002D1*
X2184983D2*
X2553645D1*
X550495Y1397701D2*
X1210429D1*
X1413079D2*
X1702508D1*
X2061506D2*
X2098203D1*
X2184983D2*
X2553681D1*
X596175Y1372832D2*
X835798D1*
X896203D2*
X935807D1*
X996176D2*
X1035816D1*
X1096185D2*
X1135825D1*
X1419502D2*
X1435817D1*
X1496186D2*
X1535826D1*
X1596196D2*
X1702939D1*
X2183369D2*
X2553717D1*
X619213Y1347963D2*
X812796D1*
X1619197D2*
X1719015D1*
X2165211D2*
X2553753D1*
X624524Y1323095D2*
X807485D1*
X1624508D2*
X1743883D1*
X2140343D2*
X2553789D1*
X618172Y1298226D2*
X813801D1*
X1618193D2*
X1768751D1*
X2115476D2*
X2553825D1*
X492219Y1273357D2*
X539789D1*
X592192D2*
X807054D1*
X900007D2*
X939790D1*
X992193D2*
X1039799D1*
X1092202D2*
X1139808D1*
X1301479D2*
X1339791D1*
X1392194D2*
X1439800D1*
X1492203D2*
X1539809D1*
X1592212D2*
X1793618D1*
X2090608D2*
X2553861D1*
X447758Y1248488D2*
X782187D1*
X880521D2*
X1171494D1*
X1301479D2*
X1804491D1*
X2065740D2*
X2553897D1*
X448009Y1223620D2*
X757319D1*
X855654D2*
X1171494D1*
X1301479D2*
X1804491D1*
X2040872D2*
X2553932D1*
X448225Y1198751D2*
X732451D1*
X830786D2*
X1171494D1*
X1301479D2*
X1804491D1*
X2028995D2*
X2553968D1*
X448440Y1173882D2*
X707583D1*
X805918D2*
X1157607D1*
X1298249D2*
X1804491D1*
X2028995D2*
X2554004D1*
X448655Y1149013D2*
X682716D1*
X781050D2*
X1132739D1*
X1276037D2*
X1804491D1*
X2028995D2*
X2554004D1*
X448871Y1124144D2*
X657848D1*
X756183D2*
X1107872D1*
X1251169D2*
X1804491D1*
X2028995D2*
X2117222D1*
X2212758D2*
X2379607D1*
X449086Y1099276D2*
X632980D1*
X731315D2*
X1083004D1*
X1226301D2*
X1804491D1*
X2028995D2*
X2107067D1*
X2222949D2*
X2362490D1*
X449337Y1074407D2*
X608112D1*
X706447D2*
X1058136D1*
X1201434D2*
X1804491D1*
X2028995D2*
X2109040D1*
X2220975D2*
X2359871D1*
X449552Y1049538D2*
X583245D1*
X681579D2*
X1033232D1*
X1176566D2*
X1798247D1*
X2028995D2*
X2124937D1*
X2205043D2*
X2369237D1*
X449768Y1024669D2*
X558377D1*
X656712D2*
X1008365D1*
X1212378D2*
X1773380D1*
X2028995D2*
X2117617D1*
X2212363D2*
X2380253D1*
X449983Y999801D2*
X533509D1*
X631844D2*
X650061D1*
X1222857D2*
X1748512D1*
X2028995D2*
X2107138D1*
X2222841D2*
X2362670D1*
X450198Y974932D2*
X508642D1*
X606976D2*
X622646D1*
X1221134D2*
X1723644D1*
X1878963D2*
X1906510D1*
X2028995D2*
X2108861D1*
X2221119D2*
X2359799D1*
X450414Y950063D2*
X483774D1*
X582109D2*
X597778D1*
X1077095D2*
X1107764D1*
X1854095D2*
X1906510D1*
X2028995D2*
X2124399D1*
X2205617D2*
X2368878D1*
X557241Y925194D2*
X573305D1*
X671245D2*
X953892D1*
X1052227D2*
X1082896D1*
X1829228D2*
X1886917D1*
X2027990D2*
X2118011D1*
X2211968D2*
X2412190D1*
X2423801D2*
X2512199D1*
X2523787D2*
X2554327D1*
X532373Y900326D2*
X566487D1*
X646377D2*
X929025D1*
X1027360D2*
X1069583D1*
X1804360D2*
X1862049D1*
X2011555D2*
X2107246D1*
X2222769D2*
X2554363D1*
X513498Y875457D2*
X566487D1*
X637514D2*
X718169D1*
X1002492D2*
X1069511D1*
X1779492D2*
X1837182D1*
X1986687D2*
X2108717D1*
X2221298D2*
X2365971D1*
X2442022D2*
X2554399D1*
X513498Y850588D2*
X566487D1*
X977624D2*
X1069511D1*
X1206170D2*
X1812314D1*
X1961820D2*
X2123825D1*
X2206191D2*
X2348603D1*
X2459390D2*
X2554435D1*
X513498Y825719D2*
X566487D1*
X819052D2*
X1069511D1*
X1211589D2*
X1787446D1*
X1936952D2*
X2118442D1*
X2211574D2*
X2345840D1*
X2462153D2*
X2554471D1*
X513498Y800851D2*
X566487D1*
X832078D2*
X1073782D1*
X1222677D2*
X1762579D1*
X1912084D2*
X2107318D1*
X2222662D2*
X2355026D1*
X2453002D2*
X2554507D1*
X513498Y775982D2*
X559131D1*
X832185D2*
X1096963D1*
X1221457D2*
X1737711D1*
X1887216D2*
X2108574D1*
X2221442D2*
X2366617D1*
X2441376D2*
X2554543D1*
X513498Y751113D2*
X545243D1*
X658757D2*
X730442D1*
X819554D2*
X1123266D1*
X1206709D2*
X1712807D1*
X1862349D2*
X2123286D1*
X2206729D2*
X2348783D1*
X2459210D2*
X2554543D1*
X513498Y726244D2*
X544526D1*
X659475D2*
X1687939D1*
X1837481D2*
X2118837D1*
X2211143D2*
X2345768D1*
X2462225D2*
X2554578D1*
X513498Y701375D2*
X556367D1*
X647633D2*
X1663072D1*
X1812613D2*
X2107426D1*
X2222590D2*
X2354668D1*
X2453325D2*
X2554614D1*
X513498Y676507D2*
X693230D1*
X898786D2*
X1638204D1*
X1787745D2*
X2108430D1*
X2221585D2*
X2367299D1*
X2440694D2*
X2554650D1*
X513498Y651638D2*
X668362D1*
X1762878D2*
X2122748D1*
X2207232D2*
X2348998D1*
X513498Y626769D2*
X636927D1*
X1738010D2*
X2119267D1*
X2210712D2*
X2345732D1*
X513498Y601900D2*
X623184D1*
X1713142D2*
X2107533D1*
X2222482D2*
X2354309D1*
X530256Y577032D2*
X622574D1*
X1687844D2*
X2108287D1*
X2221729D2*
X2345481D1*
X593771Y552163D2*
X634523D1*
X725466D2*
X769807D1*
X780202D2*
X2122246D1*
X2207770D2*
X2345481D1*
X618997Y527294D2*
X2345481D1*
X643865Y502425D2*
X2345481D1*
X516000Y1298860D2*
X511327Y1291193D1*
X505617Y1284507D1*
X498932Y1278798D1*
X491436Y1274204D1*
X483313Y1270839D1*
X474765Y1268787D1*
X466000Y1268097D1*
X457235Y1268787D1*
X448687Y1270839D1*
X445059Y1272178D1*
X448292Y909491D1*
X451306Y914519D1*
X454668Y918457D1*
X823631Y1287419D1*
X818229Y1294850D1*
X814237Y1302684D1*
X811520Y1311045D1*
X810145Y1319729D1*
Y1328521D1*
X811520Y1337204D1*
X814237Y1345566D1*
X818229Y1353399D1*
X823396Y1360512D1*
X829613Y1366728D1*
X836726Y1371896D1*
X844559Y1375887D1*
X852921Y1378604D1*
X861604Y1379980D1*
X870396D1*
X879079Y1378604D1*
X887441Y1375887D1*
X895274Y1371896D1*
X902387Y1366728D1*
X908604Y1360512D1*
X913771Y1353399D1*
X916079Y1349561D1*
X920673Y1357057D1*
X926383Y1363742D1*
X933068Y1369452D1*
X940564Y1374046D1*
X948687Y1377410D1*
X957235Y1379463D1*
X966000Y1380152D1*
X974765Y1379463D1*
X983313Y1377410D1*
X991436Y1374046D1*
X998932Y1369452D1*
X1005617Y1363742D1*
X1011327Y1357057D1*
X1016000Y1349389D1*
X1020673Y1357057D1*
X1026383Y1363742D1*
X1033068Y1369452D1*
X1040564Y1374046D1*
X1048687Y1377410D1*
X1057235Y1379463D1*
X1066000Y1380152D1*
X1074765Y1379463D1*
X1083313Y1377410D1*
X1091436Y1374046D1*
X1098932Y1369452D1*
X1105617Y1363742D1*
X1111327Y1357057D1*
X1116000Y1349389D1*
X1120673Y1357057D1*
X1126383Y1363742D1*
X1133068Y1369452D1*
X1140564Y1374046D1*
X1148687Y1377410D1*
X1157235Y1379463D1*
X1166000Y1380152D1*
X1174765Y1379463D1*
X1183313Y1377410D1*
X1189953Y1374729D1*
X1218571Y1403215D1*
X1222760Y1406259D1*
X1227373Y1408609D1*
X1232297Y1410209D1*
X1237411Y1411019D1*
X1304304Y1411121D1*
X1386589Y1411019D1*
X1391703Y1410209D1*
X1396627Y1408609D1*
X1401240Y1406259D1*
X1405429Y1403215D1*
X1409090Y1399554D1*
X1412134Y1395365D1*
X1414484Y1390752D1*
X1416084Y1385828D1*
X1416894Y1380714D1*
X1416996Y1351319D1*
X1420673Y1357057D1*
X1426383Y1363742D1*
X1433068Y1369452D1*
X1440564Y1374046D1*
X1448687Y1377410D1*
X1457235Y1379463D1*
X1466000Y1380152D1*
X1474765Y1379463D1*
X1483313Y1377410D1*
X1491436Y1374046D1*
X1498932Y1369452D1*
X1505617Y1363742D1*
X1511327Y1357057D1*
X1516000Y1349389D1*
X1520673Y1357057D1*
X1526383Y1363742D1*
X1533068Y1369452D1*
X1540564Y1374046D1*
X1548687Y1377410D1*
X1557235Y1379463D1*
X1566000Y1380152D1*
X1574765Y1379463D1*
X1583313Y1377410D1*
X1591436Y1374046D1*
X1598932Y1369452D1*
X1605617Y1363742D1*
X1611327Y1357057D1*
X1615921Y1349561D1*
X1619285Y1341438D1*
X1621338Y1332889D1*
X1622028Y1324125D1*
X1621338Y1315360D1*
X1619285Y1306811D1*
X1615921Y1298689D1*
X1611327Y1291193D1*
X1605617Y1284507D1*
X1598932Y1278798D1*
X1591436Y1274204D1*
X1583313Y1270839D1*
X1574765Y1268787D1*
X1566000Y1268097D1*
X1557235Y1268787D1*
X1548687Y1270839D1*
X1540564Y1274204D1*
X1533068Y1278798D1*
X1526383Y1284507D1*
X1520673Y1291193D1*
X1516000Y1298860D1*
X1511327Y1291193D1*
X1505617Y1284507D1*
X1498932Y1278798D1*
X1491436Y1274204D1*
X1483313Y1270839D1*
X1474765Y1268787D1*
X1466000Y1268097D1*
X1457235Y1268787D1*
X1448687Y1270839D1*
X1440564Y1274204D1*
X1433068Y1278798D1*
X1426383Y1284507D1*
X1420673Y1291193D1*
X1416000Y1298860D1*
X1411327Y1291193D1*
X1405617Y1284507D1*
X1398932Y1278798D1*
X1391436Y1274204D1*
X1383313Y1270839D1*
X1374765Y1268787D1*
X1366000Y1268097D1*
X1357235Y1268787D1*
X1348687Y1270839D1*
X1340564Y1274204D1*
X1333068Y1278798D1*
X1326383Y1284507D1*
X1320673Y1291193D1*
X1316000Y1298860D1*
X1311327Y1291193D1*
X1305617Y1284507D1*
X1299000Y1278851D1*
X1298894Y1185536D1*
X1298084Y1180422D1*
X1296484Y1175498D1*
X1294134Y1170884D1*
X1291090Y1166695D1*
X1243862Y1119323D1*
X1171318Y1046779D1*
X1178079Y1045604D1*
X1186441Y1042887D1*
X1194274Y1038896D1*
X1201387Y1033728D1*
X1207604Y1027512D1*
X1212771Y1020399D1*
X1216763Y1012566D1*
X1219480Y1004204D1*
X1220855Y995521D1*
Y986729D1*
X1219480Y978045D1*
X1216763Y969684D1*
X1216180Y968420D1*
X1232668Y952120D1*
X1703329Y952121D1*
X1807014Y1055802D1*
X1807004Y1262490D1*
X1712910Y1356695D1*
X1709866Y1360884D1*
X1707516Y1365498D1*
X1705916Y1370422D1*
X1705106Y1375536D1*
X1705004Y1442429D1*
Y1643488D1*
X1599141Y1749321D1*
X1127196Y1749446D1*
X1122082Y1750255D1*
X1117158Y1751855D1*
X1112544Y1754206D1*
X1108355Y1757249D1*
X1060983Y1804478D1*
X995909Y1869695D1*
X992861Y1873893D1*
X991436Y1874204D1*
X983313Y1870839D1*
X974765Y1868787D1*
X966000Y1868097D1*
X957235Y1868787D1*
X948687Y1870839D1*
X942047Y1873520D1*
X907429Y1839034D1*
X903240Y1835991D1*
X898627Y1833640D1*
X893703Y1832040D1*
X888589Y1831230D1*
X821696Y1831129D1*
X736411Y1831230D1*
X731297Y1832040D1*
X726373Y1833640D1*
X721760Y1835991D1*
X717571Y1839034D1*
X697668Y1858793D1*
X694306Y1862730D1*
X691600Y1867145D1*
X689616Y1871938D1*
X687441Y1872362D1*
X679079Y1869645D1*
X670396Y1868270D1*
X661604D1*
X652921Y1869645D1*
X644559Y1872362D1*
X636726Y1876353D1*
X629613Y1881521D1*
X623396Y1887738D1*
X618229Y1894850D1*
X614237Y1902684D1*
X611520Y1911045D1*
X610145Y1919729D1*
Y1928521D1*
X611520Y1937204D1*
X614237Y1945566D1*
X618229Y1953399D1*
X623396Y1960512D1*
X629613Y1966728D1*
X636726Y1971896D1*
X644559Y1975887D1*
X652921Y1978604D1*
X661604Y1979980D1*
X670396D1*
X679079Y1978604D1*
X687441Y1975887D1*
X688018Y1975621D1*
X688106Y2130714D1*
X688916Y2135828D1*
X690516Y2140752D1*
X692866Y2145365D1*
X695910Y2149554D1*
X743138Y2196927D1*
X939571Y2393215D1*
X943760Y2396259D1*
X948373Y2398609D1*
X953297Y2400209D1*
X958411Y2401019D1*
X1025304Y2401121D1*
X1797589Y2401019D1*
X1802703Y2400209D1*
X1807627Y2398609D1*
X1812240Y2396259D1*
X1816429Y2393215D1*
X1863802Y2345986D1*
X1967090Y2242554D1*
X1970134Y2238365D1*
X1972484Y2233752D1*
X1974084Y2228828D1*
X1974894Y2223714D1*
X1974996Y2156820D1*
Y1589814D1*
X2051090Y1513554D1*
X2054134Y1509365D1*
X2056484Y1504752D1*
X2058084Y1499828D1*
X2058894Y1494714D1*
X2058996Y1427820D1*
Y1356016D1*
X2103523Y1400510D1*
X2103500Y2439156D1*
X2095004Y2439129D1*
Y2555121D1*
X2210996D1*
Y2439129D1*
X2182468D1*
X2182500Y1384125D1*
X2182014Y1377946D1*
X2180567Y1371919D1*
X2178195Y1366192D1*
X2174956Y1360907D1*
X2170922Y1356186D1*
X2026477Y1211740D1*
X2026378Y931026D1*
X2025409Y924904D1*
X2023493Y919009D1*
X2020679Y913486D1*
X2017036Y908471D1*
X1988948Y880211D1*
X1686653Y578089D1*
X1681639Y574445D1*
X1676116Y571631D1*
X1670221Y569716D1*
X1664099Y568746D1*
X1624255Y568625D1*
X814617Y568507D1*
X807932Y562798D1*
X800436Y558204D1*
X792313Y554839D1*
X783765Y552787D1*
X775000Y552097D1*
X766235Y552787D1*
X757687Y554839D1*
X749564Y558204D1*
X742068Y562798D1*
X735383Y568507D1*
X733271Y570791D1*
X729921Y562689D1*
X725327Y555193D1*
X719617Y548507D1*
X712932Y542798D1*
X705436Y538204D1*
X697313Y534839D1*
X688765Y532787D1*
X680000Y532097D1*
X671235Y532787D1*
X662687Y534839D1*
X654564Y538204D1*
X647068Y542798D1*
X640383Y548507D1*
X634673Y555193D1*
X630079Y562689D1*
X626715Y570811D1*
X624662Y579360D1*
X623972Y588125D1*
X624662Y596889D1*
X626715Y605438D1*
X630079Y613561D1*
X634673Y621057D1*
X640383Y627742D1*
X647068Y633452D1*
X654564Y638046D1*
X659414Y640203D1*
X708571Y689215D1*
X712760Y692259D1*
X717373Y694609D1*
X722297Y696209D1*
X727411Y697019D1*
X794304Y697121D1*
X864589Y697019D1*
X869703Y696209D1*
X874627Y694609D1*
X879240Y692259D1*
X883429Y689215D1*
X899668Y673120D1*
X1637307Y673121D1*
X1908989Y944778D1*
X1909004Y1008168D1*
X1905324Y1003786D1*
X1767429Y866034D1*
X1763240Y862991D1*
X1758627Y860640D1*
X1753703Y859040D1*
X1748589Y858230D1*
X1681696Y858129D1*
X1210285D1*
X1204617Y851507D1*
X1197932Y845798D1*
X1190264Y841125D1*
X1197932Y836452D1*
X1204617Y830742D1*
X1210327Y824057D1*
X1214921Y816561D1*
X1218285Y808438D1*
X1220338Y799889D1*
X1221028Y791125D1*
X1220338Y782360D1*
X1218285Y773811D1*
X1214921Y765689D1*
X1210327Y758193D1*
X1204617Y751507D1*
X1197932Y745798D1*
X1190436Y741204D1*
X1182313Y737839D1*
X1173765Y735787D1*
X1165000Y735097D1*
X1156235Y735787D1*
X1147687Y737839D1*
X1139564Y741204D1*
X1132068Y745798D1*
X1125383Y751507D1*
X1119673Y758193D1*
X1117907Y760836D1*
X1113760Y762991D1*
X1109571Y766034D1*
X1081668Y793793D1*
X1078306Y797730D1*
X1075600Y802145D1*
X1073619Y806928D1*
X1072410Y811963D1*
X1072004Y817125D1*
X1072106Y900714D1*
X1072916Y905828D1*
X1074516Y910752D1*
X1076866Y915365D1*
X1079910Y919554D1*
X1119146Y958934D1*
X1115079Y965689D1*
X1111715Y973811D1*
X1109662Y982360D1*
X1109369Y984835D1*
X964429Y840034D1*
X960240Y836991D1*
X955627Y834640D1*
X950703Y833040D1*
X945589Y832230D1*
X878696Y832129D1*
X809690D1*
X814617Y827742D1*
X820327Y821057D1*
X824921Y813561D1*
X828285Y805438D1*
X830338Y796889D1*
X831028Y788125D1*
X830338Y779360D1*
X828285Y770811D1*
X824921Y762689D1*
X820327Y755193D1*
X814617Y748507D1*
X807932Y742798D1*
X800436Y738204D1*
X792313Y734839D1*
X783765Y732787D1*
X775000Y732097D1*
X766235Y732787D1*
X757687Y734839D1*
X749564Y738204D1*
X742068Y742798D1*
X735383Y748507D1*
X729673Y755193D1*
X725079Y762689D1*
X721732Y770763D1*
X716387Y765521D1*
X709274Y760353D1*
X701441Y756362D1*
X693079Y753645D1*
X684396Y752270D1*
X675604D1*
X666921Y753645D1*
X658559Y756362D1*
X653763Y758566D1*
X656480Y750204D1*
X657855Y741521D1*
Y732729D1*
X656480Y724045D1*
X653763Y715684D1*
X649771Y707850D1*
X644604Y700738D1*
X638387Y694521D1*
X631274Y689353D1*
X623441Y685362D1*
X615079Y682645D1*
X606396Y681270D1*
X597604D1*
X588921Y682645D1*
X580559Y685362D1*
X572726Y689353D1*
X565613Y694521D1*
X559396Y700738D1*
X554229Y707850D1*
X550237Y715684D1*
X547520Y724045D1*
X546145Y732729D1*
Y741521D1*
X547520Y750204D1*
X550237Y758566D1*
X554229Y766399D1*
X559396Y773512D1*
X565613Y779728D1*
X569000Y782399D1*
X569106Y907714D1*
X569916Y912828D1*
X571516Y917752D1*
X573866Y922365D1*
X576910Y926554D1*
X624138Y973927D1*
X645571Y995215D1*
X649760Y998259D1*
X654373Y1000609D1*
X659297Y1002209D1*
X664411Y1003019D1*
X731304Y1003121D1*
X989348D1*
X1174007Y1187796D1*
X1174004Y1268680D1*
X1166000Y1268097D1*
X1157235Y1268787D1*
X1148687Y1270839D1*
X1140564Y1274204D1*
X1133068Y1278798D1*
X1126383Y1284507D1*
X1120673Y1291193D1*
X1116000Y1298860D1*
X1111327Y1291193D1*
X1105617Y1284507D1*
X1098932Y1278798D1*
X1091436Y1274204D1*
X1083313Y1270839D1*
X1074765Y1268787D1*
X1066000Y1268097D1*
X1057235Y1268787D1*
X1048687Y1270839D1*
X1040564Y1274204D1*
X1033068Y1278798D1*
X1026383Y1284507D1*
X1020673Y1291193D1*
X1016000Y1298860D1*
X1011327Y1291193D1*
X1005617Y1284507D1*
X998932Y1278798D1*
X991436Y1274204D1*
X983313Y1270839D1*
X974765Y1268787D1*
X966000Y1268097D1*
X957235Y1268787D1*
X948687Y1270839D1*
X940564Y1274204D1*
X933068Y1278798D1*
X926383Y1284507D1*
X920673Y1291193D1*
X916000Y1298860D1*
X911327Y1291193D1*
X905617Y1284507D1*
X898689Y1278635D1*
X897381Y1272928D1*
X895400Y1268145D1*
X892694Y1263730D1*
X889324Y1259786D1*
X510981Y881442D1*
X510996Y593805D1*
X545660Y559128D1*
X573589Y559019D1*
X578703Y558209D1*
X583627Y556609D1*
X588240Y554259D1*
X592429Y551215D1*
X639802Y503986D1*
X644648Y499140D1*
X2347951Y499121D1*
X2347972Y588152D1*
X2369252D1*
X2364383Y592507D1*
X2358673Y599193D1*
X2354079Y606689D1*
X2350715Y614811D1*
X2348662Y623360D1*
X2347972Y632125D1*
X2348662Y640889D1*
X2350715Y649438D1*
X2354079Y657561D1*
X2358673Y665057D1*
X2364383Y671742D1*
X2371068Y677452D1*
X2378736Y682125D1*
X2371068Y686798D1*
X2364383Y692507D1*
X2358673Y699193D1*
X2354079Y706689D1*
X2350715Y714811D1*
X2348662Y723360D1*
X2347972Y732125D1*
X2348662Y740889D1*
X2350715Y749438D1*
X2354079Y757561D1*
X2358673Y765057D1*
X2364383Y771742D1*
X2371068Y777452D1*
X2378736Y782125D1*
X2371068Y786798D1*
X2364383Y792507D1*
X2358673Y799193D1*
X2354079Y806689D1*
X2350715Y814811D1*
X2348662Y823360D1*
X2347972Y832125D1*
X2348662Y840889D1*
X2350715Y849438D1*
X2354079Y857561D1*
X2358673Y865057D1*
X2364383Y871742D1*
X2371068Y877452D1*
X2378564Y882046D1*
X2386687Y885410D1*
X2395235Y887463D1*
X2404000Y888152D1*
X2412765Y887463D1*
X2421313Y885410D1*
X2429436Y882046D1*
X2436932Y877452D1*
X2443617Y871742D1*
X2449327Y865057D1*
X2453921Y857561D1*
X2457285Y849438D1*
X2459338Y840889D1*
X2460028Y832125D1*
X2459338Y823360D1*
X2457285Y814811D1*
X2453921Y806689D1*
X2449327Y799193D1*
X2443617Y792507D1*
X2436932Y786798D1*
X2429264Y782125D1*
X2436932Y777452D1*
X2443617Y771742D1*
X2449327Y765057D1*
X2453921Y757561D1*
X2457285Y749438D1*
X2459338Y740889D1*
X2460028Y732125D1*
X2459338Y723360D1*
X2457285Y714811D1*
X2453921Y706689D1*
X2449327Y699193D1*
X2443617Y692507D1*
X2436932Y686798D1*
X2429264Y682125D1*
X2436932Y677452D1*
X2443617Y671742D1*
X2449327Y665057D1*
X2453921Y657561D1*
X2457285Y649438D1*
X2459338Y640889D1*
X2460028Y632125D1*
X2459338Y623360D1*
X2457285Y614811D1*
X2453921Y606689D1*
X2449327Y599193D1*
X2443617Y592507D1*
X2438646Y588149D1*
X2449345Y588152D1*
X2464957Y603745D1*
X2464972Y672152D1*
X2557159D1*
X2556803Y940694D1*
X2550932Y935798D1*
X2543436Y931204D1*
X2535313Y927839D1*
X2526765Y925787D1*
X2518000Y925097D1*
X2509235Y925787D1*
X2500687Y927839D1*
X2492564Y931204D1*
X2485068Y935798D1*
X2478383Y941507D1*
X2472673Y948193D1*
X2468000Y955860D1*
X2463327Y948193D1*
X2457617Y941507D1*
X2450932Y935798D1*
X2443436Y931204D1*
X2435313Y927839D1*
X2426765Y925787D1*
X2418000Y925097D1*
X2409235Y925787D1*
X2400687Y927839D1*
X2392564Y931204D1*
X2385068Y935798D1*
X2378383Y941507D1*
X2372673Y948193D1*
X2368079Y955689D1*
X2364715Y963811D1*
X2362662Y972360D1*
X2361972Y981125D1*
X2362662Y989889D1*
X2364715Y998438D1*
X2368079Y1006561D1*
X2372673Y1014057D1*
X2378383Y1020742D1*
X2385068Y1026452D1*
X2392736Y1031125D1*
X2385068Y1035798D1*
X2378383Y1041507D1*
X2372673Y1048193D1*
X2368079Y1055689D1*
X2364715Y1063811D1*
X2362662Y1072360D1*
X2361972Y1081125D1*
X2362662Y1089889D1*
X2364715Y1098438D1*
X2368079Y1106561D1*
X2372673Y1114057D1*
X2378383Y1120742D1*
X2385068Y1126452D1*
X2392564Y1131046D1*
X2400687Y1134410D1*
X2409235Y1136463D1*
X2418000Y1137152D1*
X2426765Y1136463D1*
X2435313Y1134410D1*
X2443436Y1131046D1*
X2450932Y1126452D1*
X2457617Y1120742D1*
X2461976Y1115771D1*
X2461972Y1137152D1*
X2556537Y1137232D1*
X2554328Y2630627D1*
X2552585Y2634293D1*
X2548054Y2640558D1*
X2542369Y2645791D1*
X2535753Y2649786D1*
X2528367Y2652398D1*
X2520840Y2653629D1*
X1619400Y2654978D1*
X1621338Y2646889D1*
X1622028Y2638125D1*
X1621338Y2629360D1*
X1619285Y2620811D1*
X1615921Y2612689D1*
X1611327Y2605193D1*
X1605617Y2598507D1*
X1598932Y2592798D1*
X1591436Y2588204D1*
X1583313Y2584839D1*
X1574765Y2582787D1*
X1566000Y2582097D1*
X1557235Y2582787D1*
X1548687Y2584839D1*
X1540564Y2588204D1*
X1533068Y2592798D1*
X1526383Y2598507D1*
X1520673Y2605193D1*
X1516000Y2612860D1*
X1511327Y2605193D1*
X1505617Y2598507D1*
X1498932Y2592798D1*
X1491436Y2588204D1*
X1483313Y2584839D1*
X1474765Y2582787D1*
X1466000Y2582097D1*
X1457235Y2582787D1*
X1448687Y2584839D1*
X1440564Y2588204D1*
X1433068Y2592798D1*
X1426383Y2598507D1*
X1420673Y2605193D1*
X1416000Y2612860D1*
X1411327Y2605193D1*
X1405617Y2598507D1*
X1398932Y2592798D1*
X1391436Y2588204D1*
X1383313Y2584839D1*
X1374765Y2582787D1*
X1366000Y2582097D1*
X1357235Y2582787D1*
X1348687Y2584839D1*
X1340564Y2588204D1*
X1333068Y2592798D1*
X1326383Y2598507D1*
X1320673Y2605193D1*
X1316000Y2612860D1*
X1311327Y2605193D1*
X1305617Y2598507D1*
X1298932Y2592798D1*
X1291436Y2588204D1*
X1283313Y2584839D1*
X1274765Y2582787D1*
X1266000Y2582097D1*
X1257235Y2582787D1*
X1248687Y2584839D1*
X1240564Y2588204D1*
X1233068Y2592798D1*
X1226383Y2598507D1*
X1220673Y2605193D1*
X1216000Y2612860D1*
X1211327Y2605193D1*
X1205617Y2598507D1*
X1198932Y2592798D1*
X1191436Y2588204D1*
X1183313Y2584839D1*
X1174765Y2582787D1*
X1166000Y2582097D1*
X1157235Y2582787D1*
X1148687Y2584839D1*
X1140564Y2588204D1*
X1133068Y2592798D1*
X1126383Y2598507D1*
X1120673Y2605193D1*
X1116000Y2612860D1*
X1111327Y2605193D1*
X1105617Y2598507D1*
X1098932Y2592798D1*
X1091436Y2588204D1*
X1083313Y2584839D1*
X1074765Y2582787D1*
X1066000Y2582097D1*
X1057235Y2582787D1*
X1048687Y2584839D1*
X1040564Y2588204D1*
X1033068Y2592798D1*
X1026383Y2598507D1*
X1020673Y2605193D1*
X1016000Y2612860D1*
X1011327Y2605193D1*
X1005617Y2598507D1*
X998932Y2592798D1*
X991436Y2588204D1*
X983313Y2584839D1*
X974765Y2582787D1*
X966000Y2582097D1*
X957235Y2582787D1*
X948687Y2584839D1*
X940564Y2588204D1*
X933068Y2592798D1*
X926383Y2598507D1*
X920673Y2605193D1*
X916000Y2612860D1*
X911327Y2605193D1*
X905617Y2598507D1*
X898932Y2592798D1*
X891436Y2588204D1*
X883313Y2584839D1*
X874765Y2582787D1*
X866000Y2582097D1*
X857235Y2582787D1*
X848687Y2584839D1*
X840564Y2588204D1*
X833068Y2592798D1*
X826383Y2598507D1*
X820673Y2605193D1*
X816000Y2612860D1*
X811327Y2605193D1*
X805617Y2598507D1*
X798932Y2592798D1*
X791436Y2588204D1*
X783313Y2584839D1*
X774765Y2582787D1*
X766000Y2582097D1*
X757235Y2582787D1*
X748687Y2584839D1*
X740564Y2588204D1*
X733068Y2592798D1*
X726383Y2598507D1*
X720673Y2605193D1*
X716000Y2612860D1*
X711327Y2605193D1*
X705617Y2598507D1*
X698932Y2592798D1*
X691436Y2588204D1*
X683313Y2584839D1*
X674765Y2582787D1*
X666000Y2582097D1*
X657235Y2582787D1*
X648687Y2584839D1*
X640564Y2588204D1*
X633068Y2592798D1*
X626383Y2598507D1*
X620673Y2605193D1*
X616079Y2612689D1*
X612715Y2620811D1*
X610662Y2629360D1*
X609972Y2638125D1*
X610662Y2646889D1*
X612715Y2655438D1*
X613101Y2656486D1*
X518905Y2656625D1*
X520480Y2651204D1*
X521855Y2642521D1*
Y2633729D1*
X520480Y2625045D1*
X517763Y2616684D1*
X513771Y2608850D1*
X508604Y2601738D1*
X502387Y2595521D1*
X495274Y2590353D1*
X487441Y2586362D1*
X479079Y2583645D1*
X470396Y2582270D1*
X461604D1*
X452921Y2583645D1*
X444559Y2586362D1*
X436726Y2590353D1*
X433311Y2592635D1*
X437813Y2086518D1*
X444559Y2089887D1*
X452921Y2092604D1*
X461604Y2093980D1*
X470396D1*
X479079Y2092604D1*
X487441Y2089887D1*
X495274Y2085896D1*
X502387Y2080728D1*
X508604Y2074512D1*
X513771Y2067399D1*
X516079Y2063561D1*
X520673Y2071057D1*
X526383Y2077742D1*
X533068Y2083452D1*
X540564Y2088046D1*
X548687Y2091410D1*
X557235Y2093463D1*
X566000Y2094152D1*
X574765Y2093463D1*
X583313Y2091410D1*
X591436Y2088046D1*
X598932Y2083452D1*
X605617Y2077742D1*
X611327Y2071057D1*
X615921Y2063561D1*
X619285Y2055438D1*
X621338Y2046889D1*
X622028Y2038125D1*
X621338Y2029360D1*
X619285Y2020811D1*
X615921Y2012689D1*
X611327Y2005193D1*
X605617Y1998507D1*
X598932Y1992798D1*
X591436Y1988204D1*
X583313Y1984839D1*
X574765Y1982787D1*
X566000Y1982097D1*
X557321Y1982777D1*
X547998Y1973459D1*
X548012Y1377201D1*
X557235Y1379463D1*
X566000Y1380152D1*
X574765Y1379463D1*
X583313Y1377410D1*
X591436Y1374046D1*
X598932Y1369452D1*
X605617Y1363742D1*
X611327Y1357057D1*
X615921Y1349561D1*
X619285Y1341438D1*
X621338Y1332889D1*
X622028Y1324125D1*
X621338Y1315360D1*
X619285Y1306811D1*
X615921Y1298689D1*
X611327Y1291193D1*
X605617Y1284507D1*
X598932Y1278798D1*
X591436Y1274204D1*
X583313Y1270839D1*
X574765Y1268787D1*
X566000Y1268097D1*
X557235Y1268787D1*
X548687Y1270839D1*
X540564Y1274204D1*
X533068Y1278798D1*
X526383Y1284507D1*
X520673Y1291193D1*
X516000Y1298860D1*
X753982Y1978816D2*
X761604Y1979980D1*
X770396D1*
X779079Y1978604D1*
X787441Y1975887D1*
X795274Y1971896D1*
X802387Y1966728D1*
X808604Y1960512D1*
X813771Y1953399D1*
X816079Y1949561D1*
X820673Y1957057D1*
X826383Y1963742D1*
X833068Y1969452D1*
X840564Y1974046D1*
X848687Y1977410D1*
X853713Y1978762D1*
X847081Y1985380D1*
X840564Y1988204D1*
X833068Y1992798D1*
X826383Y1998507D1*
X820673Y2005193D1*
X816079Y2012689D1*
X812715Y2020811D1*
X810662Y2029360D1*
X809972Y2038125D1*
X810662Y2046889D1*
X812715Y2055438D1*
X816079Y2063561D1*
X820673Y2071057D1*
X826383Y2077742D1*
X833068Y2083452D1*
X840564Y2088046D1*
X848687Y2091410D1*
X857235Y2093463D1*
X866000Y2094152D1*
X874765Y2093463D1*
X883313Y2091410D1*
X891436Y2088046D1*
X898932Y2083452D1*
X905617Y2077742D1*
X911327Y2071057D1*
X916000Y2063389D1*
X920673Y2071057D1*
X926383Y2077742D1*
X933068Y2083452D1*
X940564Y2088046D1*
X948687Y2091410D1*
X957235Y2093463D1*
X966000Y2094152D1*
X974679Y2093473D1*
X1055571Y2174215D1*
X1059760Y2177259D1*
X1064373Y2179609D1*
X1069297Y2181209D1*
X1074411Y2182019D1*
X1141304Y2182121D1*
X1730918D1*
X1728662Y2191360D1*
X1727972Y2200125D1*
X1728662Y2208889D1*
X1730715Y2217438D1*
X1734079Y2225561D1*
X1738673Y2233057D1*
X1744383Y2239742D1*
X1751068Y2245452D1*
X1758736Y2250125D1*
X1751068Y2254798D1*
X1744383Y2260507D1*
X1738673Y2267193D1*
X1734079Y2274689D1*
X1730715Y2282811D1*
X1728662Y2291360D1*
X1727972Y2300125D1*
X1728662Y2308889D1*
X1730715Y2317438D1*
X1734079Y2325561D1*
X1738673Y2333057D1*
X1740301Y2335122D1*
X974652Y2335129D1*
X754012Y2114474D1*
X753996Y1978882D1*
X2220855Y1086729D2*
X2219480Y1078045D1*
X2216763Y1069684D1*
X2212771Y1061850D1*
X2207604Y1054738D1*
X2201387Y1048521D1*
X2194274Y1043353D1*
X2190436Y1041046D1*
X2197932Y1036452D1*
X2204617Y1030742D1*
X2210327Y1024057D1*
X2214921Y1016561D1*
X2218285Y1008438D1*
X2220338Y999889D1*
X2221028Y991125D1*
X2220338Y982360D1*
X2218285Y973811D1*
X2214921Y965689D1*
X2210327Y958193D1*
X2204617Y951507D1*
X2197932Y945798D1*
X2190264Y941125D1*
X2197932Y936452D1*
X2204617Y930742D1*
X2210327Y924057D1*
X2214921Y916561D1*
X2218285Y908438D1*
X2220338Y899889D1*
X2221028Y891125D1*
X2220338Y882360D1*
X2218285Y873811D1*
X2214921Y865689D1*
X2210327Y858193D1*
X2204617Y851507D1*
X2197932Y845798D1*
X2190264Y841125D1*
X2197932Y836452D1*
X2204617Y830742D1*
X2210327Y824057D1*
X2214921Y816561D1*
X2218285Y808438D1*
X2220338Y799889D1*
X2221028Y791125D1*
X2220338Y782360D1*
X2218285Y773811D1*
X2214921Y765689D1*
X2210327Y758193D1*
X2204617Y751507D1*
X2197932Y745798D1*
X2190264Y741125D1*
X2197932Y736452D1*
X2204617Y730742D1*
X2210327Y724057D1*
X2214921Y716561D1*
X2218285Y708438D1*
X2220338Y699889D1*
X2221028Y691125D1*
X2220338Y682360D1*
X2218285Y673811D1*
X2214921Y665689D1*
X2210327Y658193D1*
X2204617Y651507D1*
X2197932Y645798D1*
X2190264Y641125D1*
X2197932Y636452D1*
X2204617Y630742D1*
X2210327Y624057D1*
X2214921Y616561D1*
X2218285Y608438D1*
X2220338Y599889D1*
X2221028Y591125D1*
X2220338Y582360D1*
X2218285Y573811D1*
X2214921Y565689D1*
X2210327Y558193D1*
X2204617Y551507D1*
X2197932Y545798D1*
X2190436Y541204D1*
X2182313Y537839D1*
X2173765Y535787D1*
X2165000Y535097D1*
X2156235Y535787D1*
X2147687Y537839D1*
X2139564Y541204D1*
X2132068Y545798D1*
X2125383Y551507D1*
X2119673Y558193D1*
X2115079Y565689D1*
X2111715Y573811D1*
X2109662Y582360D1*
X2108972Y591125D1*
X2109662Y599889D1*
X2111715Y608438D1*
X2115079Y616561D1*
X2119673Y624057D1*
X2125383Y630742D1*
X2132068Y636452D1*
X2139736Y641125D1*
X2132068Y645798D1*
X2125383Y651507D1*
X2119673Y658193D1*
X2115079Y665689D1*
X2111715Y673811D1*
X2109662Y682360D1*
X2108972Y691125D1*
X2109662Y699889D1*
X2111715Y708438D1*
X2115079Y716561D1*
X2119673Y724057D1*
X2125383Y730742D1*
X2132068Y736452D1*
X2139736Y741125D1*
X2132068Y745798D1*
X2125383Y751507D1*
X2119673Y758193D1*
X2115079Y765689D1*
X2111715Y773811D1*
X2109662Y782360D1*
X2108972Y791125D1*
X2109662Y799889D1*
X2111715Y808438D1*
X2115079Y816561D1*
X2119673Y824057D1*
X2125383Y830742D1*
X2132068Y836452D1*
X2139736Y841125D1*
X2132068Y845798D1*
X2125383Y851507D1*
X2119673Y858193D1*
X2115079Y865689D1*
X2111715Y873811D1*
X2109662Y882360D1*
X2108972Y891125D1*
X2109662Y899889D1*
X2111715Y908438D1*
X2115079Y916561D1*
X2119673Y924057D1*
X2125383Y930742D1*
X2132068Y936452D1*
X2139736Y941125D1*
X2132068Y945798D1*
X2125383Y951507D1*
X2119673Y958193D1*
X2115079Y965689D1*
X2111715Y973811D1*
X2109662Y982360D1*
X2108972Y991125D1*
X2109662Y999889D1*
X2111715Y1008438D1*
X2115079Y1016561D1*
X2119673Y1024057D1*
X2125383Y1030742D1*
X2132068Y1036452D1*
X2139736Y1041125D1*
X2132068Y1045798D1*
X2125383Y1051507D1*
X2119673Y1058193D1*
X2115079Y1065689D1*
X2111715Y1073811D1*
X2109662Y1082360D1*
X2108972Y1091125D1*
X2109662Y1099889D1*
X2111715Y1108438D1*
X2115079Y1116561D1*
X2119673Y1124057D1*
X2125383Y1130742D1*
X2132068Y1136452D1*
X2139564Y1141046D1*
X2147687Y1144410D1*
X2156235Y1146463D1*
X2165000Y1147152D1*
X2173765Y1146463D1*
X2182313Y1144410D1*
X2190436Y1141046D1*
X2197932Y1136452D1*
X2204617Y1130742D1*
X2210327Y1124057D1*
X2214921Y1116561D1*
X2218285Y1108438D1*
X2220338Y1099889D1*
X2221028Y1091125D1*
X2220855Y1086729D1*
X2339855Y1695729D2*
X2338480Y1687045D1*
X2335763Y1678684D1*
X2331771Y1670850D1*
X2326604Y1663738D1*
X2320387Y1657521D1*
X2313274Y1652353D1*
X2305441Y1648362D1*
X2297079Y1645645D1*
X2288396Y1644270D1*
X2279604D1*
X2270921Y1645645D1*
X2262559Y1648362D1*
X2254726Y1652353D1*
X2247613Y1657521D1*
X2241396Y1663738D1*
X2236229Y1670850D1*
X2232237Y1678684D1*
X2229520Y1687045D1*
X2228145Y1695729D1*
Y1704521D1*
X2229520Y1713204D1*
X2232237Y1721566D1*
X2236229Y1729399D1*
X2241396Y1736512D1*
X2247613Y1742728D1*
X2254726Y1747896D1*
X2258564Y1750204D1*
X2251068Y1754798D1*
X2244383Y1760507D1*
X2238673Y1767193D1*
X2234079Y1774689D1*
X2230715Y1782811D1*
X2228662Y1791360D1*
X2227972Y1800125D1*
X2228662Y1808889D1*
X2230715Y1817438D1*
X2234079Y1825561D1*
X2238673Y1833057D1*
X2244383Y1839742D1*
X2251068Y1845452D1*
X2258736Y1850125D1*
X2251068Y1854798D1*
X2244383Y1860507D1*
X2238673Y1867193D1*
X2234079Y1874689D1*
X2230715Y1882811D1*
X2228662Y1891360D1*
X2227972Y1900125D1*
X2228662Y1908889D1*
X2230715Y1917438D1*
X2234079Y1925561D1*
X2238673Y1933057D1*
X2244383Y1939742D1*
X2251068Y1945452D1*
X2258736Y1950125D1*
X2251068Y1954798D1*
X2244383Y1960507D1*
X2238673Y1967193D1*
X2234079Y1974689D1*
X2230715Y1982811D1*
X2228662Y1991360D1*
X2227972Y2000125D1*
X2228662Y2008889D1*
X2230715Y2017438D1*
X2234079Y2025561D1*
X2238673Y2033057D1*
X2244383Y2039742D1*
X2251068Y2045452D1*
X2258736Y2050125D1*
X2251068Y2054798D1*
X2244383Y2060507D1*
X2238673Y2067193D1*
X2234079Y2074689D1*
X2230715Y2082811D1*
X2228662Y2091360D1*
X2227972Y2100125D1*
X2228662Y2108889D1*
X2230715Y2117438D1*
X2234079Y2125561D1*
X2238673Y2133057D1*
X2244383Y2139742D1*
X2251068Y2145452D1*
X2258564Y2150046D1*
X2266687Y2153410D1*
X2275235Y2155463D1*
X2284000Y2156152D1*
X2292765Y2155463D1*
X2301313Y2153410D1*
X2309436Y2150046D1*
X2316932Y2145452D1*
X2323617Y2139742D1*
X2329327Y2133057D1*
X2333921Y2125561D1*
X2337285Y2117438D1*
X2339338Y2108889D1*
X2340028Y2100125D1*
X2339338Y2091360D1*
X2337285Y2082811D1*
X2333921Y2074689D1*
X2329327Y2067193D1*
X2323617Y2060507D1*
X2316932Y2054798D1*
X2309264Y2050125D1*
X2316932Y2045452D1*
X2323617Y2039742D1*
X2329327Y2033057D1*
X2333921Y2025561D1*
X2337285Y2017438D1*
X2339338Y2008889D1*
X2340028Y2000125D1*
X2339338Y1991360D1*
X2337285Y1982811D1*
X2333921Y1974689D1*
X2329327Y1967193D1*
X2323617Y1960507D1*
X2316932Y1954798D1*
X2309264Y1950125D1*
X2316932Y1945452D1*
X2323617Y1939742D1*
X2329327Y1933057D1*
X2333921Y1925561D1*
X2337285Y1917438D1*
X2339338Y1908889D1*
X2340028Y1900125D1*
X2339338Y1891360D1*
X2337285Y1882811D1*
X2333921Y1874689D1*
X2329327Y1867193D1*
X2323617Y1860507D1*
X2316932Y1854798D1*
X2309264Y1850125D1*
X2316932Y1845452D1*
X2323617Y1839742D1*
X2329327Y1833057D1*
X2333921Y1825561D1*
X2337285Y1817438D1*
X2339338Y1808889D1*
X2340028Y1800125D1*
X2339338Y1791360D1*
X2337285Y1782811D1*
X2333921Y1774689D1*
X2329327Y1767193D1*
X2323617Y1760507D1*
X2316932Y1754798D1*
X2309264Y1750125D1*
X2316932Y1745452D1*
X2323617Y1739742D1*
X2329327Y1733057D1*
X2333921Y1725561D1*
X2337285Y1717438D1*
X2339338Y1708889D1*
X2340028Y1700125D1*
X2339855Y1695729D1*
Y2295729D2*
X2338480Y2287045D1*
X2335763Y2278684D1*
X2331771Y2270850D1*
X2326604Y2263738D1*
X2320387Y2257521D1*
X2313274Y2252353D1*
X2305441Y2248362D1*
X2297079Y2245645D1*
X2288396Y2244270D1*
X2279604D1*
X2270921Y2245645D1*
X2262559Y2248362D1*
X2254726Y2252353D1*
X2247613Y2257521D1*
X2241396Y2263738D1*
X2236229Y2270850D1*
X2232237Y2278684D1*
X2229520Y2287045D1*
X2228145Y2295729D1*
Y2304521D1*
X2229520Y2313204D1*
X2232237Y2321566D1*
X2236229Y2329399D1*
X2241396Y2336512D1*
X2247613Y2342728D1*
X2254726Y2347896D1*
X2262559Y2351887D1*
X2270921Y2354604D1*
X2279604Y2355980D1*
X2288396D1*
X2297079Y2354604D1*
X2305441Y2351887D1*
X2313274Y2347896D1*
X2320387Y2342728D1*
X2326604Y2336512D1*
X2331771Y2329399D1*
X2335763Y2321566D1*
X2338480Y2313204D1*
X2339855Y2304521D1*
Y2295729D1*
X635003Y841475D2*
X640383Y847742D1*
X647068Y853452D1*
X654564Y858046D1*
X662687Y861410D1*
X671235Y863463D1*
X680000Y864152D1*
X688765Y863463D1*
X697313Y861410D1*
X703953Y858729D1*
X735571Y890215D1*
X739760Y893259D1*
X744373Y895609D1*
X749297Y897209D1*
X754411Y898019D1*
X821304Y898121D1*
X929352D1*
X968361Y937149D1*
X680652Y937129D1*
X634991Y891452D1*
X634996Y841502D1*
X2492284Y2470288D2*
X2491245Y2461505D1*
X2489519Y2452832D1*
X2487119Y2444320D1*
X2484058Y2436023D1*
X2480355Y2427991D1*
X2476034Y2420275D1*
X2471121Y2412922D1*
X2465645Y2405977D1*
X2459642Y2399482D1*
X2453148Y2393479D1*
X2446203Y2388004D1*
X2438850Y2383091D1*
X2431134Y2378770D1*
X2423102Y2375067D1*
X2414805Y2372006D1*
X2406293Y2369606D1*
X2397619Y2367880D1*
X2388837Y2366841D1*
X2380000Y2366494D1*
X2371163Y2366841D1*
X2362381Y2367880D1*
X2353707Y2369606D1*
X2345195Y2372006D1*
X2336898Y2375067D1*
X2328866Y2378770D1*
X2321150Y2383091D1*
X2313797Y2388004D1*
X2306852Y2393479D1*
X2300358Y2399482D1*
X2294355Y2405977D1*
X2288879Y2412922D1*
X2283966Y2420275D1*
X2279645Y2427991D1*
X2275942Y2436023D1*
X2272881Y2444320D1*
X2270481Y2452832D1*
X2268755Y2461505D1*
X2267716Y2470288D1*
X2267369Y2479125D1*
X2267716Y2487962D1*
X2268755Y2496744D1*
X2270481Y2505418D1*
X2272881Y2513930D1*
X2275942Y2522227D1*
X2279645Y2530258D1*
X2283966Y2537974D1*
X2288879Y2545328D1*
X2294355Y2552273D1*
X2300358Y2558767D1*
X2306852Y2564770D1*
X2313797Y2570245D1*
X2321150Y2575159D1*
X2328866Y2579480D1*
X2336898Y2583182D1*
X2345195Y2586243D1*
X2353707Y2588644D1*
X2362381Y2590369D1*
X2371163Y2591409D1*
X2380000Y2591756D1*
X2388837Y2591409D1*
X2397619Y2590369D1*
X2406293Y2588644D1*
X2414805Y2586243D1*
X2423102Y2583182D1*
X2431134Y2579480D1*
X2438850Y2575159D1*
X2446203Y2570245D1*
X2453148Y2564770D1*
X2459642Y2558767D1*
X2465645Y2552273D1*
X2471121Y2545328D1*
X2476034Y2537974D1*
X2480355Y2530258D1*
X2484058Y2522227D1*
X2487119Y2513930D1*
X2489519Y2505418D1*
X2491245Y2496744D1*
X2492284Y2487962D1*
X2492631Y2479125D1*
X2492284Y2470288D1*
D17*
X466000Y1324125D3*
X566000D3*
X666000D3*
X766000D3*
X866000D3*
X966000D3*
X1066000D3*
X1166000D3*
X1266000D3*
X1366000D3*
X1466000D3*
X1566000D3*
X466000Y1924125D3*
X566000D3*
X666000D3*
X766000D3*
X866000D3*
X966000D3*
X1066000D3*
X1166000D3*
X1266000D3*
X1366000D3*
X1466000D3*
X1566000D3*
X466000Y2038125D3*
X566000D3*
X666000D3*
X766000D3*
X866000D3*
X966000D3*
X1066000D3*
X1166000D3*
X1266000D3*
X1366000D3*
X1466000D3*
X1566000D3*
X466000Y2638125D3*
X566000D3*
X666000D3*
X766000D3*
X866000D3*
X966000D3*
X1066000D3*
X1166000D3*
X1266000D3*
X1366000D3*
X1466000D3*
X1566000D3*
X1165000Y991125D3*
Y891125D3*
Y791125D3*
Y691125D3*
X2165000Y1091125D3*
Y991125D3*
Y891125D3*
Y791125D3*
Y691125D3*
Y591125D3*
D18*
X2284000Y1600125D3*
D19*
Y1700125D3*
Y1800125D3*
Y1900125D3*
Y2000125D3*
Y2100125D3*
Y2200125D3*
Y2300125D3*
X1784000D3*
Y2200125D3*
Y2100125D3*
Y2000125D3*
Y1900125D3*
Y1800125D3*
Y1700125D3*
Y1600125D3*
D18*
X2404000Y532125D3*
D19*
Y632125D3*
Y732125D3*
Y832125D3*
D18*
X2521000Y616125D3*
D19*
Y516125D3*
D18*
X2518000Y1081125D3*
D19*
Y981125D3*
X2418000Y1081125D3*
Y981125D3*
D20*
X2053000Y2497125D3*
D21*
X2153000D3*
D17*
X680000Y588125D3*
Y808125D3*
X602000Y647125D3*
Y737125D3*
X775000Y608125D3*
Y788125D3*
D22*
X696000Y513125D3*
Y883125D3*
M02*
