G04 DipTrace 3.2.0.1*
G04 TopSilk.gbr*
%MOIN*%
G04 #@! TF.FileFunction,Legend,Top*
G04 #@! TF.Part,Single*
%ADD10C,0.009843*%
%ADD44C,0.00772*%
%FSLAX26Y26*%
G04*
G70*
G90*
G75*
G01*
G04 TopSilk*
%LPD*%
X416000Y1274125D2*
D10*
X1716000D1*
Y1974125D1*
X416000D1*
Y1274125D1*
Y1988125D2*
X1716000D1*
Y2688125D1*
X416000D1*
Y1988125D1*
X2340000Y416125D2*
X990000D1*
Y1266125D1*
X2340000D1*
Y416125D1*
X1734000Y1546125D2*
Y2354125D1*
X2334000Y2352105D2*
X1734000D1*
X2334000Y1548145D2*
Y2352105D1*
Y1548145D2*
X2057640Y1548549D1*
X1734000Y1548145D2*
X2010360Y1548549D1*
X2057640D2*
G03X2010360Y1548549I-23640J-46D01*
G01*
X2454000Y882125D2*
X2354000D1*
X2454000Y482125D2*
Y882125D1*
X2354000Y482125D2*
Y882125D1*
X2454000Y482125D2*
X2354000D1*
X2471000Y466125D2*
X2571000D1*
X2471000Y666125D2*
Y466125D1*
Y666125D2*
X2571000D1*
Y466125D1*
X2568000Y931125D2*
X2368000D1*
X2568000Y1131125D2*
Y931125D1*
X2368000Y1131125D2*
Y931125D1*
X2568000Y1131125D2*
X2368000D1*
X2172940Y2557125D2*
X2033060D1*
X2172940Y2437125D2*
X2033060D1*
Y2557125D2*
G03X2033060Y2437125I-60J-60000D01*
G01*
X2172940D2*
G03X2172940Y2557125I60J60000D01*
G01*
X421000Y698125D2*
G02X421000Y698125I275000J0D01*
G01*
X789769Y1625949D2*
D44*
X811324D1*
X818454Y1628325D1*
X820885Y1630757D1*
X823262Y1635510D1*
Y1642695D1*
X820885Y1647449D1*
X818454Y1649880D1*
X811324Y1652257D1*
X789769D1*
Y1602017D1*
X838701Y1628325D2*
X860201D1*
X867386Y1630757D1*
X869818Y1633134D1*
X872195Y1637887D1*
Y1642695D1*
X869818Y1647449D1*
X867386Y1649880D1*
X860201Y1652257D1*
X838701D1*
Y1602017D1*
X855448Y1628325D2*
X872195Y1602017D1*
X902004Y1652257D2*
X897195Y1649880D1*
X892442Y1645072D1*
X890010Y1640319D1*
X887634Y1633134D1*
Y1621140D1*
X890010Y1614010D1*
X892442Y1609202D1*
X897195Y1604449D1*
X902004Y1602017D1*
X911566D1*
X916319Y1604449D1*
X921127Y1609202D1*
X923504Y1614010D1*
X925880Y1621140D1*
Y1633134D1*
X923504Y1640319D1*
X921127Y1645072D1*
X916319Y1649880D1*
X911566Y1652257D1*
X902004D1*
X979566Y1602017D2*
Y1652257D1*
X960443Y1602017D1*
X941320Y1652257D1*
Y1602017D1*
X995005Y1652257D2*
Y1602017D1*
X1046315Y1640319D2*
X1043938Y1645072D1*
X1039129Y1649880D1*
X1034376Y1652257D1*
X1024815D1*
X1020006Y1649880D1*
X1015253Y1645072D1*
X1012821Y1640319D1*
X1010445Y1633134D1*
Y1621140D1*
X1012821Y1614010D1*
X1015253Y1609202D1*
X1020006Y1604449D1*
X1024815Y1602017D1*
X1034376D1*
X1039129Y1604449D1*
X1043938Y1609202D1*
X1046315Y1614010D1*
X1061754Y1628325D2*
X1083254D1*
X1090439Y1630757D1*
X1092871Y1633134D1*
X1095247Y1637887D1*
Y1642695D1*
X1092871Y1647449D1*
X1090439Y1649880D1*
X1083254Y1652257D1*
X1061754D1*
Y1602017D1*
X1078500Y1628325D2*
X1095247Y1602017D1*
X1125056Y1652257D2*
X1120248Y1649880D1*
X1115495Y1645072D1*
X1113063Y1640319D1*
X1110686Y1633134D1*
Y1621140D1*
X1113063Y1614010D1*
X1115495Y1609202D1*
X1120248Y1604449D1*
X1125056Y1602017D1*
X1134618D1*
X1139371Y1604449D1*
X1144180Y1609202D1*
X1146556Y1614010D1*
X1148933Y1621140D1*
Y1633134D1*
X1146556Y1640319D1*
X1144180Y1645072D1*
X1139371Y1649880D1*
X1134618Y1652257D1*
X1125056D1*
X1197865Y1645072D2*
X1193112Y1649880D1*
X1185927Y1652257D1*
X1176366D1*
X1169181Y1649880D1*
X1164372Y1645072D1*
Y1640319D1*
X1166804Y1635510D1*
X1169181Y1633134D1*
X1173934Y1630757D1*
X1188304Y1625949D1*
X1193112Y1623572D1*
X1195489Y1621140D1*
X1197865Y1616387D1*
Y1609202D1*
X1193112Y1604449D1*
X1185927Y1602017D1*
X1176366D1*
X1169181Y1604449D1*
X1164372Y1609202D1*
X1230051Y1652257D2*
Y1602017D1*
X1213305Y1652257D2*
X1246798D1*
X1293299D2*
X1262237D1*
Y1602017D1*
X1293299D1*
X1262237Y1628325D2*
X1281361D1*
X1308738Y1625949D2*
X1330293D1*
X1337423Y1628325D1*
X1339855Y1630757D1*
X1342231Y1635510D1*
Y1642695D1*
X1339855Y1647449D1*
X1337423Y1649880D1*
X1330293Y1652257D1*
X1308738D1*
Y1602017D1*
X809426Y2339949D2*
X830982D1*
X838111Y2342325D1*
X840543Y2344757D1*
X842920Y2349510D1*
Y2356695D1*
X840543Y2361449D1*
X838111Y2363880D1*
X830982Y2366257D1*
X809426D1*
Y2316017D1*
X858359Y2342325D2*
X879859D1*
X887044Y2344757D1*
X889476Y2347134D1*
X891852Y2351887D1*
Y2356695D1*
X889476Y2361449D1*
X887044Y2363880D1*
X879859Y2366257D1*
X858359D1*
Y2316017D1*
X875106Y2342325D2*
X891852Y2316017D1*
X921662Y2366257D2*
X916853Y2363880D1*
X912100Y2359072D1*
X909668Y2354319D1*
X907292Y2347134D1*
Y2335140D1*
X909668Y2328010D1*
X912100Y2323202D1*
X916853Y2318449D1*
X921662Y2316017D1*
X931223D1*
X935977Y2318449D1*
X940785Y2323202D1*
X943162Y2328010D1*
X945538Y2335140D1*
Y2347134D1*
X943162Y2354319D1*
X940785Y2359072D1*
X935977Y2363880D1*
X931223Y2366257D1*
X921662D1*
X999224Y2316017D2*
Y2366257D1*
X980101Y2316017D1*
X960977Y2366257D1*
Y2316017D1*
X1014663Y2366257D2*
Y2316017D1*
X1065972Y2354319D2*
X1063596Y2359072D1*
X1058787Y2363880D1*
X1054034Y2366257D1*
X1044473D1*
X1039664Y2363880D1*
X1034911Y2359072D1*
X1032479Y2354319D1*
X1030102Y2347134D1*
Y2335140D1*
X1032479Y2328010D1*
X1034911Y2323202D1*
X1039664Y2318449D1*
X1044473Y2316017D1*
X1054034D1*
X1058787Y2318449D1*
X1063596Y2323202D1*
X1065972Y2328010D1*
X1081412Y2342325D2*
X1102911D1*
X1110096Y2344757D1*
X1112528Y2347134D1*
X1114905Y2351887D1*
Y2356695D1*
X1112528Y2361449D1*
X1110096Y2363880D1*
X1102911Y2366257D1*
X1081412D1*
Y2316017D1*
X1098158Y2342325D2*
X1114905Y2316017D1*
X1144714Y2366257D2*
X1139906Y2363880D1*
X1135153Y2359072D1*
X1132721Y2354319D1*
X1130344Y2347134D1*
Y2335140D1*
X1132721Y2328010D1*
X1135153Y2323202D1*
X1139906Y2318449D1*
X1144714Y2316017D1*
X1154276D1*
X1159029Y2318449D1*
X1163838Y2323202D1*
X1166214Y2328010D1*
X1168591Y2335140D1*
Y2347134D1*
X1166214Y2354319D1*
X1163838Y2359072D1*
X1159029Y2363880D1*
X1154276Y2366257D1*
X1144714D1*
X1222332Y2316017D2*
X1203153Y2366257D1*
X1184030Y2316017D1*
X1191215Y2332764D2*
X1215147D1*
X1237771Y2366257D2*
Y2316017D1*
X1254518D1*
X1261703Y2318449D1*
X1266511Y2323202D1*
X1268888Y2328010D1*
X1271264Y2335140D1*
Y2347134D1*
X1268888Y2354319D1*
X1266511Y2359072D1*
X1261703Y2363880D1*
X1254518Y2366257D1*
X1237771D1*
X1322574Y2354319D2*
X1320197Y2359072D1*
X1315388Y2363880D1*
X1310635Y2366257D1*
X1301074D1*
X1296265Y2363880D1*
X1291512Y2359072D1*
X1289080Y2354319D1*
X1286704Y2347134D1*
Y2335140D1*
X1289080Y2328010D1*
X1291512Y2323202D1*
X1296265Y2318449D1*
X1301074Y2316017D1*
X1310635D1*
X1315388Y2318449D1*
X1320197Y2323202D1*
X1322574Y2328010D1*
X1634030Y819017D2*
X1614851Y869257D1*
X1595728Y819017D1*
X1602913Y835764D2*
X1626845D1*
X1649469Y869257D2*
Y819017D1*
X1666216D1*
X1673401Y821449D1*
X1678209Y826202D1*
X1680586Y831010D1*
X1682963Y838140D1*
Y850134D1*
X1680586Y857319D1*
X1678209Y862072D1*
X1673401Y866880D1*
X1666216Y869257D1*
X1649469D1*
X1734272Y857319D2*
X1731895Y862072D1*
X1727087Y866880D1*
X1722334Y869257D1*
X1712772D1*
X1707963Y866880D1*
X1703210Y862072D1*
X1700778Y857319D1*
X1698402Y850134D1*
Y838140D1*
X1700778Y831010D1*
X1703210Y826202D1*
X1707963Y821449D1*
X1712772Y819017D1*
X1722334D1*
X1727087Y821449D1*
X1731895Y826202D1*
X1734272Y831010D1*
X2029800Y1840385D2*
X2024991Y1838009D1*
X2022615Y1830824D1*
X2022614Y1823639D1*
X2024991Y1816454D1*
X2029800Y1814077D1*
X2034553Y1816454D1*
X2036985Y1821262D1*
X2039361Y1833200D1*
X2041738Y1838009D1*
X2046546Y1840385D1*
X2048923D1*
X2053676Y1838009D1*
X2056108Y1830824D1*
Y1823639D1*
X2053676Y1816454D1*
X2048923Y1814077D1*
X2005868Y1863010D2*
X2046546D1*
X2053676Y1865386D1*
X2056108Y1870195D1*
Y1874948D1*
X2022615Y1855825D2*
Y1872571D1*
X2036985Y1890387D2*
Y1919072D1*
X2032176D1*
X2027368Y1916695D1*
X2024991Y1914319D1*
X2022615Y1909510D1*
Y1902325D1*
X2024991Y1897572D1*
X2029800Y1892764D1*
X2036985Y1890387D1*
X2041738D1*
X2048923Y1892764D1*
X2053676Y1897572D1*
X2056108Y1902325D1*
Y1909510D1*
X2053676Y1914319D1*
X2048923Y1919072D1*
X2022615Y1934511D2*
X2072854D1*
X2029800D2*
X2025046Y1939320D1*
X2022615Y1944073D1*
Y1951258D1*
X2025046Y1956066D1*
X2029800Y1960819D1*
X2036985Y1963251D1*
X2041793D1*
X2048923Y1960819D1*
X2053731Y1956066D1*
X2056108Y1951258D1*
Y1944073D1*
X2053731Y1939320D1*
X2048923Y1934511D1*
X2022615Y1978691D2*
X2072854D1*
X2029800D2*
X2025046Y1983499D1*
X2022615Y1988252D1*
Y1995437D1*
X2025046Y2000246D1*
X2029800Y2004999D1*
X2036985Y2007431D1*
X2041793D1*
X2048923Y2004999D1*
X2053731Y2000246D1*
X2056108Y1995437D1*
Y1988252D1*
X2053731Y1983499D1*
X2048923Y1978691D1*
X2036985Y2022870D2*
Y2051555D1*
X2032176D1*
X2027368Y2049178D1*
X2024991Y2046802D1*
X2022615Y2041993D1*
Y2034808D1*
X2024991Y2030055D1*
X2029800Y2025247D1*
X2036985Y2022870D1*
X2041738D1*
X2048923Y2025247D1*
X2053676Y2030055D1*
X2056108Y2034808D1*
Y2041993D1*
X2053676Y2046802D1*
X2048923Y2051555D1*
X2022615Y2066994D2*
X2056108D1*
X2036985D2*
X2029800Y2069426D1*
X2024991Y2074179D1*
X2022615Y2078988D1*
Y2086173D1*
X2402249Y955348D2*
Y917101D1*
X2399873Y909916D1*
X2397441Y907540D1*
X2392688Y905108D1*
X2387879D1*
X2383126Y907540D1*
X2380750Y909916D1*
X2378318Y917101D1*
Y921855D1*
X2417689Y945731D2*
X2422497Y948163D1*
X2429682Y955293D1*
Y905108D1*
X2507311Y739348D2*
Y701101D1*
X2504935Y693916D1*
X2502503Y691540D1*
X2497750Y689108D1*
X2492941D1*
X2488188Y691540D1*
X2485811Y693916D1*
X2483380Y701101D1*
Y705855D1*
X2546682Y689108D2*
Y739293D1*
X2522751Y705855D1*
X2558620D1*
X2455500Y1204348D2*
Y1166101D1*
X2453123Y1158916D1*
X2450691Y1156540D1*
X2445938Y1154108D1*
X2441129D1*
X2436376Y1156540D1*
X2434000Y1158916D1*
X2431568Y1166101D1*
Y1170855D1*
X2499624Y1204293D2*
X2475747D1*
X2473371Y1182793D1*
X2475747Y1185169D1*
X2482932Y1187601D1*
X2490062D1*
X2497247Y1185169D1*
X2502056Y1180416D1*
X2504432Y1173231D1*
Y1168478D1*
X2502056Y1161293D1*
X2497247Y1156484D1*
X2490062Y1154108D1*
X2482932D1*
X2475747Y1156484D1*
X2473371Y1158916D1*
X2470939Y1163669D1*
X2107219Y2618410D2*
X2104842Y2623163D1*
X2100034Y2627971D1*
X2095280Y2630348D1*
X2085719D1*
X2080910Y2627971D1*
X2076157Y2623163D1*
X2073725Y2618410D1*
X2071349Y2611225D1*
Y2599231D1*
X2073725Y2592101D1*
X2076157Y2587293D1*
X2080910Y2582540D1*
X2085719Y2580108D1*
X2095280D1*
X2100034Y2582540D1*
X2104842Y2587293D1*
X2107219Y2592101D1*
X2122658Y2620731D2*
X2127466Y2623163D1*
X2134651Y2630293D1*
Y2580108D1*
X683500Y1046348D2*
Y1008101D1*
X681123Y1000916D1*
X678691Y998540D1*
X673938Y996108D1*
X669129D1*
X664376Y998540D1*
X662000Y1000916D1*
X659568Y1008101D1*
Y1012855D1*
X701371Y1034354D2*
Y1036731D1*
X703747Y1041539D1*
X706124Y1043916D1*
X710932Y1046293D1*
X720494D1*
X725247Y1043916D1*
X727624Y1041539D1*
X730056Y1036731D1*
Y1031978D1*
X727624Y1027169D1*
X722871Y1020040D1*
X698939Y996108D1*
X732432D1*
M02*
