G04 DipTrace 3.2.0.1*
G04 BoardOutline.gbr*
%MOIN*%
G04 #@! TF.FileFunction,Profile*
G04 #@! TF.Part,Single*
%ADD11C,0.005512*%
%FSLAX26Y26*%
G04*
G70*
G90*
G75*
G01*
G04 BoardOutline*
%LPD*%
X2238947Y2645166D2*
D11*
Y1328166D1*
X2178947Y878166D1*
X1974947Y905166D1*
X1959947Y878166D1*
G02X1500947Y632166I-184523J-206921D01*
G01*
X1485947Y638166D1*
G02X948947Y713166I-258926J106051D01*
G01*
X927947D1*
G02X567947Y1070166I-257554J100294D01*
G01*
Y3650166D1*
X639947Y3941166D1*
G02X1113947Y4202166I269137J72136D01*
G01*
X1173947D1*
X1176947Y4310166D1*
X1977947D1*
G02X2016947Y4268166I-1500J-40500D01*
G01*
X2019947Y2750166D1*
X2097947Y2693166D1*
X2238947Y2645166D1*
X1076947Y4014666D2*
X1076982Y4016445D1*
X1077084Y4018215D1*
X1077253Y4019968D1*
X1077490Y4021695D1*
X1077792Y4023388D1*
X1078158Y4025038D1*
X1078586Y4026638D1*
X1079075Y4028179D1*
X1079621Y4029655D1*
X1080223Y4031057D1*
X1080877Y4032380D1*
X1081580Y4033617D1*
X1082328Y4034761D1*
X1083119Y4035807D1*
X1083947Y4036750D1*
X1084810Y4037586D1*
X1085703Y4038310D1*
X1086621Y4038918D1*
X1087560Y4039409D1*
X1088516Y4039779D1*
X1089484Y4040027D1*
X1090459Y4040151D1*
X1091436D1*
X1092411Y4040027D1*
X1093378Y4039779D1*
X1094334Y4039409D1*
X1095274Y4038918D1*
X1096192Y4038310D1*
X1097085Y4037586D1*
X1097947Y4036750D1*
X1098776Y4035807D1*
X1099567Y4034761D1*
X1100315Y4033617D1*
X1101018Y4032380D1*
X1101672Y4031057D1*
X1102274Y4029655D1*
X1102820Y4028179D1*
X1103309Y4026638D1*
X1103737Y4025038D1*
X1104103Y4023388D1*
X1104405Y4021695D1*
X1104641Y4019968D1*
X1104811Y4018215D1*
X1104913Y4016445D1*
X1104947Y4014666D1*
X1104913Y4012888D1*
X1104811Y4011117D1*
X1104641Y4009365D1*
X1104405Y4007638D1*
X1104103Y4005945D1*
X1103737Y4004295D1*
X1103309Y4002695D1*
X1102820Y4001153D1*
X1102274Y3999678D1*
X1101672Y3998275D1*
X1101018Y3996953D1*
X1100315Y3995716D1*
X1099567Y3994572D1*
X1098776Y3993526D1*
X1097947Y3992583D1*
X1097085Y3991747D1*
X1096192Y3991023D1*
X1095274Y3990414D1*
X1094334Y3989924D1*
X1093378Y3989554D1*
X1092411Y3989306D1*
X1091436Y3989182D1*
X1090459D1*
X1089484Y3989306D1*
X1088516Y3989554D1*
X1087560Y3989924D1*
X1086621Y3990414D1*
X1085703Y3991023D1*
X1084810Y3991747D1*
X1083947Y3992583D1*
X1083119Y3993526D1*
X1082328Y3994572D1*
X1081580Y3995716D1*
X1080877Y3996953D1*
X1080223Y3998275D1*
X1079621Y3999678D1*
X1079075Y4001153D1*
X1078586Y4002695D1*
X1078158Y4004295D1*
X1077792Y4005945D1*
X1077490Y4007638D1*
X1077253Y4009365D1*
X1077084Y4011117D1*
X1076982Y4012888D1*
X1076947Y4014666D1*
X704947D2*
X704982Y4016445D1*
X705084Y4018215D1*
X705253Y4019968D1*
X705490Y4021695D1*
X705792Y4023388D1*
X706158Y4025038D1*
X706586Y4026638D1*
X707075Y4028179D1*
X707621Y4029655D1*
X708223Y4031057D1*
X708877Y4032380D1*
X709580Y4033617D1*
X710328Y4034761D1*
X711119Y4035807D1*
X711947Y4036750D1*
X712810Y4037586D1*
X713703Y4038310D1*
X714621Y4038918D1*
X715560Y4039409D1*
X716516Y4039779D1*
X717484Y4040027D1*
X718459Y4040151D1*
X719436D1*
X720411Y4040027D1*
X721378Y4039779D1*
X722334Y4039409D1*
X723274Y4038918D1*
X724192Y4038310D1*
X725085Y4037586D1*
X725947Y4036750D1*
X726776Y4035807D1*
X727567Y4034761D1*
X728315Y4033617D1*
X729018Y4032380D1*
X729672Y4031057D1*
X730274Y4029655D1*
X730820Y4028179D1*
X731309Y4026638D1*
X731737Y4025038D1*
X732103Y4023388D1*
X732405Y4021695D1*
X732641Y4019968D1*
X732811Y4018215D1*
X732913Y4016445D1*
X732947Y4014666D1*
X732913Y4012888D1*
X732811Y4011117D1*
X732641Y4009365D1*
X732405Y4007638D1*
X732103Y4005945D1*
X731737Y4004295D1*
X731309Y4002695D1*
X730820Y4001153D1*
X730274Y3999678D1*
X729672Y3998275D1*
X729018Y3996953D1*
X728315Y3995716D1*
X727567Y3994572D1*
X726776Y3993526D1*
X725947Y3992583D1*
X725085Y3991747D1*
X724192Y3991023D1*
X723274Y3990414D1*
X722334Y3989924D1*
X721378Y3989554D1*
X720411Y3989306D1*
X719436Y3989182D1*
X718459D1*
X717484Y3989306D1*
X716516Y3989554D1*
X715560Y3989924D1*
X714621Y3990414D1*
X713703Y3991023D1*
X712810Y3991747D1*
X711947Y3992583D1*
X711119Y3993526D1*
X710328Y3994572D1*
X709580Y3995716D1*
X708877Y3996953D1*
X708223Y3998275D1*
X707621Y3999678D1*
X707075Y4001153D1*
X706586Y4002695D1*
X706158Y4004295D1*
X705792Y4005945D1*
X705490Y4007638D1*
X705253Y4009365D1*
X705084Y4011117D1*
X704982Y4012888D1*
X704947Y4014666D1*
X845947Y810666D2*
X845982Y812445D1*
X846084Y814215D1*
X846253Y815968D1*
X846490Y817695D1*
X846792Y819388D1*
X847158Y821038D1*
X847586Y822638D1*
X848075Y824179D1*
X848621Y825655D1*
X849223Y827057D1*
X849877Y828380D1*
X850580Y829617D1*
X851328Y830761D1*
X852119Y831807D1*
X852947Y832750D1*
X853810Y833586D1*
X854703Y834310D1*
X855621Y834918D1*
X856560Y835409D1*
X857516Y835779D1*
X858484Y836027D1*
X859459Y836151D1*
X860436D1*
X861411Y836027D1*
X862378Y835779D1*
X863334Y835409D1*
X864274Y834918D1*
X865192Y834310D1*
X866085Y833586D1*
X866947Y832750D1*
X867776Y831807D1*
X868567Y830761D1*
X869315Y829617D1*
X870018Y828380D1*
X870672Y827057D1*
X871274Y825655D1*
X871820Y824179D1*
X872309Y822638D1*
X872737Y821038D1*
X873103Y819388D1*
X873405Y817695D1*
X873641Y815968D1*
X873811Y814215D1*
X873913Y812445D1*
X873947Y810666D1*
X873913Y808888D1*
X873811Y807117D1*
X873641Y805365D1*
X873405Y803638D1*
X873103Y801945D1*
X872737Y800295D1*
X872309Y798695D1*
X871820Y797153D1*
X871274Y795678D1*
X870672Y794275D1*
X870018Y792953D1*
X869315Y791716D1*
X868567Y790572D1*
X867776Y789526D1*
X866947Y788583D1*
X866085Y787747D1*
X865192Y787023D1*
X864274Y786414D1*
X863334Y785924D1*
X862378Y785554D1*
X861411Y785306D1*
X860436Y785182D1*
X859459D1*
X858484Y785306D1*
X857516Y785554D1*
X856560Y785924D1*
X855621Y786414D1*
X854703Y787023D1*
X853810Y787747D1*
X852947Y788583D1*
X852119Y789526D1*
X851328Y790572D1*
X850580Y791716D1*
X849877Y792953D1*
X849223Y794275D1*
X848621Y795678D1*
X848075Y797153D1*
X847586Y798695D1*
X847158Y800295D1*
X846792Y801945D1*
X846490Y803638D1*
X846253Y805365D1*
X846084Y807117D1*
X845982Y808888D1*
X845947Y810666D1*
X473947D2*
X473982Y812445D1*
X474084Y814215D1*
X474253Y815968D1*
X474490Y817695D1*
X474792Y819388D1*
X475158Y821038D1*
X475586Y822638D1*
X476075Y824179D1*
X476621Y825655D1*
X477223Y827057D1*
X477877Y828380D1*
X478580Y829617D1*
X479328Y830761D1*
X480119Y831807D1*
X480947Y832750D1*
X481810Y833586D1*
X482703Y834310D1*
X483621Y834918D1*
X484560Y835409D1*
X485516Y835779D1*
X486484Y836027D1*
X487459Y836151D1*
X488436D1*
X489411Y836027D1*
X490378Y835779D1*
X491334Y835409D1*
X492274Y834918D1*
X493192Y834310D1*
X494085Y833586D1*
X494947Y832750D1*
X495776Y831807D1*
X496567Y830761D1*
X497315Y829617D1*
X498018Y828380D1*
X498672Y827057D1*
X499274Y825655D1*
X499820Y824179D1*
X500309Y822638D1*
X500737Y821038D1*
X501103Y819388D1*
X501405Y817695D1*
X501641Y815968D1*
X501811Y814215D1*
X501913Y812445D1*
X501947Y810666D1*
X501913Y808888D1*
X501811Y807117D1*
X501641Y805365D1*
X501405Y803638D1*
X501103Y801945D1*
X500737Y800295D1*
X500309Y798695D1*
X499820Y797153D1*
X499274Y795678D1*
X498672Y794275D1*
X498018Y792953D1*
X497315Y791716D1*
X496567Y790572D1*
X495776Y789526D1*
X494947Y788583D1*
X494085Y787747D1*
X493192Y787023D1*
X492274Y786414D1*
X491334Y785924D1*
X490378Y785554D1*
X489411Y785306D1*
X488436Y785182D1*
X487459D1*
X486484Y785306D1*
X485516Y785554D1*
X484560Y785924D1*
X483621Y786414D1*
X482703Y787023D1*
X481810Y787747D1*
X480947Y788583D1*
X480119Y789526D1*
X479328Y790572D1*
X478580Y791716D1*
X477877Y792953D1*
X477223Y794275D1*
X476621Y795678D1*
X476075Y797153D1*
X475586Y798695D1*
X475158Y800295D1*
X474792Y801945D1*
X474490Y803638D1*
X474253Y805365D1*
X474084Y807117D1*
X473982Y808888D1*
X473947Y810666D1*
X1949947Y669666D2*
X1949982Y671445D1*
X1950084Y673215D1*
X1950253Y674968D1*
X1950490Y676695D1*
X1950792Y678388D1*
X1951158Y680038D1*
X1951586Y681638D1*
X1952075Y683179D1*
X1952621Y684655D1*
X1953223Y686057D1*
X1953877Y687380D1*
X1954580Y688617D1*
X1955328Y689761D1*
X1956119Y690807D1*
X1956947Y691750D1*
X1957810Y692586D1*
X1958703Y693310D1*
X1959621Y693918D1*
X1960560Y694409D1*
X1961516Y694779D1*
X1962484Y695027D1*
X1963459Y695151D1*
X1964436D1*
X1965411Y695027D1*
X1966378Y694779D1*
X1967334Y694409D1*
X1968274Y693918D1*
X1969192Y693310D1*
X1970085Y692586D1*
X1970947Y691750D1*
X1971776Y690807D1*
X1972567Y689761D1*
X1973315Y688617D1*
X1974018Y687380D1*
X1974672Y686057D1*
X1975274Y684655D1*
X1975820Y683179D1*
X1976309Y681638D1*
X1976737Y680038D1*
X1977103Y678388D1*
X1977405Y676695D1*
X1977641Y674968D1*
X1977811Y673215D1*
X1977913Y671445D1*
X1977947Y669666D1*
X1977913Y667888D1*
X1977811Y666117D1*
X1977641Y664365D1*
X1977405Y662638D1*
X1977103Y660945D1*
X1976737Y659295D1*
X1976309Y657695D1*
X1975820Y656153D1*
X1975274Y654678D1*
X1974672Y653275D1*
X1974018Y651953D1*
X1973315Y650716D1*
X1972567Y649572D1*
X1971776Y648526D1*
X1970947Y647583D1*
X1970085Y646747D1*
X1969192Y646023D1*
X1968274Y645414D1*
X1967334Y644924D1*
X1966378Y644554D1*
X1965411Y644306D1*
X1964436Y644182D1*
X1963459D1*
X1962484Y644306D1*
X1961516Y644554D1*
X1960560Y644924D1*
X1959621Y645414D1*
X1958703Y646023D1*
X1957810Y646747D1*
X1956947Y647583D1*
X1956119Y648526D1*
X1955328Y649572D1*
X1954580Y650716D1*
X1953877Y651953D1*
X1953223Y653275D1*
X1952621Y654678D1*
X1952075Y656153D1*
X1951586Y657695D1*
X1951158Y659295D1*
X1950792Y660945D1*
X1950490Y662638D1*
X1950253Y664365D1*
X1950084Y666117D1*
X1949982Y667888D1*
X1949947Y669666D1*
X1577947D2*
X1577982Y671445D1*
X1578084Y673215D1*
X1578253Y674968D1*
X1578490Y676695D1*
X1578792Y678388D1*
X1579158Y680038D1*
X1579586Y681638D1*
X1580075Y683179D1*
X1580621Y684655D1*
X1581223Y686057D1*
X1581877Y687380D1*
X1582580Y688617D1*
X1583328Y689761D1*
X1584119Y690807D1*
X1584947Y691750D1*
X1585810Y692586D1*
X1586703Y693310D1*
X1587621Y693918D1*
X1588560Y694409D1*
X1589516Y694779D1*
X1590484Y695027D1*
X1591459Y695151D1*
X1592436D1*
X1593411Y695027D1*
X1594378Y694779D1*
X1595334Y694409D1*
X1596274Y693918D1*
X1597192Y693310D1*
X1598085Y692586D1*
X1598947Y691750D1*
X1599776Y690807D1*
X1600567Y689761D1*
X1601315Y688617D1*
X1602018Y687380D1*
X1602672Y686057D1*
X1603274Y684655D1*
X1603820Y683179D1*
X1604309Y681638D1*
X1604737Y680038D1*
X1605103Y678388D1*
X1605405Y676695D1*
X1605641Y674968D1*
X1605811Y673215D1*
X1605913Y671445D1*
X1605947Y669666D1*
X1605913Y667888D1*
X1605811Y666117D1*
X1605641Y664365D1*
X1605405Y662638D1*
X1605103Y660945D1*
X1604737Y659295D1*
X1604309Y657695D1*
X1603820Y656153D1*
X1603274Y654678D1*
X1602672Y653275D1*
X1602018Y651953D1*
X1601315Y650716D1*
X1600567Y649572D1*
X1599776Y648526D1*
X1598947Y647583D1*
X1598085Y646747D1*
X1597192Y646023D1*
X1596274Y645414D1*
X1595334Y644924D1*
X1594378Y644554D1*
X1593411Y644306D1*
X1592436Y644182D1*
X1591459D1*
X1590484Y644306D1*
X1589516Y644554D1*
X1588560Y644924D1*
X1587621Y645414D1*
X1586703Y646023D1*
X1585810Y646747D1*
X1584947Y647583D1*
X1584119Y648526D1*
X1583328Y649572D1*
X1582580Y650716D1*
X1581877Y651953D1*
X1581223Y653275D1*
X1580621Y654678D1*
X1580075Y656153D1*
X1579586Y657695D1*
X1579158Y659295D1*
X1578792Y660945D1*
X1578490Y662638D1*
X1578253Y664365D1*
X1578084Y666117D1*
X1577982Y667888D1*
X1577947Y669666D1*
X1025947Y738666D2*
X1025982Y740445D1*
X1026084Y742215D1*
X1026253Y743968D1*
X1026490Y745695D1*
X1026792Y747388D1*
X1027158Y749038D1*
X1027586Y750638D1*
X1028075Y752179D1*
X1028621Y753655D1*
X1029223Y755057D1*
X1029877Y756380D1*
X1030580Y757617D1*
X1031328Y758761D1*
X1032119Y759807D1*
X1032947Y760750D1*
X1033810Y761586D1*
X1034703Y762310D1*
X1035621Y762918D1*
X1036560Y763409D1*
X1037516Y763779D1*
X1038484Y764027D1*
X1039459Y764151D1*
X1040436D1*
X1041411Y764027D1*
X1042378Y763779D1*
X1043334Y763409D1*
X1044274Y762918D1*
X1045192Y762310D1*
X1046085Y761586D1*
X1046947Y760750D1*
X1047776Y759807D1*
X1048567Y758761D1*
X1049315Y757617D1*
X1050018Y756380D1*
X1050672Y755057D1*
X1051274Y753655D1*
X1051820Y752179D1*
X1052309Y750638D1*
X1052737Y749038D1*
X1053103Y747388D1*
X1053405Y745695D1*
X1053641Y743968D1*
X1053811Y742215D1*
X1053913Y740445D1*
X1053947Y738666D1*
X1053913Y736888D1*
X1053811Y735117D1*
X1053641Y733365D1*
X1053405Y731638D1*
X1053103Y729945D1*
X1052737Y728295D1*
X1052309Y726695D1*
X1051820Y725153D1*
X1051274Y723678D1*
X1050672Y722275D1*
X1050018Y720953D1*
X1049315Y719716D1*
X1048567Y718572D1*
X1047776Y717526D1*
X1046947Y716583D1*
X1046085Y715747D1*
X1045192Y715023D1*
X1044274Y714414D1*
X1043334Y713924D1*
X1042378Y713554D1*
X1041411Y713306D1*
X1040436Y713182D1*
X1039459D1*
X1038484Y713306D1*
X1037516Y713554D1*
X1036560Y713924D1*
X1035621Y714414D1*
X1034703Y715023D1*
X1033810Y715747D1*
X1032947Y716583D1*
X1032119Y717526D1*
X1031328Y718572D1*
X1030580Y719716D1*
X1029877Y720953D1*
X1029223Y722275D1*
X1028621Y723678D1*
X1028075Y725153D1*
X1027586Y726695D1*
X1027158Y728295D1*
X1026792Y729945D1*
X1026490Y731638D1*
X1026253Y733365D1*
X1026084Y735117D1*
X1025982Y736888D1*
X1025947Y738666D1*
X1397947D2*
X1397982Y740445D1*
X1398084Y742215D1*
X1398253Y743968D1*
X1398490Y745695D1*
X1398792Y747388D1*
X1399158Y749038D1*
X1399586Y750638D1*
X1400075Y752179D1*
X1400621Y753655D1*
X1401223Y755057D1*
X1401877Y756380D1*
X1402580Y757617D1*
X1403328Y758761D1*
X1404119Y759807D1*
X1404947Y760750D1*
X1405810Y761586D1*
X1406703Y762310D1*
X1407621Y762918D1*
X1408560Y763409D1*
X1409516Y763779D1*
X1410484Y764027D1*
X1411459Y764151D1*
X1412436D1*
X1413411Y764027D1*
X1414378Y763779D1*
X1415334Y763409D1*
X1416274Y762918D1*
X1417192Y762310D1*
X1418085Y761586D1*
X1418947Y760750D1*
X1419776Y759807D1*
X1420567Y758761D1*
X1421315Y757617D1*
X1422018Y756380D1*
X1422672Y755057D1*
X1423274Y753655D1*
X1423820Y752179D1*
X1424309Y750638D1*
X1424737Y749038D1*
X1425103Y747388D1*
X1425405Y745695D1*
X1425641Y743968D1*
X1425811Y742215D1*
X1425913Y740445D1*
X1425947Y738666D1*
X1425913Y736888D1*
X1425811Y735117D1*
X1425641Y733365D1*
X1425405Y731638D1*
X1425103Y729945D1*
X1424737Y728295D1*
X1424309Y726695D1*
X1423820Y725153D1*
X1423274Y723678D1*
X1422672Y722275D1*
X1422018Y720953D1*
X1421315Y719716D1*
X1420567Y718572D1*
X1419776Y717526D1*
X1418947Y716583D1*
X1418085Y715747D1*
X1417192Y715023D1*
X1416274Y714414D1*
X1415334Y713924D1*
X1414378Y713554D1*
X1413411Y713306D1*
X1412436Y713182D1*
X1411459D1*
X1410484Y713306D1*
X1409516Y713554D1*
X1408560Y713924D1*
X1407621Y714414D1*
X1406703Y715023D1*
X1405810Y715747D1*
X1404947Y716583D1*
X1404119Y717526D1*
X1403328Y718572D1*
X1402580Y719716D1*
X1401877Y720953D1*
X1401223Y722275D1*
X1400621Y723678D1*
X1400075Y725153D1*
X1399586Y726695D1*
X1399158Y728295D1*
X1398792Y729945D1*
X1398490Y731638D1*
X1398253Y733365D1*
X1398084Y735117D1*
X1397982Y736888D1*
X1397947Y738666D1*
M02*
