G04 DipTrace 3.2.0.1*
G04 BoardOutline.gbr*
%MOIN*%
G04 #@! TF.FileFunction,Profile*
G04 #@! TF.Part,Single*
%ADD11C,0.005512*%
%FSLAX26Y26*%
G04*
G70*
G90*
G75*
G01*
G04 BoardOutline*
%LPD*%
X2239241Y2658000D2*
D11*
Y1341000D1*
X2179241Y891000D1*
X1975241Y918000D1*
X1960241Y891000D1*
G02X1532241Y539000I-181686J-215291D01*
G01*
X1450241Y567000D1*
G02X1149241Y470000I-226568J187545D01*
G01*
X647241Y532000D1*
G02X520241Y1053000I32523J283907D01*
G01*
Y3660000D1*
X632241Y4079000D1*
G02X1063241Y4261000I349006J-225159D01*
G01*
X1155241Y4250000D1*
X1978241Y4203000D1*
G02X2017241Y4149000I-23472J-58035D01*
G01*
X2065241Y3738000D1*
X2239241Y3468000D1*
Y2658000D1*
X1076241Y3987500D2*
X1076275Y3989279D1*
X1076377Y3991049D1*
X1076547Y3992802D1*
X1076783Y3994529D1*
X1077085Y3996222D1*
X1077451Y3997872D1*
X1077879Y3999472D1*
X1078368Y4001013D1*
X1078915Y4002489D1*
X1079516Y4003891D1*
X1080170Y4005214D1*
X1080873Y4006450D1*
X1081621Y4007594D1*
X1082412Y4008641D1*
X1083241Y4009584D1*
X1084104Y4010419D1*
X1084996Y4011143D1*
X1085915Y4011752D1*
X1086854Y4012243D1*
X1087810Y4012613D1*
X1088777Y4012860D1*
X1089752Y4012985D1*
X1090729D1*
X1091704Y4012860D1*
X1092672Y4012613D1*
X1093628Y4012243D1*
X1094567Y4011752D1*
X1095485Y4011143D1*
X1096378Y4010419D1*
X1097241Y4009584D1*
X1098069Y4008641D1*
X1098860Y4007594D1*
X1099609Y4006450D1*
X1100312Y4005214D1*
X1100965Y4003891D1*
X1101567Y4002489D1*
X1102113Y4001013D1*
X1102602Y3999472D1*
X1103030Y3997872D1*
X1103396Y3996222D1*
X1103698Y3994529D1*
X1103935Y3992802D1*
X1104104Y3991049D1*
X1104207Y3989279D1*
X1104241Y3987500D1*
X1104207Y3985721D1*
X1104104Y3983951D1*
X1103935Y3982198D1*
X1103698Y3980471D1*
X1103396Y3978779D1*
X1103030Y3977128D1*
X1102602Y3975529D1*
X1102113Y3973987D1*
X1101567Y3972512D1*
X1100965Y3971109D1*
X1100312Y3969786D1*
X1099609Y3968550D1*
X1098860Y3967406D1*
X1098069Y3966360D1*
X1097241Y3965417D1*
X1096378Y3964581D1*
X1095485Y3963857D1*
X1094567Y3963248D1*
X1093628Y3962758D1*
X1092672Y3962388D1*
X1091704Y3962140D1*
X1090729Y3962016D1*
X1089752D1*
X1088777Y3962140D1*
X1087810Y3962388D1*
X1086854Y3962758D1*
X1085915Y3963248D1*
X1084996Y3963857D1*
X1084104Y3964581D1*
X1083241Y3965417D1*
X1082412Y3966360D1*
X1081621Y3967406D1*
X1080873Y3968550D1*
X1080170Y3969786D1*
X1079516Y3971109D1*
X1078915Y3972512D1*
X1078368Y3973987D1*
X1077879Y3975529D1*
X1077451Y3977128D1*
X1077085Y3978779D1*
X1076783Y3980471D1*
X1076547Y3982198D1*
X1076377Y3983951D1*
X1076275Y3985721D1*
X1076241Y3987500D1*
X706241Y3986500D2*
X706275Y3988279D1*
X706377Y3990049D1*
X706547Y3991802D1*
X706783Y3993529D1*
X707085Y3995222D1*
X707451Y3996872D1*
X707879Y3998472D1*
X708368Y4000013D1*
X708915Y4001489D1*
X709516Y4002891D1*
X710170Y4004214D1*
X710873Y4005450D1*
X711621Y4006594D1*
X712412Y4007641D1*
X713241Y4008584D1*
X714104Y4009419D1*
X714996Y4010143D1*
X715915Y4010752D1*
X716854Y4011243D1*
X717810Y4011613D1*
X718777Y4011860D1*
X719752Y4011985D1*
X720729D1*
X721704Y4011860D1*
X722672Y4011613D1*
X723628Y4011243D1*
X724567Y4010752D1*
X725485Y4010143D1*
X726378Y4009419D1*
X727241Y4008584D1*
X728069Y4007641D1*
X728860Y4006594D1*
X729609Y4005450D1*
X730312Y4004214D1*
X730965Y4002891D1*
X731567Y4001489D1*
X732113Y4000013D1*
X732602Y3998472D1*
X733030Y3996872D1*
X733396Y3995222D1*
X733698Y3993529D1*
X733935Y3991802D1*
X734104Y3990049D1*
X734207Y3988279D1*
X734241Y3986500D1*
X734207Y3984721D1*
X734104Y3982951D1*
X733935Y3981198D1*
X733698Y3979471D1*
X733396Y3977779D1*
X733030Y3976128D1*
X732602Y3974529D1*
X732113Y3972987D1*
X731567Y3971512D1*
X730965Y3970109D1*
X730312Y3968786D1*
X729609Y3967550D1*
X728860Y3966406D1*
X728069Y3965360D1*
X727241Y3964417D1*
X726378Y3963581D1*
X725485Y3962857D1*
X724567Y3962248D1*
X723628Y3961758D1*
X722672Y3961388D1*
X721704Y3961140D1*
X720729Y3961016D1*
X719752D1*
X718777Y3961140D1*
X717810Y3961388D1*
X716854Y3961758D1*
X715915Y3962248D1*
X714996Y3962857D1*
X714104Y3963581D1*
X713241Y3964417D1*
X712412Y3965360D1*
X711621Y3966406D1*
X710873Y3967550D1*
X710170Y3968786D1*
X709516Y3970109D1*
X708915Y3971512D1*
X708368Y3972987D1*
X707879Y3974529D1*
X707451Y3976128D1*
X707085Y3977779D1*
X706783Y3979471D1*
X706547Y3981198D1*
X706377Y3982951D1*
X706275Y3984721D1*
X706241Y3986500D1*
X845241Y807500D2*
X845275Y809279D1*
X845377Y811049D1*
X845547Y812802D1*
X845783Y814529D1*
X846085Y816222D1*
X846451Y817872D1*
X846879Y819472D1*
X847368Y821013D1*
X847915Y822489D1*
X848516Y823891D1*
X849170Y825214D1*
X849873Y826450D1*
X850621Y827594D1*
X851412Y828641D1*
X852241Y829584D1*
X853104Y830419D1*
X853996Y831143D1*
X854915Y831752D1*
X855854Y832243D1*
X856810Y832613D1*
X857777Y832860D1*
X858752Y832985D1*
X859729D1*
X860704Y832860D1*
X861672Y832613D1*
X862628Y832243D1*
X863567Y831752D1*
X864485Y831143D1*
X865378Y830419D1*
X866241Y829584D1*
X867069Y828641D1*
X867860Y827594D1*
X868609Y826450D1*
X869312Y825214D1*
X869965Y823891D1*
X870567Y822489D1*
X871113Y821013D1*
X871602Y819472D1*
X872030Y817872D1*
X872396Y816222D1*
X872698Y814529D1*
X872935Y812802D1*
X873104Y811049D1*
X873207Y809279D1*
X873241Y807500D1*
X873207Y805721D1*
X873104Y803951D1*
X872935Y802198D1*
X872698Y800471D1*
X872396Y798779D1*
X872030Y797128D1*
X871602Y795529D1*
X871113Y793987D1*
X870567Y792512D1*
X869965Y791109D1*
X869312Y789786D1*
X868609Y788550D1*
X867860Y787406D1*
X867069Y786360D1*
X866241Y785417D1*
X865378Y784581D1*
X864485Y783857D1*
X863567Y783248D1*
X862628Y782758D1*
X861672Y782388D1*
X860704Y782140D1*
X859729Y782016D1*
X858752D1*
X857777Y782140D1*
X856810Y782388D1*
X855854Y782758D1*
X854915Y783248D1*
X853996Y783857D1*
X853104Y784581D1*
X852241Y785417D1*
X851412Y786360D1*
X850621Y787406D1*
X849873Y788550D1*
X849170Y789786D1*
X848516Y791109D1*
X847915Y792512D1*
X847368Y793987D1*
X846879Y795529D1*
X846451Y797128D1*
X846085Y798779D1*
X845783Y800471D1*
X845547Y802198D1*
X845377Y803951D1*
X845275Y805721D1*
X845241Y807500D1*
X475241D2*
X475275Y809279D1*
X475377Y811049D1*
X475547Y812802D1*
X475783Y814529D1*
X476085Y816222D1*
X476451Y817872D1*
X476879Y819472D1*
X477368Y821013D1*
X477915Y822489D1*
X478516Y823891D1*
X479170Y825214D1*
X479873Y826450D1*
X480621Y827594D1*
X481412Y828641D1*
X482241Y829584D1*
X483104Y830419D1*
X483996Y831143D1*
X484915Y831752D1*
X485854Y832243D1*
X486810Y832613D1*
X487777Y832860D1*
X488752Y832985D1*
X489729D1*
X490704Y832860D1*
X491672Y832613D1*
X492628Y832243D1*
X493567Y831752D1*
X494485Y831143D1*
X495378Y830419D1*
X496241Y829584D1*
X497069Y828641D1*
X497860Y827594D1*
X498609Y826450D1*
X499312Y825214D1*
X499965Y823891D1*
X500567Y822489D1*
X501113Y821013D1*
X501602Y819472D1*
X502030Y817872D1*
X502396Y816222D1*
X502698Y814529D1*
X502935Y812802D1*
X503104Y811049D1*
X503207Y809279D1*
X503241Y807500D1*
X503207Y805721D1*
X503104Y803951D1*
X502935Y802198D1*
X502698Y800471D1*
X502396Y798779D1*
X502030Y797128D1*
X501602Y795529D1*
X501113Y793987D1*
X500567Y792512D1*
X499965Y791109D1*
X499312Y789786D1*
X498609Y788550D1*
X497860Y787406D1*
X497069Y786360D1*
X496241Y785417D1*
X495378Y784581D1*
X494485Y783857D1*
X493567Y783248D1*
X492628Y782758D1*
X491672Y782388D1*
X490704Y782140D1*
X489729Y782016D1*
X488752D1*
X487777Y782140D1*
X486810Y782388D1*
X485854Y782758D1*
X484915Y783248D1*
X483996Y783857D1*
X483104Y784581D1*
X482241Y785417D1*
X481412Y786360D1*
X480621Y787406D1*
X479873Y788550D1*
X479170Y789786D1*
X478516Y791109D1*
X477915Y792512D1*
X477368Y793987D1*
X476879Y795529D1*
X476451Y797128D1*
X476085Y798779D1*
X475783Y800471D1*
X475547Y802198D1*
X475377Y803951D1*
X475275Y805721D1*
X475241Y807500D1*
X1949241Y666500D2*
X1949275Y668279D1*
X1949377Y670049D1*
X1949547Y671802D1*
X1949783Y673529D1*
X1950085Y675222D1*
X1950451Y676872D1*
X1950879Y678472D1*
X1951368Y680013D1*
X1951915Y681489D1*
X1952516Y682891D1*
X1953170Y684214D1*
X1953873Y685450D1*
X1954621Y686594D1*
X1955412Y687641D1*
X1956241Y688584D1*
X1957104Y689419D1*
X1957996Y690143D1*
X1958915Y690752D1*
X1959854Y691243D1*
X1960810Y691613D1*
X1961777Y691860D1*
X1962752Y691985D1*
X1963729D1*
X1964704Y691860D1*
X1965672Y691613D1*
X1966628Y691243D1*
X1967567Y690752D1*
X1968485Y690143D1*
X1969378Y689419D1*
X1970241Y688584D1*
X1971069Y687641D1*
X1971860Y686594D1*
X1972609Y685450D1*
X1973312Y684214D1*
X1973965Y682891D1*
X1974567Y681489D1*
X1975113Y680013D1*
X1975602Y678472D1*
X1976030Y676872D1*
X1976396Y675222D1*
X1976698Y673529D1*
X1976935Y671802D1*
X1977104Y670049D1*
X1977207Y668279D1*
X1977241Y666500D1*
X1977207Y664721D1*
X1977104Y662951D1*
X1976935Y661198D1*
X1976698Y659471D1*
X1976396Y657779D1*
X1976030Y656128D1*
X1975602Y654529D1*
X1975113Y652987D1*
X1974567Y651512D1*
X1973965Y650109D1*
X1973312Y648786D1*
X1972609Y647550D1*
X1971860Y646406D1*
X1971069Y645360D1*
X1970241Y644417D1*
X1969378Y643581D1*
X1968485Y642857D1*
X1967567Y642248D1*
X1966628Y641758D1*
X1965672Y641388D1*
X1964704Y641140D1*
X1963729Y641016D1*
X1962752D1*
X1961777Y641140D1*
X1960810Y641388D1*
X1959854Y641758D1*
X1958915Y642248D1*
X1957996Y642857D1*
X1957104Y643581D1*
X1956241Y644417D1*
X1955412Y645360D1*
X1954621Y646406D1*
X1953873Y647550D1*
X1953170Y648786D1*
X1952516Y650109D1*
X1951915Y651512D1*
X1951368Y652987D1*
X1950879Y654529D1*
X1950451Y656128D1*
X1950085Y657779D1*
X1949783Y659471D1*
X1949547Y661198D1*
X1949377Y662951D1*
X1949275Y664721D1*
X1949241Y666500D1*
X1579241D2*
X1579275Y668279D1*
X1579377Y670049D1*
X1579547Y671802D1*
X1579783Y673529D1*
X1580085Y675222D1*
X1580451Y676872D1*
X1580879Y678472D1*
X1581368Y680013D1*
X1581915Y681489D1*
X1582516Y682891D1*
X1583170Y684214D1*
X1583873Y685450D1*
X1584621Y686594D1*
X1585412Y687641D1*
X1586241Y688584D1*
X1587104Y689419D1*
X1587996Y690143D1*
X1588915Y690752D1*
X1589854Y691243D1*
X1590810Y691613D1*
X1591777Y691860D1*
X1592752Y691985D1*
X1593729D1*
X1594704Y691860D1*
X1595672Y691613D1*
X1596628Y691243D1*
X1597567Y690752D1*
X1598485Y690143D1*
X1599378Y689419D1*
X1600241Y688584D1*
X1601069Y687641D1*
X1601860Y686594D1*
X1602609Y685450D1*
X1603312Y684214D1*
X1603965Y682891D1*
X1604567Y681489D1*
X1605113Y680013D1*
X1605602Y678472D1*
X1606030Y676872D1*
X1606396Y675222D1*
X1606698Y673529D1*
X1606935Y671802D1*
X1607104Y670049D1*
X1607207Y668279D1*
X1607241Y666500D1*
X1607207Y664721D1*
X1607104Y662951D1*
X1606935Y661198D1*
X1606698Y659471D1*
X1606396Y657779D1*
X1606030Y656128D1*
X1605602Y654529D1*
X1605113Y652987D1*
X1604567Y651512D1*
X1603965Y650109D1*
X1603312Y648786D1*
X1602609Y647550D1*
X1601860Y646406D1*
X1601069Y645360D1*
X1600241Y644417D1*
X1599378Y643581D1*
X1598485Y642857D1*
X1597567Y642248D1*
X1596628Y641758D1*
X1595672Y641388D1*
X1594704Y641140D1*
X1593729Y641016D1*
X1592752D1*
X1591777Y641140D1*
X1590810Y641388D1*
X1589854Y641758D1*
X1588915Y642248D1*
X1587996Y642857D1*
X1587104Y643581D1*
X1586241Y644417D1*
X1585412Y645360D1*
X1584621Y646406D1*
X1583873Y647550D1*
X1583170Y648786D1*
X1582516Y650109D1*
X1581915Y651512D1*
X1581368Y652987D1*
X1580879Y654529D1*
X1580451Y656128D1*
X1580085Y657779D1*
X1579783Y659471D1*
X1579547Y661198D1*
X1579377Y662951D1*
X1579275Y664721D1*
X1579241Y666500D1*
X1027241Y735500D2*
X1027275Y737279D1*
X1027377Y739049D1*
X1027547Y740802D1*
X1027783Y742529D1*
X1028085Y744222D1*
X1028451Y745872D1*
X1028879Y747472D1*
X1029368Y749013D1*
X1029915Y750489D1*
X1030516Y751891D1*
X1031170Y753214D1*
X1031873Y754450D1*
X1032621Y755594D1*
X1033412Y756641D1*
X1034241Y757584D1*
X1035104Y758419D1*
X1035996Y759143D1*
X1036915Y759752D1*
X1037854Y760243D1*
X1038810Y760613D1*
X1039777Y760860D1*
X1040752Y760985D1*
X1041729D1*
X1042704Y760860D1*
X1043672Y760613D1*
X1044628Y760243D1*
X1045567Y759752D1*
X1046485Y759143D1*
X1047378Y758419D1*
X1048241Y757584D1*
X1049069Y756641D1*
X1049860Y755594D1*
X1050609Y754450D1*
X1051312Y753214D1*
X1051965Y751891D1*
X1052567Y750489D1*
X1053113Y749013D1*
X1053602Y747472D1*
X1054030Y745872D1*
X1054396Y744222D1*
X1054698Y742529D1*
X1054935Y740802D1*
X1055104Y739049D1*
X1055207Y737279D1*
X1055241Y735500D1*
X1055207Y733721D1*
X1055104Y731951D1*
X1054935Y730198D1*
X1054698Y728471D1*
X1054396Y726779D1*
X1054030Y725128D1*
X1053602Y723529D1*
X1053113Y721987D1*
X1052567Y720512D1*
X1051965Y719109D1*
X1051312Y717786D1*
X1050609Y716550D1*
X1049860Y715406D1*
X1049069Y714360D1*
X1048241Y713417D1*
X1047378Y712581D1*
X1046485Y711857D1*
X1045567Y711248D1*
X1044628Y710758D1*
X1043672Y710388D1*
X1042704Y710140D1*
X1041729Y710016D1*
X1040752D1*
X1039777Y710140D1*
X1038810Y710388D1*
X1037854Y710758D1*
X1036915Y711248D1*
X1035996Y711857D1*
X1035104Y712581D1*
X1034241Y713417D1*
X1033412Y714360D1*
X1032621Y715406D1*
X1031873Y716550D1*
X1031170Y717786D1*
X1030516Y719109D1*
X1029915Y720512D1*
X1029368Y721987D1*
X1028879Y723529D1*
X1028451Y725128D1*
X1028085Y726779D1*
X1027783Y728471D1*
X1027547Y730198D1*
X1027377Y731951D1*
X1027275Y733721D1*
X1027241Y735500D1*
X1397241D2*
X1397275Y737279D1*
X1397377Y739049D1*
X1397547Y740802D1*
X1397783Y742529D1*
X1398085Y744222D1*
X1398451Y745872D1*
X1398879Y747472D1*
X1399368Y749013D1*
X1399915Y750489D1*
X1400516Y751891D1*
X1401170Y753214D1*
X1401873Y754450D1*
X1402621Y755594D1*
X1403412Y756641D1*
X1404241Y757584D1*
X1405104Y758419D1*
X1405996Y759143D1*
X1406915Y759752D1*
X1407854Y760243D1*
X1408810Y760613D1*
X1409777Y760860D1*
X1410752Y760985D1*
X1411729D1*
X1412704Y760860D1*
X1413672Y760613D1*
X1414628Y760243D1*
X1415567Y759752D1*
X1416485Y759143D1*
X1417378Y758419D1*
X1418241Y757584D1*
X1419069Y756641D1*
X1419860Y755594D1*
X1420609Y754450D1*
X1421312Y753214D1*
X1421965Y751891D1*
X1422567Y750489D1*
X1423113Y749013D1*
X1423602Y747472D1*
X1424030Y745872D1*
X1424396Y744222D1*
X1424698Y742529D1*
X1424935Y740802D1*
X1425104Y739049D1*
X1425207Y737279D1*
X1425241Y735500D1*
X1425207Y733721D1*
X1425104Y731951D1*
X1424935Y730198D1*
X1424698Y728471D1*
X1424396Y726779D1*
X1424030Y725128D1*
X1423602Y723529D1*
X1423113Y721987D1*
X1422567Y720512D1*
X1421965Y719109D1*
X1421312Y717786D1*
X1420609Y716550D1*
X1419860Y715406D1*
X1419069Y714360D1*
X1418241Y713417D1*
X1417378Y712581D1*
X1416485Y711857D1*
X1415567Y711248D1*
X1414628Y710758D1*
X1413672Y710388D1*
X1412704Y710140D1*
X1411729Y710016D1*
X1410752D1*
X1409777Y710140D1*
X1408810Y710388D1*
X1407854Y710758D1*
X1406915Y711248D1*
X1405996Y711857D1*
X1405104Y712581D1*
X1404241Y713417D1*
X1403412Y714360D1*
X1402621Y715406D1*
X1401873Y716550D1*
X1401170Y717786D1*
X1400516Y719109D1*
X1399915Y720512D1*
X1399368Y721987D1*
X1398879Y723529D1*
X1398451Y725128D1*
X1398085Y726779D1*
X1397783Y728471D1*
X1397547Y730198D1*
X1397377Y731951D1*
X1397275Y733721D1*
X1397241Y735500D1*
M02*
