G04 DipTrace 3.2.0.1*
G04 BottomMask.gbr*
%MOIN*%
G04 #@! TF.FileFunction,Soldermask,Bot*
G04 #@! TF.Part,Single*
%AMOUTLINE1*
4,1,4,
-0.028536,0.037867,
0.037867,0.028536,
0.028536,-0.037867,
-0.037867,-0.028536,
-0.028536,0.037867,
0*%
%ADD31C,0.070866*%
%ADD32C,0.165*%
%ADD44C,0.058*%
%ADD46C,0.058*%
%ADD48C,0.082803*%
%ADD50R,0.082803X0.082803*%
%ADD52C,0.067055*%
%ADD54R,0.067055X0.067055*%
%ADD56C,0.098551*%
%ADD58C,0.094614*%
%ADD60C,0.110362*%
%ADD62R,0.06X0.087*%
%ADD64C,0.067055*%
%ADD68OUTLINE1*%
%FSLAX26Y26*%
G04*
G70*
G90*
G75*
G01*
G04 BotMask*
%LPD*%
D64*
X795241Y4003000D3*
X1015241D3*
X854241Y4081000D3*
X944241D3*
X815241Y3908000D3*
X995241D3*
D62*
X720241Y3987000D3*
X1090241D3*
D60*
X2161241Y1522000D3*
X1844312Y1443260D3*
X2064784D3*
X1696674Y1522000D3*
D58*
X1849241Y1029000D3*
D56*
X1871913Y1315938D3*
D58*
X1866545Y1157764D3*
D31*
X2146204Y1140043D3*
D64*
X583241Y2706000D3*
X2183241Y2705937D3*
X583270Y3406000D3*
X2183270Y3405937D3*
X2179241Y2451000D3*
X2079241D3*
X1979241D3*
X1879241D3*
X1779241D3*
X1679241D3*
X1579241D3*
X1479241D3*
X1379241D3*
X1279241D3*
X1179241D3*
X1079241D3*
X979241D3*
Y2351000D3*
X2179241Y1851000D3*
X2079241D3*
X1979241D3*
X1879241D3*
X1779241D3*
X1679241D3*
X1579241D3*
X1479241D3*
X1379241D3*
X1279241D3*
X1179241D3*
X1079241D3*
X979241D3*
X879241D3*
X1079241Y2351000D3*
X1179241D3*
X1279241D3*
X1379241D3*
X879241Y2451000D3*
X979241Y1951000D3*
X1079241D3*
X1179241D3*
X1279241D3*
X1379241D3*
D54*
X1958241Y4079000D3*
D52*
X1858241D3*
X1758241D3*
X1658241D3*
X1558241D3*
X1458241D3*
X1358241D3*
X1258241D3*
Y3579000D3*
X1358241D3*
X1458241D3*
X1558241D3*
X1658241D3*
X1758241D3*
X1858241D3*
X1958241D3*
D54*
X700241Y3630000D3*
D52*
Y3530000D3*
X600241Y3630000D3*
Y3530000D3*
D64*
X1888241Y651000D3*
X1668241D3*
X1829241Y573000D3*
X1739241D3*
X1868241Y746000D3*
X1688241D3*
D62*
X1963241Y667000D3*
X1593241D3*
D64*
X1336241Y720000D3*
X1116241D3*
X1277241Y642000D3*
X1187241D3*
X1316241Y815000D3*
X1136241D3*
D62*
X1411241Y736000D3*
X1041241D3*
D64*
X784241Y792000D3*
X564241D3*
X725241Y714000D3*
X635241D3*
X764241Y887000D3*
X584241D3*
D62*
X859241Y808000D3*
X489241D3*
D54*
X708241Y1364000D3*
D52*
X808241D3*
D68*
X967127Y554135D3*
D52*
X868100Y568051D3*
D50*
X776241Y1573000D3*
D48*
X876241D3*
X976241D3*
D54*
X1081241Y1232000D3*
D52*
X683603D3*
D46*
X754241Y1115000D3*
D44*
X1054241D3*
D54*
X1243241Y1338000D3*
D52*
X1343241D3*
D46*
X1159241Y1216000D3*
D44*
X1459241D3*
D54*
X717241Y2553000D3*
D52*
Y2453000D3*
D54*
X610241Y2553000D3*
D52*
Y2453000D3*
D54*
X1400241Y1576000D3*
D52*
X1321501D3*
X1242760D3*
Y1497260D3*
X1321501D3*
X1400241D3*
D32*
X679241Y2157000D3*
X1543241Y1032000D3*
X967241Y3612000D3*
M02*
