G04 DipTrace 3.2.0.1*
G04 Bottom.gbr*
%MOIN*%
G04 #@! TF.FileFunction,Copper,L2,Bot*
G04 #@! TF.Part,Single*
G04 #@! TA.AperFunction,Conductor*
%ADD13C,0.026*%
%ADD14C,0.012992*%
G04 #@! TA.AperFunction,CopperBalancing*
%ADD15C,0.025*%
G04 #@! TA.AperFunction,ComponentPad*
%ADD17C,0.059055*%
%ADD18R,0.059055X0.059055*%
%ADD19C,0.059055*%
%ADD20C,0.062992*%
%ADD21R,0.062992X0.062992*%
%ADD22R,0.079X0.052*%
G04 #@! TA.AperFunction,ViaPad*
%ADD23C,0.04*%
%FSLAX26Y26*%
G04*
G70*
G90*
G75*
G01*
G04 Bottom*
%LPD*%
X1165000Y791125D2*
D14*
X1131000D1*
X1105000Y817125D1*
Y898125D1*
X1150000Y943125D1*
X1195000D1*
X1219000Y919125D1*
X1717000D1*
X1840000Y1042125D1*
Y1276125D1*
X1738000Y1378125D1*
Y1657125D1*
X1612785Y1782340D1*
X1129785D1*
X1021000Y1891125D1*
Y1945125D1*
X982000Y1984125D1*
X895000D1*
X866000Y2013125D1*
Y2038125D1*
X1165000Y891125D2*
X1746000D1*
X1882000Y1027125D1*
Y1258125D1*
X1975000Y1351125D1*
Y1474125D1*
X1882000Y1567125D1*
Y2116125D1*
X1849000Y2149125D1*
X1077000D1*
X966000Y2038125D1*
X566000D2*
X515016Y1987141D1*
Y1373141D1*
X466000Y1324125D1*
X775000Y608125D2*
D13*
X1661000D1*
X1987000Y934125D1*
Y1228125D1*
X2143000Y1384125D1*
Y2487125D1*
X2153000Y2497125D1*
X1566000Y1924125D2*
D14*
Y1915125D1*
X1693000D1*
X1756000Y1852125D1*
X1801000D1*
X1834000Y1819125D1*
Y1645125D1*
X1786500Y1597625D1*
X1784000Y1600125D1*
Y2100125D2*
X1551000D1*
X1516000Y2065125D1*
Y2005125D1*
X1459000Y1948125D1*
Y1924125D1*
X1466000D1*
X1784000Y2000125D2*
Y1987125D1*
X1558000D1*
X1513000Y1942125D1*
Y1894125D1*
X1498000Y1879125D1*
X1213000D1*
X1171000Y1921125D1*
Y1929125D1*
X1166000Y1924125D1*
X1784000Y1700125D2*
X1758000D1*
X1630000Y1828125D1*
X1162000D1*
X1066000Y1924125D1*
X602000Y737125D2*
Y905125D1*
X667000Y970125D1*
X1033000D1*
X1384000Y1321125D1*
Y1324125D1*
X1366000D1*
X680000Y588125D2*
Y614125D1*
X730000Y664125D1*
X862000D1*
X886000Y640125D1*
X1651000D1*
X1942000Y931125D1*
Y1234125D1*
X2026000Y1318125D1*
Y1492125D1*
X1942000Y1576125D1*
Y2221125D1*
X1795000Y2368125D1*
X961000D1*
X721000Y2128125D1*
Y1882125D1*
X739000Y1864125D1*
X886000D1*
X966000Y1944125D1*
Y1924125D1*
X680000Y808125D2*
Y783125D1*
X724000Y739125D1*
X1666000D1*
X1915000Y988125D1*
Y1252125D1*
X2002000Y1339125D1*
Y1483125D1*
X1918000Y1567125D1*
Y2152125D1*
X1825000Y2245125D1*
X988000D1*
X820000Y2077125D1*
Y1966125D1*
X862000Y1924125D1*
X866000D1*
X2521000Y616125D2*
X2524000D1*
X2467000Y559125D1*
Y487125D1*
X2446000Y466125D1*
X631000D1*
X571000Y526125D1*
X532000D1*
X478000Y580125D1*
Y895125D1*
X866000Y1283125D1*
Y1324125D1*
D23*
X724000Y2446125D3*
Y2311125D3*
X898000Y2455125D3*
X895000Y2368125D3*
X943000Y1201125D3*
X1081000Y1099125D3*
X751000Y1234125D3*
X694000Y1201125D3*
X1867000Y643125D3*
X1897000Y724125D3*
X2062000Y1792125D3*
X2050000Y1636125D3*
X2053000Y1984125D3*
X1036000Y802125D3*
X2275000Y1111125D3*
X2248000Y1039125D3*
X1213000Y2302125D3*
X1339000Y2296125D3*
X1537000Y1615125D3*
X1390000Y1681125D3*
X1465000Y1513125D3*
X1279000Y1555125D3*
X964000Y1666125D3*
X715000Y1687125D3*
X955000Y1531125D3*
X730000Y1525125D3*
X524444Y2641139D2*
D15*
X607539D1*
X1624437D2*
X2544962D1*
X520101Y2616270D2*
X611917D1*
X1620094D2*
X2552031D1*
X499432Y2591402D2*
X632587D1*
X699415D2*
X732596D1*
X799424D2*
X832568D1*
X899433D2*
X932577D1*
X999407D2*
X1032587D1*
X1099416D2*
X1132596D1*
X1199425D2*
X1232570D1*
X1299434D2*
X1332579D1*
X1399407D2*
X1432588D1*
X1499416D2*
X1532597D1*
X1599425D2*
X2368592D1*
X2391425D2*
X2552067D1*
X436025Y2566533D2*
X2306475D1*
X2453541D2*
X2552102D1*
X436276Y2541664D2*
X2092499D1*
X2213512D2*
X2283833D1*
X2476184D2*
X2552139D1*
X436491Y2516795D2*
X2092499D1*
X2213512D2*
X2271345D1*
X2488636D2*
X2552175D1*
X436706Y2491927D2*
X2092499D1*
X2213512D2*
X2265604D1*
X2494413D2*
X2552210D1*
X436921Y2467058D2*
X2092499D1*
X2213512D2*
X2265531D1*
X2494486D2*
X2552247D1*
X437136Y2442189D2*
X2092499D1*
X2213512D2*
X2271094D1*
X2488887D2*
X2552282D1*
X437352Y2417320D2*
X2101003D1*
X2184984D2*
X2283331D1*
X2476651D2*
X2552319D1*
X437604Y2392452D2*
X936202D1*
X1819790D2*
X2101003D1*
X2184984D2*
X2305579D1*
X2454438D2*
X2552319D1*
X437819Y2367583D2*
X911298D1*
X1844694D2*
X2101003D1*
X2184984D2*
X2361881D1*
X2398136D2*
X2552354D1*
X438034Y2342714D2*
X886430D1*
X1869562D2*
X2101003D1*
X2184984D2*
X2245114D1*
X2322887D2*
X2552390D1*
X438249Y2317845D2*
X861563D1*
X959898D2*
X1728345D1*
X1894429D2*
X2101003D1*
X2184984D2*
X2228356D1*
X2339644D2*
X2552427D1*
X438465Y2292976D2*
X836696D1*
X935030D2*
X1725941D1*
X1919298D2*
X2101003D1*
X2184984D2*
X2225916D1*
X2342085D2*
X2552462D1*
X438680Y2268108D2*
X811828D1*
X910163D2*
X961823D1*
X1944165D2*
X2101003D1*
X2184984D2*
X2235533D1*
X2332469D2*
X2552497D1*
X438932Y2243239D2*
X786959D1*
X885294D2*
X936955D1*
X1968997D2*
X2101003D1*
X2184984D2*
X2552534D1*
X439147Y2218370D2*
X762092D1*
X860427D2*
X912088D1*
X1977501D2*
X2101003D1*
X2184984D2*
X2552570D1*
X439362Y2193501D2*
X737224D1*
X835524D2*
X887220D1*
X1977501D2*
X2101003D1*
X2184984D2*
X2552605D1*
X439577Y2168633D2*
X712357D1*
X810655D2*
X862353D1*
X1977501D2*
X2101003D1*
X2184984D2*
X2552642D1*
X439793Y2143764D2*
X689462D1*
X785787D2*
X837484D1*
X1977501D2*
X2101003D1*
X2184984D2*
X2246370D1*
X2321631D2*
X2552677D1*
X440008Y2118895D2*
X685516D1*
X760920D2*
X812617D1*
X1977501D2*
X2101003D1*
X2184984D2*
X2228715D1*
X2339286D2*
X2552713D1*
X440259Y2094026D2*
X559741D1*
X572238D2*
X685516D1*
X756507D2*
X789148D1*
X1977501D2*
X2101003D1*
X2184984D2*
X2225808D1*
X2342193D2*
X2552749D1*
X615159Y2069158D2*
X685516D1*
X756507D2*
X784520D1*
X1977501D2*
X2101003D1*
X2184984D2*
X2234815D1*
X2333185D2*
X2552785D1*
X624201Y2044289D2*
X685516D1*
X756507D2*
X784520D1*
X1977501D2*
X2101003D1*
X2184984D2*
X2247016D1*
X2320986D2*
X2552820D1*
X621331Y2019420D2*
X685516D1*
X756507D2*
X784520D1*
X1977501D2*
X2101003D1*
X2184984D2*
X2228894D1*
X2339106D2*
X2552857D1*
X603711Y1994551D2*
X685516D1*
X756507D2*
X784520D1*
X1977501D2*
X2101003D1*
X2184984D2*
X2225736D1*
X2342264D2*
X2552857D1*
X550495Y1969683D2*
X630899D1*
X1977501D2*
X2101003D1*
X2184984D2*
X2234457D1*
X2333545D2*
X2552892D1*
X550495Y1944814D2*
X611450D1*
X1977501D2*
X2101003D1*
X2184984D2*
X2247697D1*
X2320303D2*
X2552928D1*
X550495Y1919945D2*
X607610D1*
X1977501D2*
X2101003D1*
X2184984D2*
X2229109D1*
X2338891D2*
X2552965D1*
X550495Y1895076D2*
X615577D1*
X1977501D2*
X2101003D1*
X2184984D2*
X2225701D1*
X2342301D2*
X2553000D1*
X550495Y1870207D2*
X648268D1*
X1977501D2*
X2101003D1*
X2184984D2*
X2234133D1*
X2333867D2*
X2553035D1*
X550495Y1845339D2*
X708625D1*
X916370D2*
X1017623D1*
X1977501D2*
X2101003D1*
X2184984D2*
X2248415D1*
X2319585D2*
X2553072D1*
X550495Y1820470D2*
X1042491D1*
X1977501D2*
X2101003D1*
X2184984D2*
X2229289D1*
X2338711D2*
X2553108D1*
X550495Y1795601D2*
X1067358D1*
X1977501D2*
X2101003D1*
X2184984D2*
X2225664D1*
X2342336D2*
X2553143D1*
X550495Y1770732D2*
X1092227D1*
X1977501D2*
X2101003D1*
X2184984D2*
X2233810D1*
X2334190D2*
X2553180D1*
X550495Y1745864D2*
X1600096D1*
X1977501D2*
X2101003D1*
X2184984D2*
X2249133D1*
X2318867D2*
X2553215D1*
X550495Y1720995D2*
X1624963D1*
X1977501D2*
X2101003D1*
X2184984D2*
X2229504D1*
X2338496D2*
X2553251D1*
X550495Y1696126D2*
X1649831D1*
X1977501D2*
X2101003D1*
X2184984D2*
X2225629D1*
X2342371D2*
X2553287D1*
X550495Y1671257D2*
X1674698D1*
X1977501D2*
X2101003D1*
X2184984D2*
X2233487D1*
X2334513D2*
X2553323D1*
X550495Y1646389D2*
X1699567D1*
X1977501D2*
X2101003D1*
X2184984D2*
X2265639D1*
X2302361D2*
X2553358D1*
X550495Y1621520D2*
X1702509D1*
X1977501D2*
X2101003D1*
X2184984D2*
X2553395D1*
X550495Y1596651D2*
X1702509D1*
X1977501D2*
X2101003D1*
X2184984D2*
X2553430D1*
X550495Y1571782D2*
X1702509D1*
X1995516D2*
X2101003D1*
X2184984D2*
X2553430D1*
X550495Y1546913D2*
X1702509D1*
X2020383D2*
X2101003D1*
X2184984D2*
X2553467D1*
X550495Y1522045D2*
X1702509D1*
X2045251D2*
X2101003D1*
X2184984D2*
X2553503D1*
X550495Y1497176D2*
X1702509D1*
X2061112D2*
X2101003D1*
X2184984D2*
X2553538D1*
X550495Y1472307D2*
X1702509D1*
X2061507D2*
X2101003D1*
X2184984D2*
X2553575D1*
X550495Y1447438D2*
X1702509D1*
X2061507D2*
X2101003D1*
X2184984D2*
X2553610D1*
X550495Y1422570D2*
X1702509D1*
X2061507D2*
X2101003D1*
X2184984D2*
X2553646D1*
X550495Y1397701D2*
X1702509D1*
X2061507D2*
X2098203D1*
X2184984D2*
X2553682D1*
X596176Y1372832D2*
X835798D1*
X896203D2*
X935807D1*
X996177D2*
X1035816D1*
X1096186D2*
X1135825D1*
X1196196D2*
X1235799D1*
X1296205D2*
X1335808D1*
X1396177D2*
X1435818D1*
X1496186D2*
X1535827D1*
X1596197D2*
X1702940D1*
X2183369D2*
X2553718D1*
X619214Y1347963D2*
X812797D1*
X1619198D2*
X1718980D1*
X2165211D2*
X2553753D1*
X624524Y1323095D2*
X807486D1*
X1624509D2*
X1743883D1*
X2140344D2*
X2553790D1*
X618173Y1298226D2*
X813802D1*
X1618193D2*
X1768751D1*
X2115476D2*
X2553825D1*
X492219Y1273357D2*
X539790D1*
X592193D2*
X807055D1*
X900007D2*
X939790D1*
X992194D2*
X1039799D1*
X1092203D2*
X1139808D1*
X1192213D2*
X1239782D1*
X1392194D2*
X1439801D1*
X1492203D2*
X1539810D1*
X1592213D2*
X1793619D1*
X2090609D2*
X2553861D1*
X447759Y1248488D2*
X782188D1*
X880522D2*
X1262210D1*
X1360545D2*
X1804492D1*
X2065740D2*
X2553898D1*
X448010Y1223620D2*
X757319D1*
X855655D2*
X1237343D1*
X1335642D2*
X1804492D1*
X2040873D2*
X2553933D1*
X448226Y1198751D2*
X732451D1*
X830786D2*
X1212475D1*
X1310773D2*
X1804492D1*
X2028995D2*
X2553969D1*
X448441Y1173882D2*
X707584D1*
X805919D2*
X1187606D1*
X1285906D2*
X1804492D1*
X2028995D2*
X2554005D1*
X448656Y1149013D2*
X682717D1*
X781051D2*
X1162739D1*
X1261038D2*
X1804492D1*
X2028995D2*
X2554005D1*
X448871Y1124144D2*
X657849D1*
X756184D2*
X1137871D1*
X1236171D2*
X1804492D1*
X2028995D2*
X2117223D1*
X2212759D2*
X2379608D1*
X449087Y1099276D2*
X632980D1*
X731315D2*
X1113004D1*
X1211302D2*
X1804492D1*
X2028995D2*
X2107067D1*
X2222913D2*
X2362491D1*
X449337Y1074407D2*
X608113D1*
X706448D2*
X1088135D1*
X1186434D2*
X1804492D1*
X2028995D2*
X2109041D1*
X2220976D2*
X2359871D1*
X449552Y1049538D2*
X583245D1*
X681580D2*
X1063268D1*
X1161567D2*
X1798248D1*
X2028995D2*
X2124937D1*
X2205043D2*
X2369238D1*
X449768Y1024669D2*
X558378D1*
X656713D2*
X1038365D1*
X1212379D2*
X1773381D1*
X2028995D2*
X2117617D1*
X2212364D2*
X2380253D1*
X449983Y999801D2*
X533509D1*
X631845D2*
X650062D1*
X1222857D2*
X1748513D1*
X2028995D2*
X2107139D1*
X2222841D2*
X2362671D1*
X450199Y974932D2*
X508642D1*
X606976D2*
X622646D1*
X1086963D2*
X1108877D1*
X1221135D2*
X1723644D1*
X2028995D2*
X2108861D1*
X2221119D2*
X2359799D1*
X450415Y950063D2*
X483774D1*
X582109D2*
X597778D1*
X1062096D2*
X1107765D1*
X2028995D2*
X2124364D1*
X2205617D2*
X2368878D1*
X557241Y925194D2*
X573306D1*
X671245D2*
X1082896D1*
X2027991D2*
X2118012D1*
X2211969D2*
X2412190D1*
X2423801D2*
X2512199D1*
X2523787D2*
X2554328D1*
X532374Y900326D2*
X566487D1*
X646378D2*
X1069584D1*
X2011555D2*
X2107247D1*
X2222770D2*
X2554364D1*
X513499Y875457D2*
X566487D1*
X637479D2*
X1069512D1*
X1986688D2*
X2108718D1*
X2221299D2*
X2365971D1*
X2442022D2*
X2554399D1*
X513499Y850588D2*
X566487D1*
X719043D2*
X1069512D1*
X1961820D2*
X2123825D1*
X2206192D2*
X2348604D1*
X2459390D2*
X2554436D1*
X513499Y825719D2*
X566487D1*
X819052D2*
X1069512D1*
X1936953D2*
X2118442D1*
X2211573D2*
X2345841D1*
X2462154D2*
X2554471D1*
X513499Y800851D2*
X566487D1*
X832079D2*
X1073782D1*
X1912085D2*
X2107319D1*
X2222663D2*
X2355028D1*
X2453003D2*
X2554507D1*
X513499Y775982D2*
X559131D1*
X832186D2*
X1096963D1*
X1887217D2*
X2108575D1*
X2221442D2*
X2366618D1*
X2441377D2*
X2554543D1*
X513499Y751113D2*
X545244D1*
X1862349D2*
X2123287D1*
X2206730D2*
X2348783D1*
X2459211D2*
X2554543D1*
X513499Y726244D2*
X544526D1*
X659475D2*
X687705D1*
X1837482D2*
X2118837D1*
X2211143D2*
X2345769D1*
X2462226D2*
X2554579D1*
X513499Y701375D2*
X556367D1*
X647634D2*
X1663072D1*
X1812614D2*
X2107427D1*
X2222591D2*
X2354668D1*
X2453325D2*
X2554615D1*
X513499Y676507D2*
X693231D1*
X898787D2*
X1638205D1*
X1787745D2*
X2108430D1*
X2221585D2*
X2367299D1*
X2440694D2*
X2554651D1*
X513499Y651638D2*
X668362D1*
X1762878D2*
X2122748D1*
X2207232D2*
X2348962D1*
X513499Y626769D2*
X636928D1*
X1738010D2*
X2119268D1*
X2210713D2*
X2345734D1*
X513499Y601900D2*
X623185D1*
X1713143D2*
X2107534D1*
X2222483D2*
X2354310D1*
X530256Y577032D2*
X622575D1*
X1687844D2*
X2108287D1*
X2221730D2*
X2345482D1*
X593772Y552163D2*
X634524D1*
X725466D2*
X769772D1*
X780226D2*
X2122247D1*
X2207770D2*
X2345482D1*
X618999Y527294D2*
X2345482D1*
X643866Y502425D2*
X2345482D1*
X516000Y1298861D2*
X511327Y1291193D1*
X505618Y1284507D1*
X498932Y1278798D1*
X491436Y1274204D1*
X483314Y1270840D1*
X474765Y1268788D1*
X466000Y1268097D1*
X457235Y1268788D1*
X448686Y1270840D1*
X445059Y1272177D1*
X448291Y909492D1*
X451306Y914520D1*
X454668Y918457D1*
X823631Y1287419D1*
X818228Y1294851D1*
X814238Y1302684D1*
X811521Y1311046D1*
X810146Y1319728D1*
Y1328521D1*
X811521Y1337204D1*
X814238Y1345566D1*
X818228Y1353399D1*
X823396Y1360512D1*
X829613Y1366728D1*
X836726Y1371896D1*
X844559Y1375887D1*
X852921Y1378604D1*
X861604Y1379979D1*
X870396D1*
X879079Y1378604D1*
X887441Y1375887D1*
X895274Y1371896D1*
X902387Y1366728D1*
X908604Y1360512D1*
X913772Y1353399D1*
X916079Y1349560D1*
X920673Y1357057D1*
X926382Y1363743D1*
X933068Y1369452D1*
X940564Y1374046D1*
X948686Y1377410D1*
X957235Y1379462D1*
X966000Y1380152D1*
X974765Y1379462D1*
X983314Y1377410D1*
X991436Y1374046D1*
X998932Y1369452D1*
X1005618Y1363743D1*
X1011327Y1357057D1*
X1016000Y1349389D1*
X1020673Y1357057D1*
X1026382Y1363743D1*
X1033068Y1369452D1*
X1040564Y1374046D1*
X1048686Y1377410D1*
X1057235Y1379462D1*
X1066000Y1380152D1*
X1074765Y1379462D1*
X1083314Y1377410D1*
X1091436Y1374046D1*
X1098932Y1369452D1*
X1105618Y1363743D1*
X1111327Y1357057D1*
X1116000Y1349389D1*
X1120673Y1357057D1*
X1126382Y1363743D1*
X1133068Y1369452D1*
X1140564Y1374046D1*
X1148686Y1377410D1*
X1157235Y1379462D1*
X1166000Y1380152D1*
X1174765Y1379462D1*
X1183314Y1377410D1*
X1191436Y1374046D1*
X1198932Y1369452D1*
X1205618Y1363743D1*
X1211327Y1357057D1*
X1216000Y1349389D1*
X1220673Y1357057D1*
X1226382Y1363743D1*
X1233068Y1369452D1*
X1240564Y1374046D1*
X1248686Y1377410D1*
X1257235Y1379462D1*
X1266000Y1380152D1*
X1274765Y1379462D1*
X1283314Y1377410D1*
X1291436Y1374046D1*
X1298932Y1369452D1*
X1305618Y1363743D1*
X1311327Y1357057D1*
X1316000Y1349389D1*
X1320673Y1357057D1*
X1326382Y1363743D1*
X1333068Y1369452D1*
X1340564Y1374046D1*
X1348686Y1377410D1*
X1357235Y1379462D1*
X1366000Y1380152D1*
X1374765Y1379462D1*
X1383314Y1377410D1*
X1391436Y1374046D1*
X1398932Y1369452D1*
X1405618Y1363743D1*
X1411327Y1357057D1*
X1416000Y1349389D1*
X1420673Y1357057D1*
X1426382Y1363743D1*
X1433068Y1369452D1*
X1440564Y1374046D1*
X1448686Y1377410D1*
X1457235Y1379462D1*
X1466000Y1380152D1*
X1474765Y1379462D1*
X1483314Y1377410D1*
X1491436Y1374046D1*
X1498932Y1369452D1*
X1505618Y1363743D1*
X1511327Y1357057D1*
X1516000Y1349389D1*
X1520673Y1357057D1*
X1526382Y1363743D1*
X1533068Y1369452D1*
X1540564Y1374046D1*
X1548686Y1377410D1*
X1557235Y1379462D1*
X1566000Y1380152D1*
X1574765Y1379462D1*
X1583314Y1377410D1*
X1591436Y1374046D1*
X1598932Y1369452D1*
X1605618Y1363743D1*
X1611327Y1357057D1*
X1615921Y1349560D1*
X1619285Y1341438D1*
X1621337Y1332890D1*
X1622028Y1324125D1*
X1621337Y1315360D1*
X1619285Y1306811D1*
X1615921Y1298689D1*
X1611327Y1291193D1*
X1605618Y1284507D1*
X1598932Y1278798D1*
X1591436Y1274204D1*
X1583314Y1270840D1*
X1574765Y1268788D1*
X1566000Y1268097D1*
X1557235Y1268788D1*
X1548686Y1270840D1*
X1540564Y1274204D1*
X1533068Y1278798D1*
X1526382Y1284507D1*
X1520673Y1291193D1*
X1516000Y1298861D1*
X1511327Y1291193D1*
X1505618Y1284507D1*
X1498932Y1278798D1*
X1491436Y1274204D1*
X1483314Y1270840D1*
X1474765Y1268788D1*
X1466000Y1268097D1*
X1457235Y1268788D1*
X1448686Y1270840D1*
X1440564Y1274204D1*
X1433068Y1278798D1*
X1426382Y1284507D1*
X1420673Y1291193D1*
X1416000Y1298861D1*
X1411327Y1291193D1*
X1405618Y1284507D1*
X1398932Y1278798D1*
X1391436Y1274204D1*
X1383314Y1270840D1*
X1379228Y1269688D1*
X1156235Y1046462D1*
X1165000Y1047152D1*
X1173765Y1046462D1*
X1182314Y1044410D1*
X1190436Y1041046D1*
X1197932Y1036452D1*
X1204618Y1030743D1*
X1210327Y1024057D1*
X1214921Y1016560D1*
X1218285Y1008438D1*
X1220337Y999890D1*
X1221028Y991125D1*
X1220337Y982360D1*
X1218285Y973811D1*
X1216180Y968420D1*
X1232668Y952121D1*
X1703329D1*
X1807013Y1055802D1*
X1807004Y1262490D1*
X1712909Y1356696D1*
X1709866Y1360885D1*
X1707516Y1365497D1*
X1705916Y1370421D1*
X1705105Y1375536D1*
X1705004Y1442429D1*
Y1643488D1*
X1599140Y1749320D1*
X1127196Y1749445D1*
X1122081Y1750256D1*
X1117157Y1751856D1*
X1112545Y1754206D1*
X1108356Y1757249D1*
X1060983Y1804478D1*
X995909Y1869696D1*
X992861Y1873893D1*
X991436Y1874204D1*
X983314Y1870840D1*
X974765Y1868788D1*
X966000Y1868097D1*
X957235Y1868788D1*
X948686Y1870840D1*
X942047Y1873520D1*
X907429Y1839034D1*
X903240Y1835991D1*
X898627Y1833641D1*
X893703Y1832041D1*
X888589Y1831230D1*
X821696Y1831129D1*
X736411Y1831230D1*
X731297Y1832041D1*
X726373Y1833641D1*
X721760Y1835991D1*
X717571Y1839034D1*
X697668Y1858793D1*
X694306Y1862730D1*
X691600Y1867144D1*
X689615Y1871938D1*
X687441Y1872362D1*
X679079Y1869646D1*
X670396Y1868270D1*
X661604D1*
X652921Y1869646D1*
X644559Y1872362D1*
X636726Y1876353D1*
X629613Y1881521D1*
X623396Y1887738D1*
X618228Y1894851D1*
X614238Y1902684D1*
X611521Y1911046D1*
X610146Y1919728D1*
Y1928521D1*
X611521Y1937204D1*
X614238Y1945566D1*
X618228Y1953399D1*
X623396Y1960512D1*
X629613Y1966728D1*
X636726Y1971896D1*
X644559Y1975887D1*
X652921Y1978604D1*
X661604Y1979979D1*
X670396D1*
X679079Y1978604D1*
X687441Y1975887D1*
X688018Y1975621D1*
X688105Y2130714D1*
X688916Y2135828D1*
X690516Y2140752D1*
X692866Y2145365D1*
X695909Y2149554D1*
X743138Y2196927D1*
X939571Y2393215D1*
X943760Y2396259D1*
X948373Y2398609D1*
X953297Y2400209D1*
X958411Y2401020D1*
X1025304Y2401121D1*
X1797589Y2401020D1*
X1802703Y2400209D1*
X1807627Y2398609D1*
X1812240Y2396259D1*
X1816429Y2393215D1*
X1863802Y2345987D1*
X1967091Y2242554D1*
X1970134Y2238365D1*
X1972484Y2233752D1*
X1974084Y2228828D1*
X1974895Y2223714D1*
X1974996Y2156820D1*
Y1589814D1*
X2051091Y1513554D1*
X2054134Y1509365D1*
X2056484Y1504752D1*
X2058084Y1499828D1*
X2058894Y1494714D1*
X2058996Y1427820D1*
Y1356016D1*
X2103524Y1400509D1*
X2103500Y2439156D1*
X2095004Y2439129D1*
Y2555121D1*
X2210996D1*
Y2439129D1*
X2182469D1*
X2182500Y1384125D1*
X2182014Y1377945D1*
X2180567Y1371919D1*
X2178196Y1366192D1*
X2174957Y1360907D1*
X2170923Y1356185D1*
X2026476Y1211740D1*
X2026378Y931025D1*
X2025408Y924904D1*
X2023493Y919009D1*
X2020680Y913486D1*
X2017037Y908471D1*
X1988948Y880211D1*
X1686654Y578088D1*
X1681639Y574445D1*
X1676115Y571631D1*
X1670220Y569717D1*
X1664100Y568747D1*
X1624255Y568625D1*
X814618Y568507D1*
X807932Y562798D1*
X800436Y558204D1*
X792314Y554840D1*
X783765Y552788D1*
X775000Y552097D1*
X766235Y552788D1*
X757686Y554840D1*
X749564Y558204D1*
X742068Y562798D1*
X735382Y568507D1*
X733272Y570791D1*
X729921Y562689D1*
X725327Y555193D1*
X719618Y548507D1*
X712932Y542798D1*
X705436Y538204D1*
X697314Y534840D1*
X688765Y532788D1*
X680000Y532097D1*
X671235Y532788D1*
X662686Y534840D1*
X654564Y538204D1*
X647068Y542798D1*
X640382Y548507D1*
X634673Y555193D1*
X630079Y562689D1*
X626715Y570811D1*
X624663Y579360D1*
X623972Y588125D1*
X624663Y596890D1*
X626715Y605438D1*
X630079Y613560D1*
X634673Y621057D1*
X640382Y627743D1*
X647068Y633452D1*
X654564Y638046D1*
X659413Y640202D1*
X708571Y689215D1*
X712760Y692259D1*
X717373Y694609D1*
X722297Y696209D1*
X727411Y697020D1*
X794304Y697121D1*
X864589Y697020D1*
X869703Y696209D1*
X874627Y694609D1*
X879240Y692259D1*
X883429Y689215D1*
X899668Y673121D1*
X1637307D1*
X1670677Y706466D1*
X1665990Y706129D1*
X721411Y706230D1*
X716297Y707041D1*
X711373Y708641D1*
X706760Y710991D1*
X702571Y714034D1*
X661085Y755375D1*
X653710Y758683D1*
X656479Y750204D1*
X657854Y741521D1*
Y732728D1*
X656479Y724046D1*
X653762Y715684D1*
X649772Y707851D1*
X644604Y700738D1*
X638387Y694521D1*
X631274Y689353D1*
X623441Y685362D1*
X615079Y682646D1*
X606396Y681270D1*
X597604D1*
X588921Y682646D1*
X580559Y685362D1*
X572726Y689353D1*
X565613Y694521D1*
X559396Y700738D1*
X554228Y707851D1*
X550238Y715684D1*
X547521Y724046D1*
X546146Y732728D1*
Y741521D1*
X547521Y750204D1*
X550238Y758566D1*
X554228Y766399D1*
X559396Y773512D1*
X565613Y779728D1*
X569000Y782399D1*
X569105Y907714D1*
X569916Y912828D1*
X571516Y917752D1*
X573866Y922365D1*
X576909Y926554D1*
X624138Y973927D1*
X645571Y995215D1*
X649760Y998259D1*
X654373Y1000609D1*
X659297Y1002209D1*
X664411Y1003020D1*
X731304Y1003121D1*
X1019346D1*
X1289467Y1273255D1*
X1283314Y1270840D1*
X1274765Y1268788D1*
X1266000Y1268097D1*
X1257235Y1268788D1*
X1248686Y1270840D1*
X1240564Y1274204D1*
X1233068Y1278798D1*
X1226382Y1284507D1*
X1220673Y1291193D1*
X1216000Y1298861D1*
X1211327Y1291193D1*
X1205618Y1284507D1*
X1198932Y1278798D1*
X1191436Y1274204D1*
X1183314Y1270840D1*
X1174765Y1268788D1*
X1166000Y1268097D1*
X1157235Y1268788D1*
X1148686Y1270840D1*
X1140564Y1274204D1*
X1133068Y1278798D1*
X1126382Y1284507D1*
X1120673Y1291193D1*
X1116000Y1298861D1*
X1111327Y1291193D1*
X1105618Y1284507D1*
X1098932Y1278798D1*
X1091436Y1274204D1*
X1083314Y1270840D1*
X1074765Y1268788D1*
X1066000Y1268097D1*
X1057235Y1268788D1*
X1048686Y1270840D1*
X1040564Y1274204D1*
X1033068Y1278798D1*
X1026382Y1284507D1*
X1020673Y1291193D1*
X1016000Y1298861D1*
X1011327Y1291193D1*
X1005618Y1284507D1*
X998932Y1278798D1*
X991436Y1274204D1*
X983314Y1270840D1*
X974765Y1268788D1*
X966000Y1268097D1*
X957235Y1268788D1*
X948686Y1270840D1*
X940564Y1274204D1*
X933068Y1278798D1*
X926382Y1284507D1*
X920673Y1291193D1*
X916000Y1298861D1*
X911327Y1291193D1*
X905618Y1284507D1*
X898689Y1278635D1*
X897381Y1272928D1*
X895400Y1268144D1*
X892694Y1263730D1*
X889324Y1259786D1*
X510980Y881442D1*
X510996Y593806D1*
X545660Y559129D1*
X573589Y559020D1*
X578703Y558209D1*
X583627Y556609D1*
X588240Y554259D1*
X592429Y551215D1*
X639802Y503987D1*
X644648Y499141D1*
X2347950Y499121D1*
X2347972Y588152D1*
X2369252D1*
X2364382Y592507D1*
X2358673Y599193D1*
X2354079Y606689D1*
X2350715Y614811D1*
X2348663Y623360D1*
X2347972Y632125D1*
X2348663Y640890D1*
X2350715Y649438D1*
X2354079Y657560D1*
X2358673Y665057D1*
X2364382Y671743D1*
X2371068Y677452D1*
X2378736Y682125D1*
X2371068Y686798D1*
X2364382Y692507D1*
X2358673Y699193D1*
X2354079Y706689D1*
X2350715Y714811D1*
X2348663Y723360D1*
X2347972Y732125D1*
X2348663Y740890D1*
X2350715Y749438D1*
X2354079Y757560D1*
X2358673Y765057D1*
X2364382Y771743D1*
X2371068Y777452D1*
X2378736Y782125D1*
X2371068Y786798D1*
X2364382Y792507D1*
X2358673Y799193D1*
X2354079Y806689D1*
X2350715Y814811D1*
X2348663Y823360D1*
X2347972Y832125D1*
X2348663Y840890D1*
X2350715Y849438D1*
X2354079Y857560D1*
X2358673Y865057D1*
X2364382Y871743D1*
X2371068Y877452D1*
X2378564Y882046D1*
X2386686Y885410D1*
X2395235Y887462D1*
X2404000Y888152D1*
X2412765Y887462D1*
X2421314Y885410D1*
X2429436Y882046D1*
X2436932Y877452D1*
X2443618Y871743D1*
X2449327Y865057D1*
X2453921Y857560D1*
X2457285Y849438D1*
X2459337Y840890D1*
X2460028Y832125D1*
X2459337Y823360D1*
X2457285Y814811D1*
X2453921Y806689D1*
X2449327Y799193D1*
X2443618Y792507D1*
X2436932Y786798D1*
X2429264Y782125D1*
X2436932Y777452D1*
X2443618Y771743D1*
X2449327Y765057D1*
X2453921Y757560D1*
X2457285Y749438D1*
X2459337Y740890D1*
X2460028Y732125D1*
X2459337Y723360D1*
X2457285Y714811D1*
X2453921Y706689D1*
X2449327Y699193D1*
X2443618Y692507D1*
X2436932Y686798D1*
X2429264Y682125D1*
X2436932Y677452D1*
X2443618Y671743D1*
X2449327Y665057D1*
X2453921Y657560D1*
X2457285Y649438D1*
X2459337Y640890D1*
X2460028Y632125D1*
X2459337Y623360D1*
X2457285Y614811D1*
X2453921Y606689D1*
X2449327Y599193D1*
X2443618Y592507D1*
X2438646Y588148D1*
X2449345Y588152D1*
X2464957Y603746D1*
X2464972Y672152D1*
X2557159D1*
X2556803Y940694D1*
X2550932Y935798D1*
X2543436Y931204D1*
X2535314Y927840D1*
X2526765Y925788D1*
X2518000Y925097D1*
X2509235Y925788D1*
X2500686Y927840D1*
X2492564Y931204D1*
X2485068Y935798D1*
X2478382Y941507D1*
X2472673Y948193D1*
X2468000Y955861D1*
X2463327Y948193D1*
X2457618Y941507D1*
X2450932Y935798D1*
X2443436Y931204D1*
X2435314Y927840D1*
X2426765Y925788D1*
X2418000Y925097D1*
X2409235Y925788D1*
X2400686Y927840D1*
X2392564Y931204D1*
X2385068Y935798D1*
X2378382Y941507D1*
X2372673Y948193D1*
X2368079Y955689D1*
X2364715Y963811D1*
X2362663Y972360D1*
X2361972Y981125D1*
X2362663Y989890D1*
X2364715Y998438D1*
X2368079Y1006560D1*
X2372673Y1014057D1*
X2378382Y1020743D1*
X2385068Y1026452D1*
X2392736Y1031125D1*
X2385068Y1035798D1*
X2378382Y1041507D1*
X2372673Y1048193D1*
X2368079Y1055689D1*
X2364715Y1063811D1*
X2362663Y1072360D1*
X2361972Y1081125D1*
X2362663Y1089890D1*
X2364715Y1098438D1*
X2368079Y1106560D1*
X2372673Y1114057D1*
X2378382Y1120743D1*
X2385068Y1126452D1*
X2392564Y1131046D1*
X2400686Y1134410D1*
X2409235Y1136462D1*
X2418000Y1137152D1*
X2426765Y1136462D1*
X2435314Y1134410D1*
X2443436Y1131046D1*
X2450932Y1126452D1*
X2457618Y1120743D1*
X2461976Y1115770D1*
X2461972Y1137152D1*
X2556537Y1137232D1*
X2554328Y2630627D1*
X2552584Y2634293D1*
X2548055Y2640557D1*
X2542367Y2645791D1*
X2535751Y2649786D1*
X2528367Y2652399D1*
X2520841Y2653630D1*
X1619400Y2654978D1*
X1621337Y2646890D1*
X1622028Y2638125D1*
X1621337Y2629360D1*
X1619285Y2620811D1*
X1615921Y2612689D1*
X1611327Y2605193D1*
X1605618Y2598507D1*
X1598932Y2592798D1*
X1591436Y2588204D1*
X1583314Y2584840D1*
X1574765Y2582788D1*
X1566000Y2582097D1*
X1557235Y2582788D1*
X1548686Y2584840D1*
X1540564Y2588204D1*
X1533068Y2592798D1*
X1526382Y2598507D1*
X1520673Y2605193D1*
X1516000Y2612861D1*
X1511327Y2605193D1*
X1505618Y2598507D1*
X1498932Y2592798D1*
X1491436Y2588204D1*
X1483314Y2584840D1*
X1474765Y2582788D1*
X1466000Y2582097D1*
X1457235Y2582788D1*
X1448686Y2584840D1*
X1440564Y2588204D1*
X1433068Y2592798D1*
X1426382Y2598507D1*
X1420673Y2605193D1*
X1416000Y2612861D1*
X1411327Y2605193D1*
X1405618Y2598507D1*
X1398932Y2592798D1*
X1391436Y2588204D1*
X1383314Y2584840D1*
X1374765Y2582788D1*
X1366000Y2582097D1*
X1357235Y2582788D1*
X1348686Y2584840D1*
X1340564Y2588204D1*
X1333068Y2592798D1*
X1326382Y2598507D1*
X1320673Y2605193D1*
X1316000Y2612861D1*
X1311327Y2605193D1*
X1305618Y2598507D1*
X1298932Y2592798D1*
X1291436Y2588204D1*
X1283314Y2584840D1*
X1274765Y2582788D1*
X1266000Y2582097D1*
X1257235Y2582788D1*
X1248686Y2584840D1*
X1240564Y2588204D1*
X1233068Y2592798D1*
X1226382Y2598507D1*
X1220673Y2605193D1*
X1216000Y2612861D1*
X1211327Y2605193D1*
X1205618Y2598507D1*
X1198932Y2592798D1*
X1191436Y2588204D1*
X1183314Y2584840D1*
X1174765Y2582788D1*
X1166000Y2582097D1*
X1157235Y2582788D1*
X1148686Y2584840D1*
X1140564Y2588204D1*
X1133068Y2592798D1*
X1126382Y2598507D1*
X1120673Y2605193D1*
X1116000Y2612861D1*
X1111327Y2605193D1*
X1105618Y2598507D1*
X1098932Y2592798D1*
X1091436Y2588204D1*
X1083314Y2584840D1*
X1074765Y2582788D1*
X1066000Y2582097D1*
X1057235Y2582788D1*
X1048686Y2584840D1*
X1040564Y2588204D1*
X1033068Y2592798D1*
X1026382Y2598507D1*
X1020673Y2605193D1*
X1016000Y2612861D1*
X1011327Y2605193D1*
X1005618Y2598507D1*
X998932Y2592798D1*
X991436Y2588204D1*
X983314Y2584840D1*
X974765Y2582788D1*
X966000Y2582097D1*
X957235Y2582788D1*
X948686Y2584840D1*
X940564Y2588204D1*
X933068Y2592798D1*
X926382Y2598507D1*
X920673Y2605193D1*
X916000Y2612861D1*
X911327Y2605193D1*
X905618Y2598507D1*
X898932Y2592798D1*
X891436Y2588204D1*
X883314Y2584840D1*
X874765Y2582788D1*
X866000Y2582097D1*
X857235Y2582788D1*
X848686Y2584840D1*
X840564Y2588204D1*
X833068Y2592798D1*
X826382Y2598507D1*
X820673Y2605193D1*
X816000Y2612861D1*
X811327Y2605193D1*
X805618Y2598507D1*
X798932Y2592798D1*
X791436Y2588204D1*
X783314Y2584840D1*
X774765Y2582788D1*
X766000Y2582097D1*
X757235Y2582788D1*
X748686Y2584840D1*
X740564Y2588204D1*
X733068Y2592798D1*
X726382Y2598507D1*
X720673Y2605193D1*
X716000Y2612861D1*
X711327Y2605193D1*
X705618Y2598507D1*
X698932Y2592798D1*
X691436Y2588204D1*
X683314Y2584840D1*
X674765Y2582788D1*
X666000Y2582097D1*
X657235Y2582788D1*
X648686Y2584840D1*
X640564Y2588204D1*
X633068Y2592798D1*
X626382Y2598507D1*
X620673Y2605193D1*
X616079Y2612689D1*
X612715Y2620811D1*
X610663Y2629360D1*
X609972Y2638125D1*
X610663Y2646890D1*
X612715Y2655438D1*
X613101Y2656486D1*
X518906Y2656625D1*
X520479Y2651204D1*
X521854Y2642521D1*
Y2633728D1*
X520479Y2625046D1*
X517762Y2616684D1*
X513772Y2608851D1*
X508604Y2601738D1*
X502387Y2595521D1*
X495274Y2590353D1*
X487441Y2586362D1*
X479079Y2583646D1*
X470396Y2582270D1*
X461604D1*
X452921Y2583646D1*
X444559Y2586362D1*
X436726Y2590353D1*
X433311Y2592635D1*
X437814Y2086518D1*
X444559Y2089887D1*
X452921Y2092604D1*
X461604Y2093979D1*
X470396D1*
X479079Y2092604D1*
X487441Y2089887D1*
X495274Y2085896D1*
X502387Y2080728D1*
X508604Y2074512D1*
X513772Y2067399D1*
X516079Y2063560D1*
X520673Y2071057D1*
X526382Y2077743D1*
X533068Y2083452D1*
X540564Y2088046D1*
X548686Y2091410D1*
X557235Y2093462D1*
X566000Y2094152D1*
X574765Y2093462D1*
X583314Y2091410D1*
X591436Y2088046D1*
X598932Y2083452D1*
X605618Y2077743D1*
X611327Y2071057D1*
X615921Y2063560D1*
X619285Y2055438D1*
X621337Y2046890D1*
X622028Y2038125D1*
X621337Y2029360D1*
X619285Y2020811D1*
X615921Y2012689D1*
X611327Y2005193D1*
X605618Y1998507D1*
X598932Y1992798D1*
X591436Y1988204D1*
X583314Y1984840D1*
X574765Y1982788D1*
X566000Y1982097D1*
X557320Y1982777D1*
X547997Y1973459D1*
X548012Y1377201D1*
X557235Y1379462D1*
X566000Y1380152D1*
X574765Y1379462D1*
X583314Y1377410D1*
X591436Y1374046D1*
X598932Y1369452D1*
X605618Y1363743D1*
X611327Y1357057D1*
X615921Y1349560D1*
X619285Y1341438D1*
X621337Y1332890D1*
X622028Y1324125D1*
X621337Y1315360D1*
X619285Y1306811D1*
X615921Y1298689D1*
X611327Y1291193D1*
X605618Y1284507D1*
X598932Y1278798D1*
X591436Y1274204D1*
X583314Y1270840D1*
X574765Y1268788D1*
X566000Y1268097D1*
X557235Y1268788D1*
X548686Y1270840D1*
X540564Y1274204D1*
X533068Y1278798D1*
X526382Y1284507D1*
X520673Y1291193D1*
X516000Y1298861D1*
X753983Y1978815D2*
X761604Y1979979D1*
X770396D1*
X779079Y1978604D1*
X787005Y1976049D1*
X787105Y2079714D1*
X787916Y2084828D1*
X789516Y2089752D1*
X791866Y2094365D1*
X794909Y2098554D1*
X842138Y2145927D1*
X966571Y2270215D1*
X970760Y2273259D1*
X975373Y2275609D1*
X980297Y2277209D1*
X985411Y2278018D1*
X1052304Y2278121D1*
X1732490D1*
X1730715Y2282811D1*
X1728663Y2291360D1*
X1727972Y2300125D1*
X1728663Y2308890D1*
X1730715Y2317438D1*
X1734079Y2325560D1*
X1738673Y2333057D1*
X1740301Y2335122D1*
X974652Y2335129D1*
X754012Y2114474D1*
X753996Y1978882D1*
X1119167Y958950D2*
X1115079Y965689D1*
X1111715Y973811D1*
X1109663Y982360D1*
X1108972Y991125D1*
X1109719Y1000176D1*
X1054429Y945034D1*
X1050240Y941991D1*
X1045627Y939641D1*
X1040703Y938041D1*
X1035589Y937230D1*
X968696Y937129D1*
X680654D1*
X634991Y891453D1*
X634996Y841503D1*
X640382Y847743D1*
X647068Y853452D1*
X654564Y858046D1*
X662686Y861410D1*
X671235Y863462D1*
X680000Y864152D1*
X688765Y863462D1*
X697314Y861410D1*
X705436Y858046D1*
X712932Y853452D1*
X719618Y847743D1*
X725327Y841057D1*
X729921Y833560D1*
X733268Y825487D1*
X738613Y830728D1*
X745726Y835896D1*
X753559Y839887D1*
X761921Y842604D1*
X770604Y843979D1*
X779396D1*
X788079Y842604D1*
X796441Y839887D1*
X804274Y835896D1*
X811387Y830728D1*
X817604Y824512D1*
X822772Y817399D1*
X826762Y809566D1*
X829479Y801204D1*
X830854Y792521D1*
Y783728D1*
X829479Y775046D1*
X828654Y772118D1*
X1103332Y772121D1*
X1079909Y795696D1*
X1076866Y799885D1*
X1074516Y804497D1*
X1072916Y809421D1*
X1072105Y814536D1*
X1072004Y881429D1*
X1072105Y900714D1*
X1072916Y905828D1*
X1074516Y910752D1*
X1076866Y915365D1*
X1079909Y919554D1*
X1119146Y958934D1*
X2220854Y1086728D2*
X2219479Y1078046D1*
X2216762Y1069684D1*
X2212772Y1061851D1*
X2207604Y1054738D1*
X2201387Y1048521D1*
X2194274Y1043353D1*
X2190436Y1041046D1*
X2197932Y1036452D1*
X2204618Y1030743D1*
X2210327Y1024057D1*
X2214921Y1016560D1*
X2218285Y1008438D1*
X2220337Y999890D1*
X2221028Y991125D1*
X2220337Y982360D1*
X2218285Y973811D1*
X2214921Y965689D1*
X2210327Y958193D1*
X2204618Y951507D1*
X2197932Y945798D1*
X2190264Y941125D1*
X2197932Y936452D1*
X2204618Y930743D1*
X2210327Y924057D1*
X2214921Y916560D1*
X2218285Y908438D1*
X2220337Y899890D1*
X2221028Y891125D1*
X2220337Y882360D1*
X2218285Y873811D1*
X2214921Y865689D1*
X2210327Y858193D1*
X2204618Y851507D1*
X2197932Y845798D1*
X2190264Y841125D1*
X2197932Y836452D1*
X2204618Y830743D1*
X2210327Y824057D1*
X2214921Y816560D1*
X2218285Y808438D1*
X2220337Y799890D1*
X2221028Y791125D1*
X2220337Y782360D1*
X2218285Y773811D1*
X2214921Y765689D1*
X2210327Y758193D1*
X2204618Y751507D1*
X2197932Y745798D1*
X2190264Y741125D1*
X2197932Y736452D1*
X2204618Y730743D1*
X2210327Y724057D1*
X2214921Y716560D1*
X2218285Y708438D1*
X2220337Y699890D1*
X2221028Y691125D1*
X2220337Y682360D1*
X2218285Y673811D1*
X2214921Y665689D1*
X2210327Y658193D1*
X2204618Y651507D1*
X2197932Y645798D1*
X2190264Y641125D1*
X2197932Y636452D1*
X2204618Y630743D1*
X2210327Y624057D1*
X2214921Y616560D1*
X2218285Y608438D1*
X2220337Y599890D1*
X2221028Y591125D1*
X2220337Y582360D1*
X2218285Y573811D1*
X2214921Y565689D1*
X2210327Y558193D1*
X2204618Y551507D1*
X2197932Y545798D1*
X2190436Y541204D1*
X2182314Y537840D1*
X2173765Y535788D1*
X2165000Y535097D1*
X2156235Y535788D1*
X2147686Y537840D1*
X2139564Y541204D1*
X2132068Y545798D1*
X2125382Y551507D1*
X2119673Y558193D1*
X2115079Y565689D1*
X2111715Y573811D1*
X2109663Y582360D1*
X2108972Y591125D1*
X2109663Y599890D1*
X2111715Y608438D1*
X2115079Y616560D1*
X2119673Y624057D1*
X2125382Y630743D1*
X2132068Y636452D1*
X2139736Y641125D1*
X2132068Y645798D1*
X2125382Y651507D1*
X2119673Y658193D1*
X2115079Y665689D1*
X2111715Y673811D1*
X2109663Y682360D1*
X2108972Y691125D1*
X2109663Y699890D1*
X2111715Y708438D1*
X2115079Y716560D1*
X2119673Y724057D1*
X2125382Y730743D1*
X2132068Y736452D1*
X2139736Y741125D1*
X2132068Y745798D1*
X2125382Y751507D1*
X2119673Y758193D1*
X2115079Y765689D1*
X2111715Y773811D1*
X2109663Y782360D1*
X2108972Y791125D1*
X2109663Y799890D1*
X2111715Y808438D1*
X2115079Y816560D1*
X2119673Y824057D1*
X2125382Y830743D1*
X2132068Y836452D1*
X2139736Y841125D1*
X2132068Y845798D1*
X2125382Y851507D1*
X2119673Y858193D1*
X2115079Y865689D1*
X2111715Y873811D1*
X2109663Y882360D1*
X2108972Y891125D1*
X2109663Y899890D1*
X2111715Y908438D1*
X2115079Y916560D1*
X2119673Y924057D1*
X2125382Y930743D1*
X2132068Y936452D1*
X2139736Y941125D1*
X2132068Y945798D1*
X2125382Y951507D1*
X2119673Y958193D1*
X2115079Y965689D1*
X2111715Y973811D1*
X2109663Y982360D1*
X2108972Y991125D1*
X2109663Y999890D1*
X2111715Y1008438D1*
X2115079Y1016560D1*
X2119673Y1024057D1*
X2125382Y1030743D1*
X2132068Y1036452D1*
X2139736Y1041125D1*
X2132068Y1045798D1*
X2125382Y1051507D1*
X2119673Y1058193D1*
X2115079Y1065689D1*
X2111715Y1073811D1*
X2109663Y1082360D1*
X2108972Y1091125D1*
X2109663Y1099890D1*
X2111715Y1108438D1*
X2115079Y1116560D1*
X2119673Y1124057D1*
X2125382Y1130743D1*
X2132068Y1136452D1*
X2139564Y1141046D1*
X2147686Y1144410D1*
X2156235Y1146462D1*
X2165000Y1147152D1*
X2173765Y1146462D1*
X2182314Y1144410D1*
X2190436Y1141046D1*
X2197932Y1136452D1*
X2204618Y1130743D1*
X2210327Y1124057D1*
X2214921Y1116560D1*
X2218285Y1108438D1*
X2220337Y1099890D1*
X2221028Y1091125D1*
X2220854Y1086728D1*
X2339854Y1695728D2*
X2338479Y1687046D1*
X2335762Y1678684D1*
X2331772Y1670851D1*
X2326604Y1663738D1*
X2320387Y1657521D1*
X2313274Y1652353D1*
X2305441Y1648362D1*
X2297079Y1645646D1*
X2288396Y1644270D1*
X2279604D1*
X2270921Y1645646D1*
X2262559Y1648362D1*
X2254726Y1652353D1*
X2247613Y1657521D1*
X2241396Y1663738D1*
X2236228Y1670851D1*
X2232238Y1678684D1*
X2229521Y1687046D1*
X2228146Y1695728D1*
Y1704521D1*
X2229521Y1713204D1*
X2232238Y1721566D1*
X2236228Y1729399D1*
X2241396Y1736512D1*
X2247613Y1742728D1*
X2254726Y1747896D1*
X2258564Y1750204D1*
X2251068Y1754798D1*
X2244382Y1760507D1*
X2238673Y1767193D1*
X2234079Y1774689D1*
X2230715Y1782811D1*
X2228663Y1791360D1*
X2227972Y1800125D1*
X2228663Y1808890D1*
X2230715Y1817438D1*
X2234079Y1825560D1*
X2238673Y1833057D1*
X2244382Y1839743D1*
X2251068Y1845452D1*
X2258736Y1850125D1*
X2251068Y1854798D1*
X2244382Y1860507D1*
X2238673Y1867193D1*
X2234079Y1874689D1*
X2230715Y1882811D1*
X2228663Y1891360D1*
X2227972Y1900125D1*
X2228663Y1908890D1*
X2230715Y1917438D1*
X2234079Y1925560D1*
X2238673Y1933057D1*
X2244382Y1939743D1*
X2251068Y1945452D1*
X2258736Y1950125D1*
X2251068Y1954798D1*
X2244382Y1960507D1*
X2238673Y1967193D1*
X2234079Y1974689D1*
X2230715Y1982811D1*
X2228663Y1991360D1*
X2227972Y2000125D1*
X2228663Y2008890D1*
X2230715Y2017438D1*
X2234079Y2025560D1*
X2238673Y2033057D1*
X2244382Y2039743D1*
X2251068Y2045452D1*
X2258736Y2050125D1*
X2251068Y2054798D1*
X2244382Y2060507D1*
X2238673Y2067193D1*
X2234079Y2074689D1*
X2230715Y2082811D1*
X2228663Y2091360D1*
X2227972Y2100125D1*
X2228663Y2108890D1*
X2230715Y2117438D1*
X2234079Y2125560D1*
X2238673Y2133057D1*
X2244382Y2139743D1*
X2251068Y2145452D1*
X2258564Y2150046D1*
X2266686Y2153410D1*
X2275235Y2155462D1*
X2284000Y2156152D1*
X2292765Y2155462D1*
X2301314Y2153410D1*
X2309436Y2150046D1*
X2316932Y2145452D1*
X2323618Y2139743D1*
X2329327Y2133057D1*
X2333921Y2125560D1*
X2337285Y2117438D1*
X2339337Y2108890D1*
X2340028Y2100125D1*
X2339337Y2091360D1*
X2337285Y2082811D1*
X2333921Y2074689D1*
X2329327Y2067193D1*
X2323618Y2060507D1*
X2316932Y2054798D1*
X2309264Y2050125D1*
X2316932Y2045452D1*
X2323618Y2039743D1*
X2329327Y2033057D1*
X2333921Y2025560D1*
X2337285Y2017438D1*
X2339337Y2008890D1*
X2340028Y2000125D1*
X2339337Y1991360D1*
X2337285Y1982811D1*
X2333921Y1974689D1*
X2329327Y1967193D1*
X2323618Y1960507D1*
X2316932Y1954798D1*
X2309264Y1950125D1*
X2316932Y1945452D1*
X2323618Y1939743D1*
X2329327Y1933057D1*
X2333921Y1925560D1*
X2337285Y1917438D1*
X2339337Y1908890D1*
X2340028Y1900125D1*
X2339337Y1891360D1*
X2337285Y1882811D1*
X2333921Y1874689D1*
X2329327Y1867193D1*
X2323618Y1860507D1*
X2316932Y1854798D1*
X2309264Y1850125D1*
X2316932Y1845452D1*
X2323618Y1839743D1*
X2329327Y1833057D1*
X2333921Y1825560D1*
X2337285Y1817438D1*
X2339337Y1808890D1*
X2340028Y1800125D1*
X2339337Y1791360D1*
X2337285Y1782811D1*
X2333921Y1774689D1*
X2329327Y1767193D1*
X2323618Y1760507D1*
X2316932Y1754798D1*
X2309264Y1750125D1*
X2316932Y1745452D1*
X2323618Y1739743D1*
X2329327Y1733057D1*
X2333921Y1725560D1*
X2337285Y1717438D1*
X2339337Y1708890D1*
X2340028Y1700125D1*
X2339854Y1695728D1*
Y2295728D2*
X2338479Y2287046D1*
X2335762Y2278684D1*
X2331772Y2270851D1*
X2326604Y2263738D1*
X2320387Y2257521D1*
X2313274Y2252353D1*
X2305441Y2248362D1*
X2297079Y2245646D1*
X2288396Y2244270D1*
X2279604D1*
X2270921Y2245646D1*
X2262559Y2248362D1*
X2254726Y2252353D1*
X2247613Y2257521D1*
X2241396Y2263738D1*
X2236228Y2270851D1*
X2232238Y2278684D1*
X2229521Y2287046D1*
X2228146Y2295728D1*
Y2304521D1*
X2229521Y2313204D1*
X2232238Y2321566D1*
X2236228Y2329399D1*
X2241396Y2336512D1*
X2247613Y2342728D1*
X2254726Y2347896D1*
X2262559Y2351887D1*
X2270921Y2354604D1*
X2279604Y2355979D1*
X2288396D1*
X2297079Y2354604D1*
X2305441Y2351887D1*
X2313274Y2347896D1*
X2320387Y2342728D1*
X2326604Y2336512D1*
X2331772Y2329399D1*
X2335762Y2321566D1*
X2338479Y2313204D1*
X2339854Y2304521D1*
Y2295728D1*
X2492283Y2470288D2*
X2491244Y2461505D1*
X2489520Y2452832D1*
X2487118Y2444320D1*
X2484058Y2436022D1*
X2480356Y2427991D1*
X2476034Y2420276D1*
X2471121Y2412921D1*
X2465646Y2405976D1*
X2459642Y2399483D1*
X2453148Y2393479D1*
X2446203Y2388004D1*
X2438849Y2383091D1*
X2431134Y2378769D1*
X2423102Y2375067D1*
X2414804Y2372007D1*
X2406293Y2369605D1*
X2397619Y2367881D1*
X2388837Y2366841D1*
X2380000Y2366494D1*
X2371163Y2366841D1*
X2362381Y2367881D1*
X2353707Y2369605D1*
X2345196Y2372007D1*
X2336898Y2375067D1*
X2328866Y2378769D1*
X2321151Y2383091D1*
X2313797Y2388004D1*
X2306852Y2393479D1*
X2300358Y2399483D1*
X2294354Y2405976D1*
X2288879Y2412921D1*
X2283966Y2420276D1*
X2279644Y2427991D1*
X2275942Y2436022D1*
X2272882Y2444320D1*
X2270480Y2452832D1*
X2268756Y2461505D1*
X2267717Y2470288D1*
X2267369Y2479125D1*
X2267717Y2487962D1*
X2268756Y2496744D1*
X2270480Y2505417D1*
X2272882Y2513929D1*
X2275942Y2522227D1*
X2279644Y2530259D1*
X2283966Y2537974D1*
X2288879Y2545328D1*
X2294354Y2552273D1*
X2300358Y2558767D1*
X2306852Y2564770D1*
X2313797Y2570246D1*
X2321151Y2575159D1*
X2328866Y2579480D1*
X2336898Y2583183D1*
X2345196Y2586243D1*
X2353707Y2588644D1*
X2362381Y2590369D1*
X2371163Y2591408D1*
X2380000Y2591756D1*
X2388837Y2591408D1*
X2397619Y2590369D1*
X2406293Y2588644D1*
X2414804Y2586243D1*
X2423102Y2583183D1*
X2431134Y2579480D1*
X2438849Y2575159D1*
X2446203Y2570246D1*
X2453148Y2564770D1*
X2459642Y2558767D1*
X2465646Y2552273D1*
X2471121Y2545328D1*
X2476034Y2537974D1*
X2480356Y2530259D1*
X2484058Y2522227D1*
X2487118Y2513929D1*
X2489520Y2505417D1*
X2491244Y2496744D1*
X2492283Y2487962D1*
X2492631Y2479125D1*
X2492283Y2470288D1*
D17*
X466000Y1324125D3*
X566000D3*
X666000D3*
X766000D3*
X866000D3*
X966000D3*
X1066000D3*
X1166000D3*
X1266000D3*
X1366000D3*
X1466000D3*
X1566000D3*
X466000Y1924125D3*
X566000D3*
X666000D3*
X766000D3*
X866000D3*
X966000D3*
X1066000D3*
X1166000D3*
X1266000D3*
X1366000D3*
X1466000D3*
X1566000D3*
X466000Y2038125D3*
X566000D3*
X666000D3*
X766000D3*
X866000D3*
X966000D3*
X1066000D3*
X1166000D3*
X1266000D3*
X1366000D3*
X1466000D3*
X1566000D3*
X466000Y2638125D3*
X566000D3*
X666000D3*
X766000D3*
X866000D3*
X966000D3*
X1066000D3*
X1166000D3*
X1266000D3*
X1366000D3*
X1466000D3*
X1566000D3*
X1165000Y991125D3*
Y891125D3*
Y791125D3*
Y691125D3*
X2165000Y1091125D3*
Y991125D3*
Y891125D3*
Y791125D3*
Y691125D3*
Y591125D3*
D18*
X2284000Y1600125D3*
D19*
Y1700125D3*
Y1800125D3*
Y1900125D3*
Y2000125D3*
Y2100125D3*
Y2200125D3*
Y2300125D3*
X1784000D3*
Y2200125D3*
Y2100125D3*
Y2000125D3*
Y1900125D3*
Y1800125D3*
Y1700125D3*
Y1600125D3*
D18*
X2404000Y532125D3*
D19*
Y632125D3*
Y732125D3*
Y832125D3*
D18*
X2521000Y616125D3*
D19*
Y516125D3*
D18*
X2518000Y1081125D3*
D19*
Y981125D3*
X2418000Y1081125D3*
Y981125D3*
D20*
X2053000Y2497125D3*
D21*
X2153000D3*
D17*
X680000Y588125D3*
Y808125D3*
X602000Y647125D3*
Y737125D3*
X775000Y608125D3*
Y788125D3*
D22*
X696000Y513125D3*
Y883125D3*
M02*
