M48
INCH
T01C0.0191
T02C0.022
T03C0.028
T04C0.0354
T05C0.0394
T06C0.0433
T07C0.0512
T08C0.0709
T09C0.0787
T10C0.165
%
T04
X+007952Y+040310
X+010152Y+040310
X+008542Y+041090
X+009442Y+041090
X+008152Y+039360
X+009952Y+039360
T03
X+007202Y+040150
X+010902Y+040150
T09
X+021612Y+015300
X+018443Y+014513
X+020648Y+014513
X+016967Y+015300
T05
X+018492Y+010320
T07
X+018719Y+013190
T05
X+018665Y+011608
T08
X+021462Y+011431
T04
X+005832Y+027090
X+021832Y+027090
X+005833Y+034090
X+021833Y+034090
X+021792Y+024540
X+020792Y+024540
X+019792Y+024540
X+018792Y+024540
X+017792Y+024540
X+016792Y+024540
X+015792Y+024540
X+014792Y+024540
X+013792Y+024540
X+012792Y+024540
X+011792Y+024540
X+010792Y+024540
X+009792Y+024540
X+009792Y+023540
X+021792Y+018540
X+020792Y+018540
X+019792Y+018540
X+018792Y+018540
X+017792Y+018540
X+016792Y+018540
X+015792Y+018540
X+014792Y+018540
X+013792Y+018540
X+012792Y+018540
X+011792Y+018540
X+010792Y+018540
X+009792Y+018540
X+008792Y+018540
X+010792Y+023540
X+011792Y+023540
X+012792Y+023540
X+013792Y+023540
X+008792Y+024540
X+019582Y+040820
X+018582Y+040820
X+017582Y+040820
X+016582Y+040820
X+015582Y+040820
X+014582Y+040820
X+013582Y+040820
X+012582Y+040820
X+012582Y+035820
X+013582Y+035820
X+014582Y+035820
X+015582Y+035820
X+016582Y+035820
X+017582Y+035820
X+018582Y+035820
X+019582Y+035820
X+007002Y+036330
X+007002Y+035330
X+006002Y+036330
X+006002Y+035330
X+018882Y+006540
X+016682Y+006540
X+018292Y+005760
X+017392Y+005760
X+018682Y+007490
X+016882Y+007490
T03
X+019632Y+006700
X+015932Y+006700
T04
X+013362Y+007230
X+011162Y+007230
X+012772Y+006450
X+011872Y+006450
X+013162Y+008180
X+011362Y+008180
T03
X+014112Y+007390
X+010412Y+007390
T04
X+007842Y+007950
X+005642Y+007950
X+007252Y+007170
X+006352Y+007170
X+007642Y+008900
X+005842Y+008900
T03
X+008592Y+008110
X+004892Y+008110
T04
X+008152Y+013900
X+009152Y+013900
X+009671Y+005572
X+008681Y+005711
T06
X+014122Y+015570
X+013122Y+015570
X+012122Y+015570
T04
X+011442Y+012380
X+007466Y+012380
T02
X+007732Y+011400
X+010732Y+011400
T10
X+006792Y+021600
X+015432Y+010350
X+009672Y+036150
T01
X+015012Y+013500
X+017892Y+007950
X+015012Y+012990
X+012492Y+039900
X+014452Y+038670
X+011112Y+038060
X+012792Y+034630
X+015052Y+034190
X+020482Y+032560
X+011012Y+034380
X+008002Y+032620
X+007422Y+023160
X+018752Y+033030
X+021042Y+034880
X+005762Y+017890
X+006872Y+016810
X+016822Y+012930
X+017102Y+008950
X+021912Y+019460
X+021832Y+017780
X+009022Y+019630
X+010892Y+019750
X+014402Y+019720
X+014682Y+022580
X+019202Y+022080
X+016902Y+021930
T00
M30
