M48
INCH
T01C0.0191
T02C0.022
T03C0.028
T04C0.0354
T05C0.0394
T06C0.0433
T07C0.0512
T08C0.0709
T09C0.0787
T10C0.165
%
T04
X+007952Y+040030
X+010152Y+040030
X+008542Y+040810
X+009442Y+040810
X+008152Y+039080
X+009952Y+039080
T03
X+007202Y+039870
X+010902Y+039870
T09
X+021612Y+015220
X+018443Y+014433
X+020648Y+014433
X+016967Y+015220
T05
X+018492Y+010290
T07
X+018719Y+013159
T05
X+018665Y+011578
T08
X+021462Y+011400
T04
X+005832Y+027060
X+021832Y+027059
X+005833Y+034060
X+021833Y+034059
X+021792Y+024510
X+020792Y+024510
X+019792Y+024510
X+018792Y+024510
X+017792Y+024510
X+016792Y+024510
X+015792Y+024510
X+014792Y+024510
X+013792Y+024510
X+012792Y+024510
X+011792Y+024510
X+010792Y+024510
X+009792Y+024510
X+009792Y+023510
X+021792Y+018510
X+020792Y+018510
X+019792Y+018510
X+018792Y+018510
X+017792Y+018510
X+016792Y+018510
X+015792Y+018510
X+014792Y+018510
X+013792Y+018510
X+012792Y+018510
X+011792Y+018510
X+010792Y+018510
X+009792Y+018510
X+008792Y+018510
X+010792Y+023510
X+011792Y+023510
X+012792Y+023510
X+013792Y+023510
X+008792Y+024510
X+009792Y+019510
X+010792Y+019510
X+011792Y+019510
X+012792Y+019510
X+013792Y+019510
X+019582Y+040790
X+018582Y+040790
X+017582Y+040790
X+016582Y+040790
X+015582Y+040790
X+014582Y+040790
X+013582Y+040790
X+012582Y+040790
X+012582Y+035790
X+013582Y+035790
X+014582Y+035790
X+015582Y+035790
X+016582Y+035790
X+017582Y+035790
X+018582Y+035790
X+019582Y+035790
X+007002Y+036300
X+007002Y+035300
X+006002Y+036300
X+006002Y+035300
X+018882Y+006510
X+016682Y+006510
X+018292Y+005730
X+017392Y+005730
X+018682Y+007460
X+016882Y+007460
T03
X+019632Y+006670
X+015932Y+006670
T04
X+013362Y+007200
X+011162Y+007200
X+012772Y+006420
X+011872Y+006420
X+013162Y+008150
X+011362Y+008150
T03
X+014112Y+007360
X+010412Y+007360
T04
X+007842Y+007920
X+005642Y+007920
X+007252Y+007140
X+006352Y+007140
X+007642Y+008870
X+005842Y+008870
T03
X+008592Y+008080
X+004892Y+008080
T04
X+007082Y+013640
X+008082Y+013640
X+009671Y+005541
X+008681Y+005681
T06
X+007762Y+015730
X+008762Y+015730
X+009762Y+015730
T04
X+010812Y+012320
X+006836Y+012320
T02
X+007542Y+011150
X+010542Y+011150
T04
X+012432Y+013380
X+013432Y+013380
T02
X+011592Y+012160
X+014592Y+012160
T04
X+007172Y+025530
X+007172Y+024530
X+006102Y+025530
X+006102Y+024530
X+014002Y+015760
X+013215Y+015760
X+012428Y+015760
X+012428Y+014973
X+013215Y+014973
X+014002Y+014973
T10
X+006792Y+021570
X+015432Y+010320
X+009672Y+036120
T01
X+012432Y+012605
X+016232Y+008728
X+011782Y+036368
X+012582Y+039311
X+008342Y+009755
X+014024Y+041280
X+017283Y+019395
X+019762Y+010947
X+016998Y+008333
X+019367Y+012461
X+011642Y+010663
X+014792Y+023020
X+009442Y+039589
X+015542Y+011712
X+012677Y+025395
X+011283Y+025395
X+011283Y+021005
X+009283Y+017625
X+017787Y+009750
X+010152Y+040680
X+007122Y+019655
X+006333Y+019655
X+013662Y+026110
X+008937Y+040030
X+013677Y+020135
X+013677Y+021400
X+009022Y+014390
X+008642Y+023067
X+010792Y+021619
X+009283Y+021619
X+018838Y+015274
X+020792Y+034970
X+013572Y+039950
X+011612Y+039740
X+021852Y+033150
X+006432Y+032100
X+007642Y+033670
X+010812Y+013510
X+010242Y+015220
X+015732Y+019170
T00
M30
