M48
INCH
T01C0.0191
T02C0.028
T03C0.0354
T04C0.0394
T05C0.167
%
T03
X+004660Y+013241
X+005660Y+013241
X+006660Y+013241
X+007660Y+013241
X+008660Y+013241
X+009660Y+013241
X+010660Y+013241
X+011660Y+013241
X+012660Y+013241
X+013660Y+013241
X+014660Y+013241
X+015660Y+013241
X+004660Y+019241
X+005660Y+019241
X+006660Y+019241
X+007660Y+019241
X+008660Y+019241
X+009660Y+019241
X+010660Y+019241
X+011660Y+019241
X+012660Y+019241
X+013660Y+019241
X+014660Y+019241
X+015660Y+019241
X+004660Y+020381
X+005660Y+020381
X+006660Y+020381
X+007660Y+020381
X+008660Y+020381
X+009660Y+020381
X+010660Y+020381
X+011660Y+020381
X+012660Y+020381
X+013660Y+020381
X+014660Y+020381
X+015660Y+020381
X+004660Y+026381
X+005660Y+026381
X+006660Y+026381
X+007660Y+026381
X+008660Y+026381
X+009660Y+026381
X+010660Y+026381
X+011660Y+026381
X+012660Y+026381
X+013660Y+026381
X+014660Y+026381
X+015660Y+026381
X+011650Y+009911
X+011650Y+008911
X+011650Y+007911
X+011650Y+006911
X+021650Y+010911
X+021650Y+009911
X+021650Y+008911
X+021650Y+007911
X+021650Y+006911
X+021650Y+005911
X+022840Y+016001
X+022840Y+017001
X+022840Y+018001
X+022840Y+019001
X+022840Y+020001
X+022840Y+021001
X+022840Y+022001
X+022840Y+023001
X+017840Y+023001
X+017840Y+022001
X+017840Y+021001
X+017840Y+020001
X+017840Y+019001
X+017840Y+018001
X+017840Y+017001
X+017840Y+016001
X+024040Y+005321
X+024040Y+006321
X+024040Y+007321
X+024040Y+008321
X+025210Y+006161
X+025210Y+005161
X+025180Y+010811
X+025180Y+009811
X+024180Y+010811
X+024180Y+009811
T04
X+020530Y+024971
X+021530Y+024971
T03
X+006800Y+005881
X+006800Y+008081
X+006020Y+006471
X+006020Y+007371
X+007750Y+006081
X+007750Y+007881
T02
X+006960Y+005131
X+006960Y+008831
T01
X+007240Y+024461
X+007240Y+023111
X+008980Y+024551
X+008950Y+023681
X+009430Y+012011
X+010810Y+010991
X+007510Y+012341
X+006940Y+012011
X+018670Y+006431
X+018970Y+007241
X+020620Y+017921
X+020500Y+016361
X+020530Y+019841
T05
X+023800Y+024791
X+018670Y+014141
T01
X+010360Y+008021
X+022750Y+011111
X+022480Y+010391
X+012130Y+023021
X+013390Y+022961
X+015370Y+016151
X+013900Y+016811
X+014650Y+015131
X+012790Y+015551
X+009640Y+016661
X+007150Y+016871
X+009550Y+015311
X+007300Y+015251
T00
M30
