M48
INCH
T01C0.0191
T02C0.028
T03C0.0354
T04C0.0394
T05C0.0512
T06C0.0709
T07C0.0787
T08C0.165
%
T03
X+007949Y+040302
X+010149Y+040302
X+008539Y+041082
X+009439Y+041082
X+008149Y+039352
X+009949Y+039352
T02
X+007199Y+040142
X+010899Y+040142
T07
X+021609Y+015322
X+018440Y+014534
X+020645Y+014534
X+016964Y+015322
T04
X+018489Y+010312
T05
X+018716Y+013181
T04
X+018663Y+011599
T06
X+021459Y+011422
T01
X+007599Y+025582
T03
X+012459Y+042532
X+012459Y+026532
X+019459Y+042531
X+019459Y+026531
X+021789Y+024472
X+020789Y+024472
X+019789Y+024472
X+018789Y+024472
X+017789Y+024472
X+016789Y+024472
X+015789Y+024472
X+014789Y+024472
X+013789Y+024472
X+012789Y+024472
X+011789Y+024472
X+010789Y+024472
X+009789Y+024472
X+009789Y+023472
X+021789Y+018472
X+020789Y+018472
X+019789Y+018472
X+018789Y+018472
X+017789Y+018472
X+016789Y+018472
X+015789Y+018472
X+014789Y+018472
X+013789Y+018472
X+012789Y+018472
X+011789Y+018472
X+010789Y+018472
X+009789Y+018472
X+008789Y+018472
X+010789Y+023472
X+011789Y+023472
X+012789Y+023472
X+013789Y+023472
X+008789Y+024472
X+008949Y+011422
X+009949Y+011422
X+010949Y+011422
X+011949Y+011422
X+012949Y+011422
X+013949Y+011422
X+014949Y+011422
X+015949Y+011422
X+015949Y+016422
X+014949Y+016422
X+013949Y+016422
X+012949Y+016422
X+011949Y+016422
X+010949Y+016422
X+009949Y+016422
X+008949Y+016422
X+007809Y+014422
X+007809Y+013422
X+006809Y+014422
X+006809Y+013422
X+018879Y+006532
X+016679Y+006532
X+018289Y+005752
X+017389Y+005752
X+018679Y+007482
X+016879Y+007482
T02
X+019629Y+006692
X+015929Y+006692
T03
X+013359Y+007222
X+011159Y+007222
X+012769Y+006442
X+011869Y+006442
X+013159Y+008172
X+011359Y+008172
T02
X+014109Y+007382
X+010409Y+007382
T03
X+007839Y+007942
X+005639Y+007942
X+007249Y+007162
X+006349Y+007162
X+007639Y+008892
X+005839Y+008892
T02
X+008589Y+008102
X+004889Y+008102
T03
X+006969Y+034102
X+007969Y+034102
X+008969Y+034102
X+009969Y+034102
X+009969Y+035102
X+008969Y+035102
X+007969Y+035102
X+006969Y+035102
T08
X+007209Y+021592
X+015339Y+009682
X+010689Y+036682
T01
X+015009Y+013492
X+017889Y+007942
X+015009Y+012982
X+021939Y+019132
X+021339Y+017392
X+021099Y+025882
X+016779Y+026152
X+018639Y+012502
X+020109Y+012652
X+016869Y+027052
X+015069Y+026362
X+019869Y+025642
X+008799Y+020992
X+007059Y+018952
X+007449Y+017032
X+007269Y+026122
X+006489Y+023752
X+007899Y+010312
X+009219Y+009202
X+013929Y+040792
X+013659Y+038092
T00
M30
