G04 DipTrace 3.2.0.1*
G04 Top.gbr*
%MOIN*%
G04 #@! TF.FileFunction,Copper,L1,Top*
G04 #@! TF.Part,Single*
G04 #@! TA.AperFunction,Conductor*
%ADD13C,0.012992*%
%ADD14C,0.02*%
G04 #@! TA.AperFunction,CopperBalancing*
%ADD15C,0.025*%
G04 #@! TA.AperFunction,ComponentPad*
%ADD18C,0.059055*%
%ADD19R,0.052X0.079*%
%ADD20C,0.102362*%
%ADD21C,0.086614*%
%ADD22C,0.090551*%
%ADD23R,0.059055X0.059055*%
%ADD24C,0.059055*%
G04 #@! TA.AperFunction,ViaPad*
%ADD25C,0.04*%
%FSLAX26Y26*%
G04*
G70*
G90*
G75*
G01*
G04 Top*
%LPD*%
X994947Y3935166D2*
D14*
Y3923166D1*
X1098947D1*
X1137947Y3962166D1*
Y3989166D1*
X1209947Y4061166D1*
Y4127166D1*
X1353947Y4271166D1*
X1860947D1*
X1974947Y4157166D1*
Y2672166D1*
X1955919Y2653137D1*
X1945884D1*
X1935947D1*
Y2546166D1*
X1983947Y2498166D1*
X2100947D1*
X2127947Y2471166D1*
Y1898166D1*
X2178947Y1847166D1*
X1945884Y2653137D2*
X1939976D1*
X759947Y2558166D2*
X1850913D1*
X1945884Y2653137D1*
X1135947Y817166D2*
X1128947Y824166D1*
X994947D1*
X936947D1*
X909947Y797166D1*
Y761166D1*
X786947Y638166D1*
X564947D1*
X441947Y761166D1*
Y854166D1*
X474947Y887166D1*
X581947D1*
D13*
X583947Y889166D1*
X1135947Y817166D2*
D14*
Y812166D1*
X1011947D1*
X990947Y791166D1*
Y692166D1*
X1119947Y563166D1*
X1329947D1*
X1512947Y746166D1*
X1685947D1*
D13*
X1687947Y748166D1*
X994947Y824166D2*
Y1142166D1*
X1278947Y1847166D2*
Y1859166D1*
X1224947Y1913166D1*
X876947D1*
X822947Y1859166D1*
Y1685166D1*
X865947Y1642166D1*
X894947D1*
X1178947Y1847166D2*
Y1860166D1*
X1146947Y1892166D1*
X960947D1*
X930947Y1862166D1*
Y1691166D1*
X979947Y1642166D1*
X994947D1*
X1294947D2*
X1239947Y1697166D1*
X989947D1*
X978947Y1708166D1*
Y1847166D1*
X1378947D2*
Y1658166D1*
X1394947Y1642166D1*
X2078947Y2447166D2*
X2027963Y2396182D1*
Y1507182D1*
X1998947Y1478166D1*
Y1424166D1*
X2130947Y1292166D1*
Y1232166D1*
X2072447Y1173666D1*
Y1125666D1*
X2124947Y1073166D1*
Y983166D1*
X2094947Y953166D1*
X1905947D1*
X1884947Y932166D1*
Y869166D1*
X2004947Y749166D1*
Y614166D1*
X1905947Y515166D1*
X1773947D1*
X1738947Y550166D1*
Y575166D1*
X1667947Y675166D2*
Y653166D1*
X1788947Y794166D2*
Y944166D1*
X1779947Y953166D1*
Y1778166D1*
X1827947Y1826166D1*
Y1868166D1*
X1854947Y1895166D1*
X1887947D1*
X1905947Y1913166D1*
Y2432166D1*
X1869947D1*
Y2441166D1*
X1875947Y2447166D1*
X1878947D1*
X1500947Y1298166D2*
X1545947Y1253166D1*
Y1115166D1*
X1527947Y1097166D1*
X1410947D1*
X1179947Y866166D1*
Y764166D1*
X1137947Y722166D1*
X1115947D1*
X1335947D2*
X1266932Y791182D1*
Y860151D1*
X1281947Y875166D1*
X1378073D1*
X1404983Y848257D1*
X1653436D1*
X1679420Y874241D1*
Y1281721D1*
X1543963Y1417178D1*
Y1683182D1*
X1527963Y1699182D1*
Y1889182D1*
X1542947Y1904166D1*
X1621947D1*
X1678947Y1847166D1*
X1778947D2*
X1776947D1*
X1665947Y1958166D1*
X891947D1*
X624947Y1691166D1*
Y1208166D1*
X663947Y1169166D1*
Y881166D1*
X750947Y794166D1*
X783947D1*
X1078947Y1847166D2*
Y1816166D1*
X1134947Y1760166D1*
X1293947D1*
X1341947Y1712166D1*
Y1607166D1*
X1359947Y1589166D1*
X1458947D1*
X1491947Y1622166D1*
Y1639166D1*
X1494947Y1642166D1*
X1887947Y653166D2*
Y674166D1*
X1791947D1*
X1755947Y710166D1*
Y1424166D1*
X1725947Y1454166D1*
X1656947D1*
X1629947Y1481166D1*
Y1580166D1*
X1674947Y1625166D1*
Y1751166D1*
X1578947Y1847166D1*
X1278947Y2447166D2*
X1227963Y2396182D1*
Y2049975D1*
X1160155Y1982166D1*
X873947D1*
X603947Y1712166D1*
Y1181166D1*
X632963Y1152151D1*
Y863182D1*
X563947Y794166D1*
X680947Y1342166D2*
Y1272166D1*
X747947Y1205166D1*
X1031947D1*
X1094947Y1142166D1*
X696947Y3410166D2*
X669947D1*
Y2564166D1*
X711947Y2522166D1*
X1002947D1*
X1032947Y2492166D1*
Y2399166D1*
X1078947Y2353166D1*
Y2347166D1*
X996947Y3510166D2*
Y3518166D1*
X924947Y3590166D1*
X675947D1*
X615947Y3530166D1*
Y2498166D1*
X777947Y2336166D1*
X967947D1*
X978947Y2347166D1*
X1500947Y1349166D2*
X1512947D1*
X1647947Y1214166D1*
Y1115166D1*
X1608947Y1076166D1*
X1422947D1*
X1206947Y860166D1*
Y644166D1*
X1186947D1*
X680947Y1442166D2*
X705947D1*
X729947Y1418166D1*
Y1298166D1*
X795947Y1232166D1*
X1104947D1*
X1194947Y1142166D1*
X1294947D2*
X1284947Y1152166D1*
Y1202166D1*
X1224947Y1262166D1*
X843947D1*
X780947Y1325166D1*
Y1342166D1*
Y1442166D2*
X786947D1*
X831947Y1397166D1*
Y1343166D1*
X876947Y1298166D1*
X1238947D1*
X1394947Y1142166D1*
X696947Y3510166D2*
X682947D1*
X642947Y3470166D1*
Y2558166D1*
X798947Y2402166D1*
X993947D1*
X1032947Y2363166D1*
Y2312166D1*
X1050947Y2294166D1*
X1101947D1*
X1127963Y2320182D1*
Y2494725D1*
X1153947Y2520710D1*
X1901979D1*
X1927963Y2494725D1*
Y1891151D1*
X1971947Y1847166D1*
X1978947D1*
D25*
X759947Y2558166D3*
X1500947Y1349166D3*
X1788947Y794166D3*
X1500947Y1298166D3*
X2193947Y1913166D3*
X2133947Y1739166D3*
X2109947Y2588166D3*
X1677947Y2615166D3*
X1863947Y1250166D3*
X2010947Y1265166D3*
X1686947Y2705166D3*
X1506947Y2636166D3*
X1986947Y2564166D3*
X879947Y2099166D3*
X705947Y1895166D3*
X744947Y1703166D3*
X726947Y2612166D3*
X648947Y2375166D3*
X789947Y1031166D3*
X921947Y920166D3*
X1392947Y4079166D3*
X1365947Y3809166D3*
X858734Y4244798D2*
D15*
X959951D1*
X1218150D2*
X1273471D1*
X794537Y4219929D2*
X1023968D1*
X1217468D2*
X1248603D1*
X1356842D2*
X1858061D1*
X758151Y4195060D2*
X1059960D1*
X1331975D2*
X1882928D1*
X732601Y4170191D2*
X1086335D1*
X1307107D2*
X1907796D1*
X713726Y4145323D2*
X899522D1*
X988383D2*
X1175794D1*
X1282239D2*
X1932664D1*
X699480Y4120454D2*
X886783D1*
X1001122D2*
X1170950D1*
X1257371D2*
X1935965D1*
X688822Y4095585D2*
X886855D1*
X1001051D2*
X1170950D1*
X1248939D2*
X1935965D1*
X681143Y4070716D2*
X753796D1*
X836127D2*
X899773D1*
X1056097D2*
X1165388D1*
X1248939D2*
X1935965D1*
X676083Y4045847D2*
X738653D1*
X851234D2*
X958659D1*
X1071240D2*
X1140520D1*
X1245565D2*
X1935965D1*
X673894Y4020979D2*
X737182D1*
X852705D2*
X957188D1*
X1072711D2*
X1115653D1*
X1223891D2*
X1935965D1*
X674720Y3996110D2*
X747947D1*
X841940D2*
X967953D1*
X1061946D2*
X1099612D1*
X1199024D2*
X1935965D1*
X677878Y3971241D2*
X949581D1*
X1040308D2*
X1092902D1*
X1176955D2*
X1935965D1*
X682686Y3946372D2*
X937559D1*
X1173366D2*
X1935965D1*
X679313Y3921504D2*
X938098D1*
X1151405D2*
X1935965D1*
X673141Y3896635D2*
X951769D1*
X1126502D2*
X1935965D1*
X667005Y3871766D2*
X1935965D1*
X660833Y3846897D2*
X1935965D1*
X654696Y3822029D2*
X1935965D1*
X648524Y3797160D2*
X1935965D1*
X642388Y3772291D2*
X1023502D1*
X1114373D2*
X1935965D1*
X636216Y3747422D2*
X986434D1*
X1151477D2*
X1935965D1*
X630080Y3722554D2*
X967810D1*
X1170065D2*
X1935965D1*
X623944Y3697685D2*
X957762D1*
X1180149D2*
X1935965D1*
X617772Y3672816D2*
X953923D1*
X1183988D2*
X1935965D1*
X611635Y3647947D2*
X955645D1*
X1182266D2*
X1935965D1*
X610954Y3623078D2*
X671083D1*
X929785D2*
X963252D1*
X1174658D2*
X1935965D1*
X610954Y3598210D2*
X634840D1*
X1159730D2*
X1935965D1*
X990931Y3573341D2*
X1005668D1*
X1132207D2*
X1935965D1*
X1040344Y3548472D2*
X1935965D1*
X1053836Y3523603D2*
X1935965D1*
X1054303Y3498735D2*
X1935965D1*
X1042138Y3473866D2*
X1935965D1*
X939832Y3448997D2*
X1935965D1*
X953719Y3424128D2*
X1935965D1*
X954401Y3399260D2*
X1935965D1*
X942559Y3374391D2*
X1935965D1*
X705437Y3349522D2*
X1935965D1*
X705437Y3324653D2*
X1935965D1*
X705437Y3299784D2*
X1935965D1*
X705437Y3274916D2*
X1935965D1*
X705437Y3250047D2*
X1935965D1*
X705437Y3225178D2*
X1935965D1*
X705437Y3200309D2*
X1935965D1*
X705437Y3175441D2*
X1935965D1*
X705437Y3150572D2*
X1935965D1*
X705437Y3125703D2*
X1935965D1*
X705437Y3100834D2*
X1935965D1*
X705437Y3075966D2*
X1935965D1*
X705437Y3051097D2*
X1935965D1*
X705437Y3026228D2*
X1935965D1*
X705437Y3001359D2*
X1935965D1*
X705437Y2976491D2*
X1935965D1*
X705437Y2951622D2*
X1935965D1*
X705437Y2926753D2*
X1935965D1*
X705437Y2901884D2*
X1935965D1*
X705437Y2877015D2*
X1935965D1*
X705437Y2852147D2*
X1935965D1*
X705437Y2827278D2*
X1935965D1*
X705437Y2802409D2*
X1935965D1*
X705437Y2777540D2*
X1935965D1*
X705437Y2752672D2*
X1935965D1*
X705437Y2727803D2*
X1935965D1*
X705437Y2702934D2*
X1917700D1*
X705437Y2678065D2*
X1893191D1*
X2013954D2*
X2047457D1*
X705437Y2653197D2*
X1887342D1*
X2008643D2*
X2087181D1*
X705437Y2628328D2*
X1866960D1*
X1998631D2*
X2160241D1*
X705437Y2603459D2*
X746907D1*
X772971D2*
X1842092D1*
X1974947D2*
X2195946D1*
X1974947Y2578590D2*
X2195946D1*
X1982519Y2553721D2*
X2195946D1*
X2123221Y2528853D2*
X2195946D1*
X2149237Y2503984D2*
X2195946D1*
X2166067Y2479115D2*
X2195946D1*
X2166964Y2454246D2*
X2195946D1*
X610954Y2429378D2*
X635558D1*
X2166964D2*
X2195946D1*
X610954Y2404509D2*
X660426D1*
X2166964D2*
X2195946D1*
X610954Y2379640D2*
X685294D1*
X2166964D2*
X2195946D1*
X610954Y2354771D2*
X710161D1*
X2166964D2*
X2195946D1*
X610954Y2329903D2*
X735065D1*
X2166964D2*
X2195946D1*
X610954Y2305034D2*
X764526D1*
X2166964D2*
X2195946D1*
X610954Y2280165D2*
X1015787D1*
X1137123D2*
X1192481D1*
X2166964D2*
X2195946D1*
X610954Y2255296D2*
X659744D1*
X782157D2*
X1192481D1*
X2166964D2*
X2195946D1*
X610954Y2230428D2*
X631216D1*
X810685D2*
X1192481D1*
X2166964D2*
X2195946D1*
X826079Y2205559D2*
X1192481D1*
X2166964D2*
X2195946D1*
X834010Y2180690D2*
X1192481D1*
X2166964D2*
X2195946D1*
X836019Y2155821D2*
X1192481D1*
X2166964D2*
X2195946D1*
X832503Y2130952D2*
X1192481D1*
X2166964D2*
X2195946D1*
X822778Y2106084D2*
X1192481D1*
X2166964D2*
X2195946D1*
X610954Y2081215D2*
X637137D1*
X804728D2*
X1192481D1*
X2166964D2*
X2195946D1*
X610954Y2056346D2*
X672483D1*
X769418D2*
X1185160D1*
X2166964D2*
X2195946D1*
X610954Y2031477D2*
X1160293D1*
X2166964D2*
X2195946D1*
X610954Y2006609D2*
X849284D1*
X2166964D2*
X2195946D1*
X610954Y1981740D2*
X824345D1*
X2166964D2*
X2195946D1*
X610954Y1956871D2*
X799477D1*
X2166964D2*
X2195946D1*
X610954Y1932002D2*
X774609D1*
X2166964D2*
X2195946D1*
X610954Y1907134D2*
X749742D1*
X2173100D2*
X2195946D1*
X610954Y1882265D2*
X724874D1*
X610954Y1857396D2*
X700006D1*
X610954Y1832527D2*
X675138D1*
X610954Y1807659D2*
X650271D1*
X1921157D2*
X1936719D1*
X2121175D2*
X2136737D1*
X610954Y1782790D2*
X625403D1*
X765722D2*
X787456D1*
X1833743D2*
X1992483D1*
X2063474D2*
X2195946D1*
X740854Y1757921D2*
X787456D1*
X1815442D2*
X1992483D1*
X2063474D2*
X2195946D1*
X715987Y1733052D2*
X787456D1*
X1815442D2*
X1992483D1*
X2063474D2*
X2195946D1*
X691119Y1708183D2*
X787456D1*
X1815442D2*
X1992483D1*
X2063474D2*
X2195946D1*
X666251Y1683315D2*
X787492D1*
X1815442D2*
X1992483D1*
X2063474D2*
X2195946D1*
X660438Y1658446D2*
X800518D1*
X1815442D2*
X1992483D1*
X2063474D2*
X2195946D1*
X660438Y1633577D2*
X825385D1*
X1815442D2*
X1992483D1*
X2063474D2*
X2195946D1*
X660438Y1608708D2*
X847490D1*
X1815442D2*
X1992483D1*
X2063474D2*
X2195946D1*
X660438Y1583840D2*
X1316102D1*
X1579468D2*
X1594671D1*
X1815442D2*
X1992483D1*
X2063474D2*
X2195946D1*
X660438Y1558971D2*
X1344127D1*
X1474758D2*
X1508477D1*
X1579468D2*
X1594455D1*
X1815442D2*
X1992483D1*
X2063474D2*
X2195946D1*
X660438Y1534102D2*
X1508477D1*
X1579468D2*
X1594455D1*
X1815442D2*
X1992483D1*
X2063474D2*
X2195946D1*
X660438Y1509233D2*
X1508477D1*
X1579468D2*
X1594455D1*
X1900559D2*
X1980856D1*
X2063474D2*
X2195946D1*
X839464Y1484365D2*
X1508477D1*
X1579468D2*
X1594455D1*
X1917784D2*
X1964027D1*
X2054287D2*
X2195946D1*
X839464Y1459496D2*
X1508477D1*
X1579468D2*
X1602565D1*
X1923956D2*
X1963452D1*
X2034443D2*
X2195946D1*
X843663Y1434627D2*
X1508477D1*
X1579468D2*
X1627325D1*
X1921875D2*
X1963452D1*
X2037637D2*
X2195946D1*
X864942Y1409758D2*
X1509302D1*
X1600532D2*
X1720445D1*
X1910751D2*
X1966754D1*
X2062505D2*
X2195946D1*
X867454Y1384889D2*
X1468681D1*
X1625400D2*
X1720445D1*
X1883084D2*
X1989074D1*
X2087373D2*
X2195946D1*
X867454Y1360021D2*
X1453215D1*
X1650267D2*
X1720445D1*
X1815442D2*
X2013941D1*
X2112240D2*
X2195946D1*
X889128Y1335152D2*
X1454112D1*
X1675171D2*
X1720445D1*
X1815442D2*
X2038809D1*
X2137108D2*
X2195946D1*
X1275995Y1310283D2*
X1453538D1*
X1700039D2*
X1720445D1*
X1815442D2*
X2063677D1*
X2161043D2*
X2193219D1*
X1300863Y1285414D2*
X1453717D1*
X1815442D2*
X2088545D1*
X2166461D2*
X2189882D1*
X1325731Y1260546D2*
X1471121D1*
X1815442D2*
X2095434D1*
X2166461D2*
X2186580D1*
X1350598Y1235677D2*
X1510450D1*
X1815442D2*
X2085279D1*
X2166461D2*
X2183243D1*
X671454Y1210808D2*
X693152D1*
X1375466D2*
X1510450D1*
X1916564D2*
X2060411D1*
X2158603D2*
X2179942D1*
X694851Y1185939D2*
X718020D1*
X1432414D2*
X1510450D1*
X1933537D2*
X2039312D1*
X699444Y1161071D2*
X939712D1*
X1450177D2*
X1510450D1*
X1938561D2*
X2036943D1*
X699444Y1136202D2*
X936734D1*
X1453155D2*
X1510450D1*
X1934398D2*
X2036943D1*
X699444Y1111333D2*
X945669D1*
X1918860D2*
X2040245D1*
X699444Y1086464D2*
X959449D1*
X1894064D2*
X2062493D1*
X699444Y1061596D2*
X959449D1*
X1914267D2*
X2087360D1*
X699444Y1036727D2*
X959449D1*
X1921049D2*
X2089442D1*
X699444Y1011858D2*
X959449D1*
X1918537D2*
X2089442D1*
X699444Y986989D2*
X959449D1*
X1905511D2*
X2079609D1*
X699444Y962120D2*
X959449D1*
X1819138D2*
X1836171D1*
X699444Y937252D2*
X732697D1*
X795219D2*
X959449D1*
X1824449D2*
X1849843D1*
X817431Y912383D2*
X959449D1*
X1824449D2*
X1849448D1*
X822455Y887514D2*
X959449D1*
X1824449D2*
X1849448D1*
X815816Y862645D2*
X959449D1*
X1824449D2*
X1850094D1*
X480945Y837777D2*
X526291D1*
X821630D2*
X896436D1*
X1692108D2*
X1720445D1*
X1824449D2*
X1867175D1*
X480945Y812908D2*
X508636D1*
X631838D2*
X683033D1*
X839249D2*
X874511D1*
X1374318D2*
X1720445D1*
X1833994D2*
X1892043D1*
X480945Y788039D2*
X505765D1*
X622149D2*
X707901D1*
X842155D2*
X870958D1*
X1366316D2*
X1646093D1*
X494079Y763170D2*
X514772D1*
X667938D2*
X734778D1*
X833113D2*
X857825D1*
X1029937D2*
X1075283D1*
X1376614D2*
X1475822D1*
X1924422D2*
X1941778D1*
X518947Y738302D2*
X557187D1*
X688930D2*
X777193D1*
X790708D2*
X832957D1*
X1029937D2*
X1059781D1*
X1242444D2*
X1270636D1*
X1392116D2*
X1450954D1*
X1925607D2*
X1966646D1*
X543814Y713433D2*
X576493D1*
X693415D2*
X808089D1*
X1029937D2*
X1058094D1*
X1242444D2*
X1278100D1*
X1393803D2*
X1426087D1*
X1914411D2*
X1969445D1*
X568682Y688564D2*
X583705D1*
X686203D2*
X783221D1*
X1048669D2*
X1068608D1*
X1242444D2*
X1288614D1*
X1383289D2*
X1401219D1*
X1509458D2*
X1622014D1*
X1713890D2*
X1728519D1*
X1933860D2*
X1969445D1*
X1073537Y663695D2*
X1131944D1*
X1242444D2*
X1376351D1*
X1533680D2*
X1610424D1*
X1725481D2*
X1753243D1*
X1945486D2*
X1969445D1*
X1098404Y638826D2*
X1128679D1*
X1245207D2*
X1351483D1*
X1543440D2*
X1611285D1*
X1724619D2*
X1831291D1*
X1944625D2*
X1969445D1*
X1123272Y613958D2*
X1137255D1*
X1236630D2*
X1326616D1*
X1548823D2*
X1625423D1*
X1781890D2*
X1845429D1*
X1930487D2*
X1955558D1*
X1556645Y589089D2*
X1682192D1*
X1795706D2*
X1930690D1*
X1567447Y564220D2*
X1681510D1*
X1796388D2*
X1905822D1*
X1581836Y539351D2*
X1693352D1*
X1600927Y514483D2*
X1725468D1*
X1626763Y489614D2*
X1750587D1*
X1663580Y464745D2*
X1887306D1*
X1730971Y439876D2*
X1819700D1*
X850802Y4025770D2*
X849427Y4017087D1*
X846710Y4008726D1*
X842719Y4000892D1*
X837551Y3993779D1*
X831334Y3987563D1*
X824222Y3982395D1*
X816388Y3978404D1*
X808027Y3975687D1*
X799343Y3974312D1*
X790552D1*
X781868Y3975687D1*
X773507Y3978404D1*
X765673Y3982395D1*
X758560Y3987563D1*
X752344Y3993779D1*
X747176Y4000892D1*
X743185Y4008726D1*
X740468Y4017087D1*
X739093Y4025770D1*
Y4034562D1*
X740468Y4043246D1*
X743185Y4051607D1*
X747176Y4059441D1*
X752344Y4066553D1*
X758560Y4072770D1*
X765673Y4077938D1*
X773507Y4081929D1*
X781868Y4084646D1*
X790552Y4086021D1*
X799343D1*
X808027Y4084646D1*
X816388Y4081929D1*
X824222Y4077938D1*
X831334Y4072770D1*
X837551Y4066553D1*
X842719Y4059441D1*
X846710Y4051607D1*
X849427Y4043246D1*
X850802Y4034562D1*
Y4025770D1*
X1070802D2*
X1069427Y4017087D1*
X1066710Y4008726D1*
X1062719Y4000892D1*
X1057551Y3993779D1*
X1051334Y3987563D1*
X1044222Y3982395D1*
X1036388Y3978404D1*
X1032309Y3976899D1*
X1037551Y3971553D1*
X1042719Y3964441D1*
X1045293Y3959682D1*
X1083833Y3959666D1*
X1101430Y3977268D1*
X1101560Y3992030D1*
X1102456Y3997687D1*
X1104226Y4003134D1*
X1106826Y4008238D1*
X1110193Y4012871D1*
X1144617Y4047454D1*
X1173467Y4076305D1*
X1173560Y4130030D1*
X1174456Y4135687D1*
X1176226Y4141134D1*
X1178826Y4146238D1*
X1182193Y4150871D1*
X1216617Y4185454D1*
X1300833Y4269671D1*
X1216317Y4269666D1*
X1214223Y4199088D1*
X1211206Y4186305D1*
X1208635Y4182027D1*
X1202500Y4173452D1*
X1198509Y4170455D1*
X1189598Y4164818D1*
X1184772Y4163544D1*
X1174392Y4161674D1*
X1100874Y4161819D1*
X1098046Y4162616D1*
X1095482Y4164052D1*
X1059886Y4197477D1*
X1032746Y4216695D1*
X1003169Y4231955D1*
X971753Y4242940D1*
X939112Y4249436D1*
X905884Y4251316D1*
X872719Y4248543D1*
X840264Y4241172D1*
X809155Y4229346D1*
X779999Y4213296D1*
X753366Y4193337D1*
X729778Y4169859D1*
X709695Y4143320D1*
X693510Y4114239D1*
X681539Y4083186D1*
X674016Y4050766D1*
X671088Y4017613D1*
X672813Y3984377D1*
X681105Y3940876D1*
X680860Y3937944D1*
X608444Y3645216D1*
X608447Y3569352D1*
X654518Y3615257D1*
X658707Y3618300D1*
X663320Y3620651D1*
X668245Y3622251D1*
X673359Y3623061D1*
X740252Y3623162D1*
X927536Y3623061D1*
X932650Y3622251D1*
X937574Y3620651D1*
X942188Y3618300D1*
X946377Y3615257D1*
X993749Y3568028D1*
X995602Y3566176D1*
X1001343Y3566021D1*
X1010027Y3564646D1*
X1018388Y3561929D1*
X1026222Y3557938D1*
X1033334Y3552770D1*
X1039551Y3546553D1*
X1044719Y3539441D1*
X1048710Y3531607D1*
X1051427Y3523246D1*
X1052802Y3514562D1*
Y3505770D1*
X1051427Y3497087D1*
X1048710Y3488726D1*
X1044719Y3480892D1*
X1039551Y3473779D1*
X1033334Y3467563D1*
X1026222Y3462395D1*
X1018388Y3458404D1*
X1010027Y3455687D1*
X1001343Y3454312D1*
X992552D1*
X983868Y3455687D1*
X975507Y3458404D1*
X967673Y3462395D1*
X960560Y3467563D1*
X954344Y3473779D1*
X949176Y3480892D1*
X946868Y3484730D1*
X942275Y3477234D1*
X936565Y3470549D1*
X929880Y3464839D1*
X922212Y3460166D1*
X929880Y3455494D1*
X936565Y3449784D1*
X942275Y3443099D1*
X946868Y3435602D1*
X950233Y3427480D1*
X952285Y3418931D1*
X952975Y3410166D1*
X952285Y3401402D1*
X950233Y3392853D1*
X946868Y3384730D1*
X942275Y3377234D1*
X936565Y3370549D1*
X929880Y3364839D1*
X922383Y3360245D1*
X914261Y3356881D1*
X905712Y3354829D1*
X896947Y3354139D1*
X888183Y3354829D1*
X879634Y3356881D1*
X871511Y3360245D1*
X864015Y3364839D1*
X857330Y3370549D1*
X851620Y3377234D1*
X846947Y3384902D1*
X842275Y3377234D1*
X836565Y3370549D1*
X829880Y3364839D1*
X822383Y3360245D1*
X814261Y3356881D1*
X805712Y3354829D1*
X796947Y3354139D1*
X788183Y3354829D1*
X779634Y3356881D1*
X771511Y3360245D1*
X764015Y3364839D1*
X757330Y3370549D1*
X751620Y3377234D1*
X746947Y3384902D1*
X742275Y3377234D1*
X736565Y3370549D1*
X729880Y3364839D1*
X722383Y3360245D1*
X714261Y3356881D1*
X705712Y3354829D1*
X702930Y3354499D1*
X702943Y2577833D1*
X714213Y2566565D1*
X715723Y2572536D1*
X718516Y2579277D1*
X722328Y2585498D1*
X727067Y2591047D1*
X732615Y2595786D1*
X738837Y2599598D1*
X745578Y2602390D1*
X752673Y2604094D1*
X759947Y2604666D1*
X767222Y2604094D1*
X774317Y2602390D1*
X781058Y2599598D1*
X787279Y2595786D1*
X788702Y2594664D1*
X1835791Y2594666D1*
X1890036Y2648908D1*
X1890030Y2657533D1*
X1891405Y2666217D1*
X1894122Y2674578D1*
X1898113Y2682412D1*
X1903281Y2689524D1*
X1909497Y2695741D1*
X1916610Y2700909D1*
X1924444Y2704900D1*
X1932805Y2707617D1*
X1938434Y2708631D1*
X1938447Y4142019D1*
X1845841Y4234654D1*
X1369083Y4234666D1*
X1246467Y4112068D1*
X1246335Y4058303D1*
X1245439Y4052646D1*
X1243669Y4047198D1*
X1241069Y4042095D1*
X1237702Y4037461D1*
X1203278Y4002878D1*
X1174428Y3974028D1*
X1174335Y3959303D1*
X1173439Y3953646D1*
X1171669Y3948198D1*
X1169069Y3943095D1*
X1165702Y3938461D1*
X1131278Y3903878D1*
X1122652Y3895412D1*
X1118019Y3892045D1*
X1112915Y3889445D1*
X1107468Y3887675D1*
X1101811Y3886779D1*
X1053016Y3886666D1*
X1022981D1*
X1016388Y3883404D1*
X1008027Y3880687D1*
X999343Y3879312D1*
X990552D1*
X981868Y3880687D1*
X973507Y3883404D1*
X965673Y3887395D1*
X958560Y3892563D1*
X952344Y3898779D1*
X947176Y3905892D1*
X943185Y3913726D1*
X940468Y3922087D1*
X939093Y3930770D1*
Y3939562D1*
X940468Y3948246D1*
X943185Y3956607D1*
X947176Y3964441D1*
X952344Y3971553D1*
X958560Y3977770D1*
X965673Y3982938D1*
X973507Y3986929D1*
X977586Y3988434D1*
X972344Y3993779D1*
X967176Y4000892D1*
X963185Y4008726D1*
X960468Y4017087D1*
X959093Y4025770D1*
Y4034562D1*
X960468Y4043246D1*
X963185Y4051607D1*
X965388Y4056404D1*
X957027Y4053687D1*
X948343Y4052312D1*
X939552D1*
X930868Y4053687D1*
X922507Y4056404D1*
X914673Y4060395D1*
X907560Y4065563D1*
X901344Y4071779D1*
X896176Y4078892D1*
X892185Y4086726D1*
X889468Y4095087D1*
X888093Y4103770D1*
Y4112562D1*
X889468Y4121246D1*
X892185Y4129607D1*
X896176Y4137441D1*
X901344Y4144553D1*
X907560Y4150770D1*
X914673Y4155938D1*
X922507Y4159929D1*
X930868Y4162646D1*
X939552Y4164021D1*
X948343D1*
X957027Y4162646D1*
X965388Y4159929D1*
X973222Y4155938D1*
X980334Y4150770D1*
X986551Y4144553D1*
X991719Y4137441D1*
X995710Y4129607D1*
X998427Y4121246D1*
X999802Y4112562D1*
Y4103770D1*
X998427Y4095087D1*
X995710Y4086726D1*
X993507Y4081929D1*
X1001868Y4084646D1*
X1010552Y4086021D1*
X1019343D1*
X1028027Y4084646D1*
X1036388Y4081929D1*
X1044222Y4077938D1*
X1051334Y4072770D1*
X1057551Y4066553D1*
X1062719Y4059441D1*
X1066710Y4051607D1*
X1069427Y4043246D1*
X1070802Y4034562D1*
Y4025770D1*
X1921460Y1447331D2*
X1920743Y1441274D1*
X1919553Y1435292D1*
X1917897Y1429421D1*
X1915786Y1423699D1*
X1913233Y1418160D1*
X1910252Y1412838D1*
X1906864Y1407766D1*
X1903087Y1402976D1*
X1898947Y1398497D1*
X1894468Y1394357D1*
X1889678Y1390581D1*
X1884607Y1387192D1*
X1879285Y1384212D1*
X1873746Y1381658D1*
X1868023Y1379547D1*
X1862153Y1377891D1*
X1856170Y1376701D1*
X1850113Y1375985D1*
X1844018Y1375745D1*
X1837923Y1375985D1*
X1831866Y1376701D1*
X1825884Y1377891D1*
X1820013Y1379547D1*
X1812928Y1382287D1*
X1812944Y1204988D1*
X1816891Y1209291D1*
X1825220Y1216405D1*
X1834560Y1222129D1*
X1844680Y1226321D1*
X1855332Y1228878D1*
X1866252Y1229737D1*
X1877172Y1228878D1*
X1887823Y1226321D1*
X1897944Y1222129D1*
X1907283Y1216405D1*
X1915613Y1209291D1*
X1922727Y1200962D1*
X1928450Y1191622D1*
X1932642Y1181502D1*
X1935200Y1170850D1*
X1936059Y1159930D1*
X1935200Y1149010D1*
X1932642Y1138359D1*
X1928450Y1128238D1*
X1922727Y1118899D1*
X1915613Y1110569D1*
X1907283Y1103455D1*
X1897944Y1097732D1*
X1887823Y1093540D1*
X1882898Y1092151D1*
X1889979Y1087641D1*
X1898308Y1080527D1*
X1905423Y1072198D1*
X1911146Y1062858D1*
X1915338Y1052738D1*
X1917895Y1042087D1*
X1918754Y1031166D1*
X1917895Y1020246D1*
X1915338Y1009595D1*
X1911146Y999475D1*
X1905423Y990135D1*
X1902122Y985948D1*
X1915134Y986163D1*
X2081313D1*
X2091940Y996823D1*
X2091951Y1059492D1*
X2047357Y1104237D1*
X2044314Y1108426D1*
X2041963Y1113039D1*
X2040363Y1117964D1*
X2039553Y1123078D1*
X2039451Y1173666D1*
X2039857Y1178828D1*
X2041066Y1183863D1*
X2043048Y1188646D1*
X2045753Y1193061D1*
X2049123Y1197005D1*
X2097960Y1245843D1*
X2097951Y1278493D1*
X1973857Y1402737D1*
X1970814Y1406926D1*
X1968463Y1411539D1*
X1966863Y1416464D1*
X1966053Y1421578D1*
X1965951Y1478166D1*
X1966358Y1483328D1*
X1967566Y1488363D1*
X1969548Y1493146D1*
X1972253Y1497561D1*
X1975623Y1501505D1*
X1994976Y1520858D1*
X1994967Y1793502D1*
X1987712Y1791829D1*
X1978947Y1791139D1*
X1970183Y1791829D1*
X1961634Y1793881D1*
X1953511Y1797245D1*
X1946015Y1801839D1*
X1939330Y1807549D1*
X1933620Y1814234D1*
X1928947Y1821902D1*
X1924275Y1814234D1*
X1918565Y1807549D1*
X1911880Y1801839D1*
X1904383Y1797245D1*
X1896261Y1793881D1*
X1887712Y1791829D1*
X1878947Y1791139D1*
X1870183Y1791829D1*
X1861634Y1793881D1*
X1853511Y1797245D1*
X1848573Y1800130D1*
X1812939Y1764495D1*
X1812944Y1524645D1*
X1820013Y1527305D1*
X1825884Y1528961D1*
X1831866Y1530151D1*
X1837923Y1530868D1*
X1844018Y1531107D1*
X1850113Y1530868D1*
X1856170Y1530151D1*
X1862153Y1528961D1*
X1868023Y1527305D1*
X1873746Y1525194D1*
X1879285Y1522641D1*
X1884607Y1519660D1*
X1889678Y1516272D1*
X1894468Y1512495D1*
X1898947Y1508355D1*
X1903087Y1503876D1*
X1906864Y1499086D1*
X1910252Y1494014D1*
X1913233Y1488693D1*
X1915786Y1483153D1*
X1917897Y1477431D1*
X1919553Y1471560D1*
X1920743Y1465578D1*
X1921460Y1459521D1*
X1921699Y1453426D1*
X1921460Y1447331D1*
X1871102Y964991D2*
X1865244Y963288D1*
X1854424Y961574D1*
X1843470D1*
X1832651Y963288D1*
X1822233Y966673D1*
X1812940Y971384D1*
X1812944Y966789D1*
X1815642Y963561D1*
X1818347Y959146D1*
X1820329Y954363D1*
X1821537Y949328D1*
X1821943Y944156D1*
Y826933D1*
X1826567Y821498D1*
X1830379Y815277D1*
X1833172Y808536D1*
X1834875Y801441D1*
X1835432Y793782D1*
X1842511Y798087D1*
X1850634Y801452D1*
X1859183Y803504D1*
X1867947Y804194D1*
X1876712Y803504D1*
X1885261Y801452D1*
X1893383Y798087D1*
X1900880Y793494D1*
X1907565Y787784D1*
X1913275Y781099D1*
X1917868Y773602D1*
X1921233Y765480D1*
X1923285Y756931D1*
X1923975Y748166D1*
X1923285Y739402D1*
X1921233Y730853D1*
X1917868Y722730D1*
X1913275Y715234D1*
X1907565Y708549D1*
X1905281Y706438D1*
X1913383Y703087D1*
X1920880Y698494D1*
X1927565Y692784D1*
X1933275Y686099D1*
X1937868Y678602D1*
X1941233Y670480D1*
X1943285Y661931D1*
X1943975Y653166D1*
X1943285Y644402D1*
X1941233Y635853D1*
X1937868Y627730D1*
X1933275Y620234D1*
X1927565Y613549D1*
X1920880Y607839D1*
X1913383Y603245D1*
X1905261Y599881D1*
X1896712Y597829D1*
X1887947Y597139D1*
X1879183Y597829D1*
X1870634Y599881D1*
X1862511Y603245D1*
X1855015Y607839D1*
X1848330Y613549D1*
X1842620Y620234D1*
X1838026Y627730D1*
X1834662Y635853D1*
X1833250Y641183D1*
X1789359Y641272D1*
X1784245Y642082D1*
X1779320Y643682D1*
X1774707Y646032D1*
X1770518Y649076D1*
X1732616Y686835D1*
X1729253Y690772D1*
X1726548Y695186D1*
X1724566Y699970D1*
X1723861Y702473D1*
X1720880Y702839D1*
X1713383Y698245D1*
X1705309Y694899D1*
X1710551Y689553D1*
X1715719Y682441D1*
X1719710Y674607D1*
X1722427Y666246D1*
X1723802Y657562D1*
Y648770D1*
X1722427Y640087D1*
X1719710Y631726D1*
X1717507Y626929D1*
X1725868Y629646D1*
X1734552Y631021D1*
X1743343D1*
X1752027Y629646D1*
X1760388Y626929D1*
X1768222Y622938D1*
X1775334Y617770D1*
X1781551Y611553D1*
X1786719Y604441D1*
X1790710Y596607D1*
X1793427Y588246D1*
X1794802Y579562D1*
Y570770D1*
X1793427Y562087D1*
X1790710Y553726D1*
X1787987Y548156D1*
X1892258Y548162D1*
X1971957Y627840D1*
X1971951Y735491D1*
X1859857Y847737D1*
X1856814Y851926D1*
X1854463Y856539D1*
X1852863Y861464D1*
X1852053Y866578D1*
X1851951Y932166D1*
X1852357Y937328D1*
X1853566Y942363D1*
X1855548Y947146D1*
X1858253Y951561D1*
X1861623Y955505D1*
X1871080Y964963D1*
X2154755Y1209333D2*
X2161726Y1208087D1*
X2171837Y1204802D1*
X2181001Y1200148D1*
X2198447Y1330852D1*
Y1794617D1*
X2192027Y1792687D1*
X2183343Y1791312D1*
X2174552D1*
X2165868Y1792687D1*
X2157507Y1795404D1*
X2149673Y1799395D1*
X2142560Y1804563D1*
X2136344Y1810779D1*
X2131176Y1817892D1*
X2128868Y1821730D1*
X2124275Y1814234D1*
X2118565Y1807549D1*
X2111880Y1801839D1*
X2104383Y1797245D1*
X2096261Y1793881D1*
X2087712Y1791829D1*
X2078947Y1791139D1*
X2070183Y1791829D1*
X2061634Y1793881D1*
X2060973Y1794125D1*
X2060858Y1504593D1*
X2060048Y1499479D1*
X2058448Y1494555D1*
X2056097Y1489942D1*
X2053054Y1485753D1*
X2031935Y1464490D1*
X2031944Y1437868D1*
X2156038Y1313596D1*
X2159081Y1309407D1*
X2161432Y1304793D1*
X2163032Y1299869D1*
X2163842Y1294755D1*
X2163944Y1232166D1*
X2163537Y1227005D1*
X2162329Y1221970D1*
X2160347Y1217186D1*
X2157642Y1212772D1*
X2156031Y1210730D1*
X2001555Y2647189D2*
X2000364Y2640058D1*
X1997647Y2631697D1*
X1993656Y2623863D1*
X1988488Y2616750D1*
X1982271Y2610534D1*
X1975159Y2605366D1*
X1972445Y2603846D1*
X1972448Y2561310D1*
X1999082Y2534651D1*
X2103811Y2534554D1*
X2109468Y2533658D1*
X2114915Y2531888D1*
X2120019Y2529288D1*
X2124652Y2525921D1*
X2153757Y2496976D1*
X2157477Y2492621D1*
X2160469Y2487737D1*
X2162661Y2482446D1*
X2163998Y2476876D1*
X2164448Y2471166D1*
Y1913275D1*
X2174690Y1903042D1*
X2183343Y1903021D1*
X2192027Y1901646D1*
X2198437Y1899649D1*
X2198447Y2616149D1*
X2079048Y2656980D1*
X2047835Y2679626D1*
X2011474Y2706197D1*
X2011335Y2669303D1*
X2010439Y2663646D1*
X2008669Y2658198D1*
X2006069Y2653095D1*
X2002695Y2648453D1*
X1003681Y2296922D2*
X996261Y2293881D1*
X987712Y2291829D1*
X978947Y2291139D1*
X970183Y2291829D1*
X961634Y2293881D1*
X953511Y2297245D1*
X946015Y2301839D1*
X944328Y2303169D1*
X775359Y2303272D1*
X770245Y2304082D1*
X765320Y2305682D1*
X760707Y2308032D1*
X756518Y2311076D1*
X709145Y2358305D1*
X608436Y2459014D1*
X608448Y2164629D1*
X609703Y2176786D1*
X611428Y2185460D1*
X613829Y2193971D1*
X616890Y2202268D1*
X620592Y2210300D1*
X624913Y2218016D1*
X629827Y2225369D1*
X635302Y2232314D1*
X641305Y2238809D1*
X647799Y2244812D1*
X654744Y2250287D1*
X662098Y2255200D1*
X669814Y2259522D1*
X677845Y2263224D1*
X686142Y2266285D1*
X694654Y2268686D1*
X703328Y2270411D1*
X712110Y2271450D1*
X720947Y2271798D1*
X729784Y2271450D1*
X738567Y2270411D1*
X747241Y2268686D1*
X755752Y2266285D1*
X764050Y2263224D1*
X772081Y2259522D1*
X779797Y2255200D1*
X787150Y2250287D1*
X794096Y2244812D1*
X800590Y2238809D1*
X806593Y2232314D1*
X812068Y2225369D1*
X816981Y2218016D1*
X821303Y2210300D1*
X825005Y2202268D1*
X828066Y2193971D1*
X830467Y2185460D1*
X832192Y2176786D1*
X833231Y2168003D1*
X833579Y2159166D1*
X833231Y2150329D1*
X832192Y2141547D1*
X830467Y2132873D1*
X828066Y2124361D1*
X825005Y2116064D1*
X821303Y2108033D1*
X816981Y2100317D1*
X812068Y2092963D1*
X806593Y2086018D1*
X800590Y2079524D1*
X794096Y2073521D1*
X787150Y2068046D1*
X779797Y2063132D1*
X772081Y2058811D1*
X764050Y2055109D1*
X755752Y2052048D1*
X747241Y2049647D1*
X738567Y2047922D1*
X729784Y2046882D1*
X720947Y2046535D1*
X712110Y2046882D1*
X703328Y2047922D1*
X694654Y2049647D1*
X686142Y2052048D1*
X677845Y2055109D1*
X669814Y2058811D1*
X662098Y2063132D1*
X654744Y2068046D1*
X647799Y2073521D1*
X641305Y2079524D1*
X635302Y2086018D1*
X629827Y2092963D1*
X624913Y2100317D1*
X620592Y2108033D1*
X616890Y2116064D1*
X613829Y2124361D1*
X611428Y2132873D1*
X609703Y2141547D1*
X608663Y2150329D1*
X608448Y2155818D1*
Y1763301D1*
X852518Y2007257D1*
X856707Y2010300D1*
X861320Y2012651D1*
X866245Y2014251D1*
X871359Y2015061D1*
X938252Y2015162D1*
X1146488D1*
X1194955Y2063630D1*
X1194967Y2293449D1*
X1187712Y2291829D1*
X1178947Y2291139D1*
X1170183Y2291829D1*
X1161634Y2293881D1*
X1153511Y2297245D1*
X1152327Y2297909D1*
X1123377Y2269076D1*
X1119188Y2266033D1*
X1114574Y2263682D1*
X1109650Y2262082D1*
X1104536Y2261272D1*
X1050947Y2261170D1*
X1045786Y2261576D1*
X1040751Y2262785D1*
X1035967Y2264767D1*
X1031553Y2267472D1*
X1027609Y2270842D1*
X1007857Y2290737D1*
X1004809Y2294935D1*
X961948Y1096892D2*
X955330Y1102549D1*
X949620Y1109234D1*
X945026Y1116730D1*
X941662Y1124853D1*
X939610Y1133402D1*
X938920Y1142166D1*
X939610Y1150931D1*
X941662Y1159480D1*
X945026Y1167602D1*
X947663Y1172169D1*
X745359Y1172272D1*
X740245Y1173082D1*
X735320Y1174682D1*
X730707Y1177032D1*
X726518Y1180076D1*
X679145Y1227305D1*
X657943Y1248507D1*
Y1221837D1*
X689038Y1190596D1*
X692081Y1186407D1*
X694432Y1181793D1*
X696032Y1176869D1*
X696842Y1171755D1*
X696943Y1104862D1*
Y894832D1*
X708213Y883565D1*
X707920Y889166D1*
X708610Y897931D1*
X710662Y906480D1*
X714026Y914602D1*
X718620Y922099D1*
X724330Y928784D1*
X731015Y934494D1*
X738511Y939087D1*
X746634Y942452D1*
X755183Y944504D1*
X763947Y945194D1*
X772712Y944504D1*
X781261Y942452D1*
X789383Y939087D1*
X796880Y934494D1*
X803565Y928784D1*
X809275Y922099D1*
X813868Y914602D1*
X817233Y906480D1*
X819285Y897931D1*
X819975Y889166D1*
X819285Y880402D1*
X817233Y871853D1*
X813868Y863730D1*
X809275Y856234D1*
X803565Y849549D1*
X801281Y847438D1*
X809383Y844087D1*
X816880Y839494D1*
X823565Y833784D1*
X829275Y827099D1*
X833868Y819602D1*
X837233Y811480D1*
X839285Y802931D1*
X839975Y794166D1*
X839285Y785402D1*
X837233Y776853D1*
X833868Y768730D1*
X829275Y761234D1*
X823565Y754549D1*
X816880Y748839D1*
X809383Y744245D1*
X801261Y740881D1*
X792712Y738829D1*
X783947Y738139D1*
X775183Y738829D1*
X766634Y740881D1*
X758511Y744245D1*
X751015Y748839D1*
X744330Y754549D1*
X738620Y761234D1*
X735967Y764767D1*
X731553Y767472D1*
X727609Y770842D1*
X657406Y841044D1*
X619274Y802830D1*
X619975Y794166D1*
X619285Y785402D1*
X617233Y776853D1*
X613868Y768730D1*
X613507Y767929D1*
X621868Y770646D1*
X630552Y772021D1*
X639343D1*
X648027Y770646D1*
X656388Y767929D1*
X664222Y763938D1*
X671334Y758770D1*
X677551Y752553D1*
X682719Y745441D1*
X686710Y737607D1*
X689427Y729246D1*
X690802Y720562D1*
Y711770D1*
X689427Y703087D1*
X686710Y694726D1*
X682719Y686892D1*
X677551Y679779D1*
X672533Y674671D1*
X771820Y674666D1*
X873468Y776306D1*
X873560Y800030D1*
X874456Y805687D1*
X876226Y811134D1*
X878826Y816238D1*
X882193Y820871D1*
X911138Y849976D1*
X915493Y853696D1*
X920377Y856688D1*
X925668Y858880D1*
X931238Y860217D1*
X936959Y860666D1*
X961959D1*
X961951Y1096850D1*
X1450802Y1137770D2*
X1449638Y1130149D1*
X1512966Y1130163D1*
X1512951Y1239505D1*
X1500769Y1251681D1*
X1493673Y1252239D1*
X1486578Y1253942D1*
X1479837Y1256735D1*
X1473615Y1260547D1*
X1468067Y1265286D1*
X1463328Y1270834D1*
X1459516Y1277056D1*
X1456723Y1283797D1*
X1455020Y1290892D1*
X1454447Y1298166D1*
X1455020Y1305441D1*
X1456723Y1312536D1*
X1459516Y1319277D1*
X1462084Y1323637D1*
X1459516Y1328056D1*
X1456723Y1334797D1*
X1455020Y1341892D1*
X1454447Y1349166D1*
X1455020Y1356441D1*
X1456723Y1363536D1*
X1459516Y1370277D1*
X1463328Y1376498D1*
X1468067Y1382047D1*
X1473615Y1386786D1*
X1479837Y1390598D1*
X1486578Y1393390D1*
X1493673Y1395094D1*
X1500947Y1395666D1*
X1508222Y1395094D1*
X1515317Y1393390D1*
X1522058Y1390598D1*
X1526173Y1388304D1*
X1518873Y1395749D1*
X1515829Y1399938D1*
X1513479Y1404551D1*
X1511879Y1409475D1*
X1511069Y1414589D1*
X1510967Y1481483D1*
Y1588453D1*
X1503217Y1586770D1*
X1480377Y1564076D1*
X1476188Y1561032D1*
X1471574Y1558682D1*
X1466650Y1557082D1*
X1461536Y1556272D1*
X1394643Y1556170D1*
X1357359Y1556272D1*
X1352245Y1557082D1*
X1347320Y1558682D1*
X1342707Y1561032D1*
X1338518Y1564076D1*
X1318616Y1583835D1*
X1315247Y1587780D1*
X1312261Y1588881D1*
X1303712Y1586829D1*
X1294947Y1586139D1*
X1286183Y1586829D1*
X1277634Y1588881D1*
X1269511Y1592245D1*
X1262015Y1596839D1*
X1255330Y1602549D1*
X1249620Y1609234D1*
X1244947Y1616902D1*
X1240275Y1609234D1*
X1234565Y1602549D1*
X1227880Y1596839D1*
X1220383Y1592245D1*
X1212261Y1588881D1*
X1203712Y1586829D1*
X1194947Y1586139D1*
X1186183Y1586829D1*
X1177634Y1588881D1*
X1169511Y1592245D1*
X1162015Y1596839D1*
X1155330Y1602549D1*
X1149620Y1609234D1*
X1144947Y1616902D1*
X1140275Y1609234D1*
X1134565Y1602549D1*
X1127880Y1596839D1*
X1120383Y1592245D1*
X1112261Y1588881D1*
X1103712Y1586829D1*
X1094947Y1586139D1*
X1086183Y1586829D1*
X1077634Y1588881D1*
X1069511Y1592245D1*
X1062015Y1596839D1*
X1055330Y1602549D1*
X1049620Y1609234D1*
X1044947Y1616902D1*
X1040275Y1609234D1*
X1034565Y1602549D1*
X1027880Y1596839D1*
X1020383Y1592245D1*
X1012261Y1588881D1*
X1003712Y1586829D1*
X994947Y1586139D1*
X986183Y1586829D1*
X977634Y1588881D1*
X969511Y1592245D1*
X962015Y1596839D1*
X955330Y1602549D1*
X949620Y1609234D1*
X944947Y1616902D1*
X940275Y1609234D1*
X934565Y1602549D1*
X927880Y1596839D1*
X920383Y1592245D1*
X912261Y1588881D1*
X903712Y1586829D1*
X894947Y1586139D1*
X886183Y1586829D1*
X877634Y1588881D1*
X869511Y1592245D1*
X862015Y1596839D1*
X855330Y1602549D1*
X849620Y1609234D1*
X845102Y1616595D1*
X836120Y1625330D1*
X797857Y1663737D1*
X794814Y1667926D1*
X792463Y1672539D1*
X790863Y1677464D1*
X790053Y1682578D1*
X789951Y1749471D1*
Y1809505D1*
X657962Y1677517D1*
X657943Y1493265D1*
X663634Y1495452D1*
X672183Y1497504D1*
X680947Y1498194D1*
X689712Y1497504D1*
X698261Y1495452D1*
X706383Y1492087D1*
X713880Y1487494D1*
X720565Y1481784D1*
X724924Y1476812D1*
X724920Y1498194D1*
X836975D1*
Y1438806D1*
X857038Y1418596D1*
X860081Y1414407D1*
X862432Y1409793D1*
X864032Y1404869D1*
X864842Y1399755D1*
X864944Y1356868D1*
X890625Y1331152D1*
X1241536Y1331061D1*
X1246650Y1330251D1*
X1251575Y1328651D1*
X1256188Y1326300D1*
X1260377Y1323257D1*
X1307749Y1276028D1*
X1386282Y1197496D1*
X1394947Y1198194D1*
X1403712Y1197504D1*
X1412261Y1195452D1*
X1420383Y1192087D1*
X1427880Y1187494D1*
X1434565Y1181784D1*
X1440275Y1175099D1*
X1444868Y1167602D1*
X1448233Y1159480D1*
X1450285Y1150931D1*
X1450975Y1142166D1*
X1450802Y1137770D1*
X1597506Y1586239D2*
X1590552Y1586312D1*
X1581868Y1587687D1*
X1576973Y1589125D1*
X1576959Y1430880D1*
X1704510Y1303151D1*
X1707554Y1298962D1*
X1709904Y1294349D1*
X1711504Y1289424D1*
X1712314Y1284310D1*
X1712416Y1217417D1*
X1712314Y871652D1*
X1711504Y866538D1*
X1709904Y861614D1*
X1707554Y857001D1*
X1704510Y852812D1*
X1676767Y824925D1*
X1672830Y821562D1*
X1668416Y818857D1*
X1663632Y816876D1*
X1658597Y815667D1*
X1653425Y815261D1*
X1402394Y815362D1*
X1397280Y816172D1*
X1392356Y817772D1*
X1387742Y820123D1*
X1383554Y823166D1*
X1367518Y839058D1*
X1370427Y830246D1*
X1371802Y821562D1*
Y812770D1*
X1370427Y804087D1*
X1367710Y795726D1*
X1363719Y787892D1*
X1358551Y780779D1*
X1353281Y775438D1*
X1361383Y772087D1*
X1368880Y767494D1*
X1375565Y761784D1*
X1381275Y755099D1*
X1385868Y747602D1*
X1389233Y739480D1*
X1391285Y730931D1*
X1391975Y722166D1*
X1391285Y713402D1*
X1389233Y704853D1*
X1385868Y696730D1*
X1381275Y689234D1*
X1375565Y682549D1*
X1368880Y676839D1*
X1361383Y672245D1*
X1353261Y668881D1*
X1344712Y666829D1*
X1335947Y666139D1*
X1327183Y666829D1*
X1318634Y668881D1*
X1310511Y672245D1*
X1303015Y676839D1*
X1296330Y682549D1*
X1290620Y689234D1*
X1286026Y696730D1*
X1282662Y704853D1*
X1280610Y713402D1*
X1279920Y722166D1*
X1280600Y730846D1*
X1241841Y769753D1*
X1240232Y771796D1*
X1239943Y759116D1*
Y662337D1*
X1241427Y657246D1*
X1242802Y648562D1*
Y639770D1*
X1241427Y631087D1*
X1238710Y622726D1*
X1234719Y614892D1*
X1229551Y607779D1*
X1223334Y601563D1*
X1220997Y599666D1*
X1314834D1*
X1489243Y773921D1*
X1493876Y777288D1*
X1498979Y779888D1*
X1504427Y781658D1*
X1510084Y782554D1*
X1558879Y782666D1*
X1643817D1*
X1648330Y787784D1*
X1655015Y793494D1*
X1662511Y798087D1*
X1670634Y801452D1*
X1679183Y803504D1*
X1687947Y804194D1*
X1696712Y803504D1*
X1705261Y801452D1*
X1713383Y798087D1*
X1720880Y793494D1*
X1722944Y791866D1*
X1722951Y1410518D1*
X1712291Y1421159D1*
X1654359Y1421272D1*
X1649245Y1422082D1*
X1644320Y1423682D1*
X1639707Y1426033D1*
X1635518Y1429076D1*
X1606616Y1457835D1*
X1603253Y1461772D1*
X1600548Y1466186D1*
X1598566Y1470970D1*
X1597358Y1476005D1*
X1596951Y1481166D1*
X1597053Y1582755D1*
X1597360Y1585338D1*
X1689466Y601440D2*
X1681027Y598687D1*
X1672343Y597312D1*
X1663552D1*
X1654868Y598687D1*
X1646507Y601404D1*
X1638673Y605395D1*
X1631560Y610563D1*
X1625344Y616779D1*
X1620176Y623892D1*
X1616185Y631726D1*
X1613468Y640087D1*
X1612093Y648770D1*
Y657562D1*
X1613468Y666246D1*
X1616185Y674607D1*
X1620176Y682441D1*
X1625344Y689553D1*
X1631560Y695770D1*
X1638673Y700938D1*
X1646507Y704929D1*
X1650586Y706434D1*
X1647292Y709672D1*
X1528093Y709666D1*
X1495494Y677094D1*
X1500649Y675900D1*
X1531577Y663367D1*
X1533907Y661576D1*
X1535754Y659291D1*
X1537017Y656637D1*
X1548250Y604978D1*
X1559940Y573442D1*
X1575992Y543866D1*
X1596076Y516865D1*
X1619787Y492987D1*
X1646645Y472713D1*
X1676108Y456454D1*
X1707579Y444538D1*
X1740422Y437207D1*
X1773972Y434608D1*
X1807552Y436794D1*
X1840483Y443722D1*
X1872098Y455250D1*
X1901757Y471146D1*
X1923188Y487032D1*
X1918575Y484682D1*
X1913650Y483082D1*
X1908536Y482272D1*
X1841643Y482170D1*
X1771359Y482272D1*
X1766245Y483082D1*
X1761320Y484682D1*
X1756707Y487033D1*
X1752518Y490076D1*
X1720040Y522410D1*
X1713511Y525245D1*
X1706015Y529839D1*
X1699330Y535549D1*
X1693620Y542234D1*
X1689026Y549730D1*
X1685662Y557853D1*
X1683610Y566402D1*
X1682920Y575166D1*
X1683610Y583931D1*
X1685662Y592480D1*
X1689026Y600602D1*
X1689505Y601457D1*
X1137466Y670440D2*
X1129027Y667687D1*
X1120343Y666312D1*
X1111552D1*
X1102868Y667687D1*
X1094507Y670404D1*
X1086673Y674395D1*
X1079560Y679563D1*
X1073344Y685779D1*
X1068176Y692892D1*
X1064185Y700726D1*
X1061468Y709087D1*
X1060093Y717770D1*
Y726562D1*
X1061468Y735246D1*
X1064185Y743607D1*
X1068176Y751441D1*
X1073344Y758553D1*
X1079560Y764770D1*
X1086673Y769938D1*
X1094507Y773929D1*
X1098586Y775434D1*
X1071643Y775666D1*
X1027470D1*
X1027448Y707305D1*
X1135076Y599657D1*
X1152925Y599666D1*
X1147330Y604549D1*
X1141620Y611234D1*
X1137026Y618730D1*
X1133662Y626853D1*
X1131610Y635402D1*
X1130920Y644166D1*
X1131610Y652931D1*
X1133662Y661480D1*
X1137026Y669602D1*
X1137505Y670457D1*
X585466Y742440D2*
X577027Y739687D1*
X568343Y738312D1*
X559552D1*
X550868Y739687D1*
X542507Y742404D1*
X534673Y746395D1*
X527560Y751563D1*
X521344Y757779D1*
X516176Y764892D1*
X512185Y772726D1*
X509468Y781087D1*
X508093Y789770D1*
Y798562D1*
X509468Y807246D1*
X512185Y815607D1*
X516176Y823441D1*
X521344Y830553D1*
X527560Y836770D1*
X534673Y841938D1*
X542507Y845929D1*
X546586Y847434D1*
X543292Y850672D1*
X490048Y850666D1*
X478453Y839053D1*
X478447Y776262D1*
X580087Y674645D1*
X597279Y674666D1*
X592344Y679779D1*
X587176Y686892D1*
X583185Y694726D1*
X580468Y703087D1*
X579093Y711770D1*
Y720562D1*
X580468Y729246D1*
X583185Y737607D1*
X585505Y742457D1*
X1181231Y3659329D2*
X1180192Y3650547D1*
X1178467Y3641873D1*
X1176066Y3633361D1*
X1173005Y3625064D1*
X1169303Y3617033D1*
X1164981Y3609317D1*
X1160068Y3601963D1*
X1154593Y3595018D1*
X1148590Y3588524D1*
X1142096Y3582521D1*
X1135150Y3577046D1*
X1127797Y3572132D1*
X1120081Y3567811D1*
X1112050Y3564109D1*
X1103752Y3561048D1*
X1095241Y3558647D1*
X1086567Y3556922D1*
X1077784Y3555882D1*
X1068947Y3555535D1*
X1060110Y3555882D1*
X1051328Y3556922D1*
X1042654Y3558647D1*
X1034142Y3561048D1*
X1025845Y3564109D1*
X1017814Y3567811D1*
X1010098Y3572132D1*
X1002744Y3577046D1*
X995799Y3582521D1*
X989305Y3588524D1*
X983302Y3595018D1*
X977827Y3601963D1*
X972913Y3609317D1*
X968592Y3617033D1*
X964890Y3625064D1*
X961829Y3633361D1*
X959428Y3641873D1*
X957703Y3650547D1*
X956663Y3659329D1*
X956316Y3668166D1*
X956663Y3677003D1*
X957703Y3685786D1*
X959428Y3694460D1*
X961829Y3702971D1*
X964890Y3711268D1*
X968592Y3719300D1*
X972913Y3727016D1*
X977827Y3734369D1*
X983302Y3741314D1*
X989305Y3747809D1*
X995799Y3753812D1*
X1002744Y3759287D1*
X1010098Y3764200D1*
X1017814Y3768522D1*
X1025845Y3772224D1*
X1034142Y3775285D1*
X1042654Y3777686D1*
X1051328Y3779411D1*
X1060110Y3780450D1*
X1068947Y3780798D1*
X1077784Y3780450D1*
X1086567Y3779411D1*
X1095241Y3777686D1*
X1103752Y3775285D1*
X1112050Y3772224D1*
X1120081Y3768522D1*
X1127797Y3764200D1*
X1135150Y3759287D1*
X1142096Y3753812D1*
X1148590Y3747809D1*
X1154593Y3741314D1*
X1160068Y3734369D1*
X1164981Y3727016D1*
X1169303Y3719300D1*
X1173005Y3711268D1*
X1176066Y3702971D1*
X1178467Y3694460D1*
X1180192Y3685786D1*
X1181231Y3677003D1*
X1181579Y3668166D1*
X1181231Y3659329D1*
X1539747Y1374731D2*
X1542379Y1370277D1*
X1545127Y1363656D1*
X1646428Y1262350D1*
X1643097Y1271381D1*
X1539850Y1374628D1*
X1955278Y517834D2*
X1927369Y490070D1*
X1952865Y514674D1*
X1928868Y491094D2*
X1941333Y503342D1*
D18*
X794947Y4030166D3*
X1014947D3*
X853947Y4108166D3*
X943947D3*
X814947Y3935166D3*
X994947D3*
D19*
X719947Y4014166D3*
X1089947D3*
D20*
X2160947Y1532166D3*
X1844018Y1453426D3*
X2064491D3*
X1696380Y1532166D3*
D21*
X1848947Y1031166D3*
D22*
X1871619Y1318105D3*
D21*
X1866252Y1159930D3*
D18*
X1245947Y4253166D3*
X1245884Y2653166D3*
X1945947Y4253137D3*
X1945884Y2653137D3*
X2178947Y2447166D3*
X2078947D3*
X1978947D3*
X1878947D3*
X1778947D3*
X1678947D3*
X1578947D3*
X1478947D3*
X1378947D3*
X1278947D3*
X1178947D3*
X1078947D3*
X978947D3*
Y2347166D3*
X2178947Y1847166D3*
X2078947D3*
X1978947D3*
X1878947D3*
X1778947D3*
X1678947D3*
X1578947D3*
X1478947D3*
X1378947D3*
X1278947D3*
X1178947D3*
X1078947D3*
X978947D3*
X878947D3*
X1078947Y2347166D3*
X1178947D3*
X1278947D3*
X1378947D3*
X878947Y2447166D3*
D23*
X894947Y1142166D3*
D24*
X994947D3*
X1094947D3*
X1194947D3*
X1294947D3*
X1394947D3*
X1494947D3*
X1594947D3*
Y1642166D3*
X1494947D3*
X1394947D3*
X1294947D3*
X1194947D3*
X1094947D3*
X994947D3*
X894947D3*
D23*
X780947Y1442166D3*
D24*
Y1342166D3*
X680947Y1442166D3*
Y1342166D3*
D18*
X1887947Y653166D3*
X1667947D3*
X1828947Y575166D3*
X1738947D3*
X1867947Y748166D3*
X1687947D3*
D19*
X1962947Y669166D3*
X1592947D3*
D18*
X1335947Y722166D3*
X1115947D3*
X1276947Y644166D3*
X1186947D3*
X1315947Y817166D3*
X1135947D3*
D19*
X1410947Y738166D3*
X1040947D3*
D18*
X783947Y794166D3*
X563947D3*
X724947Y716166D3*
X634947D3*
X763947Y889166D3*
X583947D3*
D19*
X858947Y810166D3*
X488947D3*
D24*
X696947Y3410166D3*
X796947D3*
X896947D3*
X996947D3*
Y3510166D3*
X896947D3*
X796947D3*
X696947D3*
M02*
