G04 DipTrace 3.2.0.1*
G04 Top.gbr*
%MOIN*%
G04 #@! TF.FileFunction,Copper,L1,Top*
G04 #@! TF.Part,Single*
G04 #@! TA.AperFunction,Conductor*
%ADD13C,0.026*%
%ADD14C,0.012992*%
G04 #@! TA.AperFunction,CopperBalancing*
%ADD15C,0.025*%
G04 #@! TA.AperFunction,ComponentPad*
%ADD17C,0.059055*%
%ADD18R,0.059055X0.059055*%
%ADD19C,0.059055*%
%ADD20C,0.062992*%
%ADD21R,0.062992X0.062992*%
%ADD22R,0.079X0.052*%
G04 #@! TA.AperFunction,ViaPad*
%ADD23C,0.04*%
%FSLAX26Y26*%
G04*
G70*
G90*
G75*
G01*
G04 Top*
%LPD*%
X2521000Y516125D2*
D13*
Y523125D1*
X2467000Y469125D1*
X1789000D1*
X1732000Y526125D1*
Y991125D1*
X1165000D1*
X766000Y1924125D2*
Y1927125D1*
X817000Y1978125D1*
Y2587125D1*
X766000Y2638125D1*
X1165000Y991125D2*
X978000D1*
X775000Y788125D1*
X2284000Y1700125D2*
X2267000D1*
X2191000Y1624125D1*
Y1591125D1*
X2155000Y1555125D1*
X2116000D1*
X2092000Y1531125D1*
Y1036125D1*
X2047000Y991125D1*
X1165000D1*
X766000Y1924125D2*
X775000D1*
X817000Y1882125D1*
Y1186125D1*
X1012000Y991125D1*
X1165000D1*
X466000Y2038125D2*
D14*
X457000Y2029125D1*
X451000D1*
X469000Y2047125D1*
X481000D1*
Y2029125D1*
X511000Y1999125D1*
Y1379125D1*
X566000Y1324125D1*
X2284000Y2300125D2*
D13*
Y2366125D1*
X2153000Y2497125D1*
X1066000Y2038125D2*
D14*
X997000Y1969125D1*
X943000D1*
X916000Y1942125D1*
Y1885125D1*
X859000Y1828125D1*
Y1396125D1*
X877000Y1378125D1*
X907000D1*
X946000Y1339125D1*
Y1315125D1*
X957000D1*
X966000Y1324125D1*
X1784000Y1900125D2*
Y1800125D1*
Y2200125D2*
X1768000D1*
X1735000Y2167125D1*
Y1893125D1*
X1166000Y1324125D1*
X2404000Y532125D2*
Y556125D1*
X2401000Y553125D1*
Y544125D1*
X2362000Y583125D1*
X2165000D1*
Y591125D1*
X2404000Y632125D2*
Y655125D1*
X2368000Y691125D1*
X2165000D1*
X2404000Y732125D2*
Y712125D1*
X2401000Y715125D1*
Y730125D1*
X2340000Y791125D1*
X2165000D1*
X2404000Y832125D2*
X2386000D1*
Y850125D1*
X2356000Y880125D1*
X2149000D1*
X2160000Y891125D1*
X2165000D1*
X1784000Y2300125D2*
X1787000D1*
X1699000Y2212125D1*
Y1891125D1*
X1186000Y1378125D1*
X1123000D1*
X1081000Y1336125D1*
Y1324125D1*
X1066000D1*
X2418000Y981125D2*
D13*
X2432000D1*
X2365000Y1048125D1*
Y1276125D1*
X2410000Y1321125D1*
Y1780125D1*
X2392000Y1798125D1*
X2282000D1*
X2284000Y1800125D1*
X2418000Y1081125D2*
X2425000Y1088125D1*
Y1267125D1*
X2449000Y1291125D1*
Y1813125D1*
X2365000Y1897125D1*
X2281000D1*
X2284000Y1900125D1*
X2518000Y981125D2*
X2501000D1*
X2467000Y1015125D1*
Y1255125D1*
X2488000Y1276125D1*
Y1861125D1*
X2349000Y2000125D1*
X2284000D1*
X2518000Y1081125D2*
X2524000Y1087125D1*
Y1951125D1*
X2383000Y2092125D1*
X2257000D1*
X2265000Y2100125D1*
X2284000D1*
D23*
X724000Y2446125D3*
Y2311125D3*
X898000Y2455125D3*
X895000Y2368125D3*
X943000Y1201125D3*
X1081000Y1099125D3*
X751000Y1234125D3*
X694000Y1201125D3*
X1867000Y643125D3*
X1897000Y724125D3*
X2062000Y1792125D3*
X2050000Y1636125D3*
X2053000Y1984125D3*
X1036000Y802125D3*
X2275000Y1111125D3*
X2248000Y1039125D3*
X1213000Y2302125D3*
X1339000Y2296125D3*
X1537000Y1615125D3*
X1390000Y1681125D3*
X1465000Y1513125D3*
X1279000Y1555125D3*
X964000Y1666125D3*
X715000Y1687125D3*
X955000Y1531125D3*
X730000Y1525125D3*
X524442Y2641139D2*
D15*
X607538D1*
X1624437D2*
X2544962D1*
X520101Y2616270D2*
X611916D1*
X1620094D2*
X2552030D1*
X499432Y2591402D2*
X632585D1*
X699413D2*
X732594D1*
X899432D2*
X932577D1*
X999406D2*
X1032587D1*
X1099415D2*
X1132596D1*
X1199424D2*
X1232570D1*
X1299433D2*
X1332579D1*
X1399407D2*
X1432588D1*
X1499416D2*
X1532597D1*
X1599425D2*
X2368591D1*
X2391425D2*
X2552067D1*
X436024Y2566533D2*
X775009D1*
X858991D2*
X2306475D1*
X2453541D2*
X2552102D1*
X436276Y2541664D2*
X775009D1*
X858991D2*
X2092497D1*
X2213512D2*
X2283832D1*
X2476184D2*
X2552138D1*
X436491Y2516795D2*
X775009D1*
X858991D2*
X2092497D1*
X2213512D2*
X2271345D1*
X2488635D2*
X2552175D1*
X436706Y2491927D2*
X775009D1*
X858991D2*
X2092497D1*
X2216562D2*
X2265604D1*
X2494412D2*
X2552210D1*
X436921Y2467058D2*
X775009D1*
X858991D2*
X2092497D1*
X2241429D2*
X2265531D1*
X2494484D2*
X2552245D1*
X437136Y2442189D2*
X775009D1*
X858991D2*
X2092497D1*
X2488887D2*
X2552282D1*
X437352Y2417320D2*
X775009D1*
X858991D2*
X2174457D1*
X2476650D2*
X2552318D1*
X437602Y2392452D2*
X775009D1*
X858991D2*
X2199325D1*
X2454438D2*
X2552318D1*
X437818Y2367583D2*
X775009D1*
X858991D2*
X2224193D1*
X2325972D2*
X2361881D1*
X2398135D2*
X2552353D1*
X438034Y2342714D2*
X775009D1*
X858991D2*
X1745102D1*
X1822912D2*
X2241991D1*
X2326008D2*
X2552390D1*
X438249Y2317845D2*
X775009D1*
X858991D2*
X1728345D1*
X1839634D2*
X2228356D1*
X2339644D2*
X2552425D1*
X438465Y2292976D2*
X775009D1*
X858991D2*
X1725941D1*
X1842073D2*
X2225915D1*
X2342084D2*
X2552461D1*
X438680Y2268108D2*
X775009D1*
X858991D2*
X1705810D1*
X1832493D2*
X2235531D1*
X2332467D2*
X2552497D1*
X438930Y2243239D2*
X775009D1*
X858991D2*
X1680942D1*
X1822266D2*
X2552533D1*
X439146Y2218370D2*
X775009D1*
X858991D2*
X1664113D1*
X1839491D2*
X2552568D1*
X439361Y2193501D2*
X775009D1*
X858991D2*
X1663503D1*
X1842146D2*
X2552605D1*
X439576Y2168633D2*
X775009D1*
X858991D2*
X1663503D1*
X1832852D2*
X2552640D1*
X439791Y2143764D2*
X775009D1*
X858991D2*
X1663503D1*
X1821656D2*
X2246369D1*
X2321630D2*
X2552677D1*
X440007Y2118895D2*
X775009D1*
X858991D2*
X1663503D1*
X1839276D2*
X2225449D1*
X2414606D2*
X2552713D1*
X440259Y2094026D2*
X559740D1*
X572273D2*
X775009D1*
X872268D2*
X959741D1*
X972255D2*
X1059751D1*
X1072283D2*
X1159760D1*
X1172230D2*
X1259734D1*
X1272270D2*
X1459752D1*
X1472268D2*
X1559761D1*
X1572244D2*
X1663503D1*
X1842181D2*
X2215042D1*
X2439474D2*
X2552748D1*
X615157Y2069158D2*
X775009D1*
X1615143D2*
X1663503D1*
X1833175D2*
X2222362D1*
X2464341D2*
X2552785D1*
X624201Y2044289D2*
X775009D1*
X1624185D2*
X1663503D1*
X1820974D2*
X2247014D1*
X2489210D2*
X2552820D1*
X621329Y2019420D2*
X775009D1*
X1621315D2*
X1663503D1*
X1839096D2*
X2228894D1*
X2514077D2*
X2552856D1*
X603711Y1994551D2*
X775009D1*
X1103720D2*
X1128290D1*
X1203730D2*
X1228262D1*
X1303703D2*
X1328272D1*
X1403713D2*
X1428281D1*
X1503722D2*
X1528290D1*
X1603731D2*
X1663503D1*
X1842253D2*
X2225736D1*
X2538945D2*
X2552892D1*
X546512Y1969683D2*
X630899D1*
X701101D2*
X730873D1*
X1101101D2*
X1130873D1*
X1201110D2*
X1230882D1*
X1301119D2*
X1330892D1*
X1401129D2*
X1430902D1*
X1501102D2*
X1530874D1*
X1601112D2*
X1663503D1*
X1833534D2*
X2234455D1*
X546512Y1944814D2*
X611450D1*
X1620560D2*
X1663503D1*
X1820293D2*
X2247697D1*
X546512Y1919945D2*
X607646D1*
X1624365D2*
X1663503D1*
X1838916D2*
X2229109D1*
X546512Y1895076D2*
X615576D1*
X1616399D2*
X1653778D1*
X1842290D2*
X2225699D1*
X546512Y1870207D2*
X648266D1*
X683732D2*
X748276D1*
X983724D2*
X1048268D1*
X1083734D2*
X1148277D1*
X1183743D2*
X1248251D1*
X1283717D2*
X1348260D1*
X1383726D2*
X1448269D1*
X1483735D2*
X1548278D1*
X1583744D2*
X1628909D1*
X1833857D2*
X2234133D1*
X546512Y1845339D2*
X775009D1*
X925377D2*
X1604042D1*
X1819575D2*
X2248415D1*
X546512Y1820470D2*
X775009D1*
X900509D2*
X1579175D1*
X1711492D2*
X1729314D1*
X1838701D2*
X2229289D1*
X546512Y1795601D2*
X775009D1*
X894480D2*
X1554307D1*
X1686623D2*
X1725654D1*
X1842361D2*
X2225664D1*
X546512Y1770732D2*
X775009D1*
X894480D2*
X1529438D1*
X1661756D2*
X1733799D1*
X1834215D2*
X2233810D1*
X546512Y1745864D2*
X775009D1*
X894480D2*
X1504571D1*
X1636888D2*
X1749157D1*
X1818857D2*
X2249133D1*
X2318867D2*
X2368017D1*
X546512Y1720995D2*
X775009D1*
X894480D2*
X1479703D1*
X1612021D2*
X1729493D1*
X1838486D2*
X2229504D1*
X2338496D2*
X2368017D1*
X546512Y1696126D2*
X775009D1*
X894480D2*
X1454836D1*
X1587152D2*
X1725618D1*
X1842398D2*
X2204635D1*
X2342371D2*
X2368017D1*
X546512Y1671257D2*
X775009D1*
X894480D2*
X1429969D1*
X1562285D2*
X1733476D1*
X1834503D2*
X2179768D1*
X2334513D2*
X2368017D1*
X546512Y1646389D2*
X775009D1*
X894480D2*
X1405100D1*
X1537417D2*
X1749911D1*
X1818104D2*
X2155869D1*
X2302361D2*
X2368017D1*
X546512Y1621520D2*
X775009D1*
X894480D2*
X1380232D1*
X1512550D2*
X1729709D1*
X1838270D2*
X2149016D1*
X2246740D2*
X2368017D1*
X546512Y1596651D2*
X775009D1*
X894480D2*
X1355365D1*
X1487682D2*
X1725581D1*
X1842433D2*
X2138178D1*
X2232996D2*
X2368017D1*
X546512Y1571782D2*
X775009D1*
X894480D2*
X1330497D1*
X1462814D2*
X1733154D1*
X1834825D2*
X2074304D1*
X2227937D2*
X2368017D1*
X546512Y1546913D2*
X775009D1*
X894480D2*
X1305630D1*
X1437946D2*
X1763978D1*
X1804037D2*
X2053277D1*
X2205151D2*
X2368017D1*
X546512Y1522045D2*
X775009D1*
X894480D2*
X1280761D1*
X1413079D2*
X1832265D1*
X1901749D2*
X2050010D1*
X2179098D2*
X2368017D1*
X546512Y1497176D2*
X775009D1*
X894480D2*
X1255894D1*
X1388211D2*
X1788415D1*
X1945564D2*
X2050010D1*
X2133992D2*
X2368017D1*
X546512Y1472307D2*
X775009D1*
X894480D2*
X1231026D1*
X1363343D2*
X1768068D1*
X1965946D2*
X2050010D1*
X2133992D2*
X2368017D1*
X546512Y1447438D2*
X775009D1*
X894480D2*
X1206159D1*
X1338475D2*
X1756909D1*
X1977106D2*
X2050010D1*
X2133992D2*
X2368017D1*
X546512Y1422570D2*
X775009D1*
X894480D2*
X1181290D1*
X1313608D2*
X1752172D1*
X1981807D2*
X2050010D1*
X2133992D2*
X2368017D1*
X546512Y1397701D2*
X775009D1*
X936572D2*
X1093411D1*
X1288740D2*
X1753070D1*
X1980909D2*
X2050010D1*
X2133992D2*
X2368017D1*
X596175Y1372832D2*
X775009D1*
X996176D2*
X1035816D1*
X1296203D2*
X1335808D1*
X1396177D2*
X1435818D1*
X1496186D2*
X1535827D1*
X1596196D2*
X1759707D1*
X1974272D2*
X2050010D1*
X2133992D2*
X2368017D1*
X619213Y1347963D2*
X775009D1*
X1619197D2*
X1773344D1*
X1960635D2*
X2050010D1*
X2133992D2*
X2368017D1*
X624524Y1323095D2*
X775009D1*
X1624508D2*
X1798176D1*
X1935840D2*
X2050010D1*
X2133992D2*
X2353591D1*
X618172Y1298226D2*
X775009D1*
X1618193D2*
X2050010D1*
X2133992D2*
X2329764D1*
X492219Y1273357D2*
X539789D1*
X592192D2*
X775009D1*
X892184D2*
X939790D1*
X992193D2*
X1039799D1*
X1092202D2*
X1139808D1*
X1192211D2*
X1239782D1*
X1292185D2*
X1339791D1*
X1392194D2*
X1439801D1*
X1492203D2*
X1539810D1*
X1592213D2*
X2050010D1*
X2133992D2*
X2323018D1*
X447759Y1248488D2*
X775009D1*
X858991D2*
X2050010D1*
X2133992D2*
X2323018D1*
X448009Y1223620D2*
X775009D1*
X858991D2*
X2050010D1*
X2133992D2*
X2323018D1*
X448224Y1198751D2*
X775009D1*
X862723D2*
X2050010D1*
X2133992D2*
X2323018D1*
X448440Y1173882D2*
X776948D1*
X887591D2*
X2050010D1*
X2133992D2*
X2323018D1*
X448655Y1149013D2*
X795751D1*
X912458D2*
X2050010D1*
X2133992D2*
X2323018D1*
X448870Y1124144D2*
X820618D1*
X937325D2*
X2050010D1*
X2212757D2*
X2323018D1*
X449085Y1099276D2*
X845487D1*
X962194D2*
X2050010D1*
X2222949D2*
X2323018D1*
X449337Y1074407D2*
X870354D1*
X987062D2*
X2050010D1*
X2220975D2*
X2323018D1*
X449552Y1049538D2*
X895222D1*
X1011965D2*
X2047068D1*
X2205042D2*
X2323018D1*
X449768Y1024669D2*
X920089D1*
X2212364D2*
X2330732D1*
X449983Y999801D2*
X928307D1*
X2222841D2*
X2354954D1*
X450198Y974932D2*
X903440D1*
X2089173D2*
X2108861D1*
X2221118D2*
X2359799D1*
X450413Y950063D2*
X878572D1*
X995315D2*
X1124378D1*
X1205633D2*
X1689984D1*
X1774001D2*
X2124399D1*
X2205617D2*
X2368878D1*
X450665Y925194D2*
X853703D1*
X970448D2*
X1118026D1*
X1211984D2*
X1689984D1*
X1774001D2*
X2118012D1*
X2211969D2*
X2412190D1*
X2423801D2*
X2512199D1*
X2523787D2*
X2554327D1*
X450881Y900326D2*
X828836D1*
X945580D2*
X1107226D1*
X1222785D2*
X1689984D1*
X1774001D2*
X2107247D1*
X2384966D2*
X2554364D1*
X451096Y875457D2*
X803969D1*
X920676D2*
X1108697D1*
X1221278D2*
X1689984D1*
X1774001D2*
X2108718D1*
X2442022D2*
X2554399D1*
X451311Y850588D2*
X640946D1*
X719042D2*
X779101D1*
X895808D2*
X1123840D1*
X1206171D2*
X1689984D1*
X1774001D2*
X2123824D1*
X2459390D2*
X2554434D1*
X451526Y825719D2*
X624297D1*
X870941D2*
X1118421D1*
X1211589D2*
X1689984D1*
X1774001D2*
X2118442D1*
X2462152D2*
X2554471D1*
X451777Y800851D2*
X621963D1*
X846072D2*
X1107333D1*
X1222677D2*
X1689984D1*
X1774001D2*
X2107318D1*
X2453003D2*
X2554507D1*
X451992Y775982D2*
X559130D1*
X832185D2*
X1108554D1*
X1221457D2*
X1689984D1*
X1774001D2*
X2108573D1*
X2441375D2*
X2554542D1*
X452207Y751113D2*
X545243D1*
X658757D2*
X730442D1*
X819554D2*
X1123266D1*
X1206709D2*
X1689984D1*
X1774001D2*
X2123286D1*
X2459210D2*
X2554542D1*
X452423Y726244D2*
X544526D1*
X659475D2*
X1689984D1*
X1774001D2*
X2118837D1*
X2462224D2*
X2554579D1*
X452638Y701375D2*
X556367D1*
X647633D2*
X1689984D1*
X1774001D2*
X2107425D1*
X2453325D2*
X2554614D1*
X452854Y676507D2*
X1689984D1*
X1774001D2*
X2108430D1*
X2440694D2*
X2554650D1*
X453930Y651638D2*
X737188D1*
X812808D2*
X1689984D1*
X1774001D2*
X2122748D1*
X456585Y626769D2*
X636928D1*
X830319D2*
X1689984D1*
X1774001D2*
X2119268D1*
X462291Y601900D2*
X623184D1*
X833190D2*
X1689984D1*
X1774001D2*
X2107533D1*
X471621Y577032D2*
X622573D1*
X824112D2*
X1689984D1*
X1774001D2*
X2108287D1*
X484504Y552163D2*
X634524D1*
X725466D2*
X769807D1*
X780202D2*
X1689984D1*
X1774001D2*
X2122245D1*
X2462512D2*
X2475597D1*
X501836Y527294D2*
X1689984D1*
X1789181D2*
X2345482D1*
X525125Y502425D2*
X1697915D1*
X558066Y477557D2*
X1722209D1*
X616773Y452688D2*
X1747076D1*
X516000Y1298861D2*
X511327Y1291193D1*
X505618Y1284507D1*
X498932Y1278798D1*
X491436Y1274204D1*
X483314Y1270840D1*
X474765Y1268788D1*
X466000Y1268097D1*
X457235Y1268788D1*
X448686Y1270840D1*
X445059Y1272177D1*
X450488Y662906D1*
X453185Y630643D1*
X460130Y600353D1*
X471289Y571352D1*
X486438Y544222D1*
X505274Y519509D1*
X527416Y497706D1*
X552419Y479259D1*
X579782Y464530D1*
X608951Y453823D1*
X638186Y447597D1*
X1763701Y438814D1*
X1754573Y447690D1*
X1701963Y500471D1*
X1698320Y505486D1*
X1695507Y511009D1*
X1693592Y516904D1*
X1692622Y523025D1*
X1692500Y562870D1*
Y951604D1*
X1204618Y951507D1*
X1197932Y945798D1*
X1190264Y941125D1*
X1197932Y936452D1*
X1204618Y930743D1*
X1210327Y924057D1*
X1214921Y916560D1*
X1218285Y908438D1*
X1220337Y899890D1*
X1221028Y891125D1*
X1220337Y882360D1*
X1218285Y873811D1*
X1214921Y865689D1*
X1210327Y858193D1*
X1204618Y851507D1*
X1197932Y845798D1*
X1190264Y841125D1*
X1197932Y836452D1*
X1204618Y830743D1*
X1210327Y824057D1*
X1214921Y816560D1*
X1218285Y808438D1*
X1220337Y799890D1*
X1221028Y791125D1*
X1220337Y782360D1*
X1218285Y773811D1*
X1214921Y765689D1*
X1210327Y758193D1*
X1204618Y751507D1*
X1197932Y745798D1*
X1190436Y741204D1*
X1182314Y737840D1*
X1173765Y735788D1*
X1165000Y735097D1*
X1156235Y735788D1*
X1147686Y737840D1*
X1139564Y741204D1*
X1132068Y745798D1*
X1125382Y751507D1*
X1119673Y758193D1*
X1115079Y765689D1*
X1111715Y773811D1*
X1109663Y782360D1*
X1108972Y791125D1*
X1109663Y799890D1*
X1111715Y808438D1*
X1115079Y816560D1*
X1119673Y824057D1*
X1125382Y830743D1*
X1132068Y836452D1*
X1139736Y841125D1*
X1132068Y845798D1*
X1125382Y851507D1*
X1119673Y858193D1*
X1115079Y865689D1*
X1111715Y873811D1*
X1109663Y882360D1*
X1108972Y891125D1*
X1109663Y899890D1*
X1111715Y908438D1*
X1115079Y916560D1*
X1119673Y924057D1*
X1125382Y930743D1*
X1132068Y936452D1*
X1139736Y941125D1*
X1132068Y945798D1*
X1125277Y951621D1*
X994370Y951625D1*
X831028Y788125D1*
X830337Y779360D1*
X828285Y770811D1*
X824921Y762689D1*
X820327Y755193D1*
X814618Y748507D1*
X807932Y742798D1*
X800436Y738204D1*
X792314Y734840D1*
X783765Y732788D1*
X775000Y732097D1*
X766235Y732788D1*
X757686Y734840D1*
X749564Y738204D1*
X742068Y742798D1*
X735382Y748507D1*
X729673Y755193D1*
X725079Y762689D1*
X721732Y770763D1*
X716387Y765521D1*
X709274Y760353D1*
X701441Y756362D1*
X693079Y753646D1*
X684396Y752270D1*
X675604D1*
X666921Y753646D1*
X658559Y756362D1*
X653762Y758566D1*
X656479Y750204D1*
X657854Y741521D1*
Y732728D1*
X656479Y724046D1*
X653762Y715684D1*
X649772Y707851D1*
X644604Y700738D1*
X638387Y694521D1*
X631274Y689353D1*
X623441Y685362D1*
X615079Y682646D1*
X606396Y681270D1*
X597604D1*
X588921Y682646D1*
X580559Y685362D1*
X572726Y689353D1*
X565613Y694521D1*
X559396Y700738D1*
X554228Y707851D1*
X550238Y715684D1*
X547521Y724046D1*
X546146Y732728D1*
Y741521D1*
X547521Y750204D1*
X550238Y758566D1*
X554228Y766399D1*
X559396Y773512D1*
X565613Y779728D1*
X572726Y784896D1*
X580559Y788887D1*
X588921Y791604D1*
X597604Y792979D1*
X606396D1*
X615079Y791604D1*
X623441Y788887D1*
X628238Y786684D1*
X625521Y795046D1*
X624146Y803728D1*
Y812521D1*
X625521Y821204D1*
X628238Y829566D1*
X632228Y837399D1*
X637396Y844512D1*
X643613Y850728D1*
X650726Y855896D1*
X658559Y859887D1*
X666921Y862604D1*
X675604Y863979D1*
X684396D1*
X693079Y862604D1*
X701441Y859887D1*
X709274Y855896D1*
X716387Y850728D1*
X722604Y844512D1*
X727772Y837399D1*
X731762Y829566D1*
X733268Y825487D1*
X738613Y830728D1*
X745726Y835896D1*
X753559Y839887D1*
X761921Y842604D1*
X770604Y843979D1*
X775155Y844146D1*
X939125Y1008112D1*
X786965Y1160471D1*
X783320Y1165486D1*
X780507Y1171009D1*
X778592Y1176904D1*
X777622Y1183025D1*
X777500Y1222870D1*
Y1865735D1*
X774530Y1868734D1*
X766000Y1868097D1*
X757235Y1868788D1*
X748686Y1870840D1*
X740564Y1874204D1*
X733068Y1878798D1*
X726382Y1884507D1*
X720673Y1891193D1*
X716000Y1898861D1*
X711327Y1891193D1*
X705618Y1884507D1*
X698932Y1878798D1*
X691436Y1874204D1*
X683314Y1870840D1*
X674765Y1868788D1*
X666000Y1868097D1*
X657235Y1868788D1*
X648686Y1870840D1*
X640564Y1874204D1*
X633068Y1878798D1*
X626382Y1884507D1*
X620673Y1891193D1*
X616079Y1898689D1*
X612715Y1906811D1*
X610663Y1915360D1*
X609972Y1924125D1*
X610663Y1932890D1*
X612715Y1941438D1*
X616079Y1949560D1*
X620673Y1957057D1*
X626382Y1963743D1*
X633068Y1969452D1*
X640564Y1974046D1*
X648686Y1977410D1*
X657235Y1979462D1*
X666000Y1980152D1*
X674765Y1979462D1*
X683314Y1977410D1*
X691436Y1974046D1*
X698932Y1969452D1*
X705618Y1963743D1*
X711327Y1957057D1*
X716000Y1949389D1*
X720673Y1957057D1*
X726382Y1963743D1*
X733068Y1969452D1*
X740564Y1974046D1*
X748686Y1977410D1*
X757235Y1979462D1*
X763064Y1980037D1*
X777475Y1994461D1*
X777500Y2570752D1*
X766000Y2582097D1*
X757235Y2582788D1*
X748686Y2584840D1*
X740564Y2588204D1*
X733068Y2592798D1*
X726382Y2598507D1*
X720673Y2605193D1*
X716000Y2612861D1*
X711327Y2605193D1*
X705618Y2598507D1*
X698932Y2592798D1*
X691436Y2588204D1*
X683314Y2584840D1*
X674765Y2582788D1*
X666000Y2582097D1*
X657235Y2582788D1*
X648686Y2584840D1*
X640564Y2588204D1*
X633068Y2592798D1*
X626382Y2598507D1*
X620673Y2605193D1*
X616079Y2612689D1*
X612715Y2620811D1*
X610663Y2629360D1*
X609972Y2638125D1*
X610663Y2646890D1*
X612715Y2655438D1*
X613101Y2656486D1*
X518904Y2656625D1*
X520479Y2651204D1*
X521854Y2642521D1*
Y2633728D1*
X520479Y2625046D1*
X517762Y2616684D1*
X513772Y2608851D1*
X508604Y2601738D1*
X502387Y2595521D1*
X495274Y2590353D1*
X487441Y2586362D1*
X479079Y2583646D1*
X470396Y2582270D1*
X461604D1*
X452921Y2583646D1*
X444559Y2586362D1*
X436726Y2590353D1*
X433311Y2592635D1*
X437814Y2086517D1*
X444559Y2089887D1*
X452921Y2092604D1*
X461604Y2093979D1*
X470396D1*
X479079Y2092604D1*
X487441Y2089887D1*
X495274Y2085896D1*
X502387Y2080728D1*
X508604Y2074512D1*
X513772Y2067399D1*
X516079Y2063560D1*
X520673Y2071057D1*
X526382Y2077743D1*
X533068Y2083452D1*
X540564Y2088046D1*
X548686Y2091410D1*
X557235Y2093462D1*
X566000Y2094152D1*
X574765Y2093462D1*
X583314Y2091410D1*
X591436Y2088046D1*
X598932Y2083452D1*
X605618Y2077743D1*
X611327Y2071057D1*
X615921Y2063560D1*
X619285Y2055438D1*
X621337Y2046890D1*
X622028Y2038125D1*
X621337Y2029360D1*
X619285Y2020811D1*
X615921Y2012689D1*
X611327Y2005193D1*
X605618Y1998507D1*
X598932Y1992798D1*
X591436Y1988204D1*
X583314Y1984840D1*
X574765Y1982788D1*
X566000Y1982097D1*
X557235Y1982788D1*
X548686Y1984840D1*
X543982Y1986629D1*
X543996Y1392790D1*
X557295Y1379494D1*
X566000Y1380152D1*
X574765Y1379462D1*
X583314Y1377410D1*
X591436Y1374046D1*
X598932Y1369452D1*
X605618Y1363743D1*
X611327Y1357057D1*
X615921Y1349560D1*
X619285Y1341438D1*
X621337Y1332890D1*
X622028Y1324125D1*
X621337Y1315360D1*
X619285Y1306811D1*
X615921Y1298689D1*
X611327Y1291193D1*
X605618Y1284507D1*
X598932Y1278798D1*
X591436Y1274204D1*
X583314Y1270840D1*
X574765Y1268788D1*
X566000Y1268097D1*
X557235Y1268788D1*
X548686Y1270840D1*
X540564Y1274204D1*
X533068Y1278798D1*
X526382Y1284507D1*
X520673Y1291193D1*
X516000Y1298861D1*
X916000D2*
X911327Y1291193D1*
X905618Y1284507D1*
X898932Y1278798D1*
X891436Y1274204D1*
X883314Y1270840D1*
X874765Y1268788D1*
X866000Y1268097D1*
X857235Y1268788D1*
X856510Y1268931D1*
X856500Y1202515D1*
X1028360Y1030627D1*
X1125382Y1030743D1*
X1132068Y1036452D1*
X1139564Y1041046D1*
X1147686Y1044410D1*
X1156235Y1046462D1*
X1165000Y1047152D1*
X1173765Y1046462D1*
X1182314Y1044410D1*
X1190436Y1041046D1*
X1197932Y1036452D1*
X1204723Y1030629D1*
X2030634Y1030625D1*
X2052487Y1052473D1*
X2052622Y1534225D1*
X2053592Y1540345D1*
X2055507Y1546240D1*
X2058320Y1551764D1*
X2061965Y1556778D1*
X2088070Y1583055D1*
X2092782Y1587081D1*
X2098067Y1590319D1*
X2103794Y1592692D1*
X2109820Y1594138D1*
X2116012Y1594625D1*
X2138643D1*
X2151504Y1607491D1*
X2151622Y1627225D1*
X2152592Y1633345D1*
X2154507Y1639240D1*
X2157320Y1644764D1*
X2160963Y1649778D1*
X2189052Y1678038D1*
X2232010Y1720996D1*
X2236228Y1729399D1*
X2241396Y1736512D1*
X2247613Y1742728D1*
X2254726Y1747896D1*
X2258564Y1750204D1*
X2251068Y1754798D1*
X2244382Y1760507D1*
X2238673Y1767193D1*
X2234079Y1774689D1*
X2230715Y1782811D1*
X2228663Y1791360D1*
X2227972Y1800125D1*
X2228663Y1808890D1*
X2230715Y1817438D1*
X2234079Y1825560D1*
X2238673Y1833057D1*
X2244382Y1839743D1*
X2251068Y1845452D1*
X2258736Y1850125D1*
X2251068Y1854798D1*
X2244382Y1860507D1*
X2238673Y1867193D1*
X2234079Y1874689D1*
X2230715Y1882811D1*
X2228663Y1891360D1*
X2227972Y1900125D1*
X2228663Y1908890D1*
X2230715Y1917438D1*
X2234079Y1925560D1*
X2238673Y1933057D1*
X2244382Y1939743D1*
X2251068Y1945452D1*
X2258736Y1950125D1*
X2251068Y1954798D1*
X2244382Y1960507D1*
X2238673Y1967193D1*
X2234079Y1974689D1*
X2230715Y1982811D1*
X2228663Y1991360D1*
X2227972Y2000125D1*
X2228663Y2008890D1*
X2230715Y2017438D1*
X2234079Y2025560D1*
X2238673Y2033057D1*
X2244382Y2039743D1*
X2251068Y2045452D1*
X2258736Y2050125D1*
X2253900Y2052747D1*
X2247780Y2053717D1*
X2241885Y2055631D1*
X2236361Y2058445D1*
X2231346Y2062089D1*
X2226965Y2066471D1*
X2223320Y2071486D1*
X2220507Y2077009D1*
X2218592Y2082904D1*
X2217622Y2089025D1*
Y2095225D1*
X2218592Y2101345D1*
X2220507Y2107240D1*
X2223320Y2112764D1*
X2226965Y2117778D1*
X2233588Y2124575D1*
X2236228Y2129399D1*
X2241396Y2136512D1*
X2247613Y2142728D1*
X2254726Y2147896D1*
X2262559Y2151887D1*
X2270921Y2154604D1*
X2279604Y2155979D1*
X2288396D1*
X2297079Y2154604D1*
X2305441Y2151887D1*
X2313274Y2147896D1*
X2320387Y2142728D1*
X2326604Y2136512D1*
X2330291Y2131614D1*
X2386100Y2131503D1*
X2392220Y2130533D1*
X2398115Y2128618D1*
X2403639Y2125805D1*
X2408654Y2122160D1*
X2436913Y2094072D1*
X2554043Y1976769D1*
X2555391Y1982375D1*
X2554328Y2630627D1*
X2552585Y2634293D1*
X2548054Y2640558D1*
X2542369Y2645791D1*
X2535753Y2649786D1*
X2528367Y2652398D1*
X2520840Y2653629D1*
X1619400Y2654978D1*
X1621337Y2646890D1*
X1622028Y2638125D1*
X1621337Y2629360D1*
X1619285Y2620811D1*
X1615921Y2612689D1*
X1611327Y2605193D1*
X1605618Y2598507D1*
X1598932Y2592798D1*
X1591436Y2588204D1*
X1583314Y2584840D1*
X1574765Y2582788D1*
X1566000Y2582097D1*
X1557235Y2582788D1*
X1548686Y2584840D1*
X1540564Y2588204D1*
X1533068Y2592798D1*
X1526382Y2598507D1*
X1520673Y2605193D1*
X1516000Y2612861D1*
X1511327Y2605193D1*
X1505618Y2598507D1*
X1498932Y2592798D1*
X1491436Y2588204D1*
X1483314Y2584840D1*
X1474765Y2582788D1*
X1466000Y2582097D1*
X1457235Y2582788D1*
X1448686Y2584840D1*
X1440564Y2588204D1*
X1433068Y2592798D1*
X1426382Y2598507D1*
X1420673Y2605193D1*
X1416000Y2612861D1*
X1411327Y2605193D1*
X1405618Y2598507D1*
X1398932Y2592798D1*
X1391436Y2588204D1*
X1383314Y2584840D1*
X1374765Y2582788D1*
X1366000Y2582097D1*
X1357235Y2582788D1*
X1348686Y2584840D1*
X1340564Y2588204D1*
X1333068Y2592798D1*
X1326382Y2598507D1*
X1320673Y2605193D1*
X1316000Y2612861D1*
X1311327Y2605193D1*
X1305618Y2598507D1*
X1298932Y2592798D1*
X1291436Y2588204D1*
X1283314Y2584840D1*
X1274765Y2582788D1*
X1266000Y2582097D1*
X1257235Y2582788D1*
X1248686Y2584840D1*
X1240564Y2588204D1*
X1233068Y2592798D1*
X1226382Y2598507D1*
X1220673Y2605193D1*
X1216000Y2612861D1*
X1211327Y2605193D1*
X1205618Y2598507D1*
X1198932Y2592798D1*
X1191436Y2588204D1*
X1183314Y2584840D1*
X1174765Y2582788D1*
X1166000Y2582097D1*
X1157235Y2582788D1*
X1148686Y2584840D1*
X1140564Y2588204D1*
X1133068Y2592798D1*
X1126382Y2598507D1*
X1120673Y2605193D1*
X1116000Y2612861D1*
X1111327Y2605193D1*
X1105618Y2598507D1*
X1098932Y2592798D1*
X1091436Y2588204D1*
X1083314Y2584840D1*
X1074765Y2582788D1*
X1066000Y2582097D1*
X1057235Y2582788D1*
X1048686Y2584840D1*
X1040564Y2588204D1*
X1033068Y2592798D1*
X1026382Y2598507D1*
X1020673Y2605193D1*
X1016000Y2612861D1*
X1011327Y2605193D1*
X1005618Y2598507D1*
X998932Y2592798D1*
X991436Y2588204D1*
X983314Y2584840D1*
X974765Y2582788D1*
X966000Y2582097D1*
X957235Y2582788D1*
X948686Y2584840D1*
X940564Y2588204D1*
X933068Y2592798D1*
X926382Y2598507D1*
X920673Y2605193D1*
X916000Y2612861D1*
X911327Y2605193D1*
X905618Y2598507D1*
X898932Y2592798D1*
X891436Y2588204D1*
X883314Y2584840D1*
X874765Y2582788D1*
X866000Y2582097D1*
X857235Y2582788D1*
X856510Y2582931D1*
X856500Y2093323D1*
X861604Y2093979D1*
X870396D1*
X879079Y2092604D1*
X887441Y2089887D1*
X895274Y2085896D1*
X902387Y2080728D1*
X908604Y2074512D1*
X913772Y2067399D1*
X916079Y2063560D1*
X920673Y2071057D1*
X926382Y2077743D1*
X933068Y2083452D1*
X940564Y2088046D1*
X948686Y2091410D1*
X957235Y2093462D1*
X966000Y2094152D1*
X974765Y2093462D1*
X983314Y2091410D1*
X991436Y2088046D1*
X998932Y2083452D1*
X1005618Y2077743D1*
X1011327Y2071057D1*
X1016000Y2063389D1*
X1020673Y2071057D1*
X1026382Y2077743D1*
X1033068Y2083452D1*
X1040564Y2088046D1*
X1048686Y2091410D1*
X1057235Y2093462D1*
X1066000Y2094152D1*
X1074765Y2093462D1*
X1083314Y2091410D1*
X1091436Y2088046D1*
X1098932Y2083452D1*
X1105618Y2077743D1*
X1111327Y2071057D1*
X1116000Y2063389D1*
X1120673Y2071057D1*
X1126382Y2077743D1*
X1133068Y2083452D1*
X1140564Y2088046D1*
X1148686Y2091410D1*
X1157235Y2093462D1*
X1166000Y2094152D1*
X1174765Y2093462D1*
X1183314Y2091410D1*
X1191436Y2088046D1*
X1198932Y2083452D1*
X1205618Y2077743D1*
X1211327Y2071057D1*
X1216000Y2063389D1*
X1220673Y2071057D1*
X1226382Y2077743D1*
X1233068Y2083452D1*
X1240564Y2088046D1*
X1248686Y2091410D1*
X1257235Y2093462D1*
X1266000Y2094152D1*
X1274765Y2093462D1*
X1283314Y2091410D1*
X1291436Y2088046D1*
X1298932Y2083452D1*
X1305618Y2077743D1*
X1311327Y2071057D1*
X1316000Y2063389D1*
X1320673Y2071057D1*
X1326382Y2077743D1*
X1333068Y2083452D1*
X1340564Y2088046D1*
X1348686Y2091410D1*
X1357235Y2093462D1*
X1366000Y2094152D1*
X1374765Y2093462D1*
X1383314Y2091410D1*
X1391436Y2088046D1*
X1398932Y2083452D1*
X1405618Y2077743D1*
X1411327Y2071057D1*
X1416000Y2063389D1*
X1420673Y2071057D1*
X1426382Y2077743D1*
X1433068Y2083452D1*
X1440564Y2088046D1*
X1448686Y2091410D1*
X1457235Y2093462D1*
X1466000Y2094152D1*
X1474765Y2093462D1*
X1483314Y2091410D1*
X1491436Y2088046D1*
X1498932Y2083452D1*
X1505618Y2077743D1*
X1511327Y2071057D1*
X1516000Y2063389D1*
X1520673Y2071057D1*
X1526382Y2077743D1*
X1533068Y2083452D1*
X1540564Y2088046D1*
X1548686Y2091410D1*
X1557235Y2093462D1*
X1566000Y2094152D1*
X1574765Y2093462D1*
X1583314Y2091410D1*
X1591436Y2088046D1*
X1598932Y2083452D1*
X1605618Y2077743D1*
X1611327Y2071057D1*
X1615921Y2063560D1*
X1619285Y2055438D1*
X1621337Y2046890D1*
X1622028Y2038125D1*
X1621337Y2029360D1*
X1619285Y2020811D1*
X1615921Y2012689D1*
X1611327Y2005193D1*
X1605618Y1998507D1*
X1598932Y1992798D1*
X1591436Y1988204D1*
X1583314Y1984840D1*
X1574765Y1982788D1*
X1566000Y1982097D1*
X1557235Y1982788D1*
X1548686Y1984840D1*
X1540564Y1988204D1*
X1533068Y1992798D1*
X1526382Y1998507D1*
X1520673Y2005193D1*
X1516000Y2012861D1*
X1511327Y2005193D1*
X1505618Y1998507D1*
X1498932Y1992798D1*
X1491436Y1988204D1*
X1483314Y1984840D1*
X1474765Y1982788D1*
X1466000Y1982097D1*
X1457235Y1982788D1*
X1448686Y1984840D1*
X1440564Y1988204D1*
X1433068Y1992798D1*
X1426382Y1998507D1*
X1420673Y2005193D1*
X1416000Y2012861D1*
X1411327Y2005193D1*
X1405618Y1998507D1*
X1398932Y1992798D1*
X1391436Y1988204D1*
X1383314Y1984840D1*
X1374765Y1982788D1*
X1366000Y1982097D1*
X1357235Y1982788D1*
X1348686Y1984840D1*
X1340564Y1988204D1*
X1333068Y1992798D1*
X1326382Y1998507D1*
X1320673Y2005193D1*
X1316000Y2012861D1*
X1311327Y2005193D1*
X1305618Y1998507D1*
X1298932Y1992798D1*
X1291436Y1988204D1*
X1283314Y1984840D1*
X1274765Y1982788D1*
X1266000Y1982097D1*
X1257235Y1982788D1*
X1248686Y1984840D1*
X1240564Y1988204D1*
X1233068Y1992798D1*
X1226382Y1998507D1*
X1220673Y2005193D1*
X1216000Y2012861D1*
X1211327Y2005193D1*
X1205618Y1998507D1*
X1198932Y1992798D1*
X1191436Y1988204D1*
X1183314Y1984840D1*
X1174765Y1982788D1*
X1166000Y1982097D1*
X1157235Y1982788D1*
X1148686Y1984840D1*
X1140564Y1988204D1*
X1133068Y1992798D1*
X1126382Y1998507D1*
X1120673Y2005193D1*
X1116000Y2012861D1*
X1111327Y2005193D1*
X1105618Y1998507D1*
X1098932Y1992798D1*
X1091436Y1988204D1*
X1083314Y1984840D1*
X1074765Y1982788D1*
X1066000Y1982097D1*
X1057320Y1982777D1*
X1053224Y1978685D1*
X1061604Y1979979D1*
X1070396D1*
X1079079Y1978604D1*
X1087441Y1975887D1*
X1095274Y1971896D1*
X1102387Y1966728D1*
X1108604Y1960512D1*
X1113772Y1953399D1*
X1116079Y1949560D1*
X1120673Y1957057D1*
X1126382Y1963743D1*
X1133068Y1969452D1*
X1140564Y1974046D1*
X1148686Y1977410D1*
X1157235Y1979462D1*
X1166000Y1980152D1*
X1174765Y1979462D1*
X1183314Y1977410D1*
X1191436Y1974046D1*
X1198932Y1969452D1*
X1205618Y1963743D1*
X1211327Y1957057D1*
X1216000Y1949389D1*
X1220673Y1957057D1*
X1226382Y1963743D1*
X1233068Y1969452D1*
X1240564Y1974046D1*
X1248686Y1977410D1*
X1257235Y1979462D1*
X1266000Y1980152D1*
X1274765Y1979462D1*
X1283314Y1977410D1*
X1291436Y1974046D1*
X1298932Y1969452D1*
X1305618Y1963743D1*
X1311327Y1957057D1*
X1316000Y1949389D1*
X1320673Y1957057D1*
X1326382Y1963743D1*
X1333068Y1969452D1*
X1340564Y1974046D1*
X1348686Y1977410D1*
X1357235Y1979462D1*
X1366000Y1980152D1*
X1374765Y1979462D1*
X1383314Y1977410D1*
X1391436Y1974046D1*
X1398932Y1969452D1*
X1405618Y1963743D1*
X1411327Y1957057D1*
X1416000Y1949389D1*
X1420673Y1957057D1*
X1426382Y1963743D1*
X1433068Y1969452D1*
X1440564Y1974046D1*
X1448686Y1977410D1*
X1457235Y1979462D1*
X1466000Y1980152D1*
X1474765Y1979462D1*
X1483314Y1977410D1*
X1491436Y1974046D1*
X1498932Y1969452D1*
X1505618Y1963743D1*
X1511327Y1957057D1*
X1516000Y1949389D1*
X1520673Y1957057D1*
X1526382Y1963743D1*
X1533068Y1969452D1*
X1540564Y1974046D1*
X1548686Y1977410D1*
X1557235Y1979462D1*
X1566000Y1980152D1*
X1574765Y1979462D1*
X1583314Y1977410D1*
X1591436Y1974046D1*
X1598932Y1969452D1*
X1605618Y1963743D1*
X1611327Y1957057D1*
X1615921Y1949560D1*
X1619285Y1941438D1*
X1621337Y1932890D1*
X1622028Y1924125D1*
X1621337Y1915360D1*
X1619285Y1906811D1*
X1615921Y1898689D1*
X1611327Y1891193D1*
X1605618Y1884507D1*
X1598932Y1878798D1*
X1591436Y1874204D1*
X1583314Y1870840D1*
X1574765Y1868788D1*
X1566000Y1868097D1*
X1557235Y1868788D1*
X1548686Y1870840D1*
X1540564Y1874204D1*
X1533068Y1878798D1*
X1526382Y1884507D1*
X1520673Y1891193D1*
X1516000Y1898861D1*
X1511327Y1891193D1*
X1505618Y1884507D1*
X1498932Y1878798D1*
X1491436Y1874204D1*
X1483314Y1870840D1*
X1474765Y1868788D1*
X1466000Y1868097D1*
X1457235Y1868788D1*
X1448686Y1870840D1*
X1440564Y1874204D1*
X1433068Y1878798D1*
X1426382Y1884507D1*
X1420673Y1891193D1*
X1416000Y1898861D1*
X1411327Y1891193D1*
X1405618Y1884507D1*
X1398932Y1878798D1*
X1391436Y1874204D1*
X1383314Y1870840D1*
X1374765Y1868788D1*
X1366000Y1868097D1*
X1357235Y1868788D1*
X1348686Y1870840D1*
X1340564Y1874204D1*
X1333068Y1878798D1*
X1326382Y1884507D1*
X1320673Y1891193D1*
X1316000Y1898861D1*
X1311327Y1891193D1*
X1305618Y1884507D1*
X1298932Y1878798D1*
X1291436Y1874204D1*
X1283314Y1870840D1*
X1274765Y1868788D1*
X1266000Y1868097D1*
X1257235Y1868788D1*
X1248686Y1870840D1*
X1240564Y1874204D1*
X1233068Y1878798D1*
X1226382Y1884507D1*
X1220673Y1891193D1*
X1216000Y1898861D1*
X1211327Y1891193D1*
X1205618Y1884507D1*
X1198932Y1878798D1*
X1191436Y1874204D1*
X1183314Y1870840D1*
X1174765Y1868788D1*
X1166000Y1868097D1*
X1157235Y1868788D1*
X1148686Y1870840D1*
X1140564Y1874204D1*
X1133068Y1878798D1*
X1126382Y1884507D1*
X1120673Y1891193D1*
X1116000Y1898861D1*
X1111327Y1891193D1*
X1105618Y1884507D1*
X1098932Y1878798D1*
X1091436Y1874204D1*
X1083314Y1870840D1*
X1074765Y1868788D1*
X1066000Y1868097D1*
X1057235Y1868788D1*
X1048686Y1870840D1*
X1040564Y1874204D1*
X1033068Y1878798D1*
X1026382Y1884507D1*
X1020673Y1891193D1*
X1016000Y1898861D1*
X1011327Y1891193D1*
X1005618Y1884507D1*
X998932Y1878798D1*
X991436Y1874204D1*
X983314Y1870840D1*
X974765Y1868788D1*
X966000Y1868097D1*
X957235Y1868788D1*
X948686Y1870840D1*
X946188Y1871761D1*
X942694Y1865730D1*
X939332Y1861793D1*
X892009Y1814471D1*
X891996Y1411114D1*
X909589Y1411020D1*
X914703Y1410209D1*
X919627Y1408609D1*
X924240Y1406259D1*
X928429Y1403215D1*
X953143Y1378646D1*
X961604Y1379979D1*
X970396D1*
X979079Y1378604D1*
X987441Y1375887D1*
X995274Y1371896D1*
X1002387Y1366728D1*
X1008604Y1360512D1*
X1013772Y1353399D1*
X1016079Y1349560D1*
X1020673Y1357057D1*
X1026382Y1363743D1*
X1033068Y1369452D1*
X1040564Y1374046D1*
X1048686Y1377410D1*
X1057235Y1379462D1*
X1066000Y1380152D1*
X1074765Y1379462D1*
X1077175Y1378983D1*
X1101571Y1403215D1*
X1105760Y1406259D1*
X1110373Y1408609D1*
X1115297Y1410209D1*
X1120411Y1411020D1*
X1172341Y1411121D1*
X1666012Y1904799D1*
X1666105Y2214714D1*
X1666916Y2219828D1*
X1668516Y2224752D1*
X1670866Y2229365D1*
X1673909Y2233554D1*
X1721138Y2280927D1*
X1729131Y2288920D1*
X1728146Y2295728D1*
Y2304521D1*
X1729521Y2313204D1*
X1732238Y2321566D1*
X1736228Y2329399D1*
X1741396Y2336512D1*
X1747613Y2342728D1*
X1754726Y2347896D1*
X1762559Y2351887D1*
X1770921Y2354604D1*
X1779604Y2355979D1*
X1788396D1*
X1797079Y2354604D1*
X1805441Y2351887D1*
X1813274Y2347896D1*
X1820387Y2342728D1*
X1826604Y2336512D1*
X1831772Y2329399D1*
X1835762Y2321566D1*
X1838479Y2313204D1*
X1839854Y2304521D1*
Y2295728D1*
X1838479Y2287046D1*
X1835762Y2278684D1*
X1831772Y2270851D1*
X1826604Y2263738D1*
X1820387Y2257521D1*
X1813274Y2252353D1*
X1809436Y2250046D1*
X1816932Y2245452D1*
X1823618Y2239743D1*
X1829327Y2233057D1*
X1833921Y2225560D1*
X1837285Y2217438D1*
X1839337Y2208890D1*
X1840028Y2200125D1*
X1839337Y2191360D1*
X1837285Y2182811D1*
X1833921Y2174689D1*
X1829327Y2167193D1*
X1823618Y2160507D1*
X1816932Y2154798D1*
X1809264Y2150125D1*
X1816932Y2145452D1*
X1823618Y2139743D1*
X1829327Y2133057D1*
X1833921Y2125560D1*
X1837285Y2117438D1*
X1839337Y2108890D1*
X1840028Y2100125D1*
X1839337Y2091360D1*
X1837285Y2082811D1*
X1833921Y2074689D1*
X1829327Y2067193D1*
X1823618Y2060507D1*
X1816932Y2054798D1*
X1809264Y2050125D1*
X1816932Y2045452D1*
X1823618Y2039743D1*
X1829327Y2033057D1*
X1833921Y2025560D1*
X1837285Y2017438D1*
X1839337Y2008890D1*
X1840028Y2000125D1*
X1839337Y1991360D1*
X1837285Y1982811D1*
X1833921Y1974689D1*
X1829327Y1967193D1*
X1823618Y1960507D1*
X1816932Y1954798D1*
X1809264Y1950125D1*
X1816932Y1945452D1*
X1823618Y1939743D1*
X1829327Y1933057D1*
X1833921Y1925560D1*
X1837285Y1917438D1*
X1839337Y1908890D1*
X1840028Y1900125D1*
X1839337Y1891360D1*
X1837285Y1882811D1*
X1833921Y1874689D1*
X1829327Y1867193D1*
X1823618Y1860507D1*
X1817000Y1854851D1*
X1816996Y1845402D1*
X1823618Y1839743D1*
X1829327Y1833057D1*
X1833921Y1825560D1*
X1837285Y1817438D1*
X1839337Y1808890D1*
X1840028Y1800125D1*
X1839337Y1791360D1*
X1837285Y1782811D1*
X1833921Y1774689D1*
X1829327Y1767193D1*
X1823618Y1760507D1*
X1816932Y1754798D1*
X1809264Y1750125D1*
X1816932Y1745452D1*
X1823618Y1739743D1*
X1829327Y1733057D1*
X1833921Y1725560D1*
X1837285Y1717438D1*
X1839337Y1708890D1*
X1840028Y1700125D1*
X1839337Y1691360D1*
X1837285Y1682811D1*
X1833921Y1674689D1*
X1829327Y1667193D1*
X1823618Y1660507D1*
X1816932Y1654798D1*
X1809264Y1650125D1*
X1816932Y1645452D1*
X1823618Y1639743D1*
X1829327Y1633057D1*
X1833921Y1625560D1*
X1837285Y1617438D1*
X1839337Y1608890D1*
X1840028Y1600125D1*
X1839337Y1591360D1*
X1837285Y1582811D1*
X1833921Y1574689D1*
X1829327Y1567193D1*
X1823618Y1560507D1*
X1816932Y1554798D1*
X1809436Y1550204D1*
X1801314Y1546840D1*
X1792765Y1544788D1*
X1784000Y1544097D1*
X1775235Y1544788D1*
X1766686Y1546840D1*
X1758564Y1550204D1*
X1751068Y1554798D1*
X1744382Y1560507D1*
X1738673Y1567193D1*
X1734079Y1574689D1*
X1730715Y1582811D1*
X1728663Y1591360D1*
X1727972Y1600125D1*
X1728663Y1608890D1*
X1730715Y1617438D1*
X1734079Y1625560D1*
X1738673Y1633057D1*
X1744382Y1639743D1*
X1751068Y1645452D1*
X1758736Y1650125D1*
X1751068Y1654798D1*
X1744382Y1660507D1*
X1738673Y1667193D1*
X1734079Y1674689D1*
X1730715Y1682811D1*
X1728663Y1691360D1*
X1727972Y1700125D1*
X1728663Y1708890D1*
X1730715Y1717438D1*
X1734079Y1725560D1*
X1738673Y1733057D1*
X1744382Y1739743D1*
X1751068Y1745452D1*
X1758736Y1750125D1*
X1751068Y1754798D1*
X1744382Y1760507D1*
X1738673Y1767193D1*
X1734079Y1774689D1*
X1730715Y1782811D1*
X1728663Y1791360D1*
X1727972Y1800125D1*
X1728663Y1808890D1*
X1730715Y1817438D1*
X1734079Y1825560D1*
X1738673Y1833057D1*
X1744382Y1839743D1*
X1751000Y1845399D1*
X1751004Y1854848D1*
X1746818Y1858256D1*
X1268640Y1380101D1*
X1274765Y1379462D1*
X1283314Y1377410D1*
X1291436Y1374046D1*
X1298932Y1369452D1*
X1305618Y1363743D1*
X1311327Y1357057D1*
X1316000Y1349389D1*
X1320673Y1357057D1*
X1326382Y1363743D1*
X1333068Y1369452D1*
X1340564Y1374046D1*
X1348686Y1377410D1*
X1357235Y1379462D1*
X1366000Y1380152D1*
X1374765Y1379462D1*
X1383314Y1377410D1*
X1391436Y1374046D1*
X1398932Y1369452D1*
X1405618Y1363743D1*
X1411327Y1357057D1*
X1416000Y1349389D1*
X1420673Y1357057D1*
X1426382Y1363743D1*
X1433068Y1369452D1*
X1440564Y1374046D1*
X1448686Y1377410D1*
X1457235Y1379462D1*
X1466000Y1380152D1*
X1474765Y1379462D1*
X1483314Y1377410D1*
X1491436Y1374046D1*
X1498932Y1369452D1*
X1505618Y1363743D1*
X1511327Y1357057D1*
X1516000Y1349389D1*
X1520673Y1357057D1*
X1526382Y1363743D1*
X1533068Y1369452D1*
X1540564Y1374046D1*
X1548686Y1377410D1*
X1557235Y1379462D1*
X1566000Y1380152D1*
X1574765Y1379462D1*
X1583314Y1377410D1*
X1591436Y1374046D1*
X1598932Y1369452D1*
X1605618Y1363743D1*
X1611327Y1357057D1*
X1615921Y1349560D1*
X1619285Y1341438D1*
X1621337Y1332890D1*
X1622028Y1324125D1*
X1621337Y1315360D1*
X1619285Y1306811D1*
X1615921Y1298689D1*
X1611327Y1291193D1*
X1605618Y1284507D1*
X1598932Y1278798D1*
X1591436Y1274204D1*
X1583314Y1270840D1*
X1574765Y1268788D1*
X1566000Y1268097D1*
X1557235Y1268788D1*
X1548686Y1270840D1*
X1540564Y1274204D1*
X1533068Y1278798D1*
X1526382Y1284507D1*
X1520673Y1291193D1*
X1516000Y1298861D1*
X1511327Y1291193D1*
X1505618Y1284507D1*
X1498932Y1278798D1*
X1491436Y1274204D1*
X1483314Y1270840D1*
X1474765Y1268788D1*
X1466000Y1268097D1*
X1457235Y1268788D1*
X1448686Y1270840D1*
X1440564Y1274204D1*
X1433068Y1278798D1*
X1426382Y1284507D1*
X1420673Y1291193D1*
X1416000Y1298861D1*
X1411327Y1291193D1*
X1405618Y1284507D1*
X1398932Y1278798D1*
X1391436Y1274204D1*
X1383314Y1270840D1*
X1374765Y1268788D1*
X1366000Y1268097D1*
X1357235Y1268788D1*
X1348686Y1270840D1*
X1340564Y1274204D1*
X1333068Y1278798D1*
X1326382Y1284507D1*
X1320673Y1291193D1*
X1316000Y1298861D1*
X1311327Y1291193D1*
X1305618Y1284507D1*
X1298932Y1278798D1*
X1291436Y1274204D1*
X1283314Y1270840D1*
X1274765Y1268788D1*
X1266000Y1268097D1*
X1257235Y1268788D1*
X1248686Y1270840D1*
X1240564Y1274204D1*
X1233068Y1278798D1*
X1226382Y1284507D1*
X1220673Y1291193D1*
X1216000Y1298861D1*
X1211327Y1291193D1*
X1205618Y1284507D1*
X1198932Y1278798D1*
X1191436Y1274204D1*
X1183314Y1270840D1*
X1174765Y1268788D1*
X1166000Y1268097D1*
X1157235Y1268788D1*
X1148686Y1270840D1*
X1140564Y1274204D1*
X1133068Y1278798D1*
X1126382Y1284507D1*
X1120673Y1291193D1*
X1116000Y1298861D1*
X1111327Y1291193D1*
X1105618Y1284507D1*
X1098932Y1278798D1*
X1091436Y1274204D1*
X1083314Y1270840D1*
X1074765Y1268788D1*
X1066000Y1268097D1*
X1057235Y1268788D1*
X1048686Y1270840D1*
X1040564Y1274204D1*
X1033068Y1278798D1*
X1026382Y1284507D1*
X1020673Y1291193D1*
X1016000Y1298861D1*
X1011327Y1291193D1*
X1005618Y1284507D1*
X998932Y1278798D1*
X991436Y1274204D1*
X983314Y1270840D1*
X974765Y1268788D1*
X966000Y1268097D1*
X957235Y1268788D1*
X948686Y1270840D1*
X940564Y1274204D1*
X933068Y1278798D1*
X926382Y1284507D1*
X920673Y1291193D1*
X916000Y1298861D1*
X2220854Y1086728D2*
X2219479Y1078046D1*
X2216762Y1069684D1*
X2212772Y1061851D1*
X2207604Y1054738D1*
X2201387Y1048521D1*
X2194274Y1043353D1*
X2190436Y1041046D1*
X2197932Y1036452D1*
X2204618Y1030743D1*
X2210327Y1024057D1*
X2214921Y1016560D1*
X2218285Y1008438D1*
X2220337Y999890D1*
X2221028Y991125D1*
X2220337Y982360D1*
X2218285Y973811D1*
X2214921Y965689D1*
X2210327Y958193D1*
X2204618Y951507D1*
X2197932Y945798D1*
X2190264Y941125D1*
X2197932Y936452D1*
X2204618Y930743D1*
X2210327Y924057D1*
X2214921Y916560D1*
X2216510Y913112D1*
X2358589Y913020D1*
X2363703Y912209D1*
X2368627Y910609D1*
X2373240Y908259D1*
X2377429Y905215D1*
X2395293Y887496D1*
X2404000Y888152D1*
X2412765Y887462D1*
X2421314Y885410D1*
X2429436Y882046D1*
X2436932Y877452D1*
X2443618Y871743D1*
X2449327Y865057D1*
X2453921Y857560D1*
X2457285Y849438D1*
X2459337Y840890D1*
X2460028Y832125D1*
X2459337Y823360D1*
X2457285Y814811D1*
X2453921Y806689D1*
X2449327Y799193D1*
X2443618Y792507D1*
X2436932Y786798D1*
X2429264Y782125D1*
X2436932Y777452D1*
X2443618Y771743D1*
X2449327Y765057D1*
X2453921Y757560D1*
X2457285Y749438D1*
X2459337Y740890D1*
X2460028Y732125D1*
X2459337Y723360D1*
X2457285Y714811D1*
X2453921Y706689D1*
X2449327Y699193D1*
X2443618Y692507D1*
X2436932Y686798D1*
X2429264Y682125D1*
X2436932Y677452D1*
X2443618Y671743D1*
X2449327Y665057D1*
X2453921Y657560D1*
X2457285Y649438D1*
X2459337Y640890D1*
X2460028Y632125D1*
X2459337Y623360D1*
X2457285Y614811D1*
X2453921Y606689D1*
X2449327Y599193D1*
X2443618Y592507D1*
X2438646Y588148D1*
X2460028Y588152D1*
Y517999D1*
X2465433Y523419D1*
X2466521Y529204D1*
X2469238Y537566D1*
X2473228Y545399D1*
X2478396Y552512D1*
X2484613Y558728D1*
X2486354Y560101D1*
X2464972Y560097D1*
Y672152D1*
X2557159D1*
X2556803Y940694D1*
X2550932Y935798D1*
X2543436Y931204D1*
X2535314Y927840D1*
X2526765Y925788D1*
X2518000Y925097D1*
X2509235Y925788D1*
X2500686Y927840D1*
X2492564Y931204D1*
X2485068Y935798D1*
X2478382Y941507D1*
X2472673Y948193D1*
X2468000Y955861D1*
X2463327Y948193D1*
X2457618Y941507D1*
X2450932Y935798D1*
X2443436Y931204D1*
X2435314Y927840D1*
X2426765Y925788D1*
X2418000Y925097D1*
X2409235Y925788D1*
X2400686Y927840D1*
X2392564Y931204D1*
X2385068Y935798D1*
X2378382Y941507D1*
X2372673Y948193D1*
X2368079Y955689D1*
X2364715Y963811D1*
X2362663Y972360D1*
X2361972Y981125D1*
X2362663Y989890D1*
X2363444Y993816D1*
X2334965Y1022471D1*
X2331320Y1027486D1*
X2328507Y1033009D1*
X2326592Y1038904D1*
X2325622Y1045025D1*
X2325500Y1084870D1*
X2325622Y1279225D1*
X2326592Y1285345D1*
X2328507Y1291240D1*
X2331320Y1296764D1*
X2334965Y1301778D1*
X2363052Y1330038D1*
X2370487Y1337473D1*
X2370500Y1758589D1*
X2321631Y1758625D1*
X2316932Y1754798D1*
X2309264Y1750125D1*
X2316932Y1745452D1*
X2323618Y1739743D1*
X2329327Y1733057D1*
X2333921Y1725560D1*
X2337285Y1717438D1*
X2339337Y1708890D1*
X2340028Y1700125D1*
X2339337Y1691360D1*
X2337285Y1682811D1*
X2333921Y1674689D1*
X2329327Y1667193D1*
X2323618Y1660507D1*
X2316932Y1654798D1*
X2309436Y1650204D1*
X2301314Y1646840D1*
X2292765Y1644788D1*
X2284000Y1644097D1*
X2275235Y1644788D1*
X2268953Y1646201D1*
X2230507Y1607769D1*
X2230378Y1588025D1*
X2229408Y1581903D1*
X2227493Y1576009D1*
X2224680Y1570486D1*
X2221037Y1565471D1*
X2192948Y1537211D1*
X2180654Y1525088D1*
X2175639Y1521445D1*
X2170115Y1518631D1*
X2164222Y1516717D1*
X2158100Y1515747D1*
X2132357Y1515625D1*
X2131500Y1512752D1*
Y1136004D1*
X2135726Y1138896D1*
X2143559Y1142887D1*
X2151921Y1145604D1*
X2160604Y1146979D1*
X2169396D1*
X2178079Y1145604D1*
X2186441Y1142887D1*
X2194274Y1138896D1*
X2201387Y1133728D1*
X2207604Y1127512D1*
X2212772Y1120399D1*
X2216762Y1112566D1*
X2219479Y1104204D1*
X2220854Y1095521D1*
Y1086728D1*
X2139736Y941125D2*
X2132068Y945798D1*
X2125382Y951507D1*
X2119673Y958193D1*
X2115079Y965689D1*
X2111715Y973811D1*
X2109663Y982360D1*
X2108972Y991125D1*
X2109398Y997654D1*
X2072654Y961089D1*
X2067639Y957445D1*
X2062115Y954631D1*
X2056220Y952717D1*
X2050100Y951747D1*
X2010255Y951625D1*
X1771517D1*
X1771500Y542465D1*
X1805375Y508610D1*
X2347969Y508625D1*
X2347972Y550126D1*
X2203213Y550129D1*
X2197932Y545798D1*
X2190436Y541204D1*
X2182314Y537840D1*
X2173765Y535788D1*
X2165000Y535097D1*
X2156235Y535788D1*
X2147686Y537840D1*
X2139564Y541204D1*
X2132068Y545798D1*
X2125382Y551507D1*
X2119673Y558193D1*
X2115079Y565689D1*
X2111715Y573811D1*
X2109663Y582360D1*
X2108972Y591125D1*
X2109663Y599890D1*
X2111715Y608438D1*
X2115079Y616560D1*
X2119673Y624057D1*
X2125382Y630743D1*
X2132068Y636452D1*
X2139736Y641125D1*
X2132068Y645798D1*
X2125382Y651507D1*
X2119673Y658193D1*
X2115079Y665689D1*
X2111715Y673811D1*
X2109663Y682360D1*
X2108972Y691125D1*
X2109663Y699890D1*
X2111715Y708438D1*
X2115079Y716560D1*
X2119673Y724057D1*
X2125382Y730743D1*
X2132068Y736452D1*
X2139736Y741125D1*
X2132068Y745798D1*
X2125382Y751507D1*
X2119673Y758193D1*
X2115079Y765689D1*
X2111715Y773811D1*
X2109663Y782360D1*
X2108972Y791125D1*
X2109663Y799890D1*
X2111715Y808438D1*
X2115079Y816560D1*
X2119673Y824057D1*
X2125382Y830743D1*
X2132068Y836452D1*
X2139736Y841125D1*
X2132068Y845798D1*
X2125382Y851507D1*
X2119673Y858193D1*
X2115079Y865689D1*
X2111715Y873811D1*
X2109663Y882360D1*
X2108972Y891125D1*
X2109663Y899890D1*
X2111715Y908438D1*
X2115079Y916560D1*
X2119673Y924057D1*
X2125382Y930743D1*
X2132068Y936452D1*
X2139736Y941125D1*
X2339854Y2295728D2*
X2338479Y2287046D1*
X2335762Y2278684D1*
X2331772Y2270851D1*
X2326604Y2263738D1*
X2320387Y2257521D1*
X2313274Y2252353D1*
X2305441Y2248362D1*
X2297079Y2245646D1*
X2288396Y2244270D1*
X2279604D1*
X2270921Y2245646D1*
X2262559Y2248362D1*
X2254726Y2252353D1*
X2247613Y2257521D1*
X2241396Y2263738D1*
X2236228Y2270851D1*
X2232238Y2278684D1*
X2229521Y2287046D1*
X2228146Y2295728D1*
Y2304521D1*
X2229521Y2313204D1*
X2232238Y2321566D1*
X2236228Y2329399D1*
X2241396Y2336512D1*
X2244496Y2339848D1*
X2244500Y2349752D1*
X2155157Y2439106D1*
X2095004Y2439129D1*
Y2555121D1*
X2210996D1*
Y2495015D1*
X2281538Y2424448D1*
X2275942Y2436022D1*
X2272882Y2444320D1*
X2270480Y2452832D1*
X2268756Y2461505D1*
X2267717Y2470288D1*
X2267369Y2479125D1*
X2267717Y2487962D1*
X2268756Y2496744D1*
X2270480Y2505417D1*
X2272882Y2513929D1*
X2275942Y2522227D1*
X2279644Y2530259D1*
X2283966Y2537974D1*
X2288879Y2545328D1*
X2294354Y2552273D1*
X2300358Y2558767D1*
X2306852Y2564770D1*
X2313797Y2570246D1*
X2321151Y2575159D1*
X2328866Y2579480D1*
X2336898Y2583183D1*
X2345196Y2586243D1*
X2353707Y2588644D1*
X2362381Y2590369D1*
X2371163Y2591408D1*
X2380000Y2591756D1*
X2388837Y2591408D1*
X2397619Y2590369D1*
X2406293Y2588644D1*
X2414804Y2586243D1*
X2423102Y2583183D1*
X2431134Y2579480D1*
X2438849Y2575159D1*
X2446203Y2570246D1*
X2453148Y2564770D1*
X2459642Y2558767D1*
X2465646Y2552273D1*
X2471121Y2545328D1*
X2476034Y2537974D1*
X2480356Y2530259D1*
X2484058Y2522227D1*
X2487118Y2513929D1*
X2489520Y2505417D1*
X2491244Y2496744D1*
X2492283Y2487962D1*
X2492631Y2479125D1*
X2492283Y2470288D1*
X2491244Y2461505D1*
X2489520Y2452832D1*
X2487118Y2444320D1*
X2484058Y2436022D1*
X2480356Y2427991D1*
X2476034Y2420276D1*
X2471121Y2412921D1*
X2465646Y2405976D1*
X2459642Y2399483D1*
X2453148Y2393479D1*
X2446203Y2388004D1*
X2438849Y2383091D1*
X2431134Y2378769D1*
X2423102Y2375067D1*
X2414804Y2372007D1*
X2406293Y2369605D1*
X2397619Y2367881D1*
X2388837Y2366841D1*
X2380000Y2366494D1*
X2371163Y2366841D1*
X2362381Y2367881D1*
X2353707Y2369605D1*
X2345196Y2372007D1*
X2336898Y2375067D1*
X2328866Y2378769D1*
X2318938Y2384568D1*
X2321567Y2378331D1*
X2323014Y2372305D1*
X2323500Y2366113D1*
X2323618Y2339743D1*
X2329327Y2333057D1*
X2333921Y2325560D1*
X2337285Y2317438D1*
X2339337Y2308890D1*
X2340028Y2300125D1*
X2339854Y2295728D1*
X733268Y570763D2*
X729921Y562689D1*
X725327Y555193D1*
X719618Y548507D1*
X712932Y542798D1*
X705436Y538204D1*
X697314Y534840D1*
X688765Y532788D1*
X680000Y532097D1*
X671235Y532788D1*
X662686Y534840D1*
X654564Y538204D1*
X647068Y542798D1*
X640382Y548507D1*
X634673Y555193D1*
X630079Y562689D1*
X626715Y570811D1*
X624663Y579360D1*
X623972Y588125D1*
X624663Y596890D1*
X626715Y605438D1*
X630079Y613560D1*
X634673Y621057D1*
X640382Y627743D1*
X647068Y633452D1*
X654564Y638046D1*
X662686Y641410D1*
X671235Y643462D1*
X680000Y644152D1*
X688765Y643462D1*
X697314Y641410D1*
X705436Y638046D1*
X712932Y633452D1*
X719618Y627743D1*
X721728Y625458D1*
X725079Y633560D1*
X729673Y641057D1*
X735382Y647743D1*
X742068Y653452D1*
X749564Y658046D1*
X757686Y661410D1*
X766235Y663462D1*
X775000Y664152D1*
X783765Y663462D1*
X792314Y661410D1*
X800436Y658046D1*
X807932Y653452D1*
X814618Y647743D1*
X820327Y641057D1*
X824921Y633560D1*
X828285Y625438D1*
X830337Y616890D1*
X831028Y608125D1*
X830337Y599360D1*
X828285Y590811D1*
X824921Y582689D1*
X820327Y575193D1*
X814618Y568507D1*
X807932Y562798D1*
X800436Y558204D1*
X792314Y554840D1*
X783765Y552788D1*
X775000Y552097D1*
X766235Y552788D1*
X757686Y554840D1*
X749564Y558204D1*
X742068Y562798D1*
X735382Y568507D1*
X733272Y570791D1*
X1979283Y1405288D2*
X1978244Y1396505D1*
X1976520Y1387832D1*
X1974118Y1379320D1*
X1971058Y1371022D1*
X1967356Y1362991D1*
X1963034Y1355276D1*
X1958121Y1347921D1*
X1952646Y1340976D1*
X1946642Y1334483D1*
X1940148Y1328479D1*
X1933203Y1323004D1*
X1925849Y1318091D1*
X1918134Y1313769D1*
X1910102Y1310067D1*
X1901804Y1307007D1*
X1893293Y1304605D1*
X1884619Y1302881D1*
X1875837Y1301841D1*
X1867000Y1301494D1*
X1858163Y1301841D1*
X1849381Y1302881D1*
X1840707Y1304605D1*
X1832196Y1307007D1*
X1823898Y1310067D1*
X1815866Y1313769D1*
X1808151Y1318091D1*
X1800797Y1323004D1*
X1793852Y1328479D1*
X1787358Y1334483D1*
X1781354Y1340976D1*
X1775879Y1347921D1*
X1770966Y1355276D1*
X1766644Y1362991D1*
X1762942Y1371022D1*
X1759882Y1379320D1*
X1757480Y1387832D1*
X1755756Y1396505D1*
X1754717Y1405288D1*
X1754369Y1414125D1*
X1754717Y1422962D1*
X1755756Y1431744D1*
X1757480Y1440417D1*
X1759882Y1448929D1*
X1762942Y1457227D1*
X1766644Y1465259D1*
X1770966Y1472974D1*
X1775879Y1480328D1*
X1781354Y1487273D1*
X1787358Y1493767D1*
X1793852Y1499770D1*
X1800797Y1505246D1*
X1808151Y1510159D1*
X1815866Y1514480D1*
X1823898Y1518183D1*
X1832196Y1521243D1*
X1840707Y1523644D1*
X1849381Y1525369D1*
X1858163Y1526408D1*
X1867000Y1526756D1*
X1875837Y1526408D1*
X1884619Y1525369D1*
X1893293Y1523644D1*
X1901804Y1521243D1*
X1910102Y1518183D1*
X1918134Y1514480D1*
X1925849Y1510159D1*
X1933203Y1505246D1*
X1940148Y1499770D1*
X1946642Y1493767D1*
X1952646Y1487273D1*
X1958121Y1480328D1*
X1963034Y1472974D1*
X1967356Y1465259D1*
X1971058Y1457227D1*
X1974118Y1448929D1*
X1976520Y1440417D1*
X1978244Y1431744D1*
X1979283Y1422962D1*
X1979631Y1414125D1*
X1979283Y1405288D1*
D17*
X466000Y1324125D3*
X566000D3*
X666000D3*
X766000D3*
X866000D3*
X966000D3*
X1066000D3*
X1166000D3*
X1266000D3*
X1366000D3*
X1466000D3*
X1566000D3*
X466000Y1924125D3*
X566000D3*
X666000D3*
X766000D3*
X866000D3*
X966000D3*
X1066000D3*
X1166000D3*
X1266000D3*
X1366000D3*
X1466000D3*
X1566000D3*
X466000Y2038125D3*
X566000D3*
X666000D3*
X766000D3*
X866000D3*
X966000D3*
X1066000D3*
X1166000D3*
X1266000D3*
X1366000D3*
X1466000D3*
X1566000D3*
X466000Y2638125D3*
X566000D3*
X666000D3*
X766000D3*
X866000D3*
X966000D3*
X1066000D3*
X1166000D3*
X1266000D3*
X1366000D3*
X1466000D3*
X1566000D3*
X1165000Y991125D3*
Y891125D3*
Y791125D3*
Y691125D3*
X2165000Y1091125D3*
Y991125D3*
Y891125D3*
Y791125D3*
Y691125D3*
Y591125D3*
D18*
X2284000Y1600125D3*
D19*
Y1700125D3*
Y1800125D3*
Y1900125D3*
Y2000125D3*
Y2100125D3*
Y2200125D3*
Y2300125D3*
X1784000D3*
Y2200125D3*
Y2100125D3*
Y2000125D3*
Y1900125D3*
Y1800125D3*
Y1700125D3*
Y1600125D3*
D18*
X2404000Y532125D3*
D19*
Y632125D3*
Y732125D3*
Y832125D3*
D18*
X2521000Y616125D3*
D19*
Y516125D3*
D18*
X2518000Y1081125D3*
D19*
Y981125D3*
X2418000Y1081125D3*
Y981125D3*
D20*
X2053000Y2497125D3*
D21*
X2153000D3*
D17*
X680000Y588125D3*
Y808125D3*
X602000Y647125D3*
Y737125D3*
X775000Y608125D3*
Y788125D3*
D22*
X696000Y513125D3*
Y883125D3*
M02*
