G04 DipTrace 3.2.0.1*
G04 TopMask.gbr*
%MOIN*%
G04 #@! TF.FileFunction,Soldermask,Top*
G04 #@! TF.Part,Single*
%ADD27C,0.070866*%
%ADD28C,0.165*%
%ADD38C,0.067055*%
%ADD40R,0.067055X0.067055*%
%ADD42C,0.098551*%
%ADD44C,0.094614*%
%ADD46C,0.110362*%
%ADD48R,0.06X0.087*%
%ADD50C,0.067055*%
%FSLAX26Y26*%
G04*
G70*
G90*
G75*
G01*
G04 TopMask*
%LPD*%
D50*
X794947Y4030166D3*
X1014947D3*
X853947Y4108166D3*
X943947D3*
X814947Y3935166D3*
X994947D3*
D48*
X719947Y4014166D3*
X1089947D3*
D46*
X2160947Y1532166D3*
X1844018Y1453426D3*
X2064491D3*
X1696380Y1532166D3*
D44*
X1848947Y1031166D3*
D42*
X1871619Y1318105D3*
D44*
X1866252Y1159930D3*
D27*
X2145911Y1142210D3*
D50*
X1245947Y4253166D3*
X1245884Y2653166D3*
X1945947Y4253137D3*
X1945884Y2653137D3*
X2178947Y2447166D3*
X2078947D3*
X1978947D3*
X1878947D3*
X1778947D3*
X1678947D3*
X1578947D3*
X1478947D3*
X1378947D3*
X1278947D3*
X1178947D3*
X1078947D3*
X978947D3*
Y2347166D3*
X2178947Y1847166D3*
X2078947D3*
X1978947D3*
X1878947D3*
X1778947D3*
X1678947D3*
X1578947D3*
X1478947D3*
X1378947D3*
X1278947D3*
X1178947D3*
X1078947D3*
X978947D3*
X878947D3*
X1078947Y2347166D3*
X1178947D3*
X1278947D3*
X1378947D3*
X878947Y2447166D3*
D40*
X894947Y1142166D3*
D38*
X994947D3*
X1094947D3*
X1194947D3*
X1294947D3*
X1394947D3*
X1494947D3*
X1594947D3*
Y1642166D3*
X1494947D3*
X1394947D3*
X1294947D3*
X1194947D3*
X1094947D3*
X994947D3*
X894947D3*
D40*
X780947Y1442166D3*
D38*
Y1342166D3*
X680947Y1442166D3*
Y1342166D3*
D50*
X1887947Y653166D3*
X1667947D3*
X1828947Y575166D3*
X1738947D3*
X1867947Y748166D3*
X1687947D3*
D48*
X1962947Y669166D3*
X1592947D3*
D50*
X1335947Y722166D3*
X1115947D3*
X1276947Y644166D3*
X1186947D3*
X1315947Y817166D3*
X1135947D3*
D48*
X1410947Y738166D3*
X1040947D3*
D50*
X783947Y794166D3*
X563947D3*
X724947Y716166D3*
X634947D3*
X763947Y889166D3*
X583947D3*
D48*
X858947Y810166D3*
X488947D3*
D38*
X696947Y3410166D3*
X796947D3*
X896947D3*
X996947D3*
Y3510166D3*
X896947D3*
X796947D3*
X696947D3*
D28*
X720947Y2159166D3*
X1533947Y968166D3*
X1068947Y3668166D3*
M02*
