G04 DipTrace 3.2.0.1*
G04 TopSilk.gbr*
%MOIN*%
G04 #@! TF.FileFunction,Legend,Top*
G04 #@! TF.Part,Single*
%ADD10C,0.009843*%
%ADD66C,0.00772*%
%FSLAX26Y26*%
G04*
G70*
G90*
G75*
G01*
G04 TopSilk*
%LPD*%
X630241Y4015030D2*
D10*
G02X630241Y4015030I275000J0D01*
G01*
X2365965Y1614666D2*
X2208470D1*
X2365965Y1378458D2*
Y1614666D1*
X1657308Y1587113D2*
Y1689479D1*
X2208470D1*
X1696646Y1378458D2*
Y1370582D1*
Y1378458D2*
X2167115D1*
X2208470Y1689479D2*
Y1614666D1*
X1657308Y1370582D2*
Y1472948D1*
X1696646Y1370582D2*
X1657308D1*
X2208470Y1378458D2*
X2365965D1*
X2208470D2*
Y1370582D1*
X2167115D1*
Y1378458D1*
X1927862Y1351168D2*
X2228328Y1310790D1*
X2170664Y881582D1*
X1718025Y942394D1*
X1775689Y1371602D1*
X1826464Y1364791D1*
X2233272Y3473950D2*
Y2643965D1*
X533239Y2644048D1*
Y3474033D1*
X2233272Y3473950D1*
X2229241Y2504030D2*
X829241D1*
Y1804030D1*
X2229241D1*
Y2504030D1*
X2012241Y3532030D2*
X1204241D1*
X1206261Y4132030D2*
Y3532030D1*
X2010221Y4132030D2*
X1206261D1*
X2010221D2*
X2009817Y3855670D1*
X2010221Y3532030D2*
X2009817Y3808390D1*
Y3855670D2*
G03X2009817Y3808390I46J-23640D01*
G01*
X750241Y3483030D2*
X550241D1*
X750241Y3683030D2*
Y3483030D1*
X550241Y3683030D2*
Y3483030D1*
X750241Y3683030D2*
X550241D1*
X1503241Y670030D2*
G02X1503241Y670030I275000J0D01*
G01*
X951241Y739030D2*
G02X951241Y739030I275000J0D01*
G01*
X399241Y811030D2*
G02X399241Y811030I275000J0D01*
G01*
X965241Y1340030D2*
Y1440030D1*
X765241Y1340030D2*
X965241D1*
X765241D2*
Y1440030D1*
X965241D1*
X825534Y627555D2*
X811629Y528539D1*
X1023598Y599708D2*
X825534Y627555D1*
X1023598Y599708D2*
X1009693Y500692D1*
X811629Y528539D1*
X1509091Y1450731D2*
X1115390D1*
Y1627897D1*
X1509091D1*
Y1450731D1*
Y1486164D2*
X1115390D1*
X1045894Y1283306D2*
Y1192755D1*
X844949D1*
X1012510Y1283306D2*
Y1192755D1*
X844949Y1283306D2*
Y1192755D1*
X1045894Y1283306D2*
X844949D1*
X843091Y1170030D2*
Y1110030D1*
X1003391Y1170030D2*
X843091D1*
X1003391D2*
Y1110030D1*
X843091D1*
X879024Y4043163D2*
D66*
Y4004916D1*
X876647Y3997731D1*
X874215Y3995354D1*
X869462Y3992923D1*
X864654D1*
X859901Y3995354D1*
X857524Y3997731D1*
X855092Y4004916D1*
Y4009669D1*
X894463Y4033546D2*
X899272Y4035978D1*
X906457Y4043107D1*
Y3992923D1*
X936266Y4043107D2*
X929081Y4040731D1*
X924273Y4033546D1*
X921896Y4021607D1*
Y4014422D1*
X924273Y4002484D1*
X929081Y3995299D1*
X936266Y3992923D1*
X941019D1*
X948204Y3995299D1*
X952957Y4002484D1*
X955389Y4014422D1*
Y4021607D1*
X952957Y4033546D1*
X948204Y4040731D1*
X941019Y4043107D1*
X936266D1*
X952957Y4033546D2*
X924273Y4002484D1*
X2003978Y1558163D2*
Y1519916D1*
X2001602Y1512731D1*
X1999170Y1510354D1*
X1994417Y1507923D1*
X1989608D1*
X1984855Y1510354D1*
X1982479Y1512731D1*
X1980047Y1519916D1*
Y1524669D1*
X2019418Y1548546D2*
X2024226Y1550978D1*
X2031411Y1558107D1*
Y1507923D1*
X1960676Y1154724D2*
Y1116478D1*
X1958299Y1109293D1*
X1955868Y1106916D1*
X1951114Y1104484D1*
X1946306D1*
X1941553Y1106916D1*
X1939176Y1109293D1*
X1936744Y1116478D1*
Y1121231D1*
X1978547Y1142731D2*
Y1145107D1*
X1980924Y1149916D1*
X1983300Y1152292D1*
X1988109Y1154669D1*
X1997670D1*
X2002424Y1152292D1*
X2004800Y1149916D1*
X2007232Y1145107D1*
Y1140354D1*
X2004800Y1135546D1*
X2000047Y1128416D1*
X1976115Y1104484D1*
X2009609D1*
X1352792Y3087131D2*
Y3051261D1*
X1355169Y3044076D1*
X1359977Y3039323D1*
X1367162Y3036891D1*
X1371915D1*
X1379100Y3039323D1*
X1383909Y3044076D1*
X1386285Y3051261D1*
Y3087131D1*
X1401725Y3077514D2*
X1406533Y3079946D1*
X1413718Y3087076D1*
Y3036891D1*
X1488028Y2182163D2*
Y2146293D1*
X1490404Y2139108D1*
X1495213Y2134354D1*
X1502398Y2131923D1*
X1507151D1*
X1514336Y2134354D1*
X1519145Y2139108D1*
X1521521Y2146293D1*
Y2182163D1*
X1539392Y2170169D2*
Y2172546D1*
X1541769Y2177354D1*
X1544145Y2179731D1*
X1548954Y2182107D1*
X1558515D1*
X1563269Y2179731D1*
X1565645Y2177354D1*
X1568077Y2172546D1*
Y2167793D1*
X1565645Y2162984D1*
X1560892Y2155854D1*
X1536960Y2131923D1*
X1570454D1*
X1567028Y3860163D2*
Y3824293D1*
X1569404Y3817108D1*
X1574213Y3812354D1*
X1581398Y3809923D1*
X1586151D1*
X1593336Y3812354D1*
X1598145Y3817108D1*
X1600521Y3824293D1*
Y3860163D1*
X1620769Y3860107D2*
X1647022D1*
X1632707Y3840984D1*
X1639892D1*
X1644645Y3838607D1*
X1647022Y3836231D1*
X1649454Y3829046D1*
Y3824293D1*
X1647022Y3817108D1*
X1642269Y3812299D1*
X1635084Y3809923D1*
X1627899D1*
X1620769Y3812299D1*
X1618392Y3814731D1*
X1615960Y3819484D1*
X638956Y3756253D2*
Y3718007D1*
X636580Y3710822D1*
X634148Y3708445D1*
X629395Y3706013D1*
X624586D1*
X619833Y3708445D1*
X617456Y3710822D1*
X615025Y3718007D1*
Y3722760D1*
X683080Y3749068D2*
X680704Y3753822D1*
X673519Y3756198D1*
X668766D1*
X661581Y3753822D1*
X656772Y3746637D1*
X654395Y3734698D1*
Y3722760D1*
X656772Y3713199D1*
X661581Y3708390D1*
X668766Y3706013D1*
X671142D1*
X678272Y3708390D1*
X683080Y3713199D1*
X685457Y3720384D1*
Y3722760D1*
X683080Y3729945D1*
X678272Y3734698D1*
X671142Y3737075D1*
X668766D1*
X661581Y3734698D1*
X656772Y3729945D1*
X654395Y3722760D1*
X1765740Y698163D2*
Y659916D1*
X1763364Y652731D1*
X1760932Y650354D1*
X1756179Y647923D1*
X1751370D1*
X1746617Y650354D1*
X1744240Y652731D1*
X1741809Y659916D1*
Y664669D1*
X1790741Y647923D2*
X1814673Y698107D1*
X1781180D1*
X1213768Y767163D2*
Y728916D1*
X1211391Y721731D1*
X1208959Y719354D1*
X1204206Y716923D1*
X1199398D1*
X1194645Y719354D1*
X1192268Y721731D1*
X1189836Y728916D1*
Y733669D1*
X1241145Y767107D2*
X1234016Y764731D1*
X1231584Y759978D1*
Y755169D1*
X1234016Y750416D1*
X1238769Y747984D1*
X1248330Y745607D1*
X1255515Y743231D1*
X1260269Y738422D1*
X1262645Y733669D1*
Y726484D1*
X1260269Y721731D1*
X1257892Y719299D1*
X1250707Y716923D1*
X1241145D1*
X1234016Y719299D1*
X1231584Y721731D1*
X1229207Y726484D1*
Y733669D1*
X1231584Y738422D1*
X1236392Y743231D1*
X1243522Y745607D1*
X1253084Y747984D1*
X1257892Y750416D1*
X1260269Y755169D1*
Y759978D1*
X1257892Y764731D1*
X1250707Y767107D1*
X1241145D1*
X662929Y839163D2*
Y800916D1*
X660552Y793731D1*
X658120Y791354D1*
X653367Y788923D1*
X648559D1*
X643805Y791354D1*
X641429Y793731D1*
X638997Y800916D1*
Y805669D1*
X709485Y822416D2*
X707053Y815231D1*
X702300Y810422D1*
X695115Y808046D1*
X692738D1*
X685553Y810422D1*
X680800Y815231D1*
X678368Y822416D1*
Y824793D1*
X680800Y831978D1*
X685553Y836731D1*
X692738Y839107D1*
X695115D1*
X702300Y836731D1*
X707053Y831978D1*
X709485Y822416D1*
Y810422D1*
X707053Y798484D1*
X702300Y791299D1*
X695115Y788923D1*
X690361D1*
X683176Y791299D1*
X680800Y796108D1*
X851552Y1513253D2*
Y1475007D1*
X849175Y1467822D1*
X846744Y1465445D1*
X841990Y1463013D1*
X837182D1*
X832429Y1465445D1*
X830052Y1467822D1*
X827620Y1475007D1*
Y1479760D1*
X890923Y1463013D2*
Y1513198D1*
X866991Y1479760D1*
X902861D1*
X902147Y700778D2*
Y662531D1*
X899770Y655346D1*
X897338Y652970D1*
X892585Y650538D1*
X887776D1*
X883023Y652970D1*
X880647Y655346D1*
X878215Y662531D1*
Y667284D1*
X917586Y691161D2*
X922394Y693593D1*
X929579Y700723D1*
Y650538D1*
X945019Y691161D2*
X949827Y693593D1*
X957012Y700723D1*
Y650538D1*
X1293744Y1701120D2*
X1288990Y1698798D1*
X1284182Y1693990D1*
X1281805Y1689181D1*
X1279373Y1681996D1*
Y1670058D1*
X1281805Y1662873D1*
X1284182Y1658120D1*
X1288990Y1653311D1*
X1293744Y1650935D1*
X1303305D1*
X1308114Y1653311D1*
X1312867Y1658120D1*
X1315243Y1662873D1*
X1317675Y1670058D1*
Y1681996D1*
X1315243Y1689181D1*
X1312867Y1693990D1*
X1308114Y1698798D1*
X1303305Y1701120D1*
X1293744D1*
X1300929Y1660497D2*
X1315243Y1646126D1*
X1333115Y1691503D2*
X1337923Y1693935D1*
X1345108Y1701064D1*
Y1650880D1*
X914959Y1356529D2*
Y1306289D1*
X931705D1*
X938891Y1308721D1*
X943699Y1313474D1*
X946076Y1318283D1*
X948452Y1325412D1*
Y1337406D1*
X946076Y1344591D1*
X943699Y1349344D1*
X938891Y1354152D1*
X931705Y1356529D1*
X914959D1*
X963891Y1346912D2*
X968700Y1349344D1*
X975885Y1356474D1*
Y1306289D1*
X882028Y1069140D2*
X903528D1*
X910713Y1071572D1*
X913145Y1073948D1*
X915521Y1078702D1*
Y1083510D1*
X913145Y1088263D1*
X910713Y1090695D1*
X903528Y1093072D1*
X882028D1*
Y1042832D1*
X898774Y1069140D2*
X915521Y1042832D1*
X933392Y1081078D2*
Y1083455D1*
X935769Y1088263D1*
X938145Y1090640D1*
X942954Y1093016D1*
X952515D1*
X957269Y1090640D1*
X959645Y1088263D1*
X962077Y1083455D1*
Y1078702D1*
X959645Y1073893D1*
X954892Y1066763D1*
X930960Y1042832D1*
X964454D1*
M02*
