solid lcdenc2
facet normal 1.0 0.0 0.0
  outer loop
    vertex -47891.26058096168 -14532.915562765636 7839.999275207585
    vertex -47891.26058096168 12026.514578683309 12719.999637603745
    vertex -47891.26058096168 -14532.915562765675 12719.999637603769
  endloop
endfacet
facet normal 1.0 0.0 0.0
  outer loop
    vertex -47891.26058096168 12026.514578683309 12719.999637603745
    vertex -47891.26058096168 -14532.915562765636 7839.999275207585
    vertex -47891.26058096168 12026.514578683344 7839.999275207585
  endloop
endfacet
facet normal 1.0 0.0 0.0
  outer loop
    vertex -44407.74770254371 7061.8002804350035 12719.999637603756
    vertex -44407.74770254371 -9568.199834005858 13219.99931335449
    vertex -44407.74770254371 -9568.199834005902 12719.999637603756
  endloop
endfacet
facet normal 1.0 0.0 0.0
  outer loop
    vertex -44407.74770254371 -9568.199834005858 13219.99931335449
    vertex -44407.74770254371 7061.8002804350035 12719.999637603756
    vertex -44407.74770254371 7061.8002804350435 13219.99931335449
  endloop
endfacet
facet normal -5.68557522788344e-49 1.0 -4.20001405401179e-30
  outer loop
    vertex -44407.74770254371 -9568.199834005858 13219.99931335449
    vertex 20032.25330835106 -9568.199834005902 12719.999637603756
    vertex -44407.74770254371 -9568.199834005902 12719.999637603756
  endloop
endfacet
facet normal -5.68557522788344e-49 1.0 -4.20001405401179e-30
  outer loop
    vertex 20032.25330835106 -9568.199834005902 12719.999637603756
    vertex -44407.74770254371 -9568.199834005858 13219.99931335449
    vertex 20032.25330835106 -9568.199834005858 13219.99931335449
  endloop
endfacet
facet normal -5.68557522788344e-49 -1.0 4.20001405401179e-30
  outer loop
    vertex 20032.25330835106 7061.8002804350435 13219.99931335449
    vertex -44407.74770254371 7061.8002804350035 12719.999637603756
    vertex 20032.25330835106 7061.8002804350035 12719.999637603756
  endloop
endfacet
facet normal -5.68557522788344e-49 -1.0 4.20001405401179e-30
  outer loop
    vertex -44407.74770254371 7061.8002804350035 12719.999637603756
    vertex 20032.25330835106 7061.8002804350435 13219.99931335449
    vertex -44407.74770254371 7061.8002804350435 13219.99931335449
  endloop
endfacet
facet normal -1.0 0.0 0.0
  outer loop
    vertex 20032.25330835106 -9568.199834005858 13219.99931335449
    vertex 20032.25330835106 7061.8002804350035 12719.999637603756
    vertex 20032.25330835106 -9568.199834005902 12719.999637603756
  endloop
endfacet
facet normal -1.0 0.0 0.0
  outer loop
    vertex 20032.25330835106 7061.8002804350035 12719.999637603756
    vertex 20032.25330835106 -9568.199834005858 13219.99931335449
    vertex 20032.25330835106 7061.8002804350435 13219.99931335449
  endloop
endfacet
facet normal -1.0 0.0 0.0
  outer loop
    vertex 50892.251782472136 -19263.20120729688 6039.999313354526
    vertex 50892.251782472136 16756.798792703117 -3119.9998855590593
    vertex 50892.251782472136 -19263.201207296883 -3119.9998855590825
  endloop
endfacet
facet normal -1.0 0.0 0.0
  outer loop
    vertex 50892.251782472136 16756.798792703117 -3119.9998855590593
    vertex 50892.251782472136 -19263.20120729688 6039.999313354526
    vertex 50892.251782472136 16756.798792703128 6039.999313354529
  endloop
endfacet
facet normal 1.0 -3.0632062291254497e-18 -2.7639933013987358e-14
  outer loop
    vertex -52197.747912352046 16756.798792703117 -3119.999885559059
    vertex -52197.747912352046 -19263.20120729688 6039.999313354523
    vertex -52197.747912352046 -19263.201207296883 -3119.999885559082
  endloop
endfacet
facet normal 1.0 -3.0632062291254497e-18 -2.7639933013987358e-14
  outer loop
    vertex -52197.747912352046 -19263.20120729688 6039.999313354523
    vertex -52197.747912352046 16756.798792703117 -3119.999885559059
    vertex -52197.747912352046 -14532.915562765636 6039.999313354523
  endloop
endfacet
facet normal 1.0 -3.0632062291254497e-18 -2.7639933013987358e-14
  outer loop
    vertex -52197.747912352046 -14532.915562765636 6039.999313354523
    vertex -52197.747912352046 16756.798792703117 -3119.999885559059
    vertex -52197.747912352046 -14532.915562765636 7839.999275207585
  endloop
endfacet
facet normal 1.0 -3.0632062291254497e-18 -2.7639933013987358e-14
  outer loop
    vertex -52197.747912352046 -14532.915562765636 7839.999275207585
    vertex -52197.747912352046 16756.798792703117 -3119.999885559059
    vertex -52197.747912352046 12026.514578683344 6039.999313354524
  endloop
endfacet
facet normal 1.0 -3.0632062291254497e-18 -2.7639933013987358e-14
  outer loop
    vertex -52197.747912352046 12026.514578683344 6039.999313354524
    vertex -52197.747912352046 16756.798792703117 -3119.999885559059
    vertex -52197.747912352046 16756.798792703128 6039.999313354526
  endloop
endfacet
facet normal 1.0 -3.0632062291254497e-18 -2.7639933013987358e-14
  outer loop
    vertex -52197.747912352046 12026.514578683344 7839.999275207585
    vertex -52197.747912352046 -14532.915562765636 7839.999275207585
    vertex -52197.747912352046 12026.514578683344 6039.999313354524
  endloop
endfacet
facet normal -1.0 0.0 0.0
  outer loop
    vertex -54193.74790609347 18746.79879270312 11219.999313354529
    vertex -54193.74790609347 -21253.20120729688 -3119.9998855590825
    vertex -54193.74790609347 -21253.20120729688 11219.999313354541
  endloop
endfacet
facet normal -1.0 0.0 0.0
  outer loop
    vertex -54193.74790609347 -21253.20120729688 -3119.9998855590825
    vertex -54193.74790609347 18746.79879270312 11219.999313354529
    vertex -54193.74790609347 18746.79879270312 -3119.9998855590593
  endloop
endfacet
facet normal 1.0 0.0 0.0
  outer loop
    vertex 52882.25178247216 18746.79879270312 -3119.9998855590825
    vertex 52882.25178247216 -21253.20120729687 11219.999313354541
    vertex 52882.25178247216 -21253.20120729688 -3119.9998855590825
  endloop
endfacet
facet normal 1.0 0.0 0.0
  outer loop
    vertex 52882.25178247216 -21253.20120729687 11219.999313354541
    vertex 52882.25178247216 18746.79879270312 -3119.9998855590825
    vertex 52882.25178247216 18746.798792703124 11219.999313354541
  endloop
endfacet
facet normal 2.9287154029352553e-18 3.964568496631058e-16 -1.0
  outer loop
    vertex -54193.74790609347 18746.79879270312 -3119.9998855590593
    vertex -52197.747912352046 16756.798792703117 -3119.999885559059
    vertex -54193.74790609347 -21253.20120729688 -3119.9998855590825
  endloop
endfacet
facet normal 2.9287154029352553e-18 3.964568496631058e-16 -1.0
  outer loop
    vertex -52197.747912352046 16756.798792703117 -3119.999885559059
    vertex -54193.74790609347 18746.79879270312 -3119.9998855590593
    vertex 52882.25178247216 18746.79879270312 -3119.9998855590825
  endloop
endfacet
facet normal 2.9287154029352553e-18 3.964568496631058e-16 -1.0
  outer loop
    vertex -52197.747912352046 16756.798792703117 -3119.999885559059
    vertex 52882.25178247216 18746.79879270312 -3119.9998855590825
    vertex 50892.251782472136 16756.798792703117 -3119.9998855590593
  endloop
endfacet
facet normal 2.9287154029352553e-18 3.964568496631058e-16 -1.0
  outer loop
    vertex 50892.251782472136 16756.798792703117 -3119.9998855590593
    vertex 52882.25178247216 18746.79879270312 -3119.9998855590825
    vertex 50892.251782472136 -19263.201207296883 -3119.9998855590825
  endloop
endfacet
facet normal 2.9287154029352553e-18 3.964568496631058e-16 -1.0
  outer loop
    vertex -54193.74790609347 -21253.20120729688 -3119.9998855590825
    vertex -52197.747912352046 -19263.201207296883 -3119.999885559082
    vertex 52882.25178247216 -21253.20120729688 -3119.9998855590825
  endloop
endfacet
facet normal 2.9287154029352553e-18 3.964568496631058e-16 -1.0
  outer loop
    vertex -52197.747912352046 -19263.201207296883 -3119.999885559082
    vertex -54193.74790609347 -21253.20120729688 -3119.9998855590825
    vertex -52197.747912352046 16756.798792703117 -3119.999885559059
  endloop
endfacet
facet normal 2.9287154029352553e-18 3.964568496631058e-16 -1.0
  outer loop
    vertex 52882.25178247216 -21253.20120729688 -3119.9998855590825
    vertex -52197.747912352046 -19263.201207296883 -3119.999885559082
    vertex 50892.251782472136 -19263.201207296883 -3119.9998855590825
  endloop
endfacet
facet normal 2.9287154029352553e-18 3.964568496631058e-16 -1.0
  outer loop
    vertex 52882.25178247216 -21253.20120729688 -3119.9998855590825
    vertex 50892.251782472136 -19263.201207296883 -3119.9998855590825
    vertex 52882.25178247216 18746.79879270312 -3119.9998855590825
  endloop
endfacet
facet normal 1.3565594121288794e-17 -1.0 8.20182259087142e-16
  outer loop
    vertex 50892.251782472136 16756.798792703128 6039.999313354529
    vertex -52197.747912352046 16756.798792703117 -3119.999885559059
    vertex 50892.251782472136 16756.798792703117 -3119.9998855590593
  endloop
endfacet
facet normal 1.3565594121288794e-17 -1.0 8.20182259087142e-16
  outer loop
    vertex -52197.747912352046 16756.798792703117 -3119.999885559059
    vertex 50892.251782472136 16756.798792703128 6039.999313354529
    vertex -52197.747912352046 16756.798792703128 6039.999313354526
  endloop
endfacet
facet normal 1.3565594121288804e-17 1.0 -1.2555330772541812e-16
  outer loop
    vertex -52197.747912352046 -19263.201207296883 -3119.999885559082
    vertex 50892.251782472136 -19263.20120729688 6039.999313354526
    vertex 50892.251782472136 -19263.201207296883 -3119.9998855590825
  endloop
endfacet
facet normal 1.3565594121288804e-17 1.0 -1.2555330772541812e-16
  outer loop
    vertex 50892.251782472136 -19263.20120729688 6039.999313354526
    vertex -52197.747912352046 -19263.201207296883 -3119.999885559082
    vertex -52197.747912352046 -19263.20120729688 6039.999313354523
  endloop
endfacet
facet normal -7.042452273952422e-16 -8.021237994802903e-17 1.0
  outer loop
    vertex 40816.78960502963 -13253.201207296885 7719.999313354532
    vertex 34666.277895899235 10746.798792703132 7719.99931335452
    vertex 34666.277895899235 -13253.201207296885 7719.999313354523
  endloop
endfacet
facet normal -7.042452273952422e-16 -8.021237994802903e-17 1.0
  outer loop
    vertex 34666.277895899235 10746.798792703132 7719.99931335452
    vertex 40816.78960502963 -13253.201207296885 7719.999313354532
    vertex 40816.78960502963 10746.798792703132 7719.9993133545295
  endloop
endfacet
facet normal 3.286598379484443e-30 -1.0 -2.4575706203512333e-15
  outer loop
    vertex 40816.78960502963 10746.798792703132 7719.9993133545295
    vertex 34666.277895899235 10746.798792703119 12719.999637603745
    vertex 34666.277895899235 10746.798792703132 7719.99931335452
  endloop
endfacet
facet normal 3.286598379484443e-30 -1.0 -2.4575706203512333e-15
  outer loop
    vertex 34666.277895899235 10746.798792703119 12719.999637603745
    vertex 40816.78960502963 10746.798792703132 7719.9993133545295
    vertex 40816.78960502963 10746.798792703119 12719.99963760377
  endloop
endfacet
facet normal 0.0 1.0 0.0
  outer loop
    vertex 34666.277895899235 -13253.201207296885 12719.999637603769
    vertex 40816.78960502963 -13253.201207296885 7719.999313354532
    vertex 34666.277895899235 -13253.201207296885 7719.999313354523
  endloop
endfacet
facet normal 0.0 1.0 0.0
  outer loop
    vertex 40816.78960502963 -13253.201207296885 7719.999313354532
    vertex 34666.277895899235 -13253.201207296885 12719.999637603769
    vertex 40816.78960502963 -13253.201207296885 12719.999637603778
  endloop
endfacet
facet normal 9.891246354360485e-17 -7.494948529173233e-16 -1.0
  outer loop
    vertex -47891.26058096168 12026.514578683309 12719.999637603745
    vertex -44407.74770254371 7061.8002804350035 12719.999637603756
    vertex -47891.26058096168 -14532.915562765675 12719.999637603769
  endloop
endfacet
facet normal 9.891246354360485e-17 -7.494948529173233e-16 -1.0
  outer loop
    vertex -44407.74770254371 7061.8002804350035 12719.999637603756
    vertex -47891.26058096168 12026.514578683309 12719.999637603745
    vertex 34666.27789589926 12026.514578683309 12719.999637603745
  endloop
endfacet
facet normal 9.891246354360485e-17 -7.494948529173233e-16 -1.0
  outer loop
    vertex -44407.74770254371 7061.8002804350035 12719.999637603756
    vertex 34666.27789589926 12026.514578683309 12719.999637603745
    vertex 20032.25330835106 7061.8002804350035 12719.999637603756
  endloop
endfacet
facet normal 9.891246354360485e-17 -7.494948529173233e-16 -1.0
  outer loop
    vertex 20032.25330835106 7061.8002804350035 12719.999637603756
    vertex 34666.27789589926 12026.514578683309 12719.999637603745
    vertex 20032.25330835106 -9568.199834005902 12719.999637603756
  endloop
endfacet
facet normal 9.891246354360485e-17 -7.494948529173233e-16 -1.0
  outer loop
    vertex 20032.25330835106 -9568.199834005902 12719.999637603756
    vertex 34666.27789589926 12026.514578683309 12719.999637603745
    vertex 31635.188982653763 6496.798792703116 12719.99963760377
  endloop
endfacet
facet normal 9.891246354360485e-17 -7.494948529173233e-16 -1.0
  outer loop
    vertex 20032.25330835106 -9568.199834005902 12719.999637603756
    vertex 31635.188982653763 6496.798792703116 12719.99963760377
    vertex 31285.537503887557 5652.66545056194 12719.99963760377
  endloop
endfacet
facet normal 9.891246354360485e-17 -7.494948529173233e-16 -1.0
  outer loop
    vertex 20032.25330835106 -9568.199834005902 12719.999637603756
    vertex 31285.537503887557 5652.66545056194 12719.99963760377
    vertex 31166.277895899304 4746.798792703115 12719.99963760377
  endloop
endfacet
facet normal 9.891246354360485e-17 -7.494948529173233e-16 -1.0
  outer loop
    vertex 31635.188982653763 6496.798792703116 12719.99963760377
    vertex 34666.27789589926 12026.514578683309 12719.999637603745
    vertex 32191.404161746388 7221.672526856034 12719.99963760377
  endloop
endfacet
facet normal 9.891246354360485e-17 -7.494948529173233e-16 -1.0
  outer loop
    vertex 32191.404161746388 7221.672526856034 12719.99963760377
    vertex 34666.27789589926 12026.514578683309 12719.999637603745
    vertex 32916.2778958993 7777.887705948653 12719.999637603778
  endloop
endfacet
facet normal 9.891246354360485e-17 -7.494948529173233e-16 -1.0
  outer loop
    vertex 32916.2778958993 7777.887705948653 12719.999637603778
    vertex 34666.27789589926 12026.514578683309 12719.999637603745
    vertex 33760.41123804048 8127.539184714858 12719.999637603778
  endloop
endfacet
facet normal 9.891246354360485e-17 -7.494948529173233e-16 -1.0
  outer loop
    vertex 33760.41123804048 8127.539184714858 12719.999637603778
    vertex 34666.27789589926 12026.514578683309 12719.999637603745
    vertex 34666.277895899235 10746.798792703119 12719.999637603745
  endloop
endfacet
facet normal 9.891246354360485e-17 -7.494948529173233e-16 -1.0
  outer loop
    vertex 34666.277895899235 10746.798792703119 12719.999637603745
    vertex 34666.27789589929 8246.798792703117 12719.999637603778
    vertex 33760.41123804048 8127.539184714858 12719.999637603778
  endloop
endfacet
facet normal 9.891246354360485e-17 -7.494948529173233e-16 -1.0
  outer loop
    vertex 34666.27789589929 8246.798792703117 12719.999637603778
    vertex 34666.277895899235 10746.798792703119 12719.999637603745
    vertex 40816.78960502963 10746.798792703119 12719.99963760377
  endloop
endfacet
facet normal 9.891246354360485e-17 -7.494948529173233e-16 -1.0
  outer loop
    vertex 34666.27789589929 8246.798792703117 12719.999637603778
    vertex 40816.78960502963 10746.798792703119 12719.99963760377
    vertex 35572.144553758124 8127.539184714858 12719.999637603778
  endloop
endfacet
facet normal 9.891246354360485e-17 -7.494948529173233e-16 -1.0
  outer loop
    vertex 35572.144553758124 8127.539184714858 12719.999637603778
    vertex 40816.78960502963 10746.798792703119 12719.99963760377
    vertex 36416.2778958993 7777.887705948653 12719.999637603778
  endloop
endfacet
facet normal 9.891246354360485e-17 -7.494948529173233e-16 -1.0
  outer loop
    vertex 36416.2778958993 7777.887705948653 12719.999637603778
    vertex 40816.78960502963 10746.798792703119 12719.99963760377
    vertex 37141.15163005223 7221.672526856034 12719.999637603778
  endloop
endfacet
facet normal 9.891246354360485e-17 -7.494948529173233e-16 -1.0
  outer loop
    vertex 37141.15163005223 7221.672526856034 12719.999637603778
    vertex 40816.78960502963 10746.798792703119 12719.99963760377
    vertex 37697.366809144834 6496.798792703116 12719.999637603778
  endloop
endfacet
facet normal 9.891246354360485e-17 -7.494948529173233e-16 -1.0
  outer loop
    vertex 37697.366809144834 6496.798792703116 12719.999637603778
    vertex 40816.78960502963 10746.798792703119 12719.99963760377
    vertex 38047.01828791104 5652.66545056194 12719.999637603778
  endloop
endfacet
facet normal 9.891246354360485e-17 -7.494948529173233e-16 -1.0
  outer loop
    vertex 38047.01828791104 5652.66545056194 12719.999637603778
    vertex 40816.78960502963 10746.798792703119 12719.99963760377
    vertex 38166.27789589931 4746.798792703115 12719.999637603778
  endloop
endfacet
facet normal 9.891246354360485e-17 -7.494948529173233e-16 -1.0
  outer loop
    vertex 38166.27789589931 4746.798792703115 12719.999637603778
    vertex 40816.78960502963 10746.798792703119 12719.99963760377
    vertex 38166.27789589931 -7253.201207296884 12719.999637603785
  endloop
endfacet
facet normal 9.891246354360485e-17 -7.494948529173233e-16 -1.0
  outer loop
    vertex 34666.277895899315 -10753.201207296885 12719.99963760378
    vertex 34666.277895899235 -13253.201207296885 12719.999637603769
    vertex 33760.41123804049 -10633.941599308622 12719.99963760378
  endloop
endfacet
facet normal 9.891246354360485e-17 -7.494948529173233e-16 -1.0
  outer loop
    vertex 34666.277895899235 -13253.201207296885 12719.999637603769
    vertex 34666.277895899315 -10753.201207296885 12719.99963760378
    vertex 40816.78960502963 -13253.201207296885 12719.999637603778
  endloop
endfacet
facet normal 9.891246354360485e-17 -7.494948529173233e-16 -1.0
  outer loop
    vertex 40816.78960502963 -13253.201207296885 12719.999637603778
    vertex 34666.277895899315 -10753.201207296885 12719.99963760378
    vertex 35572.14455375814 -10633.941599308622 12719.99963760378
  endloop
endfacet
facet normal 9.891246354360485e-17 -7.494948529173233e-16 -1.0
  outer loop
    vertex 40816.78960502963 -13253.201207296885 12719.999637603778
    vertex 35572.14455375814 -10633.941599308622 12719.99963760378
    vertex 36416.27789589932 -10284.290120542419 12719.999637603785
  endloop
endfacet
facet normal 9.891246354360485e-17 -7.494948529173233e-16 -1.0
  outer loop
    vertex 40816.78960502963 -13253.201207296885 12719.999637603778
    vertex 36416.27789589932 -10284.290120542419 12719.999637603785
    vertex 37141.15163005223 -9728.0749414498 12719.999637603785
  endloop
endfacet
facet normal 9.891246354360485e-17 -7.494948529173233e-16 -1.0
  outer loop
    vertex 40816.78960502963 -13253.201207296885 12719.999637603778
    vertex 37141.15163005223 -9728.0749414498 12719.999637603785
    vertex 37697.36680914486 -9003.201207296883 12719.999637603785
  endloop
endfacet
facet normal 9.891246354360485e-17 -7.494948529173233e-16 -1.0
  outer loop
    vertex 40816.78960502963 -13253.201207296885 12719.999637603778
    vertex 37697.36680914486 -9003.201207296883 12719.999637603785
    vertex 38047.018287911065 -8159.067865155705 12719.999637603785
  endloop
endfacet
facet normal 9.891246354360485e-17 -7.494948529173233e-16 -1.0
  outer loop
    vertex 40816.78960502963 -13253.201207296885 12719.999637603778
    vertex 38047.018287911065 -8159.067865155705 12719.999637603785
    vertex 38166.27789589931 -7253.201207296884 12719.999637603785
  endloop
endfacet
facet normal 9.891246354360485e-17 -7.494948529173233e-16 -1.0
  outer loop
    vertex 40816.78960502963 -13253.201207296885 12719.999637603778
    vertex 38166.27789589931 -7253.201207296884 12719.999637603785
    vertex 40816.78960502963 10746.798792703119 12719.99963760377
  endloop
endfacet
facet normal 9.891246354360485e-17 -7.494948529173233e-16 -1.0
  outer loop
    vertex 31285.537503887557 3840.932134844289 12719.99963760377
    vertex 31166.277895899304 -7253.201207296884 12719.99963760378
    vertex 31166.277895899304 4746.798792703115 12719.99963760377
  endloop
endfacet
facet normal 9.891246354360485e-17 -7.494948529173233e-16 -1.0
  outer loop
    vertex 31166.277895899304 -7253.201207296884 12719.99963760378
    vertex 31285.537503887557 3840.932134844289 12719.99963760377
    vertex 31285.537503887568 -6347.334549438063 12719.99963760378
  endloop
endfacet
facet normal 9.891246354360485e-17 -7.494948529173233e-16 -1.0
  outer loop
    vertex 31285.537503887568 -6347.334549438063 12719.99963760378
    vertex 31285.537503887557 3840.932134844289 12719.99963760377
    vertex 31635.188982653763 2996.798792703112 12719.99963760377
  endloop
endfacet
facet normal 9.891246354360485e-17 -7.494948529173233e-16 -1.0
  outer loop
    vertex 31285.537503887568 -6347.334549438063 12719.99963760378
    vertex 31635.188982653763 2996.798792703112 12719.99963760377
    vertex 31635.188982653774 -5503.201207296886 12719.99963760378
  endloop
endfacet
facet normal 9.891246354360485e-17 -7.494948529173233e-16 -1.0
  outer loop
    vertex 31635.188982653774 -5503.201207296886 12719.99963760378
    vertex 31635.188982653763 2996.798792703112 12719.99963760377
    vertex 32191.404161746388 2271.9250585501977 12719.99963760377
  endloop
endfacet
facet normal 9.891246354360485e-17 -7.494948529173233e-16 -1.0
  outer loop
    vertex 31635.188982653774 -5503.201207296886 12719.99963760378
    vertex 32191.404161746388 2271.9250585501977 12719.99963760377
    vertex 32191.404161746388 -4778.327473143969 12719.99963760378
  endloop
endfacet
facet normal 9.891246354360485e-17 -7.494948529173233e-16 -1.0
  outer loop
    vertex 32191.404161746388 -4778.327473143969 12719.99963760378
    vertex 32191.404161746388 2271.9250585501977 12719.99963760377
    vertex 32916.2778958993 1715.7098794575788 12719.99963760377
  endloop
endfacet
facet normal 9.891246354360485e-17 -7.494948529173233e-16 -1.0
  outer loop
    vertex 32191.404161746388 -4778.327473143969 12719.99963760378
    vertex 32916.2778958993 1715.7098794575788 12719.99963760377
    vertex 32916.27789589931 -4222.11229405135 12719.99963760378
  endloop
endfacet
facet normal 9.891246354360485e-17 -7.494948529173233e-16 -1.0
  outer loop
    vertex 32916.27789589931 -4222.11229405135 12719.99963760378
    vertex 32916.2778958993 1715.7098794575788 12719.99963760377
    vertex 33760.41123804048 1366.0584006913741 12719.999637603778
  endloop
endfacet
facet normal 9.891246354360485e-17 -7.494948529173233e-16 -1.0
  outer loop
    vertex 32916.27789589931 -4222.11229405135 12719.99963760378
    vertex 33760.41123804048 1366.0584006913741 12719.999637603778
    vertex 33760.41123804049 -3872.460815285145 12719.99963760378
  endloop
endfacet
facet normal 9.891246354360485e-17 -7.494948529173233e-16 -1.0
  outer loop
    vertex 33760.41123804049 -3872.460815285145 12719.99963760378
    vertex 33760.41123804048 1366.0584006913741 12719.999637603778
    vertex 34666.27789589929 1246.7987927031147 12719.999637603778
  endloop
endfacet
facet normal 9.891246354360485e-17 -7.494948529173233e-16 -1.0
  outer loop
    vertex 33760.41123804049 -3872.460815285145 12719.99963760378
    vertex 34666.27789589929 1246.7987927031147 12719.999637603778
    vertex 34666.277895899315 -3753.201207296883 12719.99963760378
  endloop
endfacet
facet normal 9.891246354360485e-17 -7.494948529173233e-16 -1.0
  outer loop
    vertex 34666.277895899315 -3753.201207296883 12719.99963760378
    vertex 34666.27789589929 1246.7987927031147 12719.999637603778
    vertex 35572.144553758124 1366.058400691377 12719.999637603778
  endloop
endfacet
facet normal 9.891246354360485e-17 -7.494948529173233e-16 -1.0
  outer loop
    vertex 34666.277895899315 -3753.201207296883 12719.99963760378
    vertex 35572.144553758124 1366.058400691377 12719.999637603778
    vertex 35572.14455375814 -3872.460815285145 12719.99963760378
  endloop
endfacet
facet normal 9.891246354360485e-17 -7.494948529173233e-16 -1.0
  outer loop
    vertex 35572.14455375814 -3872.460815285145 12719.99963760378
    vertex 35572.144553758124 1366.058400691377 12719.999637603778
    vertex 36416.2778958993 1715.7098794575788 12719.999637603778
  endloop
endfacet
facet normal 9.891246354360485e-17 -7.494948529173233e-16 -1.0
  outer loop
    vertex 35572.14455375814 -3872.460815285145 12719.99963760378
    vertex 36416.2778958993 1715.7098794575788 12719.999637603778
    vertex 36416.27789589932 -4222.11229405135 12719.999637603785
  endloop
endfacet
facet normal 9.891246354360485e-17 -7.494948529173233e-16 -1.0
  outer loop
    vertex 36416.27789589932 -4222.11229405135 12719.999637603785
    vertex 36416.2778958993 1715.7098794575788 12719.999637603778
    vertex 37141.15163005223 2271.9250585502004 12719.999637603778
  endloop
endfacet
facet normal 9.891246354360485e-17 -7.494948529173233e-16 -1.0
  outer loop
    vertex 36416.27789589932 -4222.11229405135 12719.999637603785
    vertex 37141.15163005223 2271.9250585502004 12719.999637603778
    vertex 37141.15163005223 -4778.327473143969 12719.999637603785
  endloop
endfacet
facet normal 9.891246354360485e-17 -7.494948529173233e-16 -1.0
  outer loop
    vertex 37141.15163005223 -4778.327473143969 12719.999637603785
    vertex 37141.15163005223 2271.9250585502004 12719.999637603778
    vertex 37697.366809144834 2996.7987927031154 12719.999637603778
  endloop
endfacet
facet normal 9.891246354360485e-17 -7.494948529173233e-16 -1.0
  outer loop
    vertex 37141.15163005223 -4778.327473143969 12719.999637603785
    vertex 37697.366809144834 2996.7987927031154 12719.999637603778
    vertex 37697.36680914486 -5503.201207296884 12719.999637603785
  endloop
endfacet
facet normal 9.891246354360485e-17 -7.494948529173233e-16 -1.0
  outer loop
    vertex 37697.36680914486 -5503.201207296884 12719.999637603785
    vertex 37697.366809144834 2996.7987927031154 12719.999637603778
    vertex 38047.01828791104 3840.9321348442922 12719.999637603778
  endloop
endfacet
facet normal 9.891246354360485e-17 -7.494948529173233e-16 -1.0
  outer loop
    vertex 37697.36680914486 -5503.201207296884 12719.999637603785
    vertex 38047.01828791104 3840.9321348442922 12719.999637603778
    vertex 38047.018287911065 -6347.33454943806 12719.999637603785
  endloop
endfacet
facet normal 9.891246354360485e-17 -7.494948529173233e-16 -1.0
  outer loop
    vertex 38047.018287911065 -6347.33454943806 12719.999637603785
    vertex 38047.01828791104 3840.9321348442922 12719.999637603778
    vertex 38166.27789589931 4746.798792703115 12719.999637603778
  endloop
endfacet
facet normal 9.891246354360485e-17 -7.494948529173233e-16 -1.0
  outer loop
    vertex 38047.018287911065 -6347.33454943806 12719.999637603785
    vertex 38166.27789589931 4746.798792703115 12719.999637603778
    vertex 38166.27789589931 -7253.201207296884 12719.999637603785
  endloop
endfacet
facet normal 9.891246354360485e-17 -7.494948529173233e-16 -1.0
  outer loop
    vertex -47891.26058096168 -14532.915562765675 12719.999637603769
    vertex -44407.74770254371 -9568.199834005902 12719.999637603756
    vertex 34666.27789589926 -14532.915562765675 12719.999637603769
  endloop
endfacet
facet normal 9.891246354360485e-17 -7.494948529173233e-16 -1.0
  outer loop
    vertex -44407.74770254371 -9568.199834005902 12719.999637603756
    vertex -47891.26058096168 -14532.915562765675 12719.999637603769
    vertex -44407.74770254371 7061.8002804350035 12719.999637603756
  endloop
endfacet
facet normal 9.891246354360485e-17 -7.494948529173233e-16 -1.0
  outer loop
    vertex 34666.27789589926 -14532.915562765675 12719.999637603769
    vertex -44407.74770254371 -9568.199834005902 12719.999637603756
    vertex 20032.25330835106 -9568.199834005902 12719.999637603756
  endloop
endfacet
facet normal 9.891246354360485e-17 -7.494948529173233e-16 -1.0
  outer loop
    vertex 34666.27789589926 -14532.915562765675 12719.999637603769
    vertex 20032.25330835106 -9568.199834005902 12719.999637603756
    vertex 31635.188982653774 -9003.201207296886 12719.99963760378
  endloop
endfacet
facet normal 9.891246354360485e-17 -7.494948529173233e-16 -1.0
  outer loop
    vertex 31635.188982653774 -9003.201207296886 12719.99963760378
    vertex 20032.25330835106 -9568.199834005902 12719.999637603756
    vertex 31285.537503887568 -8159.06786515571 12719.99963760378
  endloop
endfacet
facet normal 9.891246354360485e-17 -7.494948529173233e-16 -1.0
  outer loop
    vertex 31285.537503887568 -8159.06786515571 12719.99963760378
    vertex 20032.25330835106 -9568.199834005902 12719.999637603756
    vertex 31166.277895899304 -7253.201207296884 12719.99963760378
  endloop
endfacet
facet normal 9.891246354360485e-17 -7.494948529173233e-16 -1.0
  outer loop
    vertex 31166.277895899304 -7253.201207296884 12719.99963760378
    vertex 20032.25330835106 -9568.199834005902 12719.999637603756
    vertex 31166.277895899304 4746.798792703115 12719.99963760377
  endloop
endfacet
facet normal 9.891246354360485e-17 -7.494948529173233e-16 -1.0
  outer loop
    vertex 34666.27789589926 -14532.915562765675 12719.999637603769
    vertex 31635.188982653774 -9003.201207296886 12719.99963760378
    vertex 32191.4041617464 -9728.074941449802 12719.99963760378
  endloop
endfacet
facet normal 9.891246354360485e-17 -7.494948529173233e-16 -1.0
  outer loop
    vertex 34666.27789589926 -14532.915562765675 12719.999637603769
    vertex 32191.4041617464 -9728.074941449802 12719.99963760378
    vertex 32916.27789589931 -10284.290120542419 12719.99963760378
  endloop
endfacet
facet normal 9.891246354360485e-17 -7.494948529173233e-16 -1.0
  outer loop
    vertex 34666.27789589926 -14532.915562765675 12719.999637603769
    vertex 32916.27789589931 -10284.290120542419 12719.99963760378
    vertex 33760.41123804049 -10633.941599308622 12719.99963760378
  endloop
endfacet
facet normal 9.891246354360485e-17 -7.494948529173233e-16 -1.0
  outer loop
    vertex 34666.27789589926 -14532.915562765675 12719.999637603769
    vertex 33760.41123804049 -10633.941599308622 12719.99963760378
    vertex 34666.277895899235 -13253.201207296885 12719.999637603769
  endloop
endfacet
facet normal -1.0 0.0 0.0
  outer loop
    vertex 40816.78960502963 10746.798792703119 12719.99963760377
    vertex 40816.78960502963 -13253.201207296885 7719.999313354532
    vertex 40816.78960502963 -13253.201207296885 12719.999637603778
  endloop
endfacet
facet normal -1.0 0.0 0.0
  outer loop
    vertex 40816.78960502963 -13253.201207296885 7719.999313354532
    vertex 40816.78960502963 10746.798792703119 12719.99963760377
    vertex 40816.78960502963 10746.798792703132 7719.9993133545295
  endloop
endfacet
facet normal 0.13052619222005118 0.9914448613738105 2.3613143254711057e-16
  outer loop
    vertex 33760.4112380405 1366.058400691377 13219.999313354521
    vertex 34666.27789589929 1246.7987927031147 12719.999637603778
    vertex 33760.41123804048 1366.0584006913741 12719.999637603778
  endloop
endfacet
facet normal 0.13052619222005118 0.9914448613738105 2.3613143254711057e-16
  outer loop
    vertex 34666.27789589929 1246.7987927031147 12719.999637603778
    vertex 33760.4112380405 1366.058400691377 13219.999313354521
    vertex 34666.277895899315 1246.7987927031147 13219.999313354521
  endloop
endfacet
facet normal -0.13052619222005196 0.9914448613738105 -2.4122989435513806e-31
  outer loop
    vertex 34666.277895899315 1246.7987927031147 13219.999313354521
    vertex 35572.144553758124 1366.058400691377 12719.999637603778
    vertex 34666.27789589929 1246.7987927031147 12719.999637603778
  endloop
endfacet
facet normal -0.13052619222005196 0.9914448613738105 -2.4122989435513806e-31
  outer loop
    vertex 35572.144553758124 1366.058400691377 12719.999637603778
    vertex 34666.277895899315 1246.7987927031147 13219.999313354521
    vertex 35572.144553758146 1366.058400691377 13219.999313354521
  endloop
endfacet
facet normal -0.3826834323650905 0.9238795325112865 -2.361314325471114e-16
  outer loop
    vertex 35572.144553758146 1366.058400691377 13219.999313354521
    vertex 36416.2778958993 1715.7098794575788 12719.999637603778
    vertex 35572.144553758124 1366.058400691377 12719.999637603778
  endloop
endfacet
facet normal -0.3826834323650905 0.9238795325112865 -2.361314325471114e-16
  outer loop
    vertex 36416.2778958993 1715.7098794575788 12719.999637603778
    vertex 35572.144553758146 1366.058400691377 13219.999313354521
    vertex 36416.27789589932 1715.7098794575816 13219.999313354521
  endloop
endfacet
facet normal -0.6087614290087203 0.7933533402912354 -4.561708981917784e-16
  outer loop
    vertex 36416.27789589932 1715.7098794575816 13219.999313354521
    vertex 37141.15163005223 2271.9250585502004 12719.999637603778
    vertex 36416.2778958993 1715.7098794575788 12719.999637603778
  endloop
endfacet
facet normal -0.6087614290087203 0.7933533402912354 -4.561708981917784e-16
  outer loop
    vertex 37141.15163005223 2271.9250585502004 12719.999637603778
    vertex 36416.27789589932 1715.7098794575816 13219.999313354521
    vertex 37141.15163005225 2271.9250585502004 13219.999313354525
  endloop
endfacet
facet normal -0.7933533402912352 0.6087614290087208 -6.451230709827299e-16
  outer loop
    vertex 37697.36680914486 2996.798792703118 13219.999313354525
    vertex 37141.15163005223 2271.9250585502004 12719.999637603778
    vertex 37141.15163005225 2271.9250585502004 13219.999313354525
  endloop
endfacet
facet normal -0.7933533402912352 0.6087614290087208 -6.451230709827299e-16
  outer loop
    vertex 37141.15163005223 2271.9250585502004 12719.999637603778
    vertex 37697.36680914486 2996.798792703118 13219.999313354525
    vertex 37697.366809144834 2996.7987927031154 12719.999637603778
  endloop
endfacet
facet normal -0.9238795325112866 0.3826834323650905 -7.901111726024903e-16
  outer loop
    vertex 37697.36680914486 2996.798792703118 13219.999313354525
    vertex 38047.01828791104 3840.9321348442922 12719.999637603778
    vertex 37697.366809144834 2996.7987927031154 12719.999637603778
  endloop
endfacet
facet normal -0.9238795325112866 0.3826834323650905 -7.901111726024903e-16
  outer loop
    vertex 38047.01828791104 3840.9321348442922 12719.999637603778
    vertex 37697.36680914486 2996.798792703118 13219.999313354525
    vertex 38047.018287911065 3840.932134844295 13219.999313354525
  endloop
endfacet
facet normal -0.9914448613738108 0.13052619222004985 -8.812545035298413e-16
  outer loop
    vertex 38047.018287911065 3840.932134844295 13219.999313354525
    vertex 38166.27789589931 4746.798792703115 12719.999637603778
    vertex 38047.01828791104 3840.9321348442922 12719.999637603778
  endloop
endfacet
facet normal -0.9914448613738108 0.13052619222004985 -8.812545035298413e-16
  outer loop
    vertex 38166.27789589931 4746.798792703115 12719.999637603778
    vertex 38047.018287911065 3840.932134844295 13219.999313354525
    vertex 38166.27789589933 4746.798792703119 13219.999313354525
  endloop
endfacet
facet normal -0.9914448613738107 -0.13052619222004974 -9.123417963835575e-16
  outer loop
    vertex 38166.27789589933 4746.798792703119 13219.999313354525
    vertex 38047.01828791104 5652.66545056194 12719.999637603778
    vertex 38166.27789589931 4746.798792703115 12719.999637603778
  endloop
endfacet
facet normal -0.9914448613738107 -0.13052619222004974 -9.123417963835575e-16
  outer loop
    vertex 38047.01828791104 5652.66545056194 12719.999637603778
    vertex 38166.27789589933 4746.798792703119 13219.999313354525
    vertex 38047.018287911065 5652.66545056194 13219.999313354525
  endloop
endfacet
facet normal -0.9238795325112867 -0.3826834323650904 -8.812545035298409e-16
  outer loop
    vertex 37697.36680914486 6496.798792703116 13219.999313354525
    vertex 38047.01828791104 5652.66545056194 12719.999637603778
    vertex 38047.018287911065 5652.66545056194 13219.999313354525
  endloop
endfacet
facet normal -0.9238795325112867 -0.3826834323650904 -8.812545035298409e-16
  outer loop
    vertex 38047.01828791104 5652.66545056194 12719.999637603778
    vertex 37697.36680914486 6496.798792703116 13219.999313354525
    vertex 37697.366809144834 6496.798792703116 12719.999637603778
  endloop
endfacet
facet normal -0.7933533402912345 -0.6087614290087217 -7.901111726024901e-16
  outer loop
    vertex 37141.15163005225 7221.672526856034 13219.999313354525
    vertex 37697.366809144834 6496.798792703116 12719.999637603778
    vertex 37697.36680914486 6496.798792703116 13219.999313354525
  endloop
endfacet
facet normal -0.7933533402912345 -0.6087614290087217 -7.901111726024901e-16
  outer loop
    vertex 37697.366809144834 6496.798792703116 12719.999637603778
    vertex 37141.15163005225 7221.672526856034 13219.999313354525
    vertex 37141.15163005223 7221.672526856034 12719.999637603778
  endloop
endfacet
facet normal -0.6087614290087201 -0.7933533402912356 -6.451230709827295e-16
  outer loop
    vertex 37141.15163005225 7221.672526856034 13219.999313354525
    vertex 36416.2778958993 7777.887705948653 12719.999637603778
    vertex 37141.15163005223 7221.672526856034 12719.999637603778
  endloop
endfacet
facet normal -0.6087614290087201 -0.7933533402912356 -6.451230709827295e-16
  outer loop
    vertex 36416.2778958993 7777.887705948653 12719.999637603778
    vertex 37141.15163005225 7221.672526856034 13219.999313354525
    vertex 36416.27789589932 7777.887705948653 13219.999313354525
  endloop
endfacet
facet normal -0.3826834323650908 -0.9238795325112863 -4.5617089819177965e-16
  outer loop
    vertex 36416.27789589932 7777.887705948653 13219.999313354525
    vertex 35572.144553758124 8127.539184714858 12719.999637603778
    vertex 36416.2778958993 7777.887705948653 12719.999637603778
  endloop
endfacet
facet normal -0.3826834323650908 -0.9238795325112863 -4.5617089819177965e-16
  outer loop
    vertex 35572.144553758124 8127.539184714858 12719.999637603778
    vertex 36416.27789589932 7777.887705948653 13219.999313354525
    vertex 35572.144553758146 8127.539184714858 13219.999313354521
  endloop
endfacet
facet normal -0.13052619222005118 -0.9914448613738105 -2.3613143254711057e-16
  outer loop
    vertex 35572.144553758146 8127.539184714858 13219.999313354521
    vertex 34666.27789589929 8246.798792703117 12719.999637603778
    vertex 35572.144553758124 8127.539184714858 12719.999637603778
  endloop
endfacet
facet normal -0.13052619222005118 -0.9914448613738105 -2.3613143254711057e-16
  outer loop
    vertex 34666.27789589929 8246.798792703117 12719.999637603778
    vertex 35572.144553758146 8127.539184714858 13219.999313354521
    vertex 34666.277895899315 8246.798792703117 13219.999313354521
  endloop
endfacet
facet normal 0.13052619222005118 -0.9914448613738105 -4.605297983143546e-31
  outer loop
    vertex 34666.277895899315 8246.798792703117 13219.999313354521
    vertex 33760.41123804048 8127.539184714858 12719.999637603778
    vertex 34666.27789589929 8246.798792703117 12719.999637603778
  endloop
endfacet
facet normal 0.13052619222005118 -0.9914448613738105 -4.605297983143546e-31
  outer loop
    vertex 33760.41123804048 8127.539184714858 12719.999637603778
    vertex 34666.277895899315 8246.798792703117 13219.999313354521
    vertex 33760.4112380405 8127.539184714858 13219.999313354521
  endloop
endfacet
facet normal 0.3826834323650908 -0.9238795325112863 2.361314325471117e-16
  outer loop
    vertex 33760.4112380405 8127.539184714858 13219.999313354521
    vertex 32916.2778958993 7777.887705948653 12719.999637603778
    vertex 33760.41123804048 8127.539184714858 12719.999637603778
  endloop
endfacet
facet normal 0.3826834323650908 -0.9238795325112863 2.361314325471117e-16
  outer loop
    vertex 32916.2778958993 7777.887705948653 12719.999637603778
    vertex 33760.4112380405 8127.539184714858 13219.999313354521
    vertex 32916.27789589932 7777.887705948653 13219.999313354521
  endloop
endfacet
facet normal 0.6087614290087201 -0.7933533402912356 4.561708981917782e-16
  outer loop
    vertex 32916.2778958993 7777.887705948653 12719.999637603778
    vertex 32191.40416174641 7221.672526856034 13219.99931335452
    vertex 32191.404161746388 7221.672526856034 12719.99963760377
  endloop
endfacet
facet normal 0.6087614290087201 -0.7933533402912356 4.561708981917782e-16
  outer loop
    vertex 32191.40416174641 7221.672526856034 13219.99931335452
    vertex 32916.2778958993 7777.887705948653 12719.999637603778
    vertex 32916.27789589932 7777.887705948653 13219.999313354521
  endloop
endfacet
facet normal 0.7933533402912352 -0.6087614290087209 6.451230709827297e-16
  outer loop
    vertex 32191.404161746388 7221.672526856034 12719.99963760377
    vertex 31635.188982653784 6496.798792703116 13219.99931335452
    vertex 31635.188982653763 6496.798792703116 12719.99963760377
  endloop
endfacet
facet normal 0.7933533402912352 -0.6087614290087209 6.451230709827297e-16
  outer loop
    vertex 31635.188982653784 6496.798792703116 13219.99931335452
    vertex 32191.404161746388 7221.672526856034 12719.99963760377
    vertex 32191.40416174641 7221.672526856034 13219.99931335452
  endloop
endfacet
facet normal 0.9238795325112865 -0.3826834323650906 7.901111726024903e-16
  outer loop
    vertex 31635.188982653763 6496.798792703116 12719.99963760377
    vertex 31285.537503887583 5652.66545056194 13219.99931335452
    vertex 31285.537503887557 5652.66545056194 12719.99963760377
  endloop
endfacet
facet normal 0.9238795325112865 -0.3826834323650906 7.901111726024903e-16
  outer loop
    vertex 31285.537503887583 5652.66545056194 13219.99931335452
    vertex 31635.188982653763 6496.798792703116 12719.99963760377
    vertex 31635.188982653784 6496.798792703116 13219.99931335452
  endloop
endfacet
facet normal 0.9914448613738107 -0.13052619222004974 8.812545035298411e-16
  outer loop
    vertex 31285.537503887557 5652.66545056194 12719.99963760377
    vertex 31166.27789589933 4746.798792703115 13219.99931335452
    vertex 31166.277895899304 4746.798792703115 12719.99963760377
  endloop
endfacet
facet normal 0.9914448613738107 -0.13052619222004974 8.812545035298411e-16
  outer loop
    vertex 31166.27789589933 4746.798792703115 13219.99931335452
    vertex 31285.537503887557 5652.66545056194 12719.99963760377
    vertex 31285.537503887583 5652.66545056194 13219.99931335452
  endloop
endfacet
facet normal 0.9914448613738108 0.13052619222004933 9.123417963835577e-16
  outer loop
    vertex 31166.277895899304 4746.798792703115 12719.99963760377
    vertex 31285.537503887583 3840.9321348442922 13219.99931335452
    vertex 31285.537503887557 3840.932134844289 12719.99963760377
  endloop
endfacet
facet normal 0.9914448613738108 0.13052619222004933 9.123417963835577e-16
  outer loop
    vertex 31285.537503887583 3840.9321348442922 13219.99931335452
    vertex 31166.277895899304 4746.798792703115 12719.99963760377
    vertex 31166.27789589933 4746.798792703115 13219.99931335452
  endloop
endfacet
facet normal 0.9238795325112863 0.3826834323650911 8.812545035298406e-16
  outer loop
    vertex 31285.537503887557 3840.932134844289 12719.99963760377
    vertex 31635.188982653784 2996.7987927031154 13219.99931335452
    vertex 31635.188982653763 2996.798792703112 12719.99963760377
  endloop
endfacet
facet normal 0.9238795325112863 0.3826834323650911 8.812545035298406e-16
  outer loop
    vertex 31635.188982653784 2996.7987927031154 13219.99931335452
    vertex 31285.537503887557 3840.932134844289 12719.99963760377
    vertex 31285.537503887583 3840.9321348442922 13219.99931335452
  endloop
endfacet
facet normal 0.7933533402912349 0.6087614290087211 7.901111726024904e-16
  outer loop
    vertex 31635.188982653763 2996.798792703112 12719.99963760377
    vertex 32191.40416174641 2271.9250585502004 13219.99931335452
    vertex 32191.404161746388 2271.9250585501977 12719.99963760377
  endloop
endfacet
facet normal 0.7933533402912349 0.6087614290087211 7.901111726024904e-16
  outer loop
    vertex 32191.40416174641 2271.9250585502004 13219.99931335452
    vertex 31635.188982653763 2996.798792703112 12719.99963760377
    vertex 31635.188982653784 2996.7987927031154 13219.99931335452
  endloop
endfacet
facet normal 0.6087614290087207 0.7933533402912353 6.451230709827299e-16
  outer loop
    vertex 32191.40416174641 2271.9250585502004 13219.99931335452
    vertex 32916.2778958993 1715.7098794575788 12719.99963760377
    vertex 32191.404161746388 2271.9250585501977 12719.99963760377
  endloop
endfacet
facet normal 0.6087614290087207 0.7933533402912353 6.451230709827299e-16
  outer loop
    vertex 32916.2778958993 1715.7098794575788 12719.99963760377
    vertex 32191.40416174641 2271.9250585502004 13219.99931335452
    vertex 32916.27789589932 1715.7098794575788 13219.99931335452
  endloop
endfacet
facet normal 0.38268343236508917 0.9238795325112871 4.561708981917784e-16
  outer loop
    vertex 32916.27789589932 1715.7098794575788 13219.99931335452
    vertex 33760.41123804048 1366.0584006913741 12719.999637603778
    vertex 32916.2778958993 1715.7098794575788 12719.99963760377
  endloop
endfacet
facet normal 0.38268343236508917 0.9238795325112871 4.561708981917784e-16
  outer loop
    vertex 33760.41123804048 1366.0584006913741 12719.999637603778
    vertex 32916.27789589932 1715.7098794575788 13219.99931335452
    vertex 33760.4112380405 1366.058400691377 13219.999313354521
  endloop
endfacet
facet normal 0.13052619222005274 0.9914448613738103 1.2703984472229172e-16
  outer loop
    vertex 33760.4112380405 -10633.941599308622 13219.999313354521
    vertex 34666.277895899315 -10753.201207296885 12719.99963760378
    vertex 33760.41123804049 -10633.941599308622 12719.99963760378
  endloop
endfacet
facet normal 0.13052619222005274 0.9914448613738103 1.2703984472229172e-16
  outer loop
    vertex 34666.277895899315 -10753.201207296885 12719.99963760378
    vertex 33760.4112380405 -10633.941599308622 13219.999313354521
    vertex 34666.277895899315 -10753.201207296885 13219.999313354521
  endloop
endfacet
facet normal -0.13052619222005274 0.9914448613738103 -1.270398447222915e-16
  outer loop
    vertex 34666.277895899315 -10753.201207296885 13219.999313354521
    vertex 35572.14455375814 -10633.941599308622 12719.99963760378
    vertex 34666.277895899315 -10753.201207296885 12719.99963760378
  endloop
endfacet
facet normal -0.13052619222005274 0.9914448613738103 -1.270398447222915e-16
  outer loop
    vertex 35572.14455375814 -10633.941599308622 12719.99963760378
    vertex 34666.277895899315 -10753.201207296885 13219.999313354521
    vertex 35572.144553758146 -10633.941599308622 13219.999313354521
  endloop
endfacet
facet normal -0.3826834323650908 0.9238795325112863 -3.7246197869231803e-16
  outer loop
    vertex 35572.144553758146 -10633.941599308622 13219.999313354521
    vertex 36416.27789589932 -10284.290120542419 12719.999637603785
    vertex 35572.14455375814 -10633.941599308622 12719.99963760378
  endloop
endfacet
facet normal -0.3826834323650908 0.9238795325112863 -3.7246197869231803e-16
  outer loop
    vertex 36416.27789589932 -10284.290120542419 12719.999637603785
    vertex 35572.144553758146 -10633.941599308622 13219.999313354521
    vertex 36416.27789589932 -10284.290120542419 13219.999313354525
  endloop
endfacet
facet normal -0.6087614290087191 0.7933533402912364 -5.925014443369837e-16
  outer loop
    vertex 36416.27789589932 -10284.290120542419 13219.999313354525
    vertex 37141.15163005223 -9728.0749414498 12719.999637603785
    vertex 36416.27789589932 -10284.290120542419 12719.999637603785
  endloop
endfacet
facet normal -0.6087614290087191 0.7933533402912364 -5.925014443369837e-16
  outer loop
    vertex 37141.15163005223 -9728.0749414498 12719.999637603785
    vertex 36416.27789589932 -10284.290120542419 13219.999313354525
    vertex 37141.15163005225 -9728.0749414498 13219.999313354525
  endloop
endfacet
facet normal -0.7933533402912356 0.6087614290087201 -7.721629157050207e-16
  outer loop
    vertex 37697.36680914486 -9003.201207296883 13219.999313354525
    vertex 37141.15163005223 -9728.0749414498 12719.999637603785
    vertex 37141.15163005225 -9728.0749414498 13219.999313354525
  endloop
endfacet
facet normal -0.7933533402912356 0.6087614290087201 -7.721629157050207e-16
  outer loop
    vertex 37141.15163005223 -9728.0749414498 12719.999637603785
    vertex 37697.36680914486 -9003.201207296883 13219.999313354525
    vertex 37697.36680914486 -9003.201207296883 12719.999637603785
  endloop
endfacet
facet normal -0.9238795325112863 0.3826834323650908 -8.992027604273104e-16
  outer loop
    vertex 38047.018287911065 -8159.067865155705 13219.999313354525
    vertex 37697.36680914486 -9003.201207296883 12719.999637603785
    vertex 37697.36680914486 -9003.201207296883 13219.999313354525
  endloop
endfacet
facet normal -0.9238795325112863 0.3826834323650908 -8.992027604273104e-16
  outer loop
    vertex 37697.36680914486 -9003.201207296883 12719.999637603785
    vertex 38047.018287911065 -8159.067865155705 13219.999313354525
    vertex 38047.018287911065 -8159.067865155705 12719.999637603785
  endloop
endfacet
facet normal -0.9914448613738108 0.13052619222004985 -9.649634230293028e-16
  outer loop
    vertex 38166.27789589933 -7253.201207296884 13219.999313354525
    vertex 38047.018287911065 -8159.067865155705 12719.999637603785
    vertex 38047.018287911065 -8159.067865155705 13219.999313354525
  endloop
endfacet
facet normal -0.9914448613738108 0.13052619222004985 -9.649634230293028e-16
  outer loop
    vertex 38047.018287911065 -8159.067865155705 12719.999637603785
    vertex 38166.27789589933 -7253.201207296884 13219.999313354525
    vertex 38166.27789589931 -7253.201207296884 12719.999637603785
  endloop
endfacet
facet normal -0.9914448613738108 -0.13052619222004966 -9.649634230293028e-16
  outer loop
    vertex 38047.018287911065 -6347.33454943806 13219.999313354525
    vertex 38166.27789589931 -7253.201207296884 12719.999637603785
    vertex 38166.27789589933 -7253.201207296884 13219.999313354525
  endloop
endfacet
facet normal -0.9914448613738108 -0.13052619222004966 -9.649634230293028e-16
  outer loop
    vertex 38166.27789589931 -7253.201207296884 12719.999637603785
    vertex 38047.018287911065 -6347.33454943806 13219.999313354525
    vertex 38047.018287911065 -6347.33454943806 12719.999637603785
  endloop
endfacet
facet normal -0.9238795325112863 -0.3826834323650908 -8.992027604273104e-16
  outer loop
    vertex 37697.36680914486 -5503.201207296884 13219.999313354525
    vertex 38047.018287911065 -6347.33454943806 12719.999637603785
    vertex 38047.018287911065 -6347.33454943806 13219.999313354525
  endloop
endfacet
facet normal -0.9238795325112863 -0.3826834323650908 -8.992027604273104e-16
  outer loop
    vertex 38047.018287911065 -6347.33454943806 12719.999637603785
    vertex 37697.36680914486 -5503.201207296884 13219.999313354525
    vertex 37697.36680914486 -5503.201207296884 12719.999637603785
  endloop
endfacet
facet normal -0.7933533402912352 -0.6087614290087209 -7.721629157050205e-16
  outer loop
    vertex 37141.15163005225 -4778.327473143969 13219.999313354525
    vertex 37697.36680914486 -5503.201207296884 12719.999637603785
    vertex 37697.36680914486 -5503.201207296884 13219.999313354525
  endloop
endfacet
facet normal -0.7933533402912352 -0.6087614290087209 -7.721629157050205e-16
  outer loop
    vertex 37697.36680914486 -5503.201207296884 12719.999637603785
    vertex 37141.15163005225 -4778.327473143969 13219.999313354525
    vertex 37141.15163005223 -4778.327473143969 12719.999637603785
  endloop
endfacet
facet normal -0.6087614290087201 -0.7933533402912356 -5.925014443369848e-16
  outer loop
    vertex 37141.15163005225 -4778.327473143969 13219.999313354525
    vertex 36416.27789589932 -4222.11229405135 12719.999637603785
    vertex 37141.15163005223 -4778.327473143969 12719.999637603785
  endloop
endfacet
facet normal -0.6087614290087201 -0.7933533402912356 -5.925014443369848e-16
  outer loop
    vertex 36416.27789589932 -4222.11229405135 12719.999637603785
    vertex 37141.15163005225 -4778.327473143969 13219.999313354525
    vertex 36416.27789589932 -4222.11229405135 13219.999313354525
  endloop
endfacet
facet normal -0.38268343236509017 -0.9238795325112867 -3.7246197869231773e-16
  outer loop
    vertex 36416.27789589932 -4222.11229405135 12719.999637603785
    vertex 35572.144553758146 -3872.460815285145 13219.999313354521
    vertex 35572.14455375814 -3872.460815285145 12719.99963760378
  endloop
endfacet
facet normal -0.38268343236509017 -0.9238795325112867 -3.7246197869231773e-16
  outer loop
    vertex 35572.144553758146 -3872.460815285145 13219.999313354521
    vertex 36416.27789589932 -4222.11229405135 12719.999637603785
    vertex 36416.27789589932 -4222.11229405135 13219.999313354525
  endloop
endfacet
facet normal -0.13052619222005118 -0.9914448613738105 -1.270398447222902e-16
  outer loop
    vertex 35572.144553758146 -3872.460815285145 13219.999313354521
    vertex 34666.277895899315 -3753.201207296883 12719.99963760378
    vertex 35572.14455375814 -3872.460815285145 12719.99963760378
  endloop
endfacet
facet normal -0.13052619222005118 -0.9914448613738105 -1.270398447222902e-16
  outer loop
    vertex 34666.277895899315 -3753.201207296883 12719.99963760378
    vertex 35572.144553758146 -3872.460815285145 13219.999313354521
    vertex 34666.277895899315 -3753.201207296883 13219.999313354521
  endloop
endfacet
facet normal 0.13052619222005196 -0.9914448613738105 1.2703984472229073e-16
  outer loop
    vertex 34666.277895899315 -3753.201207296883 13219.999313354521
    vertex 33760.41123804049 -3872.460815285145 12719.99963760378
    vertex 34666.277895899315 -3753.201207296883 12719.99963760378
  endloop
endfacet
facet normal 0.13052619222005196 -0.9914448613738105 1.2703984472229073e-16
  outer loop
    vertex 33760.41123804049 -3872.460815285145 12719.99963760378
    vertex 34666.277895899315 -3753.201207296883 13219.999313354521
    vertex 33760.4112380405 -3872.460815285145 13219.999313354521
  endloop
endfacet
facet normal 0.3826834323650908 -0.9238795325112863 3.7246197869231803e-16
  outer loop
    vertex 33760.4112380405 -3872.460815285145 13219.999313354521
    vertex 32916.27789589931 -4222.11229405135 12719.99963760378
    vertex 33760.41123804049 -3872.460815285145 12719.99963760378
  endloop
endfacet
facet normal 0.3826834323650908 -0.9238795325112863 3.7246197869231803e-16
  outer loop
    vertex 32916.27789589931 -4222.11229405135 12719.99963760378
    vertex 33760.4112380405 -3872.460815285145 13219.999313354521
    vertex 32916.27789589932 -4222.11229405135 13219.99931335452
  endloop
endfacet
facet normal 0.6087614290087197 -0.793353340291236 5.925014443369842e-16
  outer loop
    vertex 32916.27789589932 -4222.11229405135 13219.99931335452
    vertex 32191.404161746388 -4778.327473143969 12719.99963760378
    vertex 32916.27789589931 -4222.11229405135 12719.99963760378
  endloop
endfacet
facet normal 0.6087614290087197 -0.793353340291236 5.925014443369842e-16
  outer loop
    vertex 32191.404161746388 -4778.327473143969 12719.99963760378
    vertex 32916.27789589932 -4222.11229405135 13219.99931335452
    vertex 32191.40416174641 -4778.327473143969 13219.99931335452
  endloop
endfacet
facet normal 0.7933533402912359 -0.6087614290087198 7.72162915705021e-16
  outer loop
    vertex 32191.404161746388 -4778.327473143969 12719.99963760378
    vertex 31635.188982653784 -5503.201207296886 13219.99931335452
    vertex 31635.188982653774 -5503.201207296886 12719.99963760378
  endloop
endfacet
facet normal 0.7933533402912359 -0.6087614290087198 7.72162915705021e-16
  outer loop
    vertex 31635.188982653784 -5503.201207296886 13219.99931335452
    vertex 32191.404161746388 -4778.327473143969 12719.99963760378
    vertex 32191.40416174641 -4778.327473143969 13219.99931335452
  endloop
endfacet
facet normal 0.9238795325112863 -0.3826834323650908 8.992027604273104e-16
  outer loop
    vertex 31635.188982653774 -5503.201207296886 12719.99963760378
    vertex 31285.537503887583 -6347.334549438063 13219.99931335452
    vertex 31285.537503887568 -6347.334549438063 12719.99963760378
  endloop
endfacet
facet normal 0.9238795325112863 -0.3826834323650908 8.992027604273104e-16
  outer loop
    vertex 31285.537503887583 -6347.334549438063 13219.99931335452
    vertex 31635.188982653774 -5503.201207296886 12719.99963760378
    vertex 31635.188982653784 -5503.201207296886 13219.99931335452
  endloop
endfacet
facet normal 0.9914448613738106 -0.13052619222005005 9.649634230293026e-16
  outer loop
    vertex 31285.537503887568 -6347.334549438063 12719.99963760378
    vertex 31166.27789589933 -7253.201207296884 13219.99931335452
    vertex 31166.277895899304 -7253.201207296884 12719.99963760378
  endloop
endfacet
facet normal 0.9914448613738106 -0.13052619222005005 9.649634230293026e-16
  outer loop
    vertex 31166.27789589933 -7253.201207296884 13219.99931335452
    vertex 31285.537503887568 -6347.334549438063 12719.99963760378
    vertex 31285.537503887583 -6347.334549438063 13219.99931335452
  endloop
endfacet
facet normal 0.9914448613738107 0.13052619222004944 9.649634230293026e-16
  outer loop
    vertex 31166.277895899304 -7253.201207296884 12719.99963760378
    vertex 31285.537503887583 -8159.06786515571 13219.99931335452
    vertex 31285.537503887568 -8159.06786515571 12719.99963760378
  endloop
endfacet
facet normal 0.9914448613738107 0.13052619222004944 9.649634230293026e-16
  outer loop
    vertex 31285.537503887583 -8159.06786515571 13219.99931335452
    vertex 31166.277895899304 -7253.201207296884 12719.99963760378
    vertex 31166.27789589933 -7253.201207296884 13219.99931335452
  endloop
endfacet
facet normal 0.9238795325112863 0.3826834323650908 8.992027604273104e-16
  outer loop
    vertex 31285.537503887568 -8159.06786515571 12719.99963760378
    vertex 31635.188982653784 -9003.201207296886 13219.99931335452
    vertex 31635.188982653774 -9003.201207296886 12719.99963760378
  endloop
endfacet
facet normal 0.9238795325112863 0.3826834323650908 8.992027604273104e-16
  outer loop
    vertex 31635.188982653784 -9003.201207296886 13219.99931335452
    vertex 31285.537503887568 -8159.06786515571 12719.99963760378
    vertex 31285.537503887583 -8159.06786515571 13219.99931335452
  endloop
endfacet
facet normal 0.793353340291232 0.6087614290087249 7.721629157050174e-16
  outer loop
    vertex 31635.188982653774 -9003.201207296886 12719.99963760378
    vertex 32191.40416174641 -9728.074941449802 13219.99931335452
    vertex 32191.4041617464 -9728.074941449802 12719.99963760378
  endloop
endfacet
facet normal 0.793353340291232 0.6087614290087249 7.721629157050174e-16
  outer loop
    vertex 32191.40416174641 -9728.074941449802 13219.99931335452
    vertex 31635.188982653774 -9003.201207296886 12719.99963760378
    vertex 31635.188982653784 -9003.201207296886 13219.99931335452
  endloop
endfacet
facet normal 0.6087614290087222 0.7933533402912342 5.925014443369869e-16
  outer loop
    vertex 32191.40416174641 -9728.074941449802 13219.99931335452
    vertex 32916.27789589931 -10284.290120542419 12719.99963760378
    vertex 32191.4041617464 -9728.074941449802 12719.99963760378
  endloop
endfacet
facet normal 0.6087614290087222 0.7933533402912342 5.925014443369869e-16
  outer loop
    vertex 32916.27789589931 -10284.290120542419 12719.99963760378
    vertex 32191.40416174641 -9728.074941449802 13219.99931335452
    vertex 32916.27789589932 -10284.290120542419 13219.99931335452
  endloop
endfacet
facet normal 0.38268343236508945 0.9238795325112868 3.72461978692317e-16
  outer loop
    vertex 32916.27789589932 -10284.290120542419 13219.99931335452
    vertex 33760.41123804049 -10633.941599308622 12719.99963760378
    vertex 32916.27789589931 -10284.290120542419 12719.99963760378
  endloop
endfacet
facet normal 0.38268343236508945 0.9238795325112868 3.72461978692317e-16
  outer loop
    vertex 33760.41123804049 -10633.941599308622 12719.99963760378
    vertex 32916.27789589932 -10284.290120542419 13219.99931335452
    vertex 33760.4112380405 -10633.941599308622 13219.999313354521
  endloop
endfacet
facet normal -1.0 2.2376903438150057e-23 -1.8754053971727978e-16
  outer loop
    vertex 34666.27789589926 12026.514578683309 12719.999637603745
    vertex 34666.277895899235 10746.798792703132 7719.99931335452
    vertex 34666.277895899235 10746.798792703119 12719.999637603745
  endloop
endfacet
facet normal -1.0 2.2376903438150057e-23 -1.8754053971727978e-16
  outer loop
    vertex 34666.277895899235 -13253.201207296885 12719.999637603769
    vertex 34666.27789589926 -14532.915562765636 6039.999313354524
    vertex 34666.27789589926 -14532.915562765675 12719.999637603769
  endloop
endfacet
facet normal -1.0 2.2376903438150057e-23 -1.8754053971727978e-16
  outer loop
    vertex 34666.27789589926 -14532.915562765636 6039.999313354524
    vertex 34666.277895899235 -13253.201207296885 12719.999637603769
    vertex 34666.277895899235 -13253.201207296885 7719.999313354523
  endloop
endfacet
facet normal -1.0 2.2376903438150057e-23 -1.8754053971727978e-16
  outer loop
    vertex 34666.27789589926 -14532.915562765636 6039.999313354524
    vertex 34666.277895899235 -13253.201207296885 7719.999313354523
    vertex 34666.27789589926 12026.514578683355 6039.999313354524
  endloop
endfacet
facet normal -1.0 2.2376903438150057e-23 -1.8754053971727978e-16
  outer loop
    vertex 34666.27789589926 12026.514578683355 6039.999313354524
    vertex 34666.277895899235 -13253.201207296885 7719.999313354523
    vertex 34666.277895899235 10746.798792703132 7719.99931335452
  endloop
endfacet
facet normal -1.0 2.2376903438150057e-23 -1.8754053971727978e-16
  outer loop
    vertex 34666.27789589926 12026.514578683355 6039.999313354524
    vertex 34666.277895899235 10746.798792703132 7719.99931335452
    vertex 34666.27789589926 12026.514578683309 12719.999637603745
  endloop
endfacet
facet normal 2.475140450719545e-17 5.233314762985172e-17 -1.0
  outer loop
    vertex 50892.251782472136 16756.798792703128 6039.999313354529
    vertex -52197.747912352046 12026.514578683344 6039.999313354524
    vertex -52197.747912352046 16756.798792703128 6039.999313354526
  endloop
endfacet
facet normal 2.475140450719545e-17 5.233314762985172e-17 -1.0
  outer loop
    vertex -52197.747912352046 12026.514578683344 6039.999313354524
    vertex 50892.251782472136 16756.798792703128 6039.999313354529
    vertex 34666.27789589926 12026.514578683355 6039.999313354524
  endloop
endfacet
facet normal 2.475140450719545e-17 5.233314762985172e-17 -1.0
  outer loop
    vertex 34666.27789589926 12026.514578683355 6039.999313354524
    vertex 50892.251782472136 16756.798792703128 6039.999313354529
    vertex 34666.27789589926 -14532.915562765636 6039.999313354524
  endloop
endfacet
facet normal 2.475140450719545e-17 5.233314762985172e-17 -1.0
  outer loop
    vertex 34666.27789589926 -14532.915562765636 6039.999313354524
    vertex -52197.747912352046 -19263.20120729688 6039.999313354523
    vertex -52197.747912352046 -14532.915562765636 6039.999313354523
  endloop
endfacet
facet normal 2.475140450719545e-17 5.233314762985172e-17 -1.0
  outer loop
    vertex -52197.747912352046 -19263.20120729688 6039.999313354523
    vertex 34666.27789589926 -14532.915562765636 6039.999313354524
    vertex 50892.251782472136 -19263.20120729688 6039.999313354526
  endloop
endfacet
facet normal 2.475140450719545e-17 5.233314762985172e-17 -1.0
  outer loop
    vertex 50892.251782472136 -19263.20120729688 6039.999313354526
    vertex 34666.27789589926 -14532.915562765636 6039.999313354524
    vertex 50892.251782472136 16756.798792703128 6039.999313354529
  endloop
endfacet
facet normal -1.6802363508858447e-16 2.7201466485325495e-17 -1.0
  outer loop
    vertex -47891.26058096168 12026.514578683344 7839.999275207585
    vertex -52197.747912352046 -14532.915562765636 7839.999275207585
    vertex -52197.747912352046 12026.514578683344 7839.999275207585
  endloop
endfacet
facet normal -1.6802363508858447e-16 2.7201466485325495e-17 -1.0
  outer loop
    vertex -52197.747912352046 -14532.915562765636 7839.999275207585
    vertex -47891.26058096168 12026.514578683344 7839.999275207585
    vertex -47891.26058096168 -14532.915562765636 7839.999275207585
  endloop
endfacet
facet normal 4.73355646182031e-17 1.0 5.707770910078382e-15
  outer loop
    vertex -52197.747912352046 -14532.915562765636 7839.999275207585
    vertex 34666.27789589926 -14532.915562765636 6039.999313354524
    vertex -52197.747912352046 -14532.915562765636 6039.999313354523
  endloop
endfacet
facet normal 4.73355646182031e-17 1.0 5.707770910078382e-15
  outer loop
    vertex 34666.27789589926 -14532.915562765636 6039.999313354524
    vertex -52197.747912352046 -14532.915562765636 7839.999275207585
    vertex -47891.26058096168 -14532.915562765636 7839.999275207585
  endloop
endfacet
facet normal 4.73355646182031e-17 1.0 5.707770910078382e-15
  outer loop
    vertex 34666.27789589926 -14532.915562765636 6039.999313354524
    vertex -47891.26058096168 -14532.915562765636 7839.999275207585
    vertex 34666.27789589926 -14532.915562765675 12719.999637603769
  endloop
endfacet
facet normal 4.73355646182031e-17 1.0 5.707770910078382e-15
  outer loop
    vertex 34666.27789589926 -14532.915562765675 12719.999637603769
    vertex -47891.26058096168 -14532.915562765636 7839.999275207585
    vertex -47891.26058096168 -14532.915562765675 12719.999637603769
  endloop
endfacet
facet normal -3.3977215297847103e-18 -1.0 -5.646180438178846e-15
  outer loop
    vertex 34666.27789589926 12026.514578683309 12719.999637603745
    vertex -52197.747912352046 12026.514578683344 6039.999313354524
    vertex 34666.27789589926 12026.514578683355 6039.999313354524
  endloop
endfacet
facet normal -3.3977215297847103e-18 -1.0 -5.646180438178846e-15
  outer loop
    vertex -52197.747912352046 12026.514578683344 6039.999313354524
    vertex 34666.27789589926 12026.514578683309 12719.999637603745
    vertex -47891.26058096168 12026.514578683344 7839.999275207585
  endloop
endfacet
facet normal -3.3977215297847103e-18 -1.0 -5.646180438178846e-15
  outer loop
    vertex -47891.26058096168 12026.514578683344 7839.999275207585
    vertex 34666.27789589926 12026.514578683309 12719.999637603745
    vertex -47891.26058096168 12026.514578683309 12719.999637603745
  endloop
endfacet
facet normal -3.3977215297847103e-18 -1.0 -5.646180438178846e-15
  outer loop
    vertex -52197.747912352046 12026.514578683344 7839.999275207585
    vertex -52197.747912352046 12026.514578683344 6039.999313354524
    vertex -47891.26058096168 12026.514578683344 7839.999275207585
  endloop
endfacet
facet normal 0.707106781186546 0.0 0.7071067811865491
  outer loop
    vertex 52882.25178247216 -21253.20120729687 11219.999313354541
    vertex 50882.25178247215 16746.798792703124 13219.99931335454
    vertex 50882.25178247215 -19253.201207296865 13219.99931335454
  endloop
endfacet
facet normal 0.707106781186546 0.0 0.7071067811865491
  outer loop
    vertex 50882.25178247215 16746.798792703124 13219.99931335454
    vertex 52882.25178247216 -21253.20120729687 11219.999313354541
    vertex 52882.25178247216 18746.798792703124 11219.999313354541
  endloop
endfacet
facet normal -2.696818789017024e-17 1.0 -2.0137000275061503e-16
  outer loop
    vertex -54193.74790609347 18746.79879270312 -3119.9998855590593
    vertex 52882.25178247216 18746.798792703124 11219.999313354541
    vertex 52882.25178247216 18746.79879270312 -3119.9998855590825
  endloop
endfacet
facet normal -2.696818789017024e-17 1.0 -2.0137000275061503e-16
  outer loop
    vertex 52882.25178247216 18746.798792703124 11219.999313354541
    vertex -54193.74790609347 18746.79879270312 -3119.9998855590593
    vertex -54193.74790609347 18746.79879270312 11219.999313354529
  endloop
endfacet
facet normal -1.0590442915966807e-15 0.7071067811865218 0.7071067811865732
  outer loop
    vertex -52193.747906093464 16746.798792703124 13219.999313354236
    vertex 52882.25178247216 18746.798792703124 11219.999313354541
    vertex -54193.74790609347 18746.79879270312 11219.999313354529
  endloop
endfacet
facet normal -1.0590442915966807e-15 0.7071067811865218 0.7071067811865732
  outer loop
    vertex 52882.25178247216 18746.798792703124 11219.999313354541
    vertex -52193.747906093464 16746.798792703124 13219.999313354236
    vertex 50882.25178247215 16746.798792703124 13219.99931335454
  endloop
endfacet
facet normal -2.591361966257674e-15 1.0026547493503643e-15 1.0
  outer loop
    vertex -52193.74790609348 -19253.201207296865 13219.999313354308
    vertex -44407.74770254371 -9568.199834005858 13219.99931335449
    vertex -52193.747906093464 16746.798792703124 13219.999313354236
  endloop
endfacet
facet normal -2.591361966257674e-15 1.0026547493503643e-15 1.0
  outer loop
    vertex -44407.74770254371 -9568.199834005858 13219.99931335449
    vertex -52193.74790609348 -19253.201207296865 13219.999313354308
    vertex 50882.25178247215 -19253.201207296865 13219.99931335454
  endloop
endfacet
facet normal -2.591361966257674e-15 1.0026547493503643e-15 1.0
  outer loop
    vertex -44407.74770254371 -9568.199834005858 13219.99931335449
    vertex 50882.25178247215 -19253.201207296865 13219.99931335454
    vertex 20032.25330835106 -9568.199834005858 13219.99931335449
  endloop
endfacet
facet normal -2.591361966257674e-15 1.0026547493503643e-15 1.0
  outer loop
    vertex 20032.25330835106 -9568.199834005858 13219.99931335449
    vertex 50882.25178247215 -19253.201207296865 13219.99931335454
    vertex 32916.27789589932 -10284.290120542419 13219.99931335452
  endloop
endfacet
facet normal -2.591361966257674e-15 1.0026547493503643e-15 1.0
  outer loop
    vertex 20032.25330835106 -9568.199834005858 13219.99931335449
    vertex 32916.27789589932 -10284.290120542419 13219.99931335452
    vertex 32191.40416174641 -9728.074941449802 13219.99931335452
  endloop
endfacet
facet normal -2.591361966257674e-15 1.0026547493503643e-15 1.0
  outer loop
    vertex 20032.25330835106 -9568.199834005858 13219.99931335449
    vertex 32191.40416174641 -9728.074941449802 13219.99931335452
    vertex 31635.188982653784 -9003.201207296886 13219.99931335452
  endloop
endfacet
facet normal -2.591361966257674e-15 1.0026547493503643e-15 1.0
  outer loop
    vertex 20032.25330835106 -9568.199834005858 13219.99931335449
    vertex 31635.188982653784 -9003.201207296886 13219.99931335452
    vertex 20032.25330835106 7061.8002804350435 13219.99931335449
  endloop
endfacet
facet normal -2.591361966257674e-15 1.0026547493503643e-15 1.0
  outer loop
    vertex 20032.25330835106 7061.8002804350435 13219.99931335449
    vertex 31635.188982653784 -9003.201207296886 13219.99931335452
    vertex 31285.537503887583 -8159.06786515571 13219.99931335452
  endloop
endfacet
facet normal -2.591361966257674e-15 1.0026547493503643e-15 1.0
  outer loop
    vertex 20032.25330835106 7061.8002804350435 13219.99931335449
    vertex 31285.537503887583 -8159.06786515571 13219.99931335452
    vertex 31166.27789589933 -7253.201207296884 13219.99931335452
  endloop
endfacet
facet normal -2.591361966257674e-15 1.0026547493503643e-15 1.0
  outer loop
    vertex 32916.27789589932 -10284.290120542419 13219.99931335452
    vertex 50882.25178247215 -19253.201207296865 13219.99931335454
    vertex 33760.4112380405 -10633.941599308622 13219.999313354521
  endloop
endfacet
facet normal -2.591361966257674e-15 1.0026547493503643e-15 1.0
  outer loop
    vertex 33760.4112380405 -10633.941599308622 13219.999313354521
    vertex 50882.25178247215 -19253.201207296865 13219.99931335454
    vertex 34666.277895899315 -10753.201207296885 13219.999313354521
  endloop
endfacet
facet normal -2.591361966257674e-15 1.0026547493503643e-15 1.0
  outer loop
    vertex 34666.277895899315 -10753.201207296885 13219.999313354521
    vertex 50882.25178247215 -19253.201207296865 13219.99931335454
    vertex 35572.144553758146 -10633.941599308622 13219.999313354521
  endloop
endfacet
facet normal -2.591361966257674e-15 1.0026547493503643e-15 1.0
  outer loop
    vertex 35572.144553758146 -10633.941599308622 13219.999313354521
    vertex 50882.25178247215 -19253.201207296865 13219.99931335454
    vertex 36416.27789589932 -10284.290120542419 13219.999313354525
  endloop
endfacet
facet normal -2.591361966257674e-15 1.0026547493503643e-15 1.0
  outer loop
    vertex 36416.27789589932 -10284.290120542419 13219.999313354525
    vertex 50882.25178247215 -19253.201207296865 13219.99931335454
    vertex 37141.15163005225 -9728.0749414498 13219.999313354525
  endloop
endfacet
facet normal -2.591361966257674e-15 1.0026547493503643e-15 1.0
  outer loop
    vertex 37141.15163005225 -9728.0749414498 13219.999313354525
    vertex 50882.25178247215 -19253.201207296865 13219.99931335454
    vertex 37697.36680914486 -9003.201207296883 13219.999313354525
  endloop
endfacet
facet normal -2.591361966257674e-15 1.0026547493503643e-15 1.0
  outer loop
    vertex 37697.36680914486 -9003.201207296883 13219.999313354525
    vertex 50882.25178247215 -19253.201207296865 13219.99931335454
    vertex 38047.018287911065 -8159.067865155705 13219.999313354525
  endloop
endfacet
facet normal -2.591361966257674e-15 1.0026547493503643e-15 1.0
  outer loop
    vertex 38047.018287911065 -8159.067865155705 13219.999313354525
    vertex 50882.25178247215 -19253.201207296865 13219.99931335454
    vertex 38166.27789589933 -7253.201207296884 13219.999313354525
  endloop
endfacet
facet normal -2.591361966257674e-15 1.0026547493503643e-15 1.0
  outer loop
    vertex 38166.27789589933 -7253.201207296884 13219.999313354525
    vertex 50882.25178247215 -19253.201207296865 13219.99931335454
    vertex 38166.27789589933 4746.798792703119 13219.999313354525
  endloop
endfacet
facet normal -2.591361966257674e-15 1.0026547493503643e-15 1.0
  outer loop
    vertex -52193.747906093464 16746.798792703124 13219.999313354236
    vertex -44407.74770254371 7061.8002804350435 13219.99931335449
    vertex 50882.25178247215 16746.798792703124 13219.99931335454
  endloop
endfacet
facet normal -2.591361966257674e-15 1.0026547493503643e-15 1.0
  outer loop
    vertex -44407.74770254371 7061.8002804350435 13219.99931335449
    vertex -52193.747906093464 16746.798792703124 13219.999313354236
    vertex -44407.74770254371 -9568.199834005858 13219.99931335449
  endloop
endfacet
facet normal -2.591361966257674e-15 1.0026547493503643e-15 1.0
  outer loop
    vertex 50882.25178247215 16746.798792703124 13219.99931335454
    vertex -44407.74770254371 7061.8002804350435 13219.99931335449
    vertex 20032.25330835106 7061.8002804350435 13219.99931335449
  endloop
endfacet
facet normal -2.591361966257674e-15 1.0026547493503643e-15 1.0
  outer loop
    vertex 50882.25178247215 16746.798792703124 13219.99931335454
    vertex 20032.25330835106 7061.8002804350435 13219.99931335449
    vertex 32916.27789589932 7777.887705948653 13219.999313354521
  endloop
endfacet
facet normal -2.591361966257674e-15 1.0026547493503643e-15 1.0
  outer loop
    vertex 32916.27789589932 7777.887705948653 13219.999313354521
    vertex 20032.25330835106 7061.8002804350435 13219.99931335449
    vertex 32191.40416174641 7221.672526856034 13219.99931335452
  endloop
endfacet
facet normal -2.591361966257674e-15 1.0026547493503643e-15 1.0
  outer loop
    vertex 32191.40416174641 7221.672526856034 13219.99931335452
    vertex 20032.25330835106 7061.8002804350435 13219.99931335449
    vertex 31635.188982653784 6496.798792703116 13219.99931335452
  endloop
endfacet
facet normal -2.591361966257674e-15 1.0026547493503643e-15 1.0
  outer loop
    vertex 31635.188982653784 6496.798792703116 13219.99931335452
    vertex 20032.25330835106 7061.8002804350435 13219.99931335449
    vertex 31285.537503887583 5652.66545056194 13219.99931335452
  endloop
endfacet
facet normal -2.591361966257674e-15 1.0026547493503643e-15 1.0
  outer loop
    vertex 31285.537503887583 5652.66545056194 13219.99931335452
    vertex 20032.25330835106 7061.8002804350435 13219.99931335449
    vertex 31166.27789589933 4746.798792703115 13219.99931335452
  endloop
endfacet
facet normal -2.591361966257674e-15 1.0026547493503643e-15 1.0
  outer loop
    vertex 31166.27789589933 4746.798792703115 13219.99931335452
    vertex 20032.25330835106 7061.8002804350435 13219.99931335449
    vertex 31166.27789589933 -7253.201207296884 13219.99931335452
  endloop
endfacet
facet normal -2.591361966257674e-15 1.0026547493503643e-15 1.0
  outer loop
    vertex 50882.25178247215 16746.798792703124 13219.99931335454
    vertex 32916.27789589932 7777.887705948653 13219.999313354521
    vertex 33760.4112380405 8127.539184714858 13219.999313354521
  endloop
endfacet
facet normal -2.591361966257674e-15 1.0026547493503643e-15 1.0
  outer loop
    vertex 50882.25178247215 16746.798792703124 13219.99931335454
    vertex 33760.4112380405 8127.539184714858 13219.999313354521
    vertex 34666.277895899315 8246.798792703117 13219.999313354521
  endloop
endfacet
facet normal -2.591361966257674e-15 1.0026547493503643e-15 1.0
  outer loop
    vertex 50882.25178247215 16746.798792703124 13219.99931335454
    vertex 34666.277895899315 8246.798792703117 13219.999313354521
    vertex 35572.144553758146 8127.539184714858 13219.999313354521
  endloop
endfacet
facet normal -2.591361966257674e-15 1.0026547493503643e-15 1.0
  outer loop
    vertex 50882.25178247215 16746.798792703124 13219.99931335454
    vertex 35572.144553758146 8127.539184714858 13219.999313354521
    vertex 36416.27789589932 7777.887705948653 13219.999313354525
  endloop
endfacet
facet normal -2.591361966257674e-15 1.0026547493503643e-15 1.0
  outer loop
    vertex 50882.25178247215 16746.798792703124 13219.99931335454
    vertex 36416.27789589932 7777.887705948653 13219.999313354525
    vertex 37141.15163005225 7221.672526856034 13219.999313354525
  endloop
endfacet
facet normal -2.591361966257674e-15 1.0026547493503643e-15 1.0
  outer loop
    vertex 50882.25178247215 16746.798792703124 13219.99931335454
    vertex 37141.15163005225 7221.672526856034 13219.999313354525
    vertex 37697.36680914486 6496.798792703116 13219.999313354525
  endloop
endfacet
facet normal -2.591361966257674e-15 1.0026547493503643e-15 1.0
  outer loop
    vertex 50882.25178247215 16746.798792703124 13219.99931335454
    vertex 37697.36680914486 6496.798792703116 13219.999313354525
    vertex 38047.018287911065 5652.66545056194 13219.999313354525
  endloop
endfacet
facet normal -2.591361966257674e-15 1.0026547493503643e-15 1.0
  outer loop
    vertex 50882.25178247215 16746.798792703124 13219.99931335454
    vertex 38047.018287911065 5652.66545056194 13219.999313354525
    vertex 38166.27789589933 4746.798792703119 13219.999313354525
  endloop
endfacet
facet normal -2.591361966257674e-15 1.0026547493503643e-15 1.0
  outer loop
    vertex 50882.25178247215 16746.798792703124 13219.99931335454
    vertex 38166.27789589933 4746.798792703119 13219.999313354525
    vertex 50882.25178247215 -19253.201207296865 13219.99931335454
  endloop
endfacet
facet normal -2.591361966257674e-15 1.0026547493503643e-15 1.0
  outer loop
    vertex 31285.537503887583 -6347.334549438063 13219.99931335452
    vertex 31166.27789589933 4746.798792703115 13219.99931335452
    vertex 31166.27789589933 -7253.201207296884 13219.99931335452
  endloop
endfacet
facet normal -2.591361966257674e-15 1.0026547493503643e-15 1.0
  outer loop
    vertex 31166.27789589933 4746.798792703115 13219.99931335452
    vertex 31285.537503887583 -6347.334549438063 13219.99931335452
    vertex 31285.537503887583 3840.9321348442922 13219.99931335452
  endloop
endfacet
facet normal -2.591361966257674e-15 1.0026547493503643e-15 1.0
  outer loop
    vertex 31285.537503887583 3840.9321348442922 13219.99931335452
    vertex 31285.537503887583 -6347.334549438063 13219.99931335452
    vertex 31635.188982653784 -5503.201207296886 13219.99931335452
  endloop
endfacet
facet normal -2.591361966257674e-15 1.0026547493503643e-15 1.0
  outer loop
    vertex 31285.537503887583 3840.9321348442922 13219.99931335452
    vertex 31635.188982653784 -5503.201207296886 13219.99931335452
    vertex 31635.188982653784 2996.7987927031154 13219.99931335452
  endloop
endfacet
facet normal -2.591361966257674e-15 1.0026547493503643e-15 1.0
  outer loop
    vertex 31635.188982653784 2996.7987927031154 13219.99931335452
    vertex 31635.188982653784 -5503.201207296886 13219.99931335452
    vertex 32191.40416174641 -4778.327473143969 13219.99931335452
  endloop
endfacet
facet normal -2.591361966257674e-15 1.0026547493503643e-15 1.0
  outer loop
    vertex 31635.188982653784 2996.7987927031154 13219.99931335452
    vertex 32191.40416174641 -4778.327473143969 13219.99931335452
    vertex 32191.40416174641 2271.9250585502004 13219.99931335452
  endloop
endfacet
facet normal -2.591361966257674e-15 1.0026547493503643e-15 1.0
  outer loop
    vertex 32191.40416174641 2271.9250585502004 13219.99931335452
    vertex 32191.40416174641 -4778.327473143969 13219.99931335452
    vertex 32916.27789589932 -4222.11229405135 13219.99931335452
  endloop
endfacet
facet normal -2.591361966257674e-15 1.0026547493503643e-15 1.0
  outer loop
    vertex 32191.40416174641 2271.9250585502004 13219.99931335452
    vertex 32916.27789589932 -4222.11229405135 13219.99931335452
    vertex 32916.27789589932 1715.7098794575788 13219.99931335452
  endloop
endfacet
facet normal -2.591361966257674e-15 1.0026547493503643e-15 1.0
  outer loop
    vertex 32916.27789589932 1715.7098794575788 13219.99931335452
    vertex 32916.27789589932 -4222.11229405135 13219.99931335452
    vertex 33760.4112380405 -3872.460815285145 13219.999313354521
  endloop
endfacet
facet normal -2.591361966257674e-15 1.0026547493503643e-15 1.0
  outer loop
    vertex 32916.27789589932 1715.7098794575788 13219.99931335452
    vertex 33760.4112380405 -3872.460815285145 13219.999313354521
    vertex 33760.4112380405 1366.058400691377 13219.999313354521
  endloop
endfacet
facet normal -2.591361966257674e-15 1.0026547493503643e-15 1.0
  outer loop
    vertex 33760.4112380405 1366.058400691377 13219.999313354521
    vertex 33760.4112380405 -3872.460815285145 13219.999313354521
    vertex 34666.277895899315 -3753.201207296883 13219.999313354521
  endloop
endfacet
facet normal -2.591361966257674e-15 1.0026547493503643e-15 1.0
  outer loop
    vertex 33760.4112380405 1366.058400691377 13219.999313354521
    vertex 34666.277895899315 -3753.201207296883 13219.999313354521
    vertex 34666.277895899315 1246.7987927031147 13219.999313354521
  endloop
endfacet
facet normal -2.591361966257674e-15 1.0026547493503643e-15 1.0
  outer loop
    vertex 34666.277895899315 1246.7987927031147 13219.999313354521
    vertex 34666.277895899315 -3753.201207296883 13219.999313354521
    vertex 35572.144553758146 -3872.460815285145 13219.999313354521
  endloop
endfacet
facet normal -2.591361966257674e-15 1.0026547493503643e-15 1.0
  outer loop
    vertex 34666.277895899315 1246.7987927031147 13219.999313354521
    vertex 35572.144553758146 -3872.460815285145 13219.999313354521
    vertex 35572.144553758146 1366.058400691377 13219.999313354521
  endloop
endfacet
facet normal -2.591361966257674e-15 1.0026547493503643e-15 1.0
  outer loop
    vertex 35572.144553758146 1366.058400691377 13219.999313354521
    vertex 35572.144553758146 -3872.460815285145 13219.999313354521
    vertex 36416.27789589932 -4222.11229405135 13219.999313354525
  endloop
endfacet
facet normal -2.591361966257674e-15 1.0026547493503643e-15 1.0
  outer loop
    vertex 35572.144553758146 1366.058400691377 13219.999313354521
    vertex 36416.27789589932 -4222.11229405135 13219.999313354525
    vertex 36416.27789589932 1715.7098794575816 13219.999313354521
  endloop
endfacet
facet normal -2.591361966257674e-15 1.0026547493503643e-15 1.0
  outer loop
    vertex 36416.27789589932 1715.7098794575816 13219.999313354521
    vertex 36416.27789589932 -4222.11229405135 13219.999313354525
    vertex 37141.15163005225 -4778.327473143969 13219.999313354525
  endloop
endfacet
facet normal -2.591361966257674e-15 1.0026547493503643e-15 1.0
  outer loop
    vertex 36416.27789589932 1715.7098794575816 13219.999313354521
    vertex 37141.15163005225 -4778.327473143969 13219.999313354525
    vertex 37141.15163005225 2271.9250585502004 13219.999313354525
  endloop
endfacet
facet normal -2.591361966257674e-15 1.0026547493503643e-15 1.0
  outer loop
    vertex 37141.15163005225 2271.9250585502004 13219.999313354525
    vertex 37141.15163005225 -4778.327473143969 13219.999313354525
    vertex 37697.36680914486 -5503.201207296884 13219.999313354525
  endloop
endfacet
facet normal -2.591361966257674e-15 1.0026547493503643e-15 1.0
  outer loop
    vertex 37141.15163005225 2271.9250585502004 13219.999313354525
    vertex 37697.36680914486 -5503.201207296884 13219.999313354525
    vertex 37697.36680914486 2996.798792703118 13219.999313354525
  endloop
endfacet
facet normal -2.591361966257674e-15 1.0026547493503643e-15 1.0
  outer loop
    vertex 37697.36680914486 2996.798792703118 13219.999313354525
    vertex 37697.36680914486 -5503.201207296884 13219.999313354525
    vertex 38047.018287911065 -6347.33454943806 13219.999313354525
  endloop
endfacet
facet normal -2.591361966257674e-15 1.0026547493503643e-15 1.0
  outer loop
    vertex 37697.36680914486 2996.798792703118 13219.999313354525
    vertex 38047.018287911065 -6347.33454943806 13219.999313354525
    vertex 38047.018287911065 3840.932134844295 13219.999313354525
  endloop
endfacet
facet normal -2.591361966257674e-15 1.0026547493503643e-15 1.0
  outer loop
    vertex 38047.018287911065 3840.932134844295 13219.999313354525
    vertex 38047.018287911065 -6347.33454943806 13219.999313354525
    vertex 38166.27789589933 -7253.201207296884 13219.999313354525
  endloop
endfacet
facet normal -2.591361966257674e-15 1.0026547493503643e-15 1.0
  outer loop
    vertex 38047.018287911065 3840.932134844295 13219.999313354525
    vertex 38166.27789589933 -7253.201207296884 13219.999313354525
    vertex 38166.27789589933 4746.798792703119 13219.999313354525
  endloop
endfacet
facet normal -0.7071067811865008 8.493021945805707e-16 0.7071067811865942
  outer loop
    vertex -52193.74790609348 -19253.201207296865 13219.999313354308
    vertex -54193.74790609347 18746.79879270312 11219.999313354529
    vertex -54193.74790609347 -21253.20120729688 11219.999313354541
  endloop
endfacet
facet normal -0.7071067811865008 8.493021945805707e-16 0.7071067811865942
  outer loop
    vertex -54193.74790609347 18746.79879270312 11219.999313354529
    vertex -52193.74790609348 -19253.201207296865 13219.999313354308
    vertex -52193.747906093464 16746.798792703124 13219.999313354236
  endloop
endfacet
facet normal 5.393637578034046e-17 -1.0 4.0274000550122917e-16
  outer loop
    vertex 52882.25178247216 -21253.20120729687 11219.999313354541
    vertex -54193.74790609347 -21253.20120729688 -3119.9998855590825
    vertex 52882.25178247216 -21253.20120729688 -3119.9998855590825
  endloop
endfacet
facet normal 5.393637578034046e-17 -1.0 4.0274000550122917e-16
  outer loop
    vertex -54193.74790609347 -21253.20120729688 -3119.9998855590825
    vertex 52882.25178247216 -21253.20120729687 11219.999313354541
    vertex -54193.74790609347 -21253.20120729688 11219.999313354541
  endloop
endfacet
facet normal -7.32675931587033e-16 -0.7071067811865254 0.7071067811865698
  outer loop
    vertex 52882.25178247216 -21253.20120729687 11219.999313354541
    vertex -52193.74790609348 -19253.201207296865 13219.999313354308
    vertex -54193.74790609347 -21253.20120729688 11219.999313354541
  endloop
endfacet
facet normal -7.32675931587033e-16 -0.7071067811865254 0.7071067811865698
  outer loop
    vertex -52193.74790609348 -19253.201207296865 13219.999313354308
    vertex 52882.25178247216 -21253.20120729687 11219.999313354541
    vertex 50882.25178247215 -19253.201207296865 13219.99931335454
  endloop
endfacet
endsolid lcdenc2
